<svg width="42" height="42" viewBox="0 0 42 42" fill="none" xmlns="http://www.w3.org/2000/svg">
<g filter="url(#filter0_d_2224_26845)">
<rect x="4" width="34" height="34" rx="8" fill="white" fill-opacity="0.05" shape-rendering="crispEdges"/>
<path d="M31 17C31 11.48 26.52 7 21 7C15.48 7 11 11.48 11 17C11 22.52 15.48 27 21 27" stroke="white" stroke-width="1.8" stroke-linecap="round" stroke-linejoin="round"/>
<path d="M24.71 20.18L21.61 18.33C21.07 18.01 20.63 17.24 20.63 16.61V12.51" stroke="white" stroke-width="1.8" stroke-linecap="round" stroke-linejoin="round"/>
<path d="M27.3708 19.9292L25.2916 20.7125C24.8124 20.8917 24.4208 21.4583 24.4208 21.9667V25.0625C24.4208 25.5541 24.7458 26.2 25.1416 26.4958L26.9333 27.8333C27.5208 28.275 28.4874 28.275 29.0749 27.8333L30.8666 26.4958C31.2624 26.2 31.5874 25.5541 31.5874 25.0625V21.9667C31.5874 21.4542 31.1958 20.8875 30.7166 20.7083L28.6374 19.9292C28.2833 19.8 27.7166 19.8 27.3708 19.9292Z" stroke="#33C4AC" stroke-width="1.8" stroke-linecap="round" stroke-linejoin="round"/>
</g>
<defs>
<filter id="filter0_d_2224_26845" x="0" y="0" width="42" height="42" filterUnits="userSpaceOnUse" color-interpolation-filters="sRGB">
<feFlood flood-opacity="0" result="BackgroundImageFix"/>
<feColorMatrix in="SourceAlpha" type="matrix" values="0 0 0 0 0 0 0 0 0 0 0 0 0 0 0 0 0 0 127 0" result="hardAlpha"/>
<feOffset dy="4"/>
<feGaussianBlur stdDeviation="2"/>
<feComposite in2="hardAlpha" operator="out"/>
<feColorMatrix type="matrix" values="0 0 0 0 0 0 0 0 0 0 0 0 0 0 0 0 0 0 0.25 0"/>
<feBlend mode="normal" in2="BackgroundImageFix" result="effect1_dropShadow_2224_26845"/>
<feBlend mode="normal" in="SourceGraphic" in2="effect1_dropShadow_2224_26845" result="shape"/>
</filter>
</defs>
</svg>
