<svg width="34" height="34" viewBox="0 0 34 34" fill="none" xmlns="http://www.w3.org/2000/svg">
<rect width="34" height="34" rx="8" fill="white" fill-opacity="0.05"/>
<path d="M26.6698 19.3L26.2698 24.3C26.1198 25.83 25.9998 27 23.2898 27H10.7098C7.99977 27 7.87977 25.83 7.72977 24.3L7.32977 19.3C7.24977 18.47 7.50977 17.7 7.97977 17.11C7.98977 17.1 7.98977 17.1 7.99977 17.09C8.54977 16.42 9.37977 16 10.3098 16H23.6898C24.6198 16 25.4398 16.42 25.9798 17.07C25.9898 17.08 25.9998 17.09 25.9998 17.1C26.4898 17.69 26.7598 18.46 26.6698 19.3Z" stroke="#33C4AC" stroke-width="1.8" stroke-miterlimit="10"/>
<path d="M8.5 16.43V11.28C8.5 7.88003 9.35 7.03003 12.75 7.03003H14.02C15.29 7.03003 15.58 7.41003 16.06 8.05003L17.33 9.75003C17.65 10.17 17.84 10.43 18.69 10.43H21.24C24.64 10.43 25.49 11.28 25.49 14.68V16.47" stroke="white" stroke-width="1.8" stroke-miterlimit="10" stroke-linecap="round" stroke-linejoin="round"/>
</svg>
