<svg width="34" height="34" viewBox="0 0 34 34" fill="none" xmlns="http://www.w3.org/2000/svg">
<rect width="34" height="34" rx="8" fill="white" fill-opacity="0.05"/>
<path d="M14 27H12C8 27 7 26 7 22V12C7 8 8 7 12 7H13.5C15 7 15.33 7.44001 15.9 8.20001L17.4 10.2C17.78 10.7 18 11 19 11H22C26 11 27 12 27 16V18" stroke="white" stroke-width="1.8" stroke-miterlimit="10" stroke-linecap="round" stroke-linejoin="round"/>
<path d="M27.1667 23.9999C27.1667 26.2999 25.3 28.1666 23 28.1666C20.7 28.1666 18.8334 26.2999 18.8334 23.9999C18.8334 21.6999 20.7 19.8333 23 19.8333C25.3 19.8333 27.1667 21.6999 27.1667 23.9999Z" stroke="#33C4AC" stroke-width="1.5" stroke-linecap="round" stroke-linejoin="round"/>
<path d="M24.5458 25.325L23.2542 24.5542C23.0292 24.4208 22.8458 24.1 22.8458 23.8375V22.1292" stroke="#33C4AC" stroke-width="1.5" stroke-linecap="round" stroke-linejoin="round"/>
</svg>
