<svg width="42" height="42" viewBox="0 0 42 42" fill="none" xmlns="http://www.w3.org/2000/svg">
<g filter="url(#filter0_d_2224_26789)">
<rect x="4" width="34" height="34" rx="8" fill="white" fill-opacity="0.05" shape-rendering="crispEdges"/>
<path d="M17.5669 25.9242L17.5667 25.924C17.0017 25.5813 16.6737 25.3854 16.2192 25.3303H13.4551C13.1108 25.3303 12.8301 25.0496 12.8301 24.7053V20.6778C12.8301 20.3326 13.1069 20.059 13.4468 20.0528L13.4489 20.0528L13.4489 20.0528L17.7614 20.0116L17.762 20.0115C18.7515 20.0042 19.6867 19.8828 20.5461 19.6561C21.0898 19.5119 21.5938 19.3489 22.0441 19.2025L22.0496 19.2007C22.6108 19.018 23.1025 18.8579 23.5202 18.7882C23.9422 18.7179 24.3351 18.7312 24.6731 18.9436C25.0038 19.151 25.1824 19.4944 25.238 19.9177C25.3344 20.645 25.069 21.1524 24.6468 21.5171C24.2497 21.8602 23.7124 22.0776 23.2535 22.2634L23.2351 22.2708L23.235 22.2708C22.8602 22.4223 22.4947 22.5721 22.1863 22.7648L22.1847 22.7658L22.1847 22.7658C22.046 22.851 21.9427 22.9395 21.8761 23.0185C21.8072 23.1003 21.7946 23.1513 21.7937 23.166C21.7936 23.1695 21.7943 23.1771 21.8026 23.1915C21.8127 23.209 21.8341 23.2362 21.8771 23.2703C23.1485 24.2392 24.9068 24.3025 28.5672 23.3312L28.5673 23.3311C29.1845 23.1676 29.8737 23.1018 30.4667 23.2454C31.0717 23.3919 31.5879 23.7624 31.7888 24.459L17.5669 25.9242ZM17.5669 25.9242C18.268 26.3486 19.2379 26.9325 21.0244 27.5369M17.5669 25.9242L17.6963 25.7103C18.3901 26.1303 19.3426 26.704 21.1051 27.3003M21.1051 27.3003L21.0239 27.5367C21.024 27.5368 21.0242 27.5369 21.0244 27.5369M21.1051 27.3003C21.5963 27.469 22.2263 27.5365 22.9276 27.5365C25.7226 27.5365 29.6174 26.4535 30.2131 26.2879C30.2464 26.2786 30.2694 26.2722 30.2813 26.269L21.1051 27.3003ZM21.0244 27.5369C21.5535 27.7186 22.215 27.7865 22.9276 27.7865C25.7639 27.7865 29.6994 26.6905 30.2811 26.5285C30.3129 26.5196 30.3348 26.5135 30.3457 26.5106L30.3458 26.5108L30.3564 26.5075C31.052 26.2885 31.4588 25.921 31.6658 25.521C31.869 25.1285 31.8673 24.7285 31.7891 24.4599L21.0244 27.5369ZM14.0763 24.0803H16.2526C16.2534 24.0803 16.2542 24.0803 16.2552 24.0803C16.2688 24.0803 16.2974 24.0802 16.333 24.0868C17.0788 24.1695 17.5966 24.4828 18.1852 24.8389L18.2119 24.8551L18.212 24.8551L18.2151 24.857C18.8716 25.2539 19.765 25.794 21.4215 26.3547C21.9619 26.5371 22.7564 26.5755 23.6721 26.5166C24.5806 26.4582 25.5797 26.3063 26.513 26.128C27.4455 25.9499 28.3075 25.7464 28.9407 25.5861C29.2572 25.506 29.5161 25.4368 29.6977 25.3871C29.7885 25.3623 29.86 25.3423 29.9096 25.3283L29.9672 25.3119L29.9831 25.3073L29.9876 25.306C30.3689 25.1858 30.5003 25.0358 30.5472 24.9494C30.5911 24.8684 30.5825 24.8032 30.5795 24.7877C30.5035 24.5371 30.2453 24.4185 29.8307 24.4082C29.4343 24.3983 29.0236 24.4966 28.8838 24.5342L28.8832 24.5344C24.9621 25.5785 22.8065 25.5479 21.1148 24.2592C20.7334 23.9696 20.5169 23.561 20.5404 23.1065L14.0763 24.0803ZM14.0763 24.0803V21.2929L17.77 21.2578L17.7702 21.2578C18.8612 21.2463 19.9019 21.1128 20.8649 20.8596L20.865 20.8596C21.4427 20.7075 21.9701 20.5367 22.4278 20.3866M14.0763 24.0803L22.4277 20.3867C22.4278 20.3867 22.4278 20.3867 22.4278 20.3866M22.4278 20.3866C22.8147 20.2602 23.1945 20.1371 23.5053 20.0626C23.6609 20.0253 23.7896 20.0026 23.8874 19.9961C23.9313 19.9932 23.9614 19.9942 23.9808 19.996C23.9871 20.0183 23.9922 20.0457 23.9956 20.0738L23.9956 20.0738L23.9959 20.0763C24.0128 20.2057 24.0017 20.2962 23.9754 20.3663C23.9494 20.4357 23.9014 20.5046 23.813 20.5795C23.6232 20.7405 23.2959 20.8926 22.7621 21.11L22.7612 21.1103C22.7476 21.1159 22.7339 21.1216 22.7202 21.1272C22.3343 21.2858 21.9142 21.4584 21.525 21.6988L21.5242 21.6993M22.4278 20.3866L21.5242 21.6993M21.5242 21.6993C20.9498 22.0568 20.5687 22.5473 20.5404 23.1062L21.5242 21.6993Z" fill="#33C4AC" stroke="#33C4AC" stroke-width="0.5"/>
<path d="M11.1599 26.0427H12.7949C13.5024 26.0427 14.0762 25.4701 14.0762 24.7652V20.6177C14.0762 19.9096 13.503 19.3364 12.7949 19.3364H11.1599C10.4518 19.3364 9.87866 19.9096 9.87866 20.6177V24.7614C9.87866 25.4695 10.4518 26.0427 11.1599 26.0427ZM11.1287 20.6177C11.1287 20.6111 11.1313 20.6033 11.1384 20.5962C11.1456 20.589 11.1534 20.5864 11.1599 20.5864H12.7949C12.8014 20.5864 12.8093 20.589 12.8164 20.5962C12.8236 20.6033 12.8262 20.6111 12.8262 20.6177V24.7652C12.8262 24.7717 12.8236 24.7795 12.8164 24.7867C12.8093 24.7938 12.8014 24.7964 12.7949 24.7964H11.1599C11.1534 24.7964 11.1456 24.7938 11.1384 24.7867C11.1313 24.7795 11.1287 24.7717 11.1287 24.7652V20.6177Z" fill="#33C4AC" stroke="#33C4AC" stroke-width="0.5"/>
<path d="M28.9073 20.3364L28.8979 20.3574L28.8924 20.3799L29.1355 20.4385C28.8924 20.3799 28.8924 20.38 28.8924 20.3801L28.8923 20.3803L28.8922 20.3808L28.892 20.3819L28.8913 20.3848L28.8895 20.393C28.8881 20.3996 28.8864 20.4083 28.8845 20.4189C28.8807 20.4399 28.8764 20.4688 28.8732 20.5031C28.867 20.5697 28.8643 20.6665 28.8853 20.7692C28.9063 20.8721 28.9545 20.9973 29.0635 21.0968C29.1761 21.1997 29.3258 21.25 29.5 21.25C29.8371 21.25 30.0449 21.098 30.153 20.914C30.2023 20.8302 30.2259 20.7485 30.2375 20.6892C30.2416 20.6685 30.2443 20.6499 30.2461 20.6339C30.7225 19.484 30.9719 18.2407 30.9719 16.9594C30.9719 11.6631 26.6593 7.35059 21.3588 7.35059C16.0582 7.35059 11.75 11.6632 11.75 16.9594C11.75 17.933 11.894 18.8939 12.178 19.8158C12.2874 20.1771 12.6678 20.3698 13.0213 20.2631C13.3831 20.1539 13.5761 19.7732 13.4693 19.4195L13.4689 19.4183C13.2252 18.625 13.1012 17.7986 13.1012 16.9637C13.1012 12.4117 16.8069 8.70603 21.3588 8.70603C25.9152 8.70603 29.6208 12.4118 29.6208 16.9637C29.6208 18.1479 29.375 19.2909 28.9073 20.3364Z" fill="white" stroke="white" stroke-width="0.5"/>
<path d="M21.3587 17.6804H25.2836C25.6559 17.6804 25.9489 17.3803 25.9489 17.0152C25.9489 16.6489 25.6499 16.35 25.2836 16.35H22.024V13.4752C22.024 13.1089 21.725 12.8099 21.3587 12.8099C20.9924 12.8099 20.6935 13.1089 20.6935 13.4752V17.0152C20.6935 17.3815 20.9924 17.6804 21.3587 17.6804Z" fill="white" stroke="white" stroke-width="0.380137"/>
</g>
<defs>
<filter id="filter0_d_2224_26789" x="0" y="0" width="42" height="42" filterUnits="userSpaceOnUse" color-interpolation-filters="sRGB">
<feFlood flood-opacity="0" result="BackgroundImageFix"/>
<feColorMatrix in="SourceAlpha" type="matrix" values="0 0 0 0 0 0 0 0 0 0 0 0 0 0 0 0 0 0 127 0" result="hardAlpha"/>
<feOffset dy="4"/>
<feGaussianBlur stdDeviation="2"/>
<feComposite in2="hardAlpha" operator="out"/>
<feColorMatrix type="matrix" values="0 0 0 0 0 0 0 0 0 0 0 0 0 0 0 0 0 0 0.25 0"/>
<feBlend mode="normal" in2="BackgroundImageFix" result="effect1_dropShadow_2224_26789"/>
<feBlend mode="normal" in="SourceGraphic" in2="effect1_dropShadow_2224_26789" result="shape"/>
</filter>
</defs>
</svg>
