<svg width="677" height="366" viewBox="0 0 677 366" fill="none" xmlns="http://www.w3.org/2000/svg">
<rect x="0.75" y="0.75" width="675.5" height="364.5" rx="45.9488" fill="white"/>
<rect x="0.75" y="0.75" width="675.5" height="364.5" rx="45.9488" stroke="#DDDDDD" stroke-width="1.5"/>
<g opacity="0.25" filter="url(#filter0_bf_514_11088)">
<rect width="75.0685" height="72.5542" rx="8.78853" transform="matrix(0.985853 0.167615 -0.19185 0.981424 299.875 104.686)" fill="#45EFD2"/>
</g>
<path fill-rule="evenodd" clip-rule="evenodd" d="M336.534 160.105C334.775 157.901 331.425 157.901 329.666 160.105L306.256 189.427C303.959 192.304 306.008 196.562 309.691 196.562H356.509C356.521 196.562 356.532 196.562 356.544 196.562H378.93C382.613 196.562 384.662 192.304 382.365 189.426L369.802 173.691C368.043 171.488 364.693 171.488 362.934 173.691L355.157 183.432L336.534 160.105Z" fill="#45EFD2"/>
<ellipse cx="365.977" cy="155.804" rx="7.04513" ry="6.79315" fill="#45EFD2"/>
<path d="M284.918 240.81L284.918 253.149H281.913L281.913 240.81H284.918ZM293.073 243.235C294.221 243.235 295.135 243.61 295.815 244.36C296.506 245.098 296.852 246.118 296.852 247.419L296.852 253.149H293.864L293.864 247.823C293.864 247.167 293.694 246.657 293.354 246.294C293.014 245.93 292.557 245.749 291.983 245.749C291.409 245.749 290.952 245.93 290.612 246.294C290.272 246.657 290.102 247.167 290.102 247.823L290.102 253.149H287.097L287.097 243.341H290.102L290.102 244.641C290.407 244.208 290.817 243.868 291.333 243.622C291.848 243.364 292.428 243.235 293.073 243.235ZM303.862 245.837H302.245L302.245 253.149H299.239L299.239 245.837H298.15L298.15 243.341H299.239L299.239 243.06C299.239 241.853 299.585 240.939 300.276 240.317C300.968 239.685 301.981 239.368 303.317 239.368C303.54 239.368 303.704 239.374 303.809 239.386L303.809 241.935C303.235 241.899 302.831 241.981 302.597 242.181C302.362 242.38 302.245 242.737 302.245 243.253V243.341H303.862L303.862 245.837ZM309.739 253.289C308.778 253.289 307.911 253.084 307.138 252.674C306.376 252.264 305.772 251.678 305.327 250.916C304.894 250.155 304.677 249.264 304.677 248.245C304.677 247.237 304.899 246.352 305.345 245.591C305.79 244.817 306.399 244.225 307.173 243.815C307.946 243.405 308.813 243.2 309.774 243.2C310.735 243.2 311.602 243.405 312.376 243.815C313.149 244.225 313.758 244.817 314.204 245.591C314.649 246.352 314.872 247.237 314.872 248.245C314.872 249.252 314.643 250.143 314.186 250.916C313.741 251.678 313.126 252.264 312.34 252.674C311.567 253.084 310.7 253.289 309.739 253.289ZM309.739 250.688C310.313 250.688 310.8 250.477 311.198 250.055C311.608 249.633 311.813 249.03 311.813 248.245C311.813 247.46 311.614 246.856 311.216 246.434C310.829 246.012 310.348 245.802 309.774 245.802C309.188 245.802 308.702 246.012 308.315 246.434C307.929 246.844 307.735 247.448 307.735 248.245C307.735 249.03 307.923 249.633 308.298 250.055C308.684 250.477 309.165 250.688 309.739 250.688ZM324.024 245.731L324.024 248.227H316.29L316.29 245.731H324.024ZM330.389 243.2C331.08 243.2 331.683 243.341 332.199 243.622C332.726 243.903 333.131 244.272 333.412 244.729L333.412 243.341H336.417L336.417 253.131C336.417 254.033 336.236 254.848 335.873 255.574C335.521 256.313 334.976 256.899 334.238 257.332C333.511 257.766 332.603 257.982 331.513 257.982C330.06 257.982 328.883 257.637 327.98 256.945C327.078 256.266 326.563 255.34 326.434 254.168H329.404C329.498 254.543 329.721 254.836 330.072 255.047C330.424 255.27 330.857 255.381 331.373 255.381C331.994 255.381 332.486 255.199 332.849 254.836C333.224 254.485 333.412 253.916 333.412 253.131L333.412 251.743C333.119 252.2 332.715 252.575 332.199 252.868C331.683 253.149 331.08 253.289 330.389 253.289C329.58 253.289 328.848 253.084 328.191 252.674C327.535 252.252 327.014 251.661 326.627 250.899C326.252 250.125 326.065 249.235 326.065 248.227C326.065 247.219 326.252 246.335 326.627 245.573C327.014 244.811 327.535 244.225 328.191 243.815C328.848 243.405 329.58 243.2 330.389 243.2ZM333.412 248.245C333.412 247.495 333.201 246.903 332.779 246.469C332.369 246.036 331.865 245.819 331.267 245.819C330.67 245.819 330.16 246.036 329.738 246.469C329.328 246.891 329.123 247.477 329.123 248.227C329.123 248.977 329.328 249.575 329.738 250.02C330.16 250.454 330.67 250.67 331.267 250.67C331.865 250.67 332.369 250.454 332.779 250.02C333.201 249.586 333.412 248.995 333.412 248.245ZM341.598 244.975C341.949 244.436 342.389 244.015 342.916 243.71C343.443 243.393 344.029 243.235 344.674 243.235L344.674 246.417H343.847C343.097 246.417 342.535 246.581 342.16 246.909C341.785 247.225 341.598 247.788 341.598 248.596L341.598 253.149H338.592L338.592 243.341H341.598L341.598 244.975ZM345.513 248.227C345.513 247.219 345.7 246.335 346.075 245.573C346.462 244.811 346.983 244.225 347.639 243.815C348.296 243.405 349.028 243.2 349.837 243.2C350.528 243.2 351.131 243.341 351.647 243.622C352.174 243.903 352.579 244.272 352.86 244.729L352.86 243.341H355.865L355.865 253.149H352.86L352.86 251.76C352.567 252.217 352.157 252.586 351.629 252.868C351.114 253.149 350.51 253.289 349.819 253.289C349.022 253.289 348.296 253.084 347.639 252.674C346.983 252.252 346.462 251.661 346.075 250.899C345.7 250.125 345.513 249.235 345.513 248.227ZM352.86 248.245C352.86 247.495 352.649 246.903 352.227 246.469C351.817 246.036 351.313 245.819 350.715 245.819C350.118 245.819 349.608 246.036 349.186 246.469C348.776 246.891 348.571 247.477 348.571 248.227C348.571 248.977 348.776 249.575 349.186 250.02C349.608 250.454 350.118 250.67 350.715 250.67C351.313 250.67 351.817 250.454 352.227 250.02C352.649 249.586 352.86 248.995 352.86 248.245ZM361.046 244.729C361.339 244.272 361.743 243.903 362.258 243.622C362.774 243.341 363.378 243.2 364.069 243.2C364.877 243.2 365.61 243.405 366.266 243.815C366.922 244.225 367.438 244.811 367.813 245.573C368.2 246.335 368.393 247.219 368.393 248.227C368.393 249.235 368.2 250.125 367.813 250.899C367.438 251.661 366.922 252.252 366.266 252.674C365.61 253.084 364.877 253.289 364.069 253.289C363.389 253.289 362.786 253.149 362.258 252.868C361.743 252.586 361.339 252.223 361.046 251.778L361.046 257.824H358.04L358.04 243.341H361.046L361.046 244.729ZM365.334 248.227C365.334 247.477 365.124 246.891 364.702 246.469C364.292 246.036 363.782 245.819 363.172 245.819C362.575 245.819 362.065 246.036 361.643 246.469C361.233 246.903 361.028 247.495 361.028 248.245C361.028 248.995 361.233 249.586 361.643 250.02C362.065 250.454 362.575 250.67 363.172 250.67C363.77 250.67 364.28 250.454 364.702 250.02C365.124 249.575 365.334 248.977 365.334 248.227ZM375.999 243.235C377.124 243.235 378.026 243.61 378.706 244.36C379.385 245.098 379.725 246.118 379.725 247.419L379.725 253.149H376.737L376.737 247.823C376.737 247.167 376.567 246.657 376.227 246.294C375.887 245.93 375.43 245.749 374.856 245.749C374.282 245.749 373.825 245.93 373.485 246.294C373.145 246.657 372.975 247.167 372.975 247.823L372.975 253.149H369.97L369.97 240.142H372.975L372.975 244.659C373.28 244.225 373.696 243.88 374.223 243.622C374.751 243.364 375.342 243.235 375.999 243.235ZM383.325 242.321C382.798 242.321 382.364 242.169 382.025 241.864C381.696 241.548 381.532 241.161 381.532 240.704C381.532 240.235 381.696 239.849 382.025 239.544C382.364 239.228 382.798 239.07 383.325 239.07C383.841 239.07 384.263 239.228 384.591 239.544C384.931 239.849 385.101 240.235 385.101 240.704C385.101 241.161 384.931 241.548 384.591 241.864C384.263 242.169 383.841 242.321 383.325 242.321ZM384.819 243.341L384.819 253.149H381.814L381.814 243.341H384.819ZM386.4 248.245C386.4 247.225 386.605 246.335 387.015 245.573C387.437 244.811 388.017 244.225 388.755 243.815C389.505 243.405 390.361 243.2 391.321 243.2C392.552 243.2 393.577 243.522 394.397 244.167C395.229 244.811 395.774 245.72 396.032 246.891H392.833C392.564 246.141 392.042 245.766 391.269 245.766C390.718 245.766 390.279 245.983 389.95 246.417C389.622 246.839 389.458 247.448 389.458 248.245C389.458 249.042 389.622 249.657 389.95 250.09C390.279 250.512 390.718 250.723 391.269 250.723C392.042 250.723 392.564 250.348 392.833 249.598H396.032C395.774 250.747 395.229 251.649 394.397 252.305C393.565 252.961 392.54 253.289 391.321 253.289C390.361 253.289 389.505 253.084 388.755 252.674C388.017 252.264 387.437 251.678 387.015 250.916C386.605 250.155 386.4 249.264 386.4 248.245Z" fill="black"/>
<defs>
<filter id="filter0_bf_514_11088" x="146.861" y="-34.5833" width="366.115" height="362.328" filterUnits="userSpaceOnUse" color-interpolation-filters="sRGB">
<feFlood flood-opacity="0" result="BackgroundImageFix"/>
<feGaussianBlur in="BackgroundImageFix" stdDeviation="70.3082"/>
<feComposite in2="SourceAlpha" operator="in" result="effect1_backgroundBlur_514_11088"/>
<feBlend mode="normal" in="SourceGraphic" in2="effect1_backgroundBlur_514_11088" result="shape"/>
<feGaussianBlur stdDeviation="35.1541" result="effect2_foregroundBlur_514_11088"/>
</filter>
</defs>
</svg>
