<svg width="44" height="49" viewBox="0 0 44 49" fill="none" xmlns="http://www.w3.org/2000/svg">
<path d="M16.513 48.3373L0.325353 5.78338L10.858 0.938532L14.8816 11.5149L35.4505 2.05701L43.5649 23.393L37.2635 38.7958L37.2137 38.818L16.513 48.3373ZM0.670041 5.92L16.6636 47.9665L37.0532 38.591L43.2747 23.3855L35.3025 2.42093L14.7336 11.8788L10.71 1.30245L0.674784 5.9179L0.670041 5.92ZM22.7747 33.0372L18.6548 22.2054L29.1874 17.3605L33.3074 28.1923L22.7771 33.0361L22.7747 33.0372ZM18.9992 22.3478L22.924 32.6698L32.9593 28.0544L29.0355 17.7347L19.0002 22.3502L18.9992 22.3478Z" fill="url(#paint0_linear_2150_10666)"/>
<defs>
<linearGradient id="paint0_linear_2150_10666" x1="14.4924" y1="-0.675415" x2="33.0053" y2="41.0134" gradientUnits="userSpaceOnUse">
<stop stop-color="#185B83"/>
<stop offset="0.48" stop-color="#0B5A47"/>
<stop offset="1" stop-color="#45EFD2"/>
</linearGradient>
</defs>
</svg>
