<svg width="577" height="560" viewBox="0 0 577 560" fill="none" xmlns="http://www.w3.org/2000/svg">
<g opacity="0.5" clip-path="url(#clip0_2150_6179)">
<mask id="mask0_2150_6179" style="mask-type:luminance" maskUnits="userSpaceOnUse" x="0" y="-327" width="852" height="887">
<path d="M851.66 -162.977L176 -327L0.7202 395.029L676.38 559.052L851.66 -162.977Z" fill="white"/>
</mask>
<g mask="url(#mask0_2150_6179)">
<path d="M345.427 21.9396L379.919 -92.5461L409.597 -85.7553L401.027 -57.3016L458.979 -44.0328L441.684 13.37L403.898 35.3273L403.759 35.2935L345.434 21.9413L345.427 21.9396ZM380.407 -91.698L346.333 21.416L403.78 34.5692L441.084 12.8946L458.079 -43.5009L400.126 -56.7697L408.696 -85.2234L380.422 -91.7014L380.407 -91.698ZM382.965 0.139445L391.744 -29.0001L421.422 -22.2093L412.643 6.93027L382.972 0.141055L382.965 0.139445ZM392.232 -28.152L383.864 -0.385821L412.138 6.09221L420.505 -21.6674L392.229 -28.1388L392.232 -28.152Z" fill="url(#paint0_linear_2150_6179)"/>
<path d="M290.56 100.645L325.051 -13.8411L354.73 -7.05022L346.16 21.4035L404.112 34.6723L386.819 92.0684L349.032 114.026L348.893 113.992L290.568 100.64L290.562 100.638L290.56 100.645ZM325.54 -12.9929L291.466 100.121L348.913 113.274L386.217 91.5997L403.211 35.2042L345.259 21.9354L353.829 -6.51833L325.555 -12.9963L325.54 -12.9929ZM328.098 78.8445L336.876 49.7049L366.555 56.4958L357.776 85.6353L328.105 78.8461L328.098 78.8445ZM337.365 50.5531L328.997 78.3193L357.271 84.7973L365.637 57.0377L337.362 50.5663L337.365 50.5531Z" fill="url(#paint1_linear_2150_6179)"/>
<path d="M278.721 37.1087L287.499 7.9691L317.177 14.7599L308.399 43.8995L278.727 37.1103L278.721 37.1087ZM287.988 8.81719L279.62 36.5834L307.896 43.0548L316.263 15.2886L287.989 8.81058L287.988 8.81719Z" fill="url(#paint2_linear_2150_6179)"/>
<path d="M348.97 113.848L383.462 -0.637926L413.14 6.1529L404.57 34.6066L462.522 47.8754L445.227 105.278L407.441 127.235L407.302 127.202L348.977 113.849L348.97 113.848ZM383.95 0.210191L349.876 113.324L407.323 126.477L444.627 104.803L461.622 48.4073L403.669 35.1385L412.239 6.6848L383.965 0.206774L383.95 0.210191ZM386.51 92.041L395.288 62.9014L424.966 69.6923L416.188 98.8318L386.516 92.0426L386.51 92.041ZM395.777 63.7496L387.409 91.5157L415.684 97.9871L424.051 70.2276L395.775 63.7562L395.777 63.7496Z" fill="url(#paint3_linear_2150_6179)"/>
<path d="M337.135 50.3137L345.913 21.1742L375.591 27.965L366.813 57.1045L337.141 50.3153L337.135 50.3137ZM346.402 22.0223L338.034 49.7884L366.31 56.2598L374.677 28.4937L346.402 22.0223Z" fill="url(#paint4_linear_2150_6179)"/>
<path d="M296.495 -20.2491L262.004 94.2366L232.326 87.4458L240.895 58.9921L182.943 45.7233L200.237 -11.6729L238.023 -33.6302L238.162 -33.5964L296.487 -20.2441L296.493 -20.2425L296.495 -20.2491ZM261.515 93.3885L295.589 -19.7255L238.142 -32.8787L200.838 -11.2041L183.844 45.1914L241.796 58.4602L233.226 86.9139L261.502 93.3853L261.515 93.3885ZM258.956 1.55769L250.177 30.6972L220.499 23.9064L229.277 -5.23314L258.949 1.55608L258.956 1.55769ZM249.689 29.8492L258.057 2.08295L229.781 -4.38844L221.415 23.3711L249.689 29.8492Z" fill="url(#paint5_linear_2150_6179)"/>
<path d="M308.33 43.2853L299.551 72.4249L269.873 65.634L278.652 36.4945L308.323 43.2837L308.33 43.2853ZM299.063 71.5768L307.431 43.8106L279.157 37.3326L270.789 65.0987L299.063 71.5768Z" fill="url(#paint6_linear_2150_6179)"/>
<path d="M351.366 -98.9503L316.875 15.5354L287.197 8.74461L295.766 -19.7091L237.814 -32.9779L255.109 -90.3807L292.896 -112.338L293.035 -112.304L351.36 -98.9519L351.366 -98.9503ZM316.386 14.6873L350.46 -98.4267L293.013 -111.58L255.709 -89.9053L238.715 -33.5098L296.667 -20.241L288.097 8.21271L316.371 14.6907L316.386 14.6873ZM313.828 -77.1501L305.05 -48.0106L275.372 -54.8014L284.15 -83.941L313.822 -77.1517L313.828 -77.1501ZM304.561 -48.8587L312.929 -76.6249L284.654 -83.0963L276.287 -55.3367L304.563 -48.8653L304.561 -48.8587Z" fill="url(#paint7_linear_2150_6179)"/>
<path d="M292.956 -112.155L258.465 2.33035L228.786 -4.46047L237.356 -32.9142L179.404 -46.183L196.699 -103.586L234.485 -125.543L234.625 -125.509L292.949 -112.157L292.956 -112.155ZM257.976 1.48226L292.05 -111.632L234.603 -124.785L197.299 -103.11L180.305 -46.7149L238.257 -33.446L229.687 -4.99235L257.961 1.48566L257.976 1.48226ZM255.418 -90.3552L246.64 -61.2156L216.962 -68.0065L225.74 -97.146L255.412 -90.3568L255.418 -90.3552ZM246.151 -62.0637L254.519 -89.8299L226.243 -96.3013L217.877 -68.5418L246.151 -62.0637Z" fill="url(#paint8_linear_2150_6179)"/>
<path d="M506.702 210.052L472.211 324.537L442.533 317.747L451.102 289.293L393.15 276.024L410.445 218.621L448.232 196.664L448.371 196.698L506.695 210.05L506.702 210.052ZM471.722 323.689L505.796 210.575L448.349 197.422L411.045 219.097L394.049 275.499L452.001 288.768L443.432 317.221L471.706 323.699L471.722 323.689ZM469.163 231.858L460.384 260.998L430.706 254.207L439.484 225.068L469.156 231.857L469.163 231.858ZM459.896 260.15L468.264 232.384L439.988 225.912L431.622 253.672L459.897 260.143L459.896 260.15Z" fill="url(#paint9_linear_2150_6179)"/>
<path d="M518.537 273.586L509.758 302.726L480.08 295.935L488.859 266.795L518.53 273.584L518.537 273.586ZM509.27 301.878L517.638 274.111L489.362 267.64L480.994 295.406L509.27 301.878Z" fill="url(#paint10_linear_2150_6179)"/>
<path d="M561.569 131.347L527.078 245.832L497.4 239.041L505.97 210.588L448.017 197.319L465.311 139.923L503.097 117.966L503.236 117.999L561.561 131.352L561.568 131.353L561.569 131.347ZM526.589 244.984L560.664 131.87L503.216 118.717L465.912 140.392L448.916 196.794L506.869 210.063L498.299 238.516L526.575 244.988L526.589 244.984ZM524.03 153.153L515.251 182.293L485.573 175.502L494.352 146.363L524.023 153.152L524.03 153.153ZM514.763 181.445L523.131 153.679L494.857 147.201L486.49 174.96L514.766 181.432L514.763 181.445Z" fill="url(#paint11_linear_2150_6179)"/>
<path d="M573.4 194.889L564.622 224.028L534.943 217.238L543.722 188.098L573.393 194.887L573.4 194.889ZM564.133 223.18L572.501 195.414L544.225 188.943L535.857 216.709L564.131 223.187L564.133 223.18Z" fill="url(#paint12_linear_2150_6179)"/>
<path d="M503.167 118.143L468.676 232.629L438.997 225.838L447.567 197.385L389.615 184.116L406.91 126.713L444.696 104.756L444.836 104.79L503.16 118.142L503.167 118.143ZM468.187 231.781L502.261 118.667L444.814 105.514L407.51 127.188L390.516 183.584L448.468 196.853L439.898 225.306L468.174 231.778L468.187 231.781ZM465.628 139.95L456.849 169.09L427.171 162.299L435.949 133.159L465.621 139.949L465.628 139.95ZM456.361 168.242L464.728 140.476L436.453 134.004L428.086 161.764L456.361 168.242Z" fill="url(#paint13_linear_2150_6179)"/>
<path d="M514.994 181.676L506.215 210.816L476.537 204.025L485.316 174.885L514.987 181.674L514.994 181.676ZM505.727 209.967L514.095 182.201L485.821 175.723L477.453 203.489L505.728 209.961L505.727 209.967Z" fill="url(#paint14_linear_2150_6179)"/>
<path d="M555.626 252.244L590.118 137.759L619.796 144.549L611.226 173.003L669.178 186.272L651.885 243.668L614.099 265.625L613.96 265.592L555.635 252.239L555.628 252.238L555.626 252.244ZM590.606 138.607L556.532 251.721L613.979 264.874L651.283 243.199L668.278 186.804L610.325 173.535L618.895 145.081L590.62 138.61L590.606 138.607ZM593.166 230.438L601.944 201.298L631.623 208.089L622.844 237.228L593.173 230.439L593.166 230.438ZM602.433 202.146L594.065 229.912L622.341 236.384L630.707 208.624L602.431 202.153L602.433 202.146Z" fill="url(#paint15_linear_2150_6179)"/>
<path d="M543.795 188.704L552.573 159.565L582.252 166.356L573.473 195.495L543.802 188.706L543.795 188.704ZM553.062 160.413L544.694 188.179L572.97 194.65L581.338 166.884L553.062 160.413Z" fill="url(#paint16_linear_2150_6179)"/>
<path d="M500.763 330.942L535.255 216.456L564.933 223.247L556.363 251.7L614.315 264.969L597.02 322.372L559.234 344.329L559.095 344.295L500.77 330.943L500.763 330.942ZM535.743 217.304L501.669 330.418L559.116 343.571L596.42 321.897L613.415 265.501L555.462 252.232L564.032 223.779L535.758 217.301L535.743 217.304ZM538.301 309.141L547.08 280.002L576.758 286.793L567.979 315.932L538.308 309.143L538.301 309.141ZM547.568 280.85L539.2 308.616L567.474 315.094L575.841 287.335L547.565 280.863L547.568 280.85Z" fill="url(#paint17_linear_2150_6179)"/>
<path d="M488.928 267.407L497.706 238.268L527.384 245.059L518.606 274.198L488.934 267.409L488.928 267.407ZM498.195 239.116L489.827 266.882L518.103 273.354L526.47 245.587L498.196 239.109L498.195 239.116Z" fill="url(#paint18_linear_2150_6179)"/>
<path d="M559.173 344.147L593.665 229.661L623.343 236.452L614.773 264.905L672.725 278.174L655.432 335.57L617.646 357.528L617.506 357.494L559.182 344.142L559.175 344.14L559.173 344.147ZM594.153 230.509L560.079 343.623L617.526 356.776L654.83 335.102L671.825 278.706L613.872 265.437L622.442 236.984L594.168 230.506L594.153 230.509ZM596.711 322.346L605.49 293.207L635.168 299.998L626.389 329.137L596.718 322.348L596.711 322.346ZM605.978 294.055L597.61 321.821L625.886 328.293L634.252 300.533L605.978 294.055Z" fill="url(#paint19_linear_2150_6179)"/>
<path d="M547.334 280.618L556.112 251.479L585.791 258.27L577.012 287.409L547.341 280.62L547.334 280.618ZM556.601 252.327L548.233 280.093L576.507 286.571L584.875 258.805L556.599 252.334L556.601 252.327Z" fill="url(#paint20_linear_2150_6179)"/>
<path d="M616.843 52.3153L582.351 166.801L552.673 160.01L561.243 131.557L503.291 118.288L520.584 60.8916L558.371 38.9343L558.51 38.9681L616.835 52.3203L616.841 52.3219L616.843 52.3153ZM581.863 165.953L615.937 52.839L558.49 39.6857L521.186 61.3603L504.191 117.756L562.144 131.025L553.574 159.478L581.85 165.95L581.863 165.953ZM579.303 74.1221L570.525 103.262L540.847 96.4709L549.625 67.3313L579.297 74.1205L579.303 74.1221ZM570.036 102.414L578.404 74.6474L550.13 68.1694L541.764 95.9289L570.038 102.407L570.036 102.414Z" fill="url(#paint21_linear_2150_6179)"/>
<path d="M671.71 -26.3898L637.219 88.096L607.54 81.3052L616.11 52.8515L558.158 39.5826L575.451 -17.8135L613.238 -39.7708L613.377 -39.737L671.702 -26.3847L671.708 -26.3831L671.71 -26.3898ZM636.73 87.2479L670.804 -25.8661L613.357 -39.0194L576.053 -17.3448L559.059 39.0507L617.011 52.3196L608.441 80.7733L636.715 87.2513L636.73 87.2479ZM634.172 -4.58957L625.394 24.55L595.715 17.7592L604.494 -11.3804L634.165 -4.59118L634.172 -4.58957ZM624.905 23.7019L633.273 -4.06431L604.997 -10.5357L596.631 17.2239L624.907 23.6953L624.905 23.7019Z" fill="url(#paint22_linear_2150_6179)"/>
<path d="M613.3 -39.5929L578.808 74.8929L549.13 68.102L557.7 39.6483L499.748 26.3795L517.041 -31.0166L554.828 -52.9739L554.967 -52.9402L613.292 -39.5879L613.298 -39.5863L613.3 -39.5929ZM578.32 74.0447L612.394 -39.0692L554.947 -52.2225L517.643 -30.5479L500.647 25.8542L558.599 39.1231L550.029 67.5768L578.305 74.0482L578.32 74.0447ZM575.76 -17.7861L566.982 11.3535L537.304 4.56266L546.082 -24.5769L575.754 -17.7877L575.76 -17.7861ZM566.493 10.5054L574.861 -17.2608L546.586 -23.7322L538.219 4.02735L566.493 10.5054Z" fill="url(#paint23_linear_2150_6179)"/>
<path d="M235.564 179.631L270.055 65.1453L299.734 71.9361L291.164 100.39L349.116 113.659L331.823 171.055L294.036 193.012L293.897 192.978L235.572 179.626L235.564 179.631ZM270.544 65.9934L236.47 179.107L293.917 192.261L331.221 170.586L348.215 114.191L290.263 100.922L298.833 72.468L270.559 65.99L270.544 65.9934ZM273.102 157.831L281.88 128.691L311.558 135.482L302.78 164.622L273.108 157.832L273.102 157.831ZM282.369 129.539L274.001 157.306L302.275 163.784L310.641 136.024L282.366 129.553L282.369 129.539Z" fill="url(#paint24_linear_2150_6179)"/>
<path d="M223.729 116.091L232.507 86.9515L262.185 93.7423L253.407 122.882L223.735 116.093L223.729 116.091ZM232.996 87.7996L224.628 115.566L252.902 122.044L261.27 94.2776L232.996 87.7996Z" fill="url(#paint25_linear_2150_6179)"/>
<path d="M180.701 258.322L215.192 143.837L244.87 150.628L236.3 179.081L294.253 192.35L276.958 249.753L239.171 271.71L239.032 271.676L180.707 258.324L180.701 258.322ZM215.681 144.685L181.6 257.797L239.047 270.95L276.351 249.276L293.345 192.88L235.393 179.611L243.963 151.158L215.689 144.68L215.681 144.685ZM218.24 236.516L227.019 207.376L256.697 214.167L247.918 243.306L218.247 236.517L218.24 236.516ZM227.507 208.224L219.139 235.99L247.415 242.462L255.781 214.702L227.507 208.224Z" fill="url(#paint26_linear_2150_6179)"/>
<path d="M168.861 194.794L177.64 165.655L207.318 172.445L198.54 201.585L168.868 194.796L168.861 194.794ZM178.128 166.503L169.76 194.269L198.035 200.747L206.402 172.981L178.128 166.503Z" fill="url(#paint27_linear_2150_6179)"/>
<path d="M239.107 271.533L273.598 157.048L303.277 163.838L294.707 192.292L352.659 205.561L335.366 262.957L297.579 284.914L297.44 284.881L239.115 271.528L239.109 271.527L239.107 271.533ZM274.087 157.896L240.013 271.01L297.46 284.163L334.764 262.488L351.758 206.093L293.806 192.824L302.376 164.37L274.102 157.892L274.087 157.896ZM276.645 249.733L285.423 220.594L315.101 227.384L306.323 256.524L276.651 249.735L276.645 249.733ZM285.912 221.442L277.544 249.208L305.818 255.686L314.184 227.926L285.909 221.455L285.912 221.442Z" fill="url(#paint28_linear_2150_6179)"/>
<path d="M227.271 208.005L236.05 178.866L265.728 185.656L256.95 214.796L227.278 208.007L227.271 208.005ZM236.538 179.714L228.171 207.48L256.445 213.958L264.813 186.192L236.537 179.72L236.538 179.714Z" fill="url(#paint29_linear_2150_6179)"/>
<path d="M186.64 137.438L152.148 251.924L122.47 245.133L131.04 216.68L73.0876 203.411L90.381 146.015L128.167 124.057L128.307 124.091L186.631 137.443L186.64 137.438ZM151.666 251.078L185.741 137.964L128.293 124.81L90.9894 146.485L73.995 202.88L131.947 216.149L123.377 244.603L151.653 251.074L151.666 251.078ZM149.107 159.247L140.328 188.386L110.65 181.596L119.429 152.456L149.1 159.245L149.107 159.247ZM139.84 187.538L148.208 159.772L119.934 153.294L111.567 181.054L139.841 187.532L139.84 187.538Z" fill="url(#paint30_linear_2150_6179)"/>
<path d="M198.466 200.965L189.688 230.105L160.01 223.314L168.788 194.174L198.46 200.963L198.466 200.965ZM189.199 229.256L197.567 201.49L169.292 195.019L160.924 222.785L189.198 229.263L189.199 229.256Z" fill="url(#paint31_linear_2150_6179)"/>
<path d="M241.503 58.7333L207.012 173.219L177.333 166.428L185.903 137.975L127.951 124.706L145.246 67.303L183.032 45.3456L183.171 45.3794L241.496 58.7317L241.503 58.7333ZM206.523 172.371L240.597 59.2569L183.15 46.1037L145.846 67.7783L128.852 124.174L186.804 137.443L178.234 165.896L206.51 172.368L206.523 172.371ZM203.963 80.5401L195.185 109.68L165.507 102.889L174.285 73.7493L203.957 80.5385L203.963 80.5401ZM194.696 108.832L203.064 81.0654L174.789 74.594L166.422 102.354L194.696 108.832Z" fill="url(#paint32_linear_2150_6179)"/>
<path d="M253.33 122.274L244.551 151.413L214.873 144.622L223.652 115.483L253.323 122.272L253.33 122.274ZM244.063 150.565L252.431 122.799L224.157 116.321L215.789 144.087L244.063 150.565Z" fill="url(#paint33_linear_2150_6179)"/>
<path d="M183.094 45.5285L148.603 160.014L118.924 153.223L127.494 124.77L69.5502 111.496L86.8436 54.0998L124.63 32.1425L124.769 32.1763L183.094 45.5285ZM148.114 159.166L182.188 46.0522L124.741 32.899L87.437 54.5736L70.4427 110.969L128.395 124.238L119.825 152.692L148.101 159.163L148.114 159.166ZM145.554 67.3354L136.776 96.4749L107.098 89.6841L115.876 60.5445L145.548 67.3338L145.554 67.3354ZM136.288 95.6268L144.655 67.8606L116.381 61.3826L108.015 89.1422L136.289 95.6202L136.288 95.6268Z" fill="url(#paint34_linear_2150_6179)"/>
<path d="M194.927 109.065L186.149 138.204L156.471 131.413L165.249 102.274L194.921 109.063L194.927 109.065ZM185.66 137.356L194.028 109.59L165.753 103.118L157.385 130.885L185.659 137.363L185.66 137.356Z" fill="url(#paint35_linear_2150_6179)"/>
<path d="M445.611 410.074L480.102 295.589L509.78 302.379L501.211 330.833L559.163 344.102L541.868 401.505L504.081 423.462L503.942 423.428L445.617 410.076L445.611 410.074ZM480.591 296.437L446.517 409.551L503.964 422.704L541.268 401.029L558.262 344.634L500.31 331.365L508.88 302.911L480.606 296.433L480.591 296.437ZM483.15 388.268L491.929 359.128L521.607 365.919L512.829 395.058L483.157 388.269L483.15 388.268ZM492.417 359.976L484.049 387.742L512.325 394.214L520.691 366.454L492.417 359.976Z" fill="url(#paint36_linear_2150_6179)"/>
<path d="M433.771 346.546L442.55 317.407L472.228 324.197L463.45 353.337L433.778 346.548L433.771 346.546ZM443.038 318.255L434.671 346.021L462.946 352.492L471.314 324.726L443.038 318.255Z" fill="url(#paint37_linear_2150_6179)"/>
<path d="M390.736 488.778L425.227 374.292L454.905 381.083L446.336 409.536L504.288 422.805L486.993 480.208L449.206 502.165L449.067 502.131L390.742 488.779L390.736 488.778ZM425.716 375.14L391.642 488.254L449.089 501.407L486.393 479.733L503.389 423.33L445.436 410.062L454.006 381.608L425.732 375.13L425.716 375.14ZM428.275 466.971L437.052 437.838L466.73 444.629L457.952 473.768L428.282 466.972L428.275 466.971ZM437.542 438.679L429.173 466.452L457.448 472.923L465.815 445.164L437.541 438.686L437.542 438.679Z" fill="url(#paint38_linear_2150_6179)"/>
<path d="M378.904 425.241L387.683 396.102L417.361 402.893L408.583 432.032L378.911 425.243L378.904 425.241ZM388.171 396.95L379.803 424.716L408.079 431.188L416.447 403.421L388.173 396.943L388.171 396.95Z" fill="url(#paint39_linear_2150_6179)"/>
<path d="M449.146 501.989L483.637 387.503L513.316 394.294L504.746 422.747L562.698 436.016L545.403 493.419L507.618 515.369L507.479 515.336L449.153 501.99L449.146 501.989ZM484.126 388.351L450.052 501.465L507.499 514.618L544.804 492.937L561.799 436.541L503.847 423.272L512.416 394.819L484.142 388.341L484.126 388.351ZM486.685 480.182L495.464 451.042L525.142 457.833L516.365 486.966L486.694 480.177L486.687 480.175L486.685 480.182ZM495.952 451.89L487.585 479.656L515.859 486.134L524.225 458.375L495.951 451.897L495.952 451.89Z" fill="url(#paint40_linear_2150_6179)"/>
<path d="M437.318 438.448L446.097 409.309L475.775 416.1L466.997 445.239L437.327 438.443L437.32 438.442L437.318 438.448ZM446.585 410.157L438.217 437.923L466.493 444.395L474.861 416.628L446.585 410.157Z" fill="url(#paint41_linear_2150_6179)"/>
<path d="M396.679 367.886L362.189 482.365L332.511 475.574L341.081 447.12L283.128 433.851L300.422 376.455L338.208 354.498L338.347 354.532L396.672 367.884L396.679 367.886ZM361.699 481.523L395.773 368.409L338.326 355.256L301.022 376.931L284.027 433.326L341.98 446.595L333.41 475.049L361.684 481.527L361.699 481.523ZM359.141 389.686L350.362 418.825L320.684 412.035L329.463 382.895L359.134 389.684L359.141 389.686ZM349.874 417.977L358.242 390.211L329.966 383.74L321.6 411.499L349.875 417.971L349.874 417.977Z" fill="url(#paint42_linear_2150_6179)"/>
<path d="M408.513 431.42L399.735 460.56L370.057 453.769L378.835 424.629L408.507 431.418L408.513 431.42ZM399.246 459.712L407.614 431.945L379.34 425.467L370.971 453.24L399.246 459.712Z" fill="url(#paint43_linear_2150_6179)"/>
<path d="M451.542 289.188L417.051 403.674L387.372 396.883L395.942 368.43L337.99 355.161L355.283 297.765L393.07 275.807L393.209 275.841L451.534 289.193L451.54 289.195L451.542 289.188ZM416.562 402.826L450.643 289.714L393.196 276.56L355.892 298.235L338.897 354.63L396.85 367.899L388.28 396.353L416.554 402.831L416.562 402.826ZM414.004 310.989L405.226 340.128L375.548 333.337L384.326 304.198L413.998 310.987L414.004 310.989ZM404.737 339.28L413.105 311.514L384.831 305.036L376.465 332.795L404.739 339.273L404.737 339.28Z" fill="url(#paint44_linear_2150_6179)"/>
<path d="M463.377 352.717L454.598 381.857L424.92 375.066L433.698 345.926L463.37 352.715L463.377 352.717ZM454.11 381.008L462.477 353.242L434.202 346.771L425.834 374.537L454.11 381.008Z" fill="url(#paint45_linear_2150_6179)"/>
<path d="M393.132 275.977L358.64 390.463L328.962 383.672L337.532 355.219L279.58 341.95L296.875 284.547L334.661 262.59L334.8 262.624L393.125 275.976L393.132 275.977ZM358.152 389.615L392.226 276.501L334.779 263.348L297.475 285.022L280.481 341.418L338.433 354.687L329.863 383.14L358.137 389.619L358.152 389.615ZM355.592 297.784L346.814 326.924L317.136 320.133L325.914 290.993L355.586 297.783L355.592 297.784ZM346.325 326.076L354.693 298.31L326.418 291.838L318.051 319.598L346.325 326.076Z" fill="url(#paint46_linear_2150_6179)"/>
<path d="M404.966 339.512L396.188 368.651L366.51 361.861L375.288 332.721L404.96 339.51L404.966 339.512ZM395.699 367.803L404.067 340.037L375.793 333.559L367.425 361.325L395.699 367.803Z" fill="url(#paint47_linear_2150_6179)"/>
</g>
</g>
<defs>
<linearGradient id="paint0_linear_2150_6179" x1="419.743" y1="-83.2851" x2="391.485" y2="33.1206" gradientUnits="userSpaceOnUse">
<stop stop-color="#185B83"/>
<stop offset="0.48" stop-color="#0B5A47"/>
<stop offset="1" stop-color="#45EFD2"/>
</linearGradient>
<linearGradient id="paint1_linear_2150_6179" x1="364.871" y1="-4.58827" x2="336.611" y2="111.824" gradientUnits="userSpaceOnUse">
<stop stop-color="#185B83"/>
<stop offset="0.48" stop-color="#0B5A47"/>
<stop offset="1" stop-color="#45EFD2"/>
</linearGradient>
<linearGradient id="paint2_linear_2150_6179" x1="301.584" y1="10.9745" x2="294.321" y2="40.8957" gradientUnits="userSpaceOnUse">
<stop stop-color="#185B83"/>
<stop offset="0.48" stop-color="#0B5A47"/>
<stop offset="1" stop-color="#45EFD2"/>
</linearGradient>
<linearGradient id="paint3_linear_2150_6179" x1="423.28" y1="8.62149" x2="395.021" y2="125.027" gradientUnits="userSpaceOnUse">
<stop stop-color="#185B83"/>
<stop offset="0.48" stop-color="#0B5A47"/>
<stop offset="1" stop-color="#45EFD2"/>
</linearGradient>
<linearGradient id="paint4_linear_2150_6179" x1="359.99" y1="24.1846" x2="352.728" y2="54.0991" gradientUnits="userSpaceOnUse">
<stop stop-color="#185B83"/>
<stop offset="0.48" stop-color="#0B5A47"/>
<stop offset="1" stop-color="#45EFD2"/>
</linearGradient>
<linearGradient id="paint5_linear_2150_6179" x1="250.438" y1="-31.4301" x2="222.179" y2="84.9756" gradientUnits="userSpaceOnUse">
<stop stop-color="#185B83"/>
<stop offset="0.48" stop-color="#0B5A47"/>
<stop offset="1" stop-color="#45EFD2"/>
</linearGradient>
<linearGradient id="paint6_linear_2150_6179" x1="292.737" y1="39.4999" x2="285.474" y2="69.4144" gradientUnits="userSpaceOnUse">
<stop stop-color="#185B83"/>
<stop offset="0.48" stop-color="#0B5A47"/>
<stop offset="1" stop-color="#45EFD2"/>
</linearGradient>
<linearGradient id="paint7_linear_2150_6179" x1="305.309" y1="-110.131" x2="277.05" y2="6.27442" gradientUnits="userSpaceOnUse">
<stop stop-color="#185B83"/>
<stop offset="0.48" stop-color="#0B5A47"/>
<stop offset="1" stop-color="#45EFD2"/>
</linearGradient>
<linearGradient id="paint8_linear_2150_6179" x1="246.899" y1="-123.336" x2="218.638" y2="-6.92404" gradientUnits="userSpaceOnUse">
<stop stop-color="#185B83"/>
<stop offset="0.48" stop-color="#0B5A47"/>
<stop offset="1" stop-color="#45EFD2"/>
</linearGradient>
<linearGradient id="paint9_linear_2150_6179" x1="460.645" y1="198.871" x2="432.386" y2="315.276" gradientUnits="userSpaceOnUse">
<stop stop-color="#185B83"/>
<stop offset="0.48" stop-color="#0B5A47"/>
<stop offset="1" stop-color="#45EFD2"/>
</linearGradient>
<linearGradient id="paint10_linear_2150_6179" x1="502.937" y1="269.799" x2="495.673" y2="299.72" gradientUnits="userSpaceOnUse">
<stop stop-color="#185B83"/>
<stop offset="0.48" stop-color="#0B5A47"/>
<stop offset="1" stop-color="#45EFD2"/>
</linearGradient>
<linearGradient id="paint11_linear_2150_6179" x1="515.518" y1="120.167" x2="487.258" y2="236.58" gradientUnits="userSpaceOnUse">
<stop stop-color="#185B83"/>
<stop offset="0.48" stop-color="#0B5A47"/>
<stop offset="1" stop-color="#45EFD2"/>
</linearGradient>
<linearGradient id="paint12_linear_2150_6179" x1="557.8" y1="191.102" x2="550.538" y2="221.016" gradientUnits="userSpaceOnUse">
<stop stop-color="#185B83"/>
<stop offset="0.48" stop-color="#0B5A47"/>
<stop offset="1" stop-color="#45EFD2"/>
</linearGradient>
<linearGradient id="paint13_linear_2150_6179" x1="457.109" y1="106.963" x2="428.851" y2="223.368" gradientUnits="userSpaceOnUse">
<stop stop-color="#185B83"/>
<stop offset="0.48" stop-color="#0B5A47"/>
<stop offset="1" stop-color="#45EFD2"/>
</linearGradient>
<linearGradient id="paint14_linear_2150_6179" x1="499.394" y1="177.889" x2="492.132" y2="207.803" gradientUnits="userSpaceOnUse">
<stop stop-color="#185B83"/>
<stop offset="0.48" stop-color="#0B5A47"/>
<stop offset="1" stop-color="#45EFD2"/>
</linearGradient>
<linearGradient id="paint15_linear_2150_6179" x1="629.944" y1="147.013" x2="601.684" y2="263.425" gradientUnits="userSpaceOnUse">
<stop stop-color="#185B83"/>
<stop offset="0.48" stop-color="#0B5A47"/>
<stop offset="1" stop-color="#45EFD2"/>
</linearGradient>
<linearGradient id="paint16_linear_2150_6179" x1="566.657" y1="162.577" x2="559.395" y2="192.491" gradientUnits="userSpaceOnUse">
<stop stop-color="#185B83"/>
<stop offset="0.48" stop-color="#0B5A47"/>
<stop offset="1" stop-color="#45EFD2"/>
</linearGradient>
<linearGradient id="paint17_linear_2150_6179" x1="575.079" y1="225.717" x2="546.821" y2="342.122" gradientUnits="userSpaceOnUse">
<stop stop-color="#185B83"/>
<stop offset="0.48" stop-color="#0B5A47"/>
<stop offset="1" stop-color="#45EFD2"/>
</linearGradient>
<linearGradient id="paint18_linear_2150_6179" x1="511.791" y1="241.273" x2="504.528" y2="271.194" gradientUnits="userSpaceOnUse">
<stop stop-color="#185B83"/>
<stop offset="0.48" stop-color="#0B5A47"/>
<stop offset="1" stop-color="#45EFD2"/>
</linearGradient>
<linearGradient id="paint19_linear_2150_6179" x1="633.489" y1="238.922" x2="605.231" y2="355.328" gradientUnits="userSpaceOnUse">
<stop stop-color="#185B83"/>
<stop offset="0.48" stop-color="#0B5A47"/>
<stop offset="1" stop-color="#45EFD2"/>
</linearGradient>
<linearGradient id="paint20_linear_2150_6179" x1="570.197" y1="254.484" x2="562.934" y2="284.405" gradientUnits="userSpaceOnUse">
<stop stop-color="#185B83"/>
<stop offset="0.48" stop-color="#0B5A47"/>
<stop offset="1" stop-color="#45EFD2"/>
</linearGradient>
<linearGradient id="paint21_linear_2150_6179" x1="570.785" y1="41.1344" x2="542.527" y2="157.54" gradientUnits="userSpaceOnUse">
<stop stop-color="#185B83"/>
<stop offset="0.48" stop-color="#0B5A47"/>
<stop offset="1" stop-color="#45EFD2"/>
</linearGradient>
<linearGradient id="paint22_linear_2150_6179" x1="625.652" y1="-37.5707" x2="597.394" y2="78.835" gradientUnits="userSpaceOnUse">
<stop stop-color="#185B83"/>
<stop offset="0.48" stop-color="#0B5A47"/>
<stop offset="1" stop-color="#45EFD2"/>
</linearGradient>
<linearGradient id="paint23_linear_2150_6179" x1="567.242" y1="-50.7738" x2="538.982" y2="65.6385" gradientUnits="userSpaceOnUse">
<stop stop-color="#185B83"/>
<stop offset="0.48" stop-color="#0B5A47"/>
<stop offset="1" stop-color="#45EFD2"/>
</linearGradient>
<linearGradient id="paint24_linear_2150_6179" x1="309.882" y1="74.3997" x2="281.621" y2="190.812" gradientUnits="userSpaceOnUse">
<stop stop-color="#185B83"/>
<stop offset="0.48" stop-color="#0B5A47"/>
<stop offset="1" stop-color="#45EFD2"/>
</linearGradient>
<linearGradient id="paint25_linear_2150_6179" x1="246.59" y1="89.9636" x2="239.328" y2="119.878" gradientUnits="userSpaceOnUse">
<stop stop-color="#185B83"/>
<stop offset="0.48" stop-color="#0B5A47"/>
<stop offset="1" stop-color="#45EFD2"/>
</linearGradient>
<linearGradient id="paint26_linear_2150_6179" x1="255.017" y1="153.098" x2="226.758" y2="269.503" gradientUnits="userSpaceOnUse">
<stop stop-color="#185B83"/>
<stop offset="0.48" stop-color="#0B5A47"/>
<stop offset="1" stop-color="#45EFD2"/>
</linearGradient>
<linearGradient id="paint27_linear_2150_6179" x1="191.717" y1="168.665" x2="184.455" y2="198.58" gradientUnits="userSpaceOnUse">
<stop stop-color="#185B83"/>
<stop offset="0.48" stop-color="#0B5A47"/>
<stop offset="1" stop-color="#45EFD2"/>
</linearGradient>
<linearGradient id="paint28_linear_2150_6179" x1="313.423" y1="166.309" x2="285.164" y2="282.714" gradientUnits="userSpaceOnUse">
<stop stop-color="#185B83"/>
<stop offset="0.48" stop-color="#0B5A47"/>
<stop offset="1" stop-color="#45EFD2"/>
</linearGradient>
<linearGradient id="paint29_linear_2150_6179" x1="250.135" y1="181.871" x2="242.871" y2="211.792" gradientUnits="userSpaceOnUse">
<stop stop-color="#185B83"/>
<stop offset="0.48" stop-color="#0B5A47"/>
<stop offset="1" stop-color="#45EFD2"/>
</linearGradient>
<linearGradient id="paint30_linear_2150_6179" x1="140.589" y1="126.259" x2="112.33" y2="242.665" gradientUnits="userSpaceOnUse">
<stop stop-color="#185B83"/>
<stop offset="0.48" stop-color="#0B5A47"/>
<stop offset="1" stop-color="#45EFD2"/>
</linearGradient>
<linearGradient id="paint31_linear_2150_6179" x1="182.873" y1="197.18" x2="175.61" y2="227.101" gradientUnits="userSpaceOnUse">
<stop stop-color="#185B83"/>
<stop offset="0.48" stop-color="#0B5A47"/>
<stop offset="1" stop-color="#45EFD2"/>
</linearGradient>
<linearGradient id="paint32_linear_2150_6179" x1="195.452" y1="47.554" x2="167.192" y2="163.966" gradientUnits="userSpaceOnUse">
<stop stop-color="#185B83"/>
<stop offset="0.48" stop-color="#0B5A47"/>
<stop offset="1" stop-color="#45EFD2"/>
</linearGradient>
<linearGradient id="paint33_linear_2150_6179" x1="237.737" y1="118.488" x2="230.474" y2="148.403" gradientUnits="userSpaceOnUse">
<stop stop-color="#185B83"/>
<stop offset="0.48" stop-color="#0B5A47"/>
<stop offset="1" stop-color="#45EFD2"/>
</linearGradient>
<linearGradient id="paint34_linear_2150_6179" x1="137.043" y1="34.3492" x2="108.784" y2="150.755" gradientUnits="userSpaceOnUse">
<stop stop-color="#185B83"/>
<stop offset="0.48" stop-color="#0B5A47"/>
<stop offset="1" stop-color="#45EFD2"/>
</linearGradient>
<linearGradient id="paint35_linear_2150_6179" x1="179.328" y1="105.278" x2="172.064" y2="135.199" gradientUnits="userSpaceOnUse">
<stop stop-color="#185B83"/>
<stop offset="0.48" stop-color="#0B5A47"/>
<stop offset="1" stop-color="#45EFD2"/>
</linearGradient>
<linearGradient id="paint36_linear_2150_6179" x1="519.927" y1="304.85" x2="491.668" y2="421.255" gradientUnits="userSpaceOnUse">
<stop stop-color="#185B83"/>
<stop offset="0.48" stop-color="#0B5A47"/>
<stop offset="1" stop-color="#45EFD2"/>
</linearGradient>
<linearGradient id="paint37_linear_2150_6179" x1="456.628" y1="320.41" x2="449.365" y2="350.332" gradientUnits="userSpaceOnUse">
<stop stop-color="#185B83"/>
<stop offset="0.48" stop-color="#0B5A47"/>
<stop offset="1" stop-color="#45EFD2"/>
</linearGradient>
<linearGradient id="paint38_linear_2150_6179" x1="465.052" y1="383.553" x2="436.793" y2="499.958" gradientUnits="userSpaceOnUse">
<stop stop-color="#185B83"/>
<stop offset="0.48" stop-color="#0B5A47"/>
<stop offset="1" stop-color="#45EFD2"/>
</linearGradient>
<linearGradient id="paint39_linear_2150_6179" x1="401.768" y1="399.107" x2="394.504" y2="429.028" gradientUnits="userSpaceOnUse">
<stop stop-color="#185B83"/>
<stop offset="0.48" stop-color="#0B5A47"/>
<stop offset="1" stop-color="#45EFD2"/>
</linearGradient>
<linearGradient id="paint40_linear_2150_6179" x1="523.464" y1="396.757" x2="495.203" y2="513.169" gradientUnits="userSpaceOnUse">
<stop stop-color="#185B83"/>
<stop offset="0.48" stop-color="#0B5A47"/>
<stop offset="1" stop-color="#45EFD2"/>
</linearGradient>
<linearGradient id="paint41_linear_2150_6179" x1="460.174" y1="412.319" x2="452.912" y2="442.234" gradientUnits="userSpaceOnUse">
<stop stop-color="#185B83"/>
<stop offset="0.48" stop-color="#0B5A47"/>
<stop offset="1" stop-color="#45EFD2"/>
</linearGradient>
<linearGradient id="paint42_linear_2150_6179" x1="350.621" y1="356.705" x2="322.363" y2="473.11" gradientUnits="userSpaceOnUse">
<stop stop-color="#185B83"/>
<stop offset="0.48" stop-color="#0B5A47"/>
<stop offset="1" stop-color="#45EFD2"/>
</linearGradient>
<linearGradient id="paint43_linear_2150_6179" x1="392.913" y1="427.633" x2="385.65" y2="457.554" gradientUnits="userSpaceOnUse">
<stop stop-color="#185B83"/>
<stop offset="0.48" stop-color="#0B5A47"/>
<stop offset="1" stop-color="#45EFD2"/>
</linearGradient>
<linearGradient id="paint44_linear_2150_6179" x1="405.484" y1="278.007" x2="377.226" y2="394.413" gradientUnits="userSpaceOnUse">
<stop stop-color="#185B83"/>
<stop offset="0.48" stop-color="#0B5A47"/>
<stop offset="1" stop-color="#45EFD2"/>
</linearGradient>
<linearGradient id="paint45_linear_2150_6179" x1="447.783" y1="348.932" x2="440.52" y2="378.853" gradientUnits="userSpaceOnUse">
<stop stop-color="#185B83"/>
<stop offset="0.48" stop-color="#0B5A47"/>
<stop offset="1" stop-color="#45EFD2"/>
</linearGradient>
<linearGradient id="paint46_linear_2150_6179" x1="347.074" y1="264.797" x2="318.814" y2="381.209" gradientUnits="userSpaceOnUse">
<stop stop-color="#185B83"/>
<stop offset="0.48" stop-color="#0B5A47"/>
<stop offset="1" stop-color="#45EFD2"/>
</linearGradient>
<linearGradient id="paint47_linear_2150_6179" x1="389.373" y1="335.726" x2="382.111" y2="365.641" gradientUnits="userSpaceOnUse">
<stop stop-color="#185B83"/>
<stop offset="0.48" stop-color="#0B5A47"/>
<stop offset="1" stop-color="#45EFD2"/>
</linearGradient>
<clipPath id="clip0_2150_6179">
<rect width="695.284" height="743" fill="white" transform="translate(176 -327) rotate(13.6452)"/>
</clipPath>
</defs>
</svg>
