<svg width="392" height="591" viewBox="0 0 392 591" fill="none" xmlns="http://www.w3.org/2000/svg">
<g opacity="0.5" clip-path="url(#clip0_2150_6338)">
<g opacity="0.5">
<mask id="mask0_2150_6338" style="mask-type:luminance" maskUnits="userSpaceOnUse" x="-619" y="0" width="1011" height="1017">
<path d="M391.495 448.168L-140.074 0L-618.999 568.049L-87.4302 1016.22L391.495 448.168Z" fill="white"/>
</mask>
<g mask="url(#mask0_2150_6338)">
<path d="M-144.072 387.877L-62.1378 300.795L-38.6041 320.11L-58.9655 341.754L-13.0155 379.478L-54.0982 423.141L-97.7113 425.939L-97.8208 425.847L-144.067 387.882L-144.072 387.877ZM-62.0788 301.772L-143.028 387.813L-97.4785 425.208L-54.4232 422.448L-14.0589 379.553L-60.0089 341.828L-39.6475 320.184L-62.064 301.775L-62.0788 301.772ZM-100.752 385.109L-79.8977 362.944L-56.364 382.259L-77.218 404.424L-100.746 385.113L-100.752 385.109ZM-79.8387 363.921L-99.7126 385.04L-77.2962 403.449L-57.4267 382.335L-79.8475 363.931L-79.8387 363.921Z" fill="url(#paint0_linear_2150_6338)"/>
<path d="M24.5415 295.468L106.466 208.386L130 227.701L109.639 249.345L155.589 287.07L114.51 330.727L70.8973 333.525L70.7878 333.433L24.5415 295.468ZM106.539 209.357L25.5902 295.398L71.1397 332.793L114.195 330.033L154.559 287.138L108.609 249.414L128.971 227.769L106.55 209.366L106.539 209.357ZM67.8665 292.694L88.7205 270.529L112.254 289.844L91.4001 312.009L67.8717 292.698L67.8665 292.694ZM88.7795 271.506L68.9055 292.625L91.3264 311.029L111.196 289.915L88.7751 271.511L88.7795 271.506Z" fill="url(#paint1_linear_2150_6338)"/>
<path d="M42.286 233.323L63.14 211.158L86.6736 230.474L65.8196 252.639L42.2912 233.328L42.286 233.323ZM63.1989 212.135L43.325 233.254L65.7458 251.658L85.6198 230.539L63.1989 212.135Z" fill="url(#paint2_linear_2150_6338)"/>
<path d="M-59.666 341.43L22.2685 254.347L45.8021 273.663L25.4408 295.307L71.3908 333.031L30.3125 376.688L-13.3007 379.487L-13.4101 379.394L-59.6564 341.429L-59.666 341.43ZM22.3275 255.324L-58.6218 341.365L-13.0722 378.761L29.983 376L70.3474 333.105L24.3974 295.381L44.7587 273.737L22.3379 255.333L22.3275 255.324ZM-16.341 338.656L4.51298 316.491L28.0466 335.806L7.19261 357.971L-16.3358 338.661L-16.341 338.656ZM4.57196 317.468L-15.302 338.587L7.11443 356.996L26.984 335.882L4.56317 317.479L4.57196 317.468Z" fill="url(#paint3_linear_2150_6338)"/>
<path d="M-41.925 279.294L-21.071 257.129L2.46264 276.444L-18.3913 298.609L-41.9197 279.298L-41.925 279.294ZM-21.012 258.106L-40.8859 279.225L-18.4695 297.634L1.40443 276.515L-21.0164 258.111L-21.012 258.106Z" fill="url(#paint4_linear_2150_6338)"/>
<path d="M-13.2832 379.307L68.6513 292.224L92.1849 311.54L71.8235 333.184L117.774 370.908L76.6909 414.57L33.0777 417.369L32.9683 417.276L-13.278 379.311L-13.2832 379.307ZM68.7103 293.201L-12.2442 379.238L33.3054 416.633L76.3606 413.873L116.725 370.978L70.7749 333.254L91.1363 311.609L68.7155 293.206L68.7103 293.201ZM30.0418 376.533L50.8958 354.368L74.4294 373.683L53.5754 395.848L30.047 376.538L30.0418 376.533ZM50.9548 355.345L31.0808 376.464L53.5016 394.868L73.3712 373.754L50.9548 355.345Z" fill="url(#paint5_linear_2150_6338)"/>
<path d="M4.46567 317.163L25.3196 294.998L48.8533 314.313L27.9993 336.478L4.47089 317.168L4.46567 317.163ZM25.3786 295.975L5.50468 317.094L27.9211 335.503L47.7951 314.384L25.3742 295.98L25.3786 295.975Z" fill="url(#paint6_linear_2150_6338)"/>
<path d="M83.7739 189.912L1.83946 276.995L-21.6942 257.68L-1.33279 236.036L-47.2828 198.311L-6.20451 154.654L37.4182 151.855L37.5277 151.947L83.7739 189.912ZM1.78047 276.018L82.7305 189.987L37.181 152.591L-5.87424 155.352L-46.2386 198.247L-0.288571 235.971L-20.6499 257.615L1.76649 276.024L1.77528 276.014L1.78047 276.018ZM40.4446 192.691L19.5906 214.856L-3.94303 195.541L16.9109 173.376L40.4394 192.687L40.4446 192.691ZM19.5316 213.879L39.4056 192.76L16.9847 174.357L-2.88482 195.47L19.536 213.874L19.5316 213.879Z" fill="url(#paint7_linear_2150_6338)"/>
<path d="M66.0251 252.056L45.1711 274.221L21.6375 254.905L42.4915 232.74L66.0199 252.051L66.0251 252.056ZM45.1122 273.244L64.9861 252.125L42.5653 233.721L22.6914 254.84L45.1122 273.244Z" fill="url(#paint8_linear_2150_6338)"/>
<path d="M37.3872 152.037L-44.5472 239.12L-68.0809 219.805L-47.7195 198.161L-93.6695 160.436L-52.5912 116.779L-8.97288 113.985L-8.86344 114.077L37.3828 152.043L37.3872 152.037ZM-44.6062 238.143L36.3438 152.112L-9.20574 114.716L-52.261 117.477L-92.6253 160.372L-46.6753 198.096L-67.0366 219.74L-44.6202 238.149L-44.6114 238.139L-44.6062 238.143ZM-5.94215 154.816L-26.7961 176.981L-50.3297 157.666L-29.4758 135.501L-5.94736 154.812L-5.94215 154.816ZM-26.8551 176.004L-6.98116 154.885L-29.402 136.482L-49.2715 157.595L-26.8507 175.999L-26.8551 176.004Z" fill="url(#paint9_linear_2150_6338)"/>
<path d="M19.6384 214.185L-1.21555 236.35L-24.7492 217.034L-3.89518 194.869L19.6332 214.18L19.6384 214.185ZM-1.27453 235.373L18.5994 214.254L-3.8214 195.85L-23.6953 216.969L-1.27453 235.373Z" fill="url(#paint10_linear_2150_6338)"/>
<path d="M0.578628 582.203L-81.3559 669.286L-104.889 649.971L-84.5281 628.327L-130.478 590.602L-89.3999 546.945L-45.7867 544.147L-45.6773 544.239L0.56901 582.204L0.57423 582.209L0.578628 582.203ZM-81.4148 668.309L-0.465578 582.268L-46.0152 544.872L-89.0704 547.633L-129.439 590.533L-83.4891 628.257L-103.85 649.902L-81.4296 668.305L-81.4148 668.309ZM-42.7463 584.977L-63.6003 607.142L-87.1339 587.827L-66.28 565.662L-42.7516 584.973L-42.7463 584.977ZM-63.6593 606.165L-43.7854 585.046L-66.2018 566.637L-86.0714 587.751L-63.6506 606.155L-63.6593 606.165Z" fill="url(#paint11_linear_2150_6338)"/>
<path d="M85.3052 536.123L3.37071 623.206L-20.1629 603.891L0.198435 582.246L-45.7516 544.522L-4.67328 500.865L38.9399 498.067L39.0493 498.159L85.2956 536.124L85.3008 536.128L85.3052 536.123ZM3.31176 622.229L84.261 536.188L38.7114 498.792L-4.34381 501.553L-44.7082 544.448L1.24185 582.172L-19.1195 603.816L3.30132 622.22L3.31176 622.229ZM41.9802 538.897L21.1262 561.062L-2.40739 541.747L18.4466 519.582L41.975 538.893L41.9802 538.897ZM21.0672 560.085L40.9412 538.966L18.5248 520.557L-1.34478 541.671L21.0716 560.08L21.0672 560.085Z" fill="url(#paint12_linear_2150_6338)"/>
<path d="M67.5564 598.267L46.7024 620.432L23.1688 601.116L44.0228 578.951L67.5512 598.262L67.5564 598.267ZM46.6434 619.455L66.5174 598.336L44.101 579.927L24.227 601.046L46.6434 619.455Z" fill="url(#paint13_linear_2150_6338)"/>
<path d="M169.512 490.154L87.5778 577.237L64.0442 557.922L84.4055 536.278L38.4555 498.553L79.5338 454.896L123.147 452.098L123.256 452.19L169.503 490.155L169.508 490.16L169.512 490.154ZM87.5188 576.26L168.468 490.219L122.918 452.824L79.8632 455.584L39.4989 498.479L85.4489 536.203L65.0875 557.848L87.5039 576.257L87.5188 576.26ZM126.192 492.923L105.338 515.088L81.804 495.773L102.658 473.608L126.186 492.919L126.192 492.923ZM105.279 514.111L125.153 492.992L102.732 474.588L82.8623 495.702L105.283 514.106L105.279 514.111Z" fill="url(#paint14_linear_2150_6338)"/>
<path d="M151.767 552.296L130.913 574.461L107.38 555.146L128.234 532.981L151.762 552.292L151.767 552.296ZM130.854 573.484L150.728 552.365L128.312 533.956L108.438 555.075L130.859 573.479L130.854 573.484Z" fill="url(#paint15_linear_2150_6338)"/>
<path d="M123.126 452.283L41.191 539.366L17.6574 520.051L38.0188 498.407L-7.93125 460.682L33.147 417.025L76.7602 414.227L76.8696 414.319L123.116 452.284L123.121 452.289L123.126 452.283ZM41.132 538.389L122.081 452.348L76.5317 414.953L33.4765 417.713L-6.89226 460.613L39.0578 498.338L18.6964 519.982L41.1172 538.385L41.132 538.389ZM79.8005 455.057L58.9465 477.222L35.4129 457.907L56.2669 435.742L79.7953 455.053L79.8005 455.057ZM58.8876 476.245L78.7615 455.126L56.3407 436.722L36.4711 457.836L58.8876 476.245Z" fill="url(#paint16_linear_2150_6338)"/>
<path d="M105.381 514.425L84.5266 536.59L60.993 517.275L81.847 495.11L105.375 514.42L105.381 514.425ZM84.4677 535.613L104.342 514.494L81.9208 496.09L62.0469 517.209L84.4677 535.613Z" fill="url(#paint17_linear_2150_6338)"/>
<path d="M110.283 595.707L192.218 508.625L215.751 527.94L195.39 549.584L241.34 587.308L200.262 630.966L156.649 633.764L156.539 633.672L110.293 595.706L110.288 595.702L110.283 595.707ZM192.277 509.602L111.327 595.643L156.877 633.038L199.932 630.278L240.301 587.377L194.351 549.653L214.712 528.009L192.296 509.6L192.277 509.602ZM153.604 592.939L174.458 570.774L197.991 590.089L177.137 612.254L153.609 592.943L153.604 592.939ZM174.517 571.751L154.643 592.87L177.059 611.279L196.929 590.165L174.508 571.761L174.517 571.751Z" fill="url(#paint18_linear_2150_6338)"/>
<path d="M128.028 533.566L148.882 511.401L172.416 530.716L151.562 552.881L128.033 533.57L128.028 533.566ZM148.941 512.378L129.067 533.496L151.484 551.905L171.358 530.787L148.941 512.378Z" fill="url(#paint19_linear_2150_6338)"/>
<path d="M26.0723 641.678L108.007 554.595L131.54 573.911L111.179 595.555L157.129 633.279L116.051 676.936L72.4376 679.735L72.3282 679.642L26.0819 641.677L26.0767 641.673L26.0723 641.678ZM108.066 555.572L27.1165 641.613L72.6661 679.009L115.721 676.248L156.086 633.353L110.136 595.629L130.497 573.985L108.076 555.581L108.066 555.572ZM69.3973 638.904L90.2513 616.739L113.785 636.054L92.9309 658.219L69.4025 638.909L69.3973 638.904ZM90.3102 617.716L70.4363 638.835L92.8527 657.244L112.722 636.13L90.3058 617.721L90.3102 617.716Z" fill="url(#paint20_linear_2150_6338)"/>
<path d="M43.8172 579.534L64.6712 557.369L88.2048 576.685L67.3508 598.85L43.8225 579.539L43.8172 579.534ZM64.7302 558.346L44.8562 579.465L67.2726 597.874L87.1466 576.755L64.7258 558.351L64.7302 558.346Z" fill="url(#paint21_linear_2150_6338)"/>
<path d="M72.4551 679.553L154.39 592.47L177.923 611.786L157.562 633.43L203.512 671.154L162.429 714.816L118.816 717.615L118.707 717.523L72.4603 679.557L72.4551 679.553ZM154.449 593.447L73.4993 679.488L119.049 716.884L162.099 714.119L202.463 671.224L156.513 633.5L176.875 611.856L154.458 593.447L154.449 593.447ZM115.78 676.779L136.634 654.614L160.168 673.93L139.314 696.094L115.785 676.784L115.78 676.779ZM136.693 655.591L116.819 676.71L139.236 695.119L159.105 674.005L136.684 655.602L136.693 655.591Z" fill="url(#paint22_linear_2150_6338)"/>
</g>
</g>
</g>
<defs>
<linearGradient id="paint0_linear_2150_6338" x1="-30.6246" y1="326.846" x2="-107.837" y2="418.427" gradientUnits="userSpaceOnUse">
<stop stop-color="#185B83"/>
<stop offset="0.48" stop-color="#0B5A47"/>
<stop offset="1" stop-color="#45EFD2"/>
</linearGradient>
<linearGradient id="paint1_linear_2150_6338" x1="137.984" y1="234.432" x2="60.7716" y2="326.013" gradientUnits="userSpaceOnUse">
<stop stop-color="#185B83"/>
<stop offset="0.48" stop-color="#0B5A47"/>
<stop offset="1" stop-color="#45EFD2"/>
</linearGradient>
<linearGradient id="paint2_linear_2150_6338" x1="74.3962" y1="220.131" x2="54.5538" y2="243.666" gradientUnits="userSpaceOnUse">
<stop stop-color="#185B83"/>
<stop offset="0.48" stop-color="#0B5A47"/>
<stop offset="1" stop-color="#45EFD2"/>
</linearGradient>
<linearGradient id="paint3_linear_2150_6338" x1="53.7817" y1="280.399" x2="-23.4307" y2="371.98" gradientUnits="userSpaceOnUse">
<stop stop-color="#185B83"/>
<stop offset="0.48" stop-color="#0B5A47"/>
<stop offset="1" stop-color="#45EFD2"/>
</linearGradient>
<linearGradient id="paint4_linear_2150_6338" x1="-9.81035" y1="266.097" x2="-29.6572" y2="289.637" gradientUnits="userSpaceOnUse">
<stop stop-color="#185B83"/>
<stop offset="0.48" stop-color="#0B5A47"/>
<stop offset="1" stop-color="#45EFD2"/>
</linearGradient>
<linearGradient id="paint5_linear_2150_6338" x1="100.169" y1="318.271" x2="22.9521" y2="409.857" gradientUnits="userSpaceOnUse">
<stop stop-color="#185B83"/>
<stop offset="0.48" stop-color="#0B5A47"/>
<stop offset="1" stop-color="#45EFD2"/>
</linearGradient>
<linearGradient id="paint6_linear_2150_6338" x1="36.5759" y1="303.971" x2="16.7335" y2="327.506" gradientUnits="userSpaceOnUse">
<stop stop-color="#185B83"/>
<stop offset="0.48" stop-color="#0B5A47"/>
<stop offset="1" stop-color="#45EFD2"/>
</linearGradient>
<linearGradient id="paint7_linear_2150_6338" x1="47.5387" y1="159.362" x2="-29.6781" y2="250.948" gradientUnits="userSpaceOnUse">
<stop stop-color="#185B83"/>
<stop offset="0.48" stop-color="#0B5A47"/>
<stop offset="1" stop-color="#45EFD2"/>
</linearGradient>
<linearGradient id="paint8_linear_2150_6338" x1="53.7574" y1="241.713" x2="33.9105" y2="265.253" gradientUnits="userSpaceOnUse">
<stop stop-color="#185B83"/>
<stop offset="0.48" stop-color="#0B5A47"/>
<stop offset="1" stop-color="#45EFD2"/>
</linearGradient>
<linearGradient id="paint9_linear_2150_6338" x1="1.15195" y1="121.487" x2="-76.0648" y2="213.073" gradientUnits="userSpaceOnUse">
<stop stop-color="#185B83"/>
<stop offset="0.48" stop-color="#0B5A47"/>
<stop offset="1" stop-color="#45EFD2"/>
</linearGradient>
<linearGradient id="paint10_linear_2150_6338" x1="7.37065" y1="203.842" x2="-12.4718" y2="227.377" gradientUnits="userSpaceOnUse">
<stop stop-color="#185B83"/>
<stop offset="0.48" stop-color="#0B5A47"/>
<stop offset="1" stop-color="#45EFD2"/>
</linearGradient>
<linearGradient id="paint11_linear_2150_6338" x1="-35.6514" y1="551.658" x2="-112.868" y2="643.244" gradientUnits="userSpaceOnUse">
<stop stop-color="#185B83"/>
<stop offset="0.48" stop-color="#0B5A47"/>
<stop offset="1" stop-color="#45EFD2"/>
</linearGradient>
<linearGradient id="paint12_linear_2150_6338" x1="49.0699" y1="505.573" x2="-28.1425" y2="597.154" gradientUnits="userSpaceOnUse">
<stop stop-color="#185B83"/>
<stop offset="0.48" stop-color="#0B5A47"/>
<stop offset="1" stop-color="#45EFD2"/>
</linearGradient>
<linearGradient id="paint13_linear_2150_6338" x1="55.2834" y1="587.919" x2="35.4366" y2="611.459" gradientUnits="userSpaceOnUse">
<stop stop-color="#185B83"/>
<stop offset="0.48" stop-color="#0B5A47"/>
<stop offset="1" stop-color="#45EFD2"/>
</linearGradient>
<linearGradient id="paint14_linear_2150_6338" x1="133.277" y1="459.604" x2="56.0646" y2="551.185" gradientUnits="userSpaceOnUse">
<stop stop-color="#185B83"/>
<stop offset="0.48" stop-color="#0B5A47"/>
<stop offset="1" stop-color="#45EFD2"/>
</linearGradient>
<linearGradient id="paint15_linear_2150_6338" x1="139.5" y1="541.953" x2="119.653" y2="565.493" gradientUnits="userSpaceOnUse">
<stop stop-color="#185B83"/>
<stop offset="0.48" stop-color="#0B5A47"/>
<stop offset="1" stop-color="#45EFD2"/>
</linearGradient>
<linearGradient id="paint16_linear_2150_6338" x1="86.8902" y1="421.733" x2="9.67346" y2="513.319" gradientUnits="userSpaceOnUse">
<stop stop-color="#185B83"/>
<stop offset="0.48" stop-color="#0B5A47"/>
<stop offset="1" stop-color="#45EFD2"/>
</linearGradient>
<linearGradient id="paint17_linear_2150_6338" x1="93.1076" y1="504.077" x2="73.2652" y2="527.612" gradientUnits="userSpaceOnUse">
<stop stop-color="#185B83"/>
<stop offset="0.48" stop-color="#0B5A47"/>
<stop offset="1" stop-color="#45EFD2"/>
</linearGradient>
<linearGradient id="paint18_linear_2150_6338" x1="223.731" y1="534.676" x2="146.519" y2="626.257" gradientUnits="userSpaceOnUse">
<stop stop-color="#185B83"/>
<stop offset="0.48" stop-color="#0B5A47"/>
<stop offset="1" stop-color="#45EFD2"/>
</linearGradient>
<linearGradient id="paint19_linear_2150_6338" x1="160.143" y1="520.368" x2="140.296" y2="543.909" gradientUnits="userSpaceOnUse">
<stop stop-color="#185B83"/>
<stop offset="0.48" stop-color="#0B5A47"/>
<stop offset="1" stop-color="#45EFD2"/>
</linearGradient>
<linearGradient id="paint20_linear_2150_6338" x1="139.515" y1="580.643" x2="62.3024" y2="672.224" gradientUnits="userSpaceOnUse">
<stop stop-color="#185B83"/>
<stop offset="0.48" stop-color="#0B5A47"/>
<stop offset="1" stop-color="#45EFD2"/>
</linearGradient>
<linearGradient id="paint21_linear_2150_6338" x1="75.9318" y1="566.337" x2="56.085" y2="589.877" gradientUnits="userSpaceOnUse">
<stop stop-color="#185B83"/>
<stop offset="0.48" stop-color="#0B5A47"/>
<stop offset="1" stop-color="#45EFD2"/>
</linearGradient>
<linearGradient id="paint22_linear_2150_6338" x1="185.902" y1="618.513" x2="108.685" y2="710.099" gradientUnits="userSpaceOnUse">
<stop stop-color="#185B83"/>
<stop offset="0.48" stop-color="#0B5A47"/>
<stop offset="1" stop-color="#45EFD2"/>
</linearGradient>
<clipPath id="clip0_2150_6338">
<rect width="695.284" height="743" fill="white" transform="translate(-140.074) rotate(40.1344)"/>
</clipPath>
</defs>
</svg>
