<svg width="62" height="61" viewBox="0 0 62 61" fill="none" xmlns="http://www.w3.org/2000/svg">
<rect x="2.5" y="1.24719" width="59" height="59" rx="29.5" stroke="#DEDEDE"/>
<g clip-path="url(#clip0_257_4403)">
<path d="M43.2808 38.3031L44.571 39.5789L46.2527 37.8783C46.4875 37.6408 46.8705 37.6387 47.108 37.8736C47.3455 38.1084 47.3477 38.4914 47.1128 38.7289L45.0059 40.8596C44.771 41.0971 44.388 41.0992 44.1506 40.8643L42.4303 39.1632C42.1928 38.9284 42.1906 38.5454 42.4255 38.3079C42.6604 38.0704 43.0433 38.0683 43.2808 38.3031Z" fill="black"/>
<path d="M24.3119 25.387H32.744C33.078 25.387 33.3488 25.1162 33.3488 24.7821C33.3488 24.4481 33.078 24.1773 32.744 24.1773H24.3119C23.9779 24.1773 23.707 24.4481 23.707 24.7821C23.707 25.1162 23.9778 25.387 24.3119 25.387Z" fill="black"/>
<path d="M34.847 35.0593H24.3119C23.9779 35.0593 23.707 35.3301 23.707 35.6642C23.707 35.9982 23.9779 36.269 24.3119 36.269H34.8471C35.1811 36.269 35.4519 35.9982 35.4519 35.6642C35.4519 35.3301 35.1811 35.0593 34.847 35.0593Z" fill="black"/>
<path d="M34.847 38.6866H24.3119C23.9779 38.6866 23.707 38.9574 23.707 39.2915C23.707 39.6255 23.9779 39.8963 24.3119 39.8963H34.8471C35.1811 39.8963 35.4519 39.6255 35.4519 39.2915C35.4519 38.9574 35.1811 38.6866 34.847 38.6866Z" fill="black"/>
<path d="M38.248 31.432H24.3119C23.9779 31.432 23.707 31.7028 23.707 32.0368C23.707 32.3709 23.9779 32.6417 24.3119 32.6417H38.248C38.5819 32.6417 38.8528 32.3709 38.8528 32.0368C38.8528 31.7028 38.5819 31.432 38.248 31.432Z" fill="black"/>
<path d="M49.1602 34.9883C47.3571 33.1852 44.6979 32.7475 42.4787 33.6746V22.9834C42.4787 22.541 42.3065 22.1251 41.9937 21.8124L36.4142 16.2321C36.2842 16.1022 36.133 15.996 35.969 15.9162C35.9634 15.9132 35.9576 15.9106 35.952 15.9077C35.9513 15.9073 35.9506 15.9069 35.9498 15.9066C35.932 15.8976 35.9137 15.8895 35.8949 15.8823C35.6898 15.7945 35.4675 15.7472 35.2426 15.7472H21.8002C20.8351 15.7472 20.0498 16.5324 20.0498 17.4976V44.9968C20.0498 45.962 20.835 46.7472 21.8001 46.7472H40.7283C41.6525 46.7472 42.4201 46.0247 42.4758 45.1022C42.4766 45.0901 42.4769 45.0779 42.4769 45.0658V44.9404C43.231 45.2557 44.0357 45.4137 44.8406 45.4137C46.4049 45.4137 47.9693 44.8183 49.1602 43.6274C50.314 42.4736 50.9494 40.9395 50.9494 39.3078C50.9494 37.6761 50.314 36.1421 49.1602 34.9883ZM40.4138 21.9431H36.4171C36.343 21.9431 36.2828 21.8831 36.2828 21.8094V17.8117L40.4138 21.9431ZM41.2673 45.0442C41.2429 45.322 41.0089 45.5375 40.7284 45.5375H21.8002C21.502 45.5375 21.2595 45.295 21.2595 44.9968V17.4976C21.2595 17.1994 21.5021 16.9569 21.8002 16.9569H35.0732V21.8094C35.0732 22.5501 35.6761 23.1527 36.4172 23.1527H41.2691V34.3517C41.0071 34.5407 40.7567 34.7527 40.5211 34.9883C39.3673 36.1421 38.7319 37.6762 38.7319 39.3079C38.7319 40.9396 39.3673 42.4736 40.5211 43.6275C40.7562 43.8626 41.006 44.074 41.2673 44.2627V45.0442H41.2673ZM48.3048 42.7721C46.3946 44.6822 43.2866 44.6822 41.3764 42.7721C40.4511 41.8467 39.9414 40.6164 39.9414 39.3079C39.9414 37.9993 40.4511 36.769 41.3764 35.8437C42.3315 34.8886 43.586 34.4111 44.8406 34.4111C46.0951 34.4111 47.3496 34.8886 48.3047 35.8437C49.2301 36.7691 49.7397 37.9993 49.7397 39.3079C49.7397 40.6164 49.2301 41.8467 48.3048 42.7721Z" fill="black"/>
<path d="M24.2513 29.0535H35.1632C35.4972 29.0535 35.7681 28.7827 35.7681 28.4486C35.7681 28.1146 35.4972 27.8438 35.1632 27.8438H24.2513C23.9173 27.8438 23.6465 28.1146 23.6465 28.4486C23.6465 28.7827 23.9173 29.0535 24.2513 29.0535Z" fill="black"/>
<path d="M38.1735 29.0538C38.5077 29.0538 38.7786 28.7828 38.7786 28.4486C38.7786 28.1144 38.5077 27.8435 38.1735 27.8435C37.8393 27.8435 37.5684 28.1144 37.5684 28.4486C37.5684 28.7828 37.8393 29.0538 38.1735 29.0538Z" fill="black"/>
</g>
<g opacity="0.25" filter="url(#filter0_bf_257_4403)">
<rect width="24.7655" height="23.936" rx="8" transform="matrix(0.985853 0.167615 -0.19185 0.981424 12.5918 11.7472)" fill="#45EFD2"/>
</g>
<defs>
<filter id="filter0_bf_257_4403" x="-118.615" y="-115.027" width="282.236" height="281.19" filterUnits="userSpaceOnUse" color-interpolation-filters="sRGB">
<feFlood flood-opacity="0" result="BackgroundImageFix"/>
<feGaussianBlur in="BackgroundImageFix" stdDeviation="64"/>
<feComposite in2="SourceAlpha" operator="in" result="effect1_backgroundBlur_257_4403"/>
<feBlend mode="normal" in="SourceGraphic" in2="effect1_backgroundBlur_257_4403" result="shape"/>
<feGaussianBlur stdDeviation="4.3" result="effect2_foregroundBlur_257_4403"/>
</filter>
<clipPath id="clip0_257_4403">
<rect width="31" height="31" fill="white" transform="translate(20 15.7472)"/>
</clipPath>
</defs>
</svg>
