<svg width="20" height="21" viewBox="0 0 20 21" fill="none" xmlns="http://www.w3.org/2000/svg">
<path d="M1.66602 6.33332V2.16666H5.83268V3.83332H3.33268V6.33332H1.66602ZM1.66602 18.8333V14.6667H3.33268V17.1667H5.83268V18.8333H1.66602ZM14.166 18.8333V17.1667H16.666V14.6667H18.3327V18.8333H14.166ZM16.666 6.33332V3.83332H14.166V2.16666H18.3327V6.33332H16.666ZM14.5827 15.0833H15.8327V16.3333H14.5827V15.0833ZM14.5827 12.5833H15.8327V13.8333H14.5827V12.5833ZM13.3327 13.8333H14.5827V15.0833H13.3327V13.8333ZM12.0827 15.0833H13.3327V16.3333H12.0827V15.0833ZM10.8327 13.8333H12.0827V15.0833H10.8327V13.8333ZM13.3327 11.3333H14.5827V12.5833H13.3327V11.3333ZM12.0827 12.5833H13.3327V13.8333H12.0827V12.5833ZM10.8327 11.3333H12.0827V12.5833H10.8327V11.3333ZM15.8327 4.66666V9.66666H10.8327V4.66666H15.8327ZM9.16602 11.3333V16.3333H4.16602V11.3333H9.16602ZM9.16602 4.66666V9.66666H4.16602V4.66666H9.16602ZM7.91602 15.0833V12.5833H5.41602V15.0833H7.91602ZM7.91602 8.41666V5.91666H5.41602V8.41666H7.91602ZM14.5827 8.41666V5.91666H12.0827V8.41666H14.5827Z" fill="black"/>
</svg>
