<svg width="70" height="70" viewBox="0 0 70 70" fill="none" xmlns="http://www.w3.org/2000/svg">
<path fill-rule="evenodd" clip-rule="evenodd" d="M35.0007 6.58334C19.3066 6.58334 6.58398 19.3059 6.58398 35C6.58398 50.6941 19.3066 63.4167 35.0007 63.4167C50.6947 63.4167 63.4173 50.6941 63.4173 35C63.4173 19.3059 50.6947 6.58334 35.0007 6.58334ZM48.4523 29.0767C49.4612 28.0678 49.4612 26.4322 48.4523 25.4233C47.4435 24.4145 45.8078 24.4145 44.799 25.4233L31.1257 39.0966L25.2023 33.1733C24.1935 32.1645 22.5578 32.1645 21.549 33.1733C20.5401 34.1822 20.5401 35.8178 21.549 36.8267L29.299 44.5767C30.3078 45.5856 31.9435 45.5856 32.9523 44.5767L48.4523 29.0767Z" fill="#33C4AC"/>
<path d="M48.4523 25.4233C49.4612 26.4322 49.4612 28.0678 48.4523 29.0767L32.9523 44.5767C31.9435 45.5856 30.3078 45.5856 29.299 44.5767L21.549 36.8267C20.5401 35.8178 20.5401 34.1822 21.549 33.1733C22.5578 32.1645 24.1935 32.1645 25.2023 33.1733L31.1257 39.0966L44.799 25.4233C45.8078 24.4145 47.4435 24.4145 48.4523 25.4233Z" fill="#33C4AC"/>
<mask id="mask0_3_57628" style="mask-type:alpha" maskUnits="userSpaceOnUse" x="6" y="6" width="58" height="58">
<path fill-rule="evenodd" clip-rule="evenodd" d="M34.9987 6.58337C19.3046 6.58337 6.58203 19.3059 6.58203 35C6.58203 50.6941 19.3046 63.4167 34.9987 63.4167C50.6928 63.4167 63.4154 50.6941 63.4154 35C63.4154 19.3059 50.6928 6.58337 34.9987 6.58337ZM48.4504 29.0767C49.4592 28.0679 49.4592 26.4322 48.4504 25.4233C47.4415 24.4145 45.8059 24.4145 44.797 25.4233L31.1237 39.0967L25.2004 33.1733C24.1915 32.1645 22.5559 32.1645 21.547 33.1733C20.5382 34.1822 20.5382 35.8179 21.547 36.8267L29.297 44.5767C30.3059 45.5856 31.9415 45.5856 32.9504 44.5767L48.4504 29.0767Z" fill="#33C4AC"/>
<path d="M48.4504 25.4233C49.4592 26.4322 49.4592 28.0679 48.4504 29.0767L32.9504 44.5767C31.9415 45.5856 30.3059 45.5856 29.297 44.5767L21.547 36.8267C20.5382 35.8179 20.5382 34.1822 21.547 33.1733C22.5559 32.1645 24.1915 32.1645 25.2004 33.1733L31.1237 39.0967L44.797 25.4233C45.8059 24.4145 47.4415 24.4145 48.4504 25.4233Z" fill="#33C4AC"/>
</mask>
<g mask="url(#mask0_3_57628)">
<path d="M17.265 61.9402C17.1671 62.6324 16.8732 63.2528 16.39 63.7556C16.3051 63.847 16.4422 63.9841 16.5271 63.8927C17.0299 63.3638 17.3499 62.7108 17.4479 61.9859C17.4675 61.8684 17.2781 61.8162 17.265 61.9402V61.9402Z" fill="#E8E8E8"/>
<path d="M17.2929 62.0512C17.541 62.6127 17.8675 63.1221 18.2724 63.5857C18.3573 63.6837 18.4944 63.54 18.4095 63.4486C18.0112 62.998 17.6978 62.5017 17.4627 61.9532C17.417 61.8357 17.2472 61.9336 17.2929 62.0512V62.0512Z" fill="#E8E8E8"/>
<path d="M44.2556 47.6328C44.112 47.9985 43.9552 48.3707 43.6353 48.6189C43.5373 48.6972 43.6744 48.8343 43.7724 48.756C44.1185 48.4883 44.2883 48.0834 44.4385 47.6851C44.4907 47.5675 44.3013 47.5153 44.2556 47.6328V47.6328Z" fill="#E8E8E8"/>
<path d="M44.3256 47.7308C44.4236 48.0638 44.5738 48.3707 44.7827 48.645C44.8546 48.7429 45.0309 48.645 44.9525 48.547C44.7566 48.2858 44.6064 47.9985 44.515 47.6785C44.4758 47.5544 44.2864 47.6067 44.3256 47.7308V47.7308Z" fill="#E8E8E8"/>
<path d="M43.6718 48.7757C43.8873 49.0434 44.0375 49.3438 44.1289 49.6703C44.1616 49.7944 44.351 49.7421 44.3183 49.6181C44.2204 49.2524 44.044 48.9259 43.809 48.632C43.7306 48.5406 43.5935 48.6777 43.6718 48.7757V48.7757Z" fill="#E8E8E8"/>
<path d="M44.3144 49.7355C44.4907 49.3371 44.7062 48.9649 44.9674 48.6188C45.0458 48.5209 44.876 48.4229 44.7976 48.5209C44.5364 48.867 44.3144 49.2392 44.1446 49.6375C44.0924 49.7485 44.2622 49.8465 44.3144 49.7355V49.7355Z" fill="#E8E8E8"/>
<path d="M56.0974 62.802C55.9668 63.1873 55.7644 63.5399 55.4967 63.8468C55.4118 63.9448 55.5555 64.0819 55.6338 63.984C55.9277 63.6509 56.1432 63.2722 56.2868 62.8543C56.326 62.7367 56.1366 62.6845 56.0974 62.802V62.802Z" fill="#E8E8E8"/>
<path d="M56.0884 62.9655C56.1798 63.1353 56.1994 63.3377 56.2777 63.5205C56.3496 63.6903 56.441 63.847 56.552 63.9972C56.6238 64.0952 56.7936 63.9972 56.7218 63.8993C56.5977 63.736 56.4997 63.5597 56.4279 63.3638C56.3691 63.2006 56.343 63.0242 56.2581 62.8675C56.1994 62.7565 56.0296 62.8545 56.0884 62.9655V62.9655Z" fill="#E8E8E8"/>
<path fill-rule="evenodd" clip-rule="evenodd" d="M58.1337 36.46L57.4611 36.1988L56.8668 36.5971L56.906 35.8788L56.3379 35.4348L57.0366 35.2519L57.2847 34.5728L57.6766 35.1866L58.3949 35.2127L57.9378 35.7678L58.1337 36.46Z" stroke="#E8E8E8"/>
<path d="M56.9872 34.1941C57.9798 32.5159 59.1944 30.9878 60.6179 29.6492C60.7093 29.5643 60.5722 29.4271 60.4808 29.512C59.0507 30.8572 57.8165 32.3983 56.8174 34.0961C56.7521 34.2071 56.9219 34.3051 56.9872 34.1941V34.1941Z" fill="#E8E8E8"/>
<path d="M58.3964 33.8675C59.9897 31.4841 61.9944 29.401 64.3126 27.7162C64.4105 27.6444 64.3191 27.4746 64.2146 27.5464C61.8703 29.2508 59.8395 31.36 58.2331 33.7696C58.1547 33.8741 58.3245 33.972 58.3964 33.8675V33.8675Z" fill="#E8E8E8"/>
<path d="M58.7484 35.7481C59.519 34.8013 60.3418 33.8871 61.1972 33.0186C61.2886 32.9271 61.1449 32.79 61.0601 32.8814C60.1981 33.7499 59.3818 34.6641 58.6113 35.611C58.5329 35.7024 58.6701 35.8461 58.7484 35.7481V35.7481Z" fill="#E8E8E8"/>
<path d="M36.3844 24.0072C35.862 22.9428 36.9851 21.9307 37.9516 21.7609C39.1531 21.5519 40.4069 21.9699 41.6084 22.0678C43.8939 22.2572 46.2251 21.9895 48.4062 21.2973C49.5098 20.9447 50.5676 20.4875 51.5798 19.9325C52.6638 19.3383 53.702 18.6657 54.7926 18.0845C55.8831 17.4968 57.0454 17.0005 58.2796 16.7981C59.4942 16.5956 60.7023 16.7524 61.8385 17.216C62.9029 17.6535 63.9869 18.3065 64.8162 19.1097C65.6716 19.939 65.9459 21.0622 65.4561 22.1723C64.4766 24.3729 61.6491 24.706 59.5334 24.7908C57.2544 24.8823 54.9166 24.6602 52.6964 25.2871C50.4435 25.9271 48.7719 27.5792 46.8128 28.7611C44.8146 29.9692 42.4965 30.7985 40.1326 30.6418C38.1409 30.5112 36.1297 29.5839 34.8824 27.9971C34.5755 27.6053 34.3209 27.1743 34.125 26.7172C34.0727 26.5997 33.9029 26.7042 33.9552 26.8152C34.7714 28.6893 36.5215 29.9822 38.4478 30.5373C40.6746 31.1772 43.045 30.7658 45.1281 29.8516C46.2839 29.3423 47.3483 28.6762 48.3735 27.9383C49.3726 27.22 50.3652 26.4625 51.4818 25.9401C53.8457 24.83 56.523 25.0586 59.0567 24.9933C61.1659 24.941 63.8759 24.7582 65.2406 22.8906C65.8088 22.1135 66.083 21.0622 65.7435 20.1284C65.3647 19.1097 64.3852 18.4371 63.5102 17.8755C62.5045 17.2291 61.3879 16.7132 60.1994 16.5565C58.9653 16.3867 57.718 16.6218 56.5557 17.0462C54.0873 17.9539 52.0238 19.6713 49.5881 20.6508C47.2438 21.5977 44.6906 22.0286 42.17 21.898C41.4843 21.8654 40.7987 21.7805 40.1195 21.6695C39.5253 21.5715 38.9245 21.4671 38.3172 21.5062C37.3769 21.565 36.4562 22.0352 36.1297 22.969C35.9991 23.3477 36.0187 23.733 36.195 24.0921C36.2733 24.2162 36.4366 24.1183 36.3844 24.0072V24.0072Z" fill="#E8E8E8"/>
<path d="M39.2465 23.2301C42.6226 23.6741 46.09 23.328 49.3094 22.2179C52.4177 21.147 55.2517 19.0117 58.5951 18.7309C60.2602 18.5872 62.0038 18.9203 63.2902 20.0434C63.3816 20.1283 63.5253 19.9912 63.4273 19.9063C61.1026 17.8689 57.7331 18.3717 55.1015 19.4492C53.4951 20.1022 51.9736 20.9576 50.3672 21.6172C48.7216 22.2898 46.9977 22.7534 45.2411 23.0081C43.256 23.2954 41.2382 23.3019 39.2531 23.0407C39.1225 23.0146 39.1225 23.2105 39.2465 23.2301V23.2301Z" fill="#E8E8E8"/>
<path d="M44.3966 27.0045C45.7092 26.9 46.878 26.2928 47.9947 25.6397C49.2158 24.928 50.4043 24.2031 51.7952 23.8766C54.7925 23.1779 57.9138 23.9615 60.9242 23.3346C62.2628 23.0538 63.8823 22.2376 63.7517 20.6247C63.7386 20.5006 63.5427 20.5006 63.5558 20.6247C63.6864 22.2768 61.9167 22.9624 60.5911 23.1975C59.1415 23.4522 57.6591 23.413 56.1964 23.3869C54.7859 23.3608 53.3558 23.3477 51.9649 23.6416C50.6785 23.9093 49.5488 24.497 48.4257 25.1565C47.1654 25.8944 45.8789 26.6911 44.3901 26.8086C44.2725 26.8152 44.2725 27.0111 44.3966 27.0045V27.0045Z" fill="#E8E8E8"/>
<path d="M49.5196 28.4803C51.028 27.4224 52.6409 26.4494 54.4432 25.9923C56.4022 25.496 58.4396 25.6593 60.4313 25.816C60.5554 25.8291 60.5554 25.6332 60.4313 25.6201C58.42 25.4569 56.3631 25.3001 54.391 25.803C52.5756 26.2666 50.9431 27.2396 49.4216 28.3105C49.3171 28.3889 49.4151 28.5586 49.5196 28.4803V28.4803Z" fill="#E8E8E8"/>
<path d="M8.35551 24.83C7.96371 24.5753 7.63068 24.2162 7.51967 23.746C7.41519 23.3085 7.56538 22.7926 7.95065 22.5314C8.34245 22.2637 8.85833 22.3812 9.30237 22.3486C9.66152 22.3225 10.0141 22.2311 10.3406 22.0874C11.823 21.454 12.7306 20.0435 13.8473 18.9595C14.4154 18.411 15.0945 17.8755 15.8847 17.6992C16.616 17.5359 17.589 17.7123 17.7718 18.5677C17.9873 19.5668 17.0601 20.3047 16.3352 20.7944C15.5059 21.3495 14.6766 21.898 13.8473 22.4531C12.9461 23.0538 12.0581 23.6873 11.1308 24.2488C10.2688 24.7778 9.1783 25.1957 8.22491 24.6341C8.1139 24.5688 8.01595 24.7386 8.12696 24.8039C8.91057 25.2675 9.84436 25.1304 10.6345 24.7517C11.6532 24.2684 12.587 23.5305 13.5208 22.9102C14.4938 22.2637 15.4667 21.6238 16.4397 20.9708C17.1515 20.4941 17.9024 19.8998 17.9873 18.9791C18.0592 18.2085 17.5368 17.6208 16.7923 17.4902C15.9891 17.3466 15.199 17.6796 14.5525 18.1302C12.9657 19.2403 12.0385 21.2254 10.1774 21.9568C9.8966 22.0678 9.60275 22.1396 9.3089 22.1658C9.02158 22.1853 8.73426 22.1527 8.44693 22.1853C8.01595 22.2311 7.66333 22.44 7.4609 22.8253C7.02338 23.6611 7.54579 24.5427 8.26409 25.0063C8.36204 25.0651 8.45999 24.9018 8.35551 24.83V24.83Z" fill="#E8E8E8"/>
<path d="M13.9723 16.8698C13.8482 16.0144 14.9191 15.7663 15.5003 15.492C15.8007 15.3483 16.0684 15.159 16.3427 14.9761C16.4798 14.8847 16.6169 14.7933 16.7606 14.7149C16.9304 14.6235 17.1393 14.4799 17.283 14.6627C17.3875 14.7933 17.3418 14.8259 17.2765 14.9696C17.2438 15.0349 17.2112 15.1067 17.172 15.172C17.0806 15.3353 16.9761 15.4985 16.8455 15.6357C16.5777 15.9165 16.1925 15.9556 15.8464 16.0928C15.5786 16.1973 15.3174 16.3279 15.0758 16.478C14.7689 16.6739 14.3836 17.1115 13.9918 16.8894C13.8808 16.8241 13.7829 16.9939 13.8939 17.0592C14.24 17.2551 14.5665 17.0788 14.8603 16.8698C15.3174 16.5433 15.7876 16.3083 16.3231 16.145C16.7475 16.0144 17.0153 15.7989 17.2569 15.4202C17.394 15.2047 17.7074 14.7606 17.505 14.4994C17.3222 14.2709 16.9695 14.395 16.7541 14.4994C16.2969 14.7345 15.9051 15.0741 15.4415 15.3026C14.7428 15.6422 13.6327 15.9165 13.7764 16.9286C13.8025 17.0462 13.9918 16.9939 13.9723 16.8698V16.8698Z" fill="#E8E8E8"/>
<path d="M8.69134 23.6478C8.48891 23.6152 8.51503 23.4388 8.56074 23.3213C8.61951 23.1776 8.74358 23.1254 8.88724 23.0797C9.04397 23.034 9.22028 23.0275 9.38353 23.0079C9.74921 22.9491 10.1018 22.8511 10.4414 22.714C11.0944 22.4463 11.6886 22.061 12.2372 21.6235C12.8575 21.1272 13.4191 20.5722 14.0003 20.0302C14.5684 19.4947 15.2018 18.8221 16.0442 18.8482C16.0115 18.8156 15.9789 18.7829 15.9462 18.7503C16.0181 19.5143 15.3128 20.0236 14.7578 20.4154C14.0917 20.8856 13.4322 21.3623 12.7661 21.8325C12.1523 22.27 11.545 22.7271 10.9181 23.1385C10.6046 23.3409 10.2781 23.5368 9.92552 23.6674C9.58596 23.7915 9.05703 23.9808 8.77623 23.6609C8.69134 23.5695 8.55421 23.7066 8.6391 23.798C9.08315 24.3008 9.97776 23.8894 10.4545 23.6413C11.2772 23.2168 12.0151 22.6095 12.7726 22.0741C13.5562 21.5125 14.3594 20.9705 15.1365 20.3893C15.6654 19.991 16.2205 19.4621 16.1552 18.7437C16.1487 18.6915 16.116 18.6458 16.0572 18.6458C15.1757 18.6197 14.5096 19.2857 13.9154 19.8473C13.1644 20.5526 12.4396 21.2905 11.5907 21.8716C11.1858 22.1459 10.7548 22.3875 10.2977 22.5638C9.85369 22.7336 9.40965 22.7858 8.94602 22.8773C8.67828 22.9295 8.40402 23.0536 8.35178 23.3474C8.3126 23.5695 8.41708 23.8045 8.65869 23.8437C8.76317 23.8568 8.82194 23.6674 8.69134 23.6478V23.6478Z" fill="#E8E8E8"/>
<path d="M3.21969 34.3965C3.01726 34.723 3.11521 35.154 3.41559 35.3956C3.85964 35.7482 4.33633 35.3695 4.71507 35.1148C5.02852 34.8993 5.47909 34.7557 5.69458 35.1736C5.79253 35.3695 5.82518 35.598 5.9166 35.8005C5.9819 35.9507 6.07332 36.0813 6.23004 36.1466C6.53043 36.2772 6.82428 36.0486 7.13119 36.0943C7.25526 36.1139 7.3075 35.9245 7.18343 35.9049C6.96141 35.8723 6.7851 35.9507 6.56961 35.9833C6.20392 36.029 6.10597 35.7874 6.01455 35.5001C5.92313 35.2128 5.83824 34.8797 5.53786 34.7491C5.15259 34.5793 4.76078 34.8536 4.45387 35.0626C4.20573 35.2389 3.87923 35.4609 3.57231 35.2715C3.31764 35.1083 3.23275 34.7557 3.38947 34.501C3.45477 34.3834 3.28499 34.2855 3.21969 34.3965V34.3965Z" fill="#E8E8E8"/>
<path d="M6.9809 34.0111C6.8503 34.3572 7.09844 34.6446 7.41188 34.7621C7.68614 34.8666 9.12275 34.9384 9.04439 35.3825C9.0248 35.5065 9.20764 35.5588 9.23376 35.4347C9.42313 34.4225 6.81112 35.0102 7.17027 34.0634C7.21598 33.9458 7.02661 33.8936 6.9809 34.0111V34.0111Z" fill="#E8E8E8"/>
<path d="M10.2634 59.5958C10.3875 59.7917 10.5965 59.7199 10.6879 59.5305C10.8968 59.1061 10.8838 58.6033 11.3539 58.3355C11.8437 58.0547 12.1571 58.5184 12.6208 58.5706C12.9799 58.6098 13.3325 58.4204 13.5742 58.1723C13.868 57.8654 14.0247 57.4605 14.2272 57.0883C14.3447 56.8728 14.5014 56.7618 14.7234 56.9381C14.7953 56.9969 14.854 57.0687 14.9193 57.1275C15.0108 57.2058 15.1087 57.2777 15.2263 57.3234C15.7878 57.565 16.48 57.3364 16.7804 56.814C16.8457 56.703 16.6759 56.6051 16.6106 56.7161C16.4278 57.036 16.0817 57.2254 15.7095 57.2254C15.2785 57.2254 15.1087 56.9707 14.7887 56.7422C14.188 56.3112 13.9268 57.2907 13.7048 57.6695C13.4501 58.0939 13.006 58.5184 12.4706 58.3355C12.1702 58.231 11.9416 58.009 11.6021 58.0547C11.3213 58.0874 11.0797 58.2637 10.9164 58.4857C10.825 58.6098 10.7597 58.7469 10.7009 58.884C10.6618 58.982 10.6291 59.0799 10.5965 59.1844C10.5834 59.2171 10.4724 59.5436 10.4397 59.4979C10.3614 59.3934 10.1916 59.4913 10.2634 59.5958V59.5958Z" fill="#E8E8E8"/>
<path d="M14.4437 58.8189C14.5351 58.081 15.593 58.61 15.9848 58.6492C16.3505 58.6883 16.6639 58.5643 16.8402 58.2312C16.9578 58.0027 16.997 57.7219 17.2843 57.6239C17.5194 57.5456 17.8002 57.5978 18.0418 57.5652C18.4923 57.4999 18.9103 57.3301 19.2825 57.0689C19.387 56.9971 19.289 56.8273 19.1845 56.8991C18.9233 57.0819 18.6425 57.2256 18.3356 57.3105C18.0352 57.3889 17.7479 57.3823 17.441 57.4084C16.9578 57.4542 16.8794 57.7611 16.677 58.1398C16.3048 58.8255 15.5212 58.2182 14.9596 58.2378C14.607 58.2508 14.3001 58.4663 14.2543 58.8255C14.2282 58.943 14.4241 58.943 14.4437 58.8189V58.8189Z" fill="#E8E8E8"/>
<path d="M18.1996 43.9434C18.1605 44.3287 17.9776 44.6682 17.6903 44.9229C17.5989 45.0078 17.736 45.1449 17.8274 45.06C18.1605 44.7662 18.3498 44.3809 18.3956 43.9434C18.4086 43.8193 18.2127 43.8193 18.1996 43.9434V43.9434Z" fill="#E8E8E8"/>
<path d="M18.2846 44.1851C18.3369 44.492 18.4936 44.7728 18.7352 44.9752C18.8331 45.0601 18.9703 44.9164 18.8723 44.8381C18.6568 44.6552 18.5197 44.4136 18.474 44.1328C18.4544 44.0088 18.265 44.061 18.2846 44.1851V44.1851Z" fill="#E8E8E8"/>
<path d="M17.6601 45.2168C17.8756 45.4715 18.0127 45.7653 18.0715 46.0918C18.0976 46.2159 18.287 46.1636 18.2609 46.0396C18.1891 45.6804 18.0323 45.3604 17.7972 45.0797C17.7189 44.9817 17.5818 45.1254 17.6601 45.2168V45.2168Z" fill="#E8E8E8"/>
<path d="M18.3709 46.0525C18.4558 45.726 18.5994 45.4321 18.8084 45.1644C18.8867 45.0664 18.7496 44.9293 18.6713 45.0273C18.4362 45.3146 18.2729 45.6411 18.1815 46.0002C18.1489 46.1243 18.3382 46.1765 18.3709 46.0525V46.0525Z" fill="#E8E8E8"/>
<path d="M43.687 56.7618C43.6347 57.1666 43.9743 57.467 44.3661 57.4997C45.0517 57.5454 45.4631 56.801 46.1031 56.6834C46.5798 56.5985 46.7561 56.9773 47.0108 57.2907C47.161 57.467 47.3503 57.5976 47.5723 57.6629C48.0229 57.8 48.5257 57.6694 48.8457 57.3234C48.9306 57.2319 48.7935 57.0948 48.7086 57.1862C48.3755 57.5454 47.8074 57.6368 47.3895 57.3625C47.0173 57.1275 46.9193 56.6181 46.4688 56.494C46.0639 56.383 45.659 56.6116 45.3456 56.8401C45.1432 56.9903 44.9407 57.1536 44.6991 57.2385C44.3987 57.3429 43.8241 57.2581 43.8894 56.8075C43.8894 56.6899 43.7066 56.6377 43.687 56.7618V56.7618Z" fill="#E8E8E8"/>
<path d="M46.0083 58.7337C46.485 58.4921 47.0401 58.4594 47.5298 58.6684C47.889 58.8251 48.1567 59.1059 48.5747 59.0863C48.9469 59.0733 49.2799 58.8708 49.5999 58.6945C49.9982 58.479 50.7687 58.1982 50.9777 58.8186C51.0169 58.9361 51.2063 58.8839 51.1671 58.7663C51.0495 58.4333 50.7361 58.2505 50.39 58.2374C49.8545 58.2243 49.4301 58.6227 48.9534 58.799C48.5877 58.9361 48.3004 58.8839 47.9674 58.688C47.7519 58.5574 47.5429 58.4398 47.2948 58.3811C46.8181 58.2701 46.3348 58.3419 45.9039 58.5574C45.7994 58.6227 45.8973 58.7859 46.0083 58.7337V58.7337Z" fill="#E8E8E8"/>
<path d="M48.7924 45.8109C48.9818 47.0973 49.3605 48.3445 49.9156 49.5199C49.9678 49.6309 50.1376 49.533 50.0854 49.422C49.5369 48.2596 49.1646 47.032 48.9818 45.7586C48.9622 45.6346 48.7728 45.6868 48.7924 45.8109V45.8109Z" fill="#E8E8E8"/>
<path d="M53.106 42.1998C53.3476 43.4405 53.7002 44.6486 54.1704 45.824C54.2161 45.9415 54.4055 45.8893 54.3598 45.7717C53.8961 44.5963 53.537 43.3883 53.2954 42.1476C53.2692 42.0235 53.0799 42.0757 53.106 42.1998V42.1998Z" fill="#E8E8E8"/>
<path d="M54.4231 45.1774C54.8802 46.3855 55.494 47.5282 56.2646 48.5665C56.3364 48.6645 56.5062 48.5665 56.4343 48.4686C55.6768 47.4434 55.063 46.3202 54.6124 45.1252C54.5667 45.0076 54.3774 45.0599 54.4231 45.1774V45.1774Z" fill="#E8E8E8"/>
<path d="M25.0336 32.5679C25.2295 31.5296 25.6866 30.5763 26.3788 29.7796C26.4637 29.6816 26.3201 29.5445 26.2417 29.6425C25.5299 30.4652 25.0467 31.4448 24.8443 32.5157C24.8181 32.6398 25.0075 32.692 25.0336 32.5679V32.5679Z" fill="#E8E8E8"/>
<path d="M24.2572 32.5876C24.3356 32.0522 24.551 31.5755 24.9037 31.1641C24.9886 31.0661 24.8449 30.929 24.7665 31.027C24.3943 31.4579 24.1527 31.9673 24.0678 32.5354C24.0482 32.6529 24.2376 32.7117 24.2572 32.5876V32.5876Z" fill="#E8E8E8"/>
<path d="M38.1939 13.1673C38.8861 13.9444 39.3758 14.8716 39.624 15.8903C39.6566 16.0144 39.846 15.9621 39.8133 15.8381C39.5587 14.7933 39.0559 13.8399 38.3375 13.0301C38.2527 12.9387 38.109 13.0759 38.1939 13.1673V13.1673Z" fill="#E8E8E8"/>
<path d="M39.8712 14.0029C40.2565 14.8583 40.4915 15.7726 40.5699 16.7063C40.583 16.8304 40.7789 16.8304 40.7658 16.7063C40.6874 15.7334 40.4458 14.793 40.041 13.905C39.9887 13.7874 39.819 13.8854 39.8712 14.0029V14.0029Z" fill="#E8E8E8"/>
</g>
<circle cx="35" cy="35" r="34.875" fill="white" fill-opacity="0.1"/>
<circle cx="34.9994" cy="35.0001" r="18.0833" fill="white"/>
<g filter="url(#filter0_di_3_57628)">
<g clip-path="url(#clip0_3_57628)">
<path d="M32.5757 42.7206C32.3785 42.919 32.1093 43.0297 31.8297 43.0297C31.5501 43.0297 31.281 42.919 31.0837 42.7206L25.1258 36.7617C24.5075 36.1434 24.5075 35.1408 25.1258 34.5237L25.8718 33.7775C26.4903 33.1592 27.4918 33.1592 28.1101 33.7775L31.8297 37.4973L41.8808 27.4461C42.4992 26.8278 43.5017 26.8278 44.119 27.4461L44.865 28.1923C45.4833 28.8106 45.4833 29.813 44.865 30.4304L32.5757 42.7206Z" fill="#27AE60"/>
</g>
</g>
<defs>
<filter id="filter0_di_3_57628" x="10.4557" y="22.0834" width="38.7493" height="41.3333" filterUnits="userSpaceOnUse" color-interpolation-filters="sRGB">
<feFlood flood-opacity="0" result="BackgroundImageFix"/>
<feColorMatrix in="SourceAlpha" type="matrix" values="0 0 0 0 0 0 0 0 0 0 0 0 0 0 0 0 0 0 127 0" result="hardAlpha"/>
<feOffset dx="-5.16667" dy="9.04167"/>
<feGaussianBlur stdDeviation="4.52083"/>
<feColorMatrix type="matrix" values="0 0 0 0 0 0 0 0 0 0 0 0 0 0 0 0 0 0 0.25 0"/>
<feBlend mode="normal" in2="BackgroundImageFix" result="effect1_dropShadow_3_57628"/>
<feBlend mode="normal" in="SourceGraphic" in2="effect1_dropShadow_3_57628" result="shape"/>
<feColorMatrix in="SourceAlpha" type="matrix" values="0 0 0 0 0 0 0 0 0 0 0 0 0 0 0 0 0 0 127 0" result="hardAlpha"/>
<feOffset dx="3.875" dy="-2.58333"/>
<feGaussianBlur stdDeviation="2.58333"/>
<feComposite in2="hardAlpha" operator="arithmetic" k2="-1" k3="1"/>
<feColorMatrix type="matrix" values="0 0 0 0 0.183767 0 0 0 0 0.604167 0 0 0 0 0.326703 0 0 0 1 0"/>
<feBlend mode="normal" in2="shape" result="effect2_innerShadow_3_57628"/>
</filter>
<clipPath id="clip0_3_57628">
<rect width="20.6667" height="20.6667" fill="white" transform="translate(24.6641 24.6667)"/>
</clipPath>
</defs>
</svg>
