<svg width="26" height="28" viewBox="0 0 26 28" fill="none" xmlns="http://www.w3.org/2000/svg">
<g filter="url(#filter0_d_76_1220)">
<path d="M13.8686 0.775032C13.8499 1.14378 13.7561 2.10003 13.2999 2.57503C13.1857 2.52478 13.0621 2.49923 12.9374 2.50003H11.0624C10.9376 2.49923 10.8141 2.52478 10.6999 2.57503C10.2436 2.10003 10.1499 1.14378 10.1311 0.775032C10.1277 0.725486 10.1361 0.675829 10.1556 0.630179C10.1752 0.584528 10.2054 0.544198 10.2436 0.512532C10.4405 0.346907 10.8343 0.112532 11.0624 0.625032C11.2186 0.975032 11.453 0.975032 11.6499 0.887532C11.7605 0.838093 11.8803 0.81254 12.0014 0.81254C12.1226 0.81254 12.2424 0.838093 12.353 0.887532C12.5468 0.975032 12.7811 0.975032 12.9374 0.625032C13.1655 0.112532 13.5593 0.346907 13.7561 0.512532C13.7944 0.544198 13.8246 0.584528 13.8441 0.630179C13.8637 0.675829 13.8721 0.725486 13.8686 0.775032Z" fill="#4460F1"/>
<path d="M12.9375 2.8125H11.0625C10.7173 2.8125 10.4375 3.09232 10.4375 3.4375C10.4375 3.78268 10.7173 4.0625 11.0625 4.0625H12.9375C13.2827 4.0625 13.5625 3.78268 13.5625 3.4375C13.5625 3.09232 13.2827 2.8125 12.9375 2.8125Z" fill="#18171C"/>
<path d="M13.2219 4.32812C13.1304 4.35961 13.0343 4.37545 12.9375 4.375H11.0625C10.9657 4.37545 10.8696 4.35961 10.7781 4.32812C9.35625 5.35 4.5 9.14062 4.5 13.4375C4.5 18.4719 7.83437 19.6875 12 19.6875C16.1656 19.6875 19.5 18.4719 19.5 13.4375C19.5 9.14062 14.6438 5.35 13.2219 4.32812ZM9.9 15.575C9.84327 15.6086 9.7784 15.6259 9.7125 15.625C9.6526 15.6251 9.59353 15.611 9.54016 15.5838C9.4868 15.5566 9.44066 15.5171 9.40555 15.4686C9.37045 15.4201 9.34739 15.3639 9.33827 15.3047C9.32916 15.2455 9.33425 15.185 9.35313 15.1281L10.125 12.8125L8.12813 11.6719C8.07034 11.6387 8.0223 11.591 7.98884 11.5334C7.95538 11.4758 7.93767 11.4104 7.9375 11.3437V11.275C7.9378 11.1819 7.97238 11.0922 8.03465 11.0231C8.09691 10.9539 8.18248 10.9101 8.275 10.9L10.75 10.625L11.5969 8.37188C11.6227 8.29911 11.6707 8.23622 11.734 8.19197C11.7973 8.14772 11.8728 8.12431 11.95 8.125H12.05C12.1272 8.12431 12.2027 8.14772 12.266 8.19197C12.3293 8.23622 12.3773 8.29911 12.4031 8.37188L13.25 10.625L15.725 10.9C15.8175 10.9101 15.9031 10.9539 15.9654 11.0231C16.0276 11.0922 16.0622 11.1819 16.0625 11.275V11.3437C16.0623 11.4104 16.0446 11.4758 16.0112 11.5334C15.9777 11.591 15.9297 11.6387 15.8719 11.6719L13.875 12.8125L14.6469 15.1281C14.6658 15.185 14.6708 15.2455 14.6617 15.3047C14.6526 15.3639 14.6295 15.4201 14.5944 15.4686C14.5593 15.5171 14.5132 15.5566 14.4598 15.5838C14.4065 15.611 14.3474 15.6251 14.2875 15.625C14.2216 15.6259 14.1567 15.6086 14.1 15.575L12 14.375L9.9 15.575ZM12.625 18.4375C12.5421 18.4375 12.4626 18.4046 12.404 18.346C12.3454 18.2874 12.3125 18.2079 12.3125 18.125C12.3125 18.0421 12.3454 17.9626 12.404 17.904C12.4626 17.8454 12.5421 17.8125 12.625 17.8125C16.0406 17.8125 17.3125 16.7969 17.3125 14.0719C17.3125 13.989 17.3454 13.9095 17.404 13.8509C17.4626 13.7923 17.5421 13.7594 17.625 13.7594C17.7079 13.7594 17.7874 13.7923 17.846 13.8509C17.9046 13.9095 17.9375 13.989 17.9375 14.0719C17.9375 17.1719 16.4 18.4375 12.625 18.4375Z" fill="#4460F1"/>
<path d="M5.13309 6.2663C5.03291 6.2663 4.93684 6.22651 4.866 6.15567C4.79517 6.08484 4.75537 5.98876 4.75537 5.88859V4.37772C4.75537 4.27754 4.79517 4.18147 4.866 4.11063C4.93684 4.0398 5.03291 4 5.13309 4C5.23327 4 5.32934 4.0398 5.40017 4.11063C5.47101 4.18147 5.51081 4.27754 5.51081 4.37772V5.88859C5.51081 5.98876 5.47101 6.08484 5.40017 6.15567C5.32934 6.22651 5.23327 6.2663 5.13309 6.2663Z" fill="#18171C"/>
<path d="M5.88859 5.51093H4.37772C4.27754 5.51093 4.18147 5.47113 4.11063 5.4003C4.0398 5.32946 4 5.23339 4 5.13321C4 5.03303 4.0398 4.93696 4.11063 4.86612C4.18147 4.79529 4.27754 4.75549 4.37772 4.75549H5.88859C5.98876 4.75549 6.08484 4.79529 6.15567 4.86612C6.22651 4.93696 6.2663 5.03303 6.2663 5.13321C6.2663 5.23339 6.22651 5.32946 6.15567 5.4003C6.08484 5.47113 5.98876 5.51093 5.88859 5.51093Z" fill="#18171C"/>
<path d="M17.1331 2.2663C17.0329 2.2663 16.9368 2.22651 16.866 2.15567C16.7952 2.08484 16.7554 1.98876 16.7554 1.88859V0.377717C16.7554 0.277541 16.7952 0.181467 16.866 0.110631C16.9368 0.0397951 17.0329 0 17.1331 0C17.2333 0 17.3293 0.0397951 17.4002 0.110631C17.471 0.181467 17.5108 0.277541 17.5108 0.377717V1.88859C17.5108 1.98876 17.471 2.08484 17.4002 2.15567C17.3293 2.22651 17.2333 2.2663 17.1331 2.2663Z" fill="#18171C"/>
<path d="M17.8886 1.51093H16.3777C16.2775 1.51093 16.1815 1.47113 16.1106 1.4003C16.0398 1.32946 16 1.23339 16 1.13321C16 1.03303 16.0398 0.93696 16.1106 0.866124C16.1815 0.795288 16.2775 0.755493 16.3777 0.755493H17.8886C17.9888 0.755493 18.0848 0.795288 18.1557 0.866124C18.2265 0.93696 18.2663 1.03303 18.2663 1.13321C18.2663 1.23339 18.2265 1.32946 18.1557 1.4003C18.0848 1.47113 17.9888 1.51093 17.8886 1.51093Z" fill="#18171C"/>
<path d="M19.511 8.02174C19.4108 8.02174 19.3148 7.98194 19.2439 7.91111C19.1731 7.84027 19.1333 7.7442 19.1333 7.64402V5.37772C19.1333 5.27754 19.1731 5.18147 19.2439 5.11063C19.3148 5.03979 19.4108 5 19.511 5C19.6112 5 19.7073 5.03979 19.7781 5.11063C19.8489 5.18147 19.8887 5.27754 19.8887 5.37772V7.64402C19.8887 7.7442 19.8489 7.84027 19.7781 7.91111C19.7073 7.98194 19.6112 8.02174 19.511 8.02174Z" fill="#18171C"/>
<path d="M20.644 6.88861H18.3777C18.2775 6.88861 18.1815 6.84882 18.1106 6.77798C18.0398 6.70715 18 6.61107 18 6.5109C18 6.41072 18.0398 6.31465 18.1106 6.24381C18.1815 6.17297 18.2775 6.13318 18.3777 6.13318H20.644C20.7442 6.13318 20.8403 6.17297 20.9111 6.24381C20.9819 6.31465 21.0217 6.41072 21.0217 6.5109C21.0217 6.61107 20.9819 6.70715 20.9111 6.77798C20.8403 6.84882 20.7442 6.88861 20.644 6.88861Z" fill="#18171C"/>
</g>
<defs>
<filter id="filter0_d_76_1220" x="-2" y="0" width="28" height="28" filterUnits="userSpaceOnUse" color-interpolation-filters="sRGB">
<feFlood flood-opacity="0" result="BackgroundImageFix"/>
<feColorMatrix in="SourceAlpha" type="matrix" values="0 0 0 0 0 0 0 0 0 0 0 0 0 0 0 0 0 0 127 0" result="hardAlpha"/>
<feOffset dy="4"/>
<feGaussianBlur stdDeviation="2"/>
<feComposite in2="hardAlpha" operator="out"/>
<feColorMatrix type="matrix" values="0 0 0 0 0 0 0 0 0 0 0 0 0 0 0 0 0 0 0.25 0"/>
<feBlend mode="normal" in2="BackgroundImageFix" result="effect1_dropShadow_76_1220"/>
<feBlend mode="normal" in="SourceGraphic" in2="effect1_dropShadow_76_1220" result="shape"/>
</filter>
</defs>
</svg>
