<svg width="824" height="61" viewBox="0 0 824 61" fill="none" xmlns="http://www.w3.org/2000/svg">
<path d="M60 30.7472H764" stroke="#DDDDDD"/>
<rect x="0.5" y="1.24719" width="59" height="59" rx="29.5" fill="white"/>
<rect x="0.5" y="1.24719" width="59" height="59" rx="29.5" stroke="#DDDDDD"/>
<path d="M23.534 35.0912C22.862 33.9512 22.526 32.3612 22.526 30.3212C22.526 28.2932 22.862 26.7152 23.534 25.5872C24.206 24.4472 25.37 23.8772 27.026 23.8772C28.682 23.8772 29.846 24.4472 30.518 25.5872C31.202 26.7272 31.544 28.3052 31.544 30.3212C31.544 32.3612 31.202 33.9512 30.518 35.0912C29.846 36.2312 28.682 36.8012 27.026 36.8012C25.37 36.8012 24.206 36.2312 23.534 35.0912ZM29.69 32.9492C29.846 32.2412 29.924 31.3652 29.924 30.3212C29.924 29.2892 29.846 28.4252 29.69 27.7292C29.546 27.0332 29.264 26.4812 28.844 26.0732C28.424 25.6532 27.818 25.4432 27.026 25.4432C26.246 25.4432 25.646 25.6532 25.226 26.0732C24.806 26.4812 24.518 27.0332 24.362 27.7292C24.218 28.4252 24.146 29.2892 24.146 30.3212C24.146 31.3652 24.218 32.2412 24.362 32.9492C24.518 33.6452 24.806 34.2032 25.226 34.6232C25.646 35.0432 26.246 35.2532 27.026 35.2532C27.818 35.2532 28.424 35.0432 28.844 34.6232C29.264 34.2032 29.546 33.6452 29.69 32.9492ZM32.7906 25.5872V24.0572H36.4266V36.7472H34.6986V25.5872H32.7906Z" fill="#051B13"/>
<rect x="382.5" y="1.24719" width="59" height="59" rx="29.5" fill="white"/>
<rect x="382.5" y="1.24719" width="59" height="59" rx="29.5" stroke="#DDDDDD"/>
<path d="M403.034 35.0912C402.362 33.9512 402.026 32.3612 402.026 30.3212C402.026 28.2932 402.362 26.7152 403.034 25.5872C403.706 24.4472 404.87 23.8772 406.526 23.8772C408.182 23.8772 409.346 24.4472 410.018 25.5872C410.702 26.7272 411.044 28.3052 411.044 30.3212C411.044 32.3612 410.702 33.9512 410.018 35.0912C409.346 36.2312 408.182 36.8012 406.526 36.8012C404.87 36.8012 403.706 36.2312 403.034 35.0912ZM409.19 32.9492C409.346 32.2412 409.424 31.3652 409.424 30.3212C409.424 29.2892 409.346 28.4252 409.19 27.7292C409.046 27.0332 408.764 26.4812 408.344 26.0732C407.924 25.6532 407.318 25.4432 406.526 25.4432C405.746 25.4432 405.146 25.6532 404.726 26.0732C404.306 26.4812 404.018 27.0332 403.862 27.7292C403.718 28.4252 403.646 29.2892 403.646 30.3212C403.646 31.3652 403.718 32.2412 403.862 32.9492C404.018 33.6452 404.306 34.2032 404.726 34.6232C405.146 35.0432 405.746 35.2532 406.526 35.2532C407.318 35.2532 407.924 35.0432 408.344 34.6232C408.764 34.2032 409.046 33.6452 409.19 32.9492ZM412.813 35.4872C414.853 34.1192 416.485 32.7632 417.709 31.4192C418.933 30.0632 419.545 28.8032 419.545 27.6392C419.545 26.9192 419.359 26.3432 418.987 25.9112C418.627 25.4672 418.039 25.2452 417.223 25.2452C416.383 25.2452 415.747 25.5152 415.315 26.0552C414.883 26.5832 414.643 27.3152 414.595 28.2512H412.975C413.059 26.8352 413.497 25.7492 414.289 24.9932C415.081 24.2252 416.101 23.8412 417.349 23.8412C418.537 23.8412 419.479 24.1592 420.175 24.7952C420.871 25.4312 421.219 26.3312 421.219 27.4952C421.219 28.4552 420.907 29.4332 420.283 30.4292C419.671 31.4132 418.897 32.3312 417.961 33.1832C417.037 34.0232 416.083 34.7372 415.099 35.3252H421.543V36.6752H412.813V35.4872Z" fill="#051B13"/>
<rect x="764.5" y="1.24719" width="59" height="59" rx="29.5" fill="white"/>
<rect x="764.5" y="1.24719" width="59" height="59" rx="29.5" stroke="#DDDDDD"/>
<path d="M785.034 35.0912C784.362 33.9512 784.026 32.3612 784.026 30.3212C784.026 28.2932 784.362 26.7152 785.034 25.5872C785.706 24.4472 786.87 23.8772 788.526 23.8772C790.182 23.8772 791.346 24.4472 792.018 25.5872C792.702 26.7272 793.044 28.3052 793.044 30.3212C793.044 32.3612 792.702 33.9512 792.018 35.0912C791.346 36.2312 790.182 36.8012 788.526 36.8012C786.87 36.8012 785.706 36.2312 785.034 35.0912ZM791.19 32.9492C791.346 32.2412 791.424 31.3652 791.424 30.3212C791.424 29.2892 791.346 28.4252 791.19 27.7292C791.046 27.0332 790.764 26.4812 790.344 26.0732C789.924 25.6532 789.318 25.4432 788.526 25.4432C787.746 25.4432 787.146 25.6532 786.726 26.0732C786.306 26.4812 786.018 27.0332 785.862 27.7292C785.718 28.4252 785.646 29.2892 785.646 30.3212C785.646 31.3652 785.718 32.2412 785.862 32.9492C786.018 33.6452 786.306 34.2032 786.726 34.6232C787.146 35.0432 787.746 35.2532 788.526 35.2532C789.318 35.2532 789.924 35.0432 790.344 34.6232C790.764 34.2032 791.046 33.6452 791.19 32.9492ZM799.439 23.7152C800.255 23.7152 800.957 23.8592 801.545 24.1472C802.133 24.4352 802.577 24.8312 802.877 25.3352C803.177 25.8392 803.327 26.4092 803.327 27.0452C803.327 27.8372 803.093 28.5032 802.625 29.0432C802.169 29.5832 801.497 29.9072 800.609 30.0152V30.1232C801.533 30.3632 802.253 30.7352 802.769 31.2392C803.297 31.7432 803.561 32.4392 803.561 33.3272C803.561 34.3712 803.213 35.2232 802.517 35.8832C801.821 36.5432 800.819 36.8732 799.511 36.8732C798.203 36.8732 797.141 36.5372 796.325 35.8652C795.521 35.1812 795.047 34.1852 794.903 32.8772H796.523C796.631 33.6692 796.931 34.2992 797.423 34.7672C797.927 35.2352 798.605 35.4692 799.457 35.4692C800.261 35.4692 800.879 35.2652 801.311 34.8572C801.743 34.4372 801.959 33.8972 801.959 33.2372C801.959 32.4452 801.647 31.8452 801.023 31.4372C800.411 31.0172 799.535 30.8072 798.395 30.8072H797.963V29.4392H798.395C800.603 29.4392 801.707 28.7012 801.707 27.2252C801.707 26.5772 801.503 26.0612 801.095 25.6772C800.687 25.2932 800.123 25.1012 799.403 25.1012C798.683 25.1012 798.077 25.3112 797.585 25.7312C797.093 26.1392 796.805 26.7452 796.721 27.5492H795.119C795.203 26.3492 795.617 25.4132 796.361 24.7412C797.117 24.0572 798.143 23.7152 799.439 23.7152Z" fill="#051B13"/>
</svg>
