<svg width="24" height="24" viewBox="0 0 24 24" fill="none" xmlns="http://www.w3.org/2000/svg">
<path opacity="0.4" d="M10.4901 2.23L5.50015 4.10001C4.35015 4.53001 3.41016 5.89 3.41016 7.12V14.55C3.41016 15.73 4.19017 17.28 5.14017 17.99L9.44016 21.2C10.8502 22.26 13.1701 22.26 14.5801 21.2L18.8802 17.99C19.8302 17.28 20.6101 15.73 20.6101 14.55V7.12C20.6101 5.89 19.6701 4.53001 18.5201 4.10001L13.5302 2.23C12.6802 1.92 11.3201 1.92 10.4901 2.23Z" fill="#33C4AC"/>
<path d="M11.9012 11.3C11.9212 11.3 11.9412 11.3 11.9612 11.3H11.9813H12.0013C13.1513 11.26 14.0512 10.33 14.0612 9.17C14.0612 7.99 13.1013 7.03 11.9213 7.03C10.7413 7.03 9.78125 7.99 9.78125 9.17C9.80125 10.32 10.7012 11.26 11.9012 11.3Z" fill="#33C4AC"/>
<path d="M14.1902 13.41C12.9802 12.61 11.0201 12.61 9.80014 13.41C9.24014 13.79 8.91016 14.33 8.91016 14.89C8.91016 15.46 9.23014 15.98 9.80014 16.36C10.4101 16.76 11.2001 16.97 11.9901 16.97C12.7801 16.97 13.5801 16.77 14.1801 16.36C14.7401 15.98 15.0702 15.44 15.0702 14.88C15.0802 14.31 14.7602 13.79 14.1902 13.41Z" fill="#33C4AC"/>
</svg>
