<svg width="24" height="24" viewBox="0 0 24 24" fill="none" xmlns="http://www.w3.org/2000/svg">
<path opacity="0.4" d="M19.7906 4.22001C16.8306 1.27001 12.0306 1.27001 9.09063 4.22001C7.02063 6.27001 6.40063 9.22001 7.20063 11.82L2.50063 16.52C2.17063 16.86 1.94063 17.53 2.01063 18.01L2.31063 20.19C2.42063 20.91 3.09063 21.59 3.81063 21.69L5.99063 21.99C6.47063 22.06 7.14063 21.84 7.48063 21.49L8.30063 20.67C8.50063 20.48 8.50063 20.16 8.30063 19.96L6.36063 18.02C6.07063 17.73 6.07063 17.25 6.36063 16.96C6.65063 16.67 7.13063 16.67 7.42063 16.96L9.37063 18.91C9.56063 19.1 9.88063 19.1 10.0706 18.91L12.1906 16.8C14.7806 17.61 17.7306 16.98 19.7906 14.93C22.7406 11.98 22.7406 7.17001 19.7906 4.22001ZM14.5006 12C13.1206 12 12.0006 10.88 12.0006 9.50001C12.0006 8.12001 13.1206 7.00001 14.5006 7.00001C15.8806 7.00001 17.0006 8.12001 17.0006 9.50001C17.0006 10.88 15.8806 12 14.5006 12Z" fill="#33C4AC"/>
<path d="M14.5 12C15.8807 12 17 10.8807 17 9.5C17 8.11929 15.8807 7 14.5 7C13.1193 7 12 8.11929 12 9.5C12 10.8807 13.1193 12 14.5 12Z" fill="#33C4AC"/>
</svg>
