<svg width="24" height="24" viewBox="0 0 24 24" fill="none" xmlns="http://www.w3.org/2000/svg">
<path d="M19.7887 14.93C17.7287 16.98 14.7787 17.61 12.1887 16.8L7.47868 21.5C7.13868 21.85 6.46868 22.06 5.98868 21.99L3.80868 21.69C3.08868 21.59 2.41868 20.91 2.30868 20.19L2.00868 18.01C1.93868 17.53 2.16868 16.86 2.49868 16.52L7.19868 11.82C6.39868 9.22001 7.01868 6.27001 9.07868 4.22001C12.0287 1.27001 16.8187 1.27001 19.7787 4.22001C22.7387 7.17001 22.7387 11.98 19.7887 14.93Z" stroke="#A3AED0" stroke-width="1.8" stroke-miterlimit="10" stroke-linecap="round" stroke-linejoin="round"/>
<path d="M6.89062 17.49L9.19062 19.79" stroke="#A3AED0" stroke-width="1.8" stroke-miterlimit="10" stroke-linecap="round" stroke-linejoin="round"/>
<path d="M14.5 11C15.3284 11 16 10.3284 16 9.5C16 8.67157 15.3284 8 14.5 8C13.6716 8 13 8.67157 13 9.5C13 10.3284 13.6716 11 14.5 11Z" stroke="#A3AED0" stroke-width="1.8" stroke-linecap="round" stroke-linejoin="round"/>
</svg>
