<svg width="24" height="24" viewBox="0 0 24 24" fill="none" xmlns="http://www.w3.org/2000/svg">
<path d="M19 8.75C16.93 8.75 15.25 7.07 15.25 5C15.25 2.93 16.93 1.25 19 1.25C21.07 1.25 22.75 2.93 22.75 5C22.75 7.07 21.07 8.75 19 8.75ZM19 2.75C17.76 2.75 16.75 3.76 16.75 5C16.75 6.24 17.76 7.25 19 7.25C20.24 7.25 21.25 6.24 21.25 5C21.25 3.76 20.24 2.75 19 2.75Z" fill="#A3AED0"/>
<path d="M9 22.85H15C17.7265 22.85 19.696 22.2679 20.982 20.982C22.2679 19.696 22.85 17.7265 22.85 15V10C22.85 9.53477 22.4652 9.15 22 9.15C21.5348 9.15 21.15 9.53477 21.15 10V15C21.15 17.2979 20.7402 18.8259 19.783 19.783C18.8259 20.7402 17.2979 21.15 15 21.15H9C6.70206 21.15 5.17414 20.7402 4.21696 19.783C3.25979 18.8259 2.85 17.2979 2.85 15V9C2.85 6.70206 3.25979 5.17414 4.21696 4.21696C5.17414 3.25979 6.70206 2.85 9 2.85H14C14.4652 2.85 14.85 2.46523 14.85 2C14.85 1.53477 14.4652 1.15 14 1.15H9C6.27352 1.15 4.30402 1.73206 3.01804 3.01804C1.73206 4.30402 1.15 6.27352 1.15 9V15C1.15 17.7265 1.73206 19.696 3.01804 20.982C4.30402 22.2679 6.27352 22.85 9 22.85Z" fill="#A3AED0" stroke="#A3AED0" stroke-width="0.2"/>
</svg>
