<svg width="24" height="24" viewBox="0 0 24 24" fill="none" xmlns="http://www.w3.org/2000/svg">
<path d="M2 13V15C2 20 4 22 9 22" stroke="#A3AED0" stroke-width="1.8" stroke-linecap="round" stroke-linejoin="round"/>
<path d="M14 2H9C4 2 2 4 2 9" stroke="#A3AED0" stroke-width="1.8" stroke-linecap="round" stroke-linejoin="round"/>
<path d="M22 10V13" stroke="#A3AED0" stroke-width="1.8" stroke-linecap="round" stroke-linejoin="round"/>
<path d="M22 10H18C15 10 14 9 14 6V2L22 10Z" stroke="#A3AED0" stroke-width="1.8" stroke-linecap="round" stroke-linejoin="round"/>
<path d="M13.7586 18.26C11.4086 18.43 11.4086 21.83 13.7586 22H19.3186C19.9886 22 20.6486 21.75 21.1386 21.3C22.7886 19.86 21.9086 16.98 19.7386 16.71C18.9586 12.02 12.1786 13.8 13.7786 18.27" stroke="#A3AED0" stroke-width="1.8" stroke-miterlimit="10" stroke-linecap="round" stroke-linejoin="round"/>
</svg>
