<svg width="24" height="24" viewBox="0 0 24 24" fill="none" xmlns="http://www.w3.org/2000/svg">
<g opacity="0.4">
<path fill-rule="evenodd" clip-rule="evenodd" d="M12.5 22C18.299 22 23 17.299 23 11.5C23 5.70101 18.299 1 12.5 1C6.70101 1 2 5.70101 2 11.5C2 17.299 6.70101 22 12.5 22ZM12.2655 12.0213H16.602C16.896 12.0213 17.127 11.7851 17.127 11.4963C17.127 11.2076 16.8908 10.9713 16.602 10.9713H12.7905V7.58506C12.7905 7.29631 12.5543 7.06006 12.2655 7.06006C11.9768 7.06006 11.7405 7.29631 11.7405 7.58506V11.4963C11.7405 11.7851 11.9768 12.0213 12.2655 12.0213Z" fill="#33C4AC"/>
</g>
<path d="M12.2875 12.6788H16.211C16.5832 12.6788 16.876 12.3787 16.876 12.0138C16.876 11.6476 16.5772 11.3488 16.211 11.3488H12.9525V8.475C12.9525 8.10882 12.6537 7.81 12.2875 7.81C11.9213 7.81 11.6225 8.10882 11.6225 8.475V12.0138C11.6225 12.3799 11.9213 12.6788 12.2875 12.6788Z" fill="white" stroke="white" stroke-width="0.38"/>
<path d="M8.56881 20.9242L8.56861 20.924C8.00361 20.5813 7.67562 20.3854 7.22113 20.3303H4.45703C4.11271 20.3303 3.83203 20.0496 3.83203 19.7053V15.6778C3.83203 15.3326 4.10884 15.059 4.44874 15.0528L4.45089 15.0528L4.45089 15.0528L8.76339 15.0116L8.76392 15.0115C9.75346 15.0042 10.6887 14.8828 11.548 14.6561C12.0918 14.5119 12.5958 14.3489 13.046 14.2025L13.0516 14.2007C13.6128 14.018 14.1044 13.8579 14.5222 13.7882C14.9441 13.7179 15.337 13.7312 15.675 13.9436C16.0058 14.151 16.1843 14.4944 16.2399 14.9177C16.3363 15.645 16.071 16.1524 15.6487 16.5171C15.2517 16.8602 14.7144 17.0776 14.2554 17.2633L14.2371 17.2708L14.2369 17.2708C13.8622 17.4223 13.4966 17.5721 13.1883 17.7648L13.1867 17.7658C13.048 17.851 12.9446 17.9395 12.8781 18.0185C12.8092 18.1003 12.7966 18.1513 12.7956 18.166C12.7956 18.1695 12.7962 18.1771 12.8045 18.1915C12.8146 18.209 12.8361 18.2362 12.8791 18.2703C14.1505 19.2392 15.9088 19.3025 19.5692 18.3312L19.5692 18.3311C20.1865 18.1676 20.8757 18.1018 21.4687 18.2454C22.0736 18.3919 22.5898 18.7624 22.7908 19.459L8.56881 20.9242ZM8.56881 20.9242C9.26998 21.3486 10.2399 21.9325 12.0264 22.5369C12.5554 22.7186 13.217 22.7865 13.9295 22.7865C16.7659 22.7865 20.7014 21.6905 21.283 21.5285C21.3149 21.5196 21.3367 21.5135 21.3477 21.5106L21.3478 21.5108M8.56881 20.9242L21.3478 21.5108M21.3478 21.5108L21.3584 21.5075M21.3478 21.5108L21.3584 21.5075M21.3584 21.5075C22.0539 21.2885 22.4607 20.921 22.6678 20.521M21.3584 21.5075L22.6678 20.521M22.6678 20.521C22.871 20.1285 22.8692 19.7285 22.791 19.4599L22.6678 20.521Z" fill="#33C4AC" stroke="#33C4AC" stroke-width="0.5"/>
<path d="M2.16016 21.0427H3.79516C4.50263 21.0427 5.07641 20.4701 5.07641 19.7652V15.6177C5.07641 14.9096 4.50323 14.3364 3.79516 14.3364H2.16016C1.45209 14.3364 0.878906 14.9096 0.878906 15.6177V19.7614C0.878906 20.4695 1.45209 21.0427 2.16016 21.0427Z" fill="#A2DCD3" stroke="#A2DCD3" stroke-width="0.5"/>
</svg>
