<svg width="24" height="25" viewBox="0 0 24 25" fill="none" xmlns="http://www.w3.org/2000/svg">
<path d="M22 12C22 6.48 17.52 2 12 2C6.48 2 2 6.48 2 12C2 17.52 6.48 22 12 22" stroke="#A3AED0" stroke-width="1.8" stroke-linecap="round" stroke-linejoin="round"/>
<path d="M15.7109 15.18L12.6109 13.33C12.0709 13.01 11.6309 12.24 11.6309 11.61V7.51001" stroke="#A3AED0" stroke-width="1.8" stroke-linecap="round" stroke-linejoin="round"/>
<path d="M18.3699 14.9292L16.2908 15.7125C15.8116 15.8917 15.4199 16.4583 15.4199 16.9667V20.0625C15.4199 20.5542 15.7449 21.2 16.1408 21.4958L17.9324 22.8333C18.5199 23.275 19.4866 23.275 20.0741 22.8333L21.8658 21.4958C22.2616 21.2 22.5866 20.5542 22.5866 20.0625V16.9667C22.5866 16.4542 22.1949 15.8875 21.7158 15.7083L19.6366 14.9292C19.2824 14.8 18.7158 14.8 18.3699 14.9292Z" stroke="#A3AED0" stroke-width="1.8" stroke-linecap="round" stroke-linejoin="round"/>
</svg>
