<svg width="24" height="24" viewBox="0 0 24 24" fill="none" xmlns="http://www.w3.org/2000/svg">
<path opacity="0.4" d="M21.9922 10.84C21.9722 10.36 21.8922 9.88999 21.7422 9.43999C21.0522 7.27999 19.0322 5.71999 16.6522 5.71999H13.8622C13.2822 5.71999 13.2422 5.65998 12.9322 5.24998L11.5322 3.38998C10.8822 2.51998 10.3722 1.98999 8.74219 1.98999H6.41217C3.97217 1.98999 1.99219 3.96999 1.99219 6.40999V9.42998V16.64C1.99219 19.59 4.39222 21.99 7.34222 21.99H16.6422C19.5922 21.99 21.9922 19.59 21.9922 16.64V11.06C22.0022 11 22.0022 10.91 21.9922 10.84Z" fill="#33C4AC"/>
<path d="M22.832 18.9998C22.832 21.7598 20.592 23.9998 17.832 23.9998C15.072 23.9998 12.832 21.7598 12.832 18.9998C12.832 16.2398 15.072 13.9998 17.832 13.9998C20.592 13.9998 22.832 16.2398 22.832 18.9998Z" fill="#33C4AC"/>
<path d="M19.5437 20.3249L18.2521 19.554C18.0271 19.4207 17.8438 19.0999 17.8438 18.8374V17.129" stroke="white" stroke-width="1.5" stroke-linecap="round" stroke-linejoin="round"/>
</svg>
