<svg width="24" height="25" viewBox="0 0 24 25" fill="none" xmlns="http://www.w3.org/2000/svg">
<path opacity="0.4" d="M12 22C17.5228 22 22 17.5228 22 12C22 6.47715 17.5228 2 12 2C6.47715 2 2 6.47715 2 12C2 17.5228 6.47715 22 12 22Z" fill="#33C4AC"/>
<path d="M15.7106 15.93C15.5806 15.93 15.4506 15.9 15.3306 15.82L12.2306 13.97C11.4606 13.51 10.8906 12.5 10.8906 11.61V7.51001C10.8906 7.10001 11.2306 6.76001 11.6406 6.76001C12.0506 6.76001 12.3906 7.10001 12.3906 7.51001V11.61C12.3906 11.97 12.6906 12.5 13.0006 12.68L16.1006 14.53C16.4606 14.74 16.5706 15.2 16.3606 15.56C16.2106 15.8 15.9606 15.93 15.7106 15.93Z" fill="white"/>
<path d="M18.3719 14.9292L16.2927 15.7125C15.8135 15.8917 15.4219 16.4583 15.4219 16.9667V20.0625C15.4219 20.5542 15.7469 21.2 16.1427 21.4958L17.9344 22.8333C18.5219 23.275 19.4885 23.275 20.076 22.8333L21.8677 21.4958C22.2635 21.2 22.5885 20.5542 22.5885 20.0625V16.9667C22.5885 16.4542 22.1969 15.8875 21.7177 15.7083L19.6385 14.9292C19.2844 14.8 18.7177 14.8 18.3719 14.9292Z" fill="#33C4AC" stroke="#33C4AC" stroke-width="1.8" stroke-linecap="round" stroke-linejoin="round"/>
</svg>
