<svg width="24" height="24" viewBox="0 0 24 24" fill="none" xmlns="http://www.w3.org/2000/svg">
<path d="M8.56686 20.9242L8.56666 20.924C8.00165 20.5813 7.67367 20.3854 7.21918 20.3303H4.45508C4.11076 20.3303 3.83008 20.0496 3.83008 19.7053V15.6778C3.83008 15.3326 4.10688 15.059 4.44678 15.0528L4.44894 15.0528L4.44894 15.0528L8.76144 15.0116L8.76197 15.0115C9.75151 15.0042 10.6867 14.8828 11.5461 14.6561C12.0898 14.5119 12.5938 14.3489 13.0441 14.2025L13.0496 14.2007C13.6108 14.018 14.1025 13.8579 14.5202 13.7882C14.9422 13.7179 15.3351 13.7312 15.6731 13.9436C16.0038 14.151 16.1824 14.4944 16.238 14.9177C16.3344 15.645 16.069 16.1524 15.6468 16.5171C15.2497 16.8602 14.7124 17.0776 14.2535 17.2634L14.2351 17.2708L14.235 17.2708C13.8602 17.4223 13.4947 17.5721 13.1863 17.7648L13.1847 17.7658L13.1847 17.7658C13.046 17.851 12.9427 17.9395 12.8761 18.0185C12.8072 18.1003 12.7946 18.1513 12.7937 18.166C12.7936 18.1695 12.7943 18.1771 12.8026 18.1915C12.8127 18.209 12.8341 18.2362 12.8771 18.2703C14.1485 19.2392 15.9068 19.3025 19.5672 18.3312L19.5673 18.3311C20.1845 18.1676 20.8737 18.1018 21.4667 18.2454C22.0717 18.3919 22.5879 18.7624 22.7888 19.459L8.56686 20.9242ZM8.56686 20.9242C9.26802 21.3486 10.2379 21.9325 12.0244 22.5369M8.56686 20.9242L8.69633 20.7103C9.39008 21.1303 10.3426 21.704 12.1051 22.3003M12.1051 22.3003L12.0239 22.5367C12.024 22.5368 12.0242 22.5369 12.0244 22.5369M12.1051 22.3003C12.5963 22.469 13.2263 22.5365 13.9276 22.5365C16.7226 22.5365 20.6174 21.4535 21.2131 21.2879C21.2464 21.2786 21.2694 21.2722 21.2813 21.269L12.1051 22.3003ZM12.0244 22.5369C12.5535 22.7186 13.215 22.7865 13.9276 22.7865C16.7639 22.7865 20.6994 21.6905 21.2811 21.5285C21.3129 21.5196 21.3348 21.5135 21.3457 21.5106L21.3458 21.5108L21.3564 21.5075C22.052 21.2885 22.4588 20.921 22.6658 20.521C22.869 20.1285 22.8673 19.7285 22.7891 19.4599L12.0244 22.5369ZM5.07633 19.0803H7.25258C7.25337 19.0803 7.25423 19.0803 7.25516 19.0803C7.26885 19.0803 7.2974 19.0802 7.33303 19.0868C8.0788 19.1695 8.59656 19.4828 9.18515 19.8389L9.21191 19.8551L9.21198 19.8551L9.21514 19.857C9.87157 20.2539 10.765 20.794 12.4215 21.3547C12.9619 21.5371 13.7564 21.5755 14.6721 21.5166C15.5806 21.4582 16.5797 21.3063 17.513 21.128C18.4455 20.9499 19.3075 20.7464 19.9407 20.5861C20.2572 20.506 20.5161 20.4368 20.6977 20.3871C20.7885 20.3623 20.86 20.3423 20.9096 20.3283L20.9672 20.3119L20.9831 20.3073L20.9876 20.306C21.3689 20.1858 21.5003 20.0358 21.5472 19.9494C21.5911 19.8684 21.5825 19.8032 21.5795 19.7877C21.5035 19.5371 21.2453 19.4185 20.8307 19.4082C20.4343 19.3983 20.0236 19.4966 19.8838 19.5342L19.8832 19.5344C15.9621 20.5785 13.8065 20.5479 12.1148 19.2592C11.7334 18.9696 11.5169 18.561 11.5404 18.1065L5.07633 19.0803ZM5.07633 19.0803V16.2929L8.76996 16.2578L8.7702 16.2578C9.86124 16.2463 10.9019 16.1128 11.8649 15.8596L11.865 15.8596C12.4427 15.7075 12.9701 15.5367 13.4278 15.3866M5.07633 19.0803L13.4277 15.3867C13.4278 15.3867 13.4278 15.3867 13.4278 15.3866M13.4278 15.3866C13.8147 15.2602 14.1945 15.1371 14.5053 15.0626C14.6609 15.0253 14.7896 15.0026 14.8874 14.9961C14.9313 14.9932 14.9614 14.9942 14.9808 14.996C14.9871 15.0183 14.9922 15.0457 14.9956 15.0738L14.9956 15.0738L14.9959 15.0763C15.0128 15.2057 15.0017 15.2962 14.9754 15.3663C14.9494 15.4357 14.9014 15.5046 14.813 15.5795C14.6232 15.7405 14.2959 15.8926 13.7621 16.11L13.7612 16.1103C13.7476 16.1159 13.7339 16.1216 13.7202 16.1272C13.3343 16.2858 12.9142 16.4584 12.525 16.6988L12.5242 16.6993M13.4278 15.3866L12.5242 16.6993M12.5242 16.6993C11.9498 17.0568 11.5687 17.5473 11.5404 18.1062L12.5242 16.6993Z" fill="#A3AED0" stroke="#A3AED0" stroke-width="0.5"/>
<path d="M2.16016 21.0427H3.79516C4.50263 21.0427 5.07641 20.4701 5.07641 19.7652V15.6177C5.07641 14.9096 4.50323 14.3364 3.79516 14.3364H2.16016C1.45209 14.3364 0.878906 14.9096 0.878906 15.6177V19.7614C0.878906 20.4695 1.45209 21.0427 2.16016 21.0427ZM2.12891 15.6177C2.12891 15.6111 2.13151 15.6033 2.13865 15.5962C2.1458 15.589 2.15362 15.5864 2.16016 15.5864H3.79516C3.80169 15.5864 3.80952 15.589 3.81666 15.5962C3.82381 15.6033 3.82641 15.6111 3.82641 15.6177V19.7652C3.82641 19.7717 3.82381 19.7795 3.81666 19.7867C3.80952 19.7938 3.80169 19.7964 3.79516 19.7964H2.16016C2.15362 19.7964 2.1458 19.7938 2.13865 19.7867C2.13151 19.7795 2.12891 19.7717 2.12891 19.7652V15.6177Z" fill="#A3AED0" stroke="#A3AED0" stroke-width="0.5"/>
<path d="M19.9073 15.3364L19.8979 15.3574L19.8924 15.3799L20.1355 15.4385C19.8924 15.3799 19.8924 15.38 19.8924 15.3801L19.8923 15.3803L19.8922 15.3808L19.892 15.3819L19.8913 15.3848L19.8895 15.393C19.8881 15.3996 19.8864 15.4083 19.8845 15.4189C19.8807 15.4399 19.8764 15.4688 19.8732 15.5031C19.867 15.5697 19.8643 15.6665 19.8853 15.7692C19.9063 15.8721 19.9545 15.9973 20.0635 16.0968C20.1761 16.1997 20.3258 16.25 20.5 16.25C20.8371 16.25 21.0449 16.098 21.153 15.914C21.2023 15.8302 21.2259 15.7485 21.2375 15.6892C21.2416 15.6685 21.2443 15.6499 21.2461 15.6339C21.7225 14.484 21.9719 13.2407 21.9719 11.9594C21.9719 6.66307 17.6593 2.35059 12.3588 2.35059C7.05823 2.35059 2.75 6.66322 2.75 11.9594C2.75 12.933 2.89405 13.8939 3.17796 14.8158C3.28743 15.1771 3.66783 15.3698 4.02133 15.2631C4.38306 15.1539 4.57609 14.7732 4.46931 14.4195L4.46894 14.4183C4.22518 13.625 4.10119 12.7986 4.10119 11.9637C4.10119 7.4117 7.80685 3.70603 12.3588 3.70603C16.9152 3.70603 20.6208 7.41178 20.6208 11.9637C20.6208 13.1479 20.375 14.2909 19.9073 15.3364Z" fill="#A3AED0" stroke="#A3AED0" stroke-width="0.5"/>
<path d="M12.358 12.6804H16.2829C16.6552 12.6804 16.9481 12.3803 16.9481 12.0152C16.9481 11.6489 16.6492 11.35 16.2829 11.35H13.0232V8.47517C13.0232 8.10886 12.7243 7.80993 12.358 7.80993C11.9917 7.80993 11.6927 8.10886 11.6927 8.47517V12.0152C11.6927 12.3815 11.9917 12.6804 12.358 12.6804Z" fill="#A3AED0" stroke="#A3AED0" stroke-width="0.380137"/>
</svg>
