<svg width="24" height="24" viewBox="0 0 24 24" fill="none" xmlns="http://www.w3.org/2000/svg">
<path d="M21.0602 11.82L20.9002 11.6C20.6202 11.26 20.2902 10.99 19.9102 10.79C19.4002 10.5 18.8202 10.35 18.2202 10.35H5.7702C5.1702 10.35 4.6002 10.5 4.0802 10.79C3.6902 11 3.3402 11.29 3.0502 11.65C2.4802 12.38 2.2102 13.28 2.3002 14.18L2.6702 18.85C2.8002 20.26 2.9702 22 6.1402 22H17.8602C21.0302 22 21.1902 20.26 21.3302 18.84L21.7002 14.19C21.7902 13.35 21.5702 12.51 21.0602 11.82ZM14.3902 17.34H9.6002C9.2102 17.34 8.9002 17.02 8.9002 16.64C8.9002 16.26 9.2102 15.94 9.6002 15.94H14.3902C14.7802 15.94 15.0902 16.26 15.0902 16.64C15.0902 17.03 14.7802 17.34 14.3902 17.34Z" fill="#33C4AC"/>
<path d="M14.3902 17.34H9.6002C9.2102 17.34 8.9002 17.02 8.9002 16.64C8.9002 16.26 9.2102 15.94 9.6002 15.94H14.3902C14.7802 15.94 15.0902 16.26 15.0902 16.64C15.0902 17.03 14.7802 17.34 14.3902 17.34Z" fill="#33C4AC"/>
<path opacity="0.4" d="M3.38086 11.31C3.60086 11.11 3.82086 10.93 4.08086 10.79C4.59086 10.5 5.17086 10.35 5.77086 10.35H18.2309C18.8309 10.35 19.4009 10.5 19.9209 10.79C20.1809 10.93 20.4109 11.11 20.6209 11.32V10.79V9.82C20.6209 6.25 19.5309 5.16 15.9609 5.16H13.5809C13.1409 5.16 13.1309 5.15 12.8709 4.81L11.6709 3.2C11.1009 2.46 10.6509 2 9.22086 2H8.04086C4.47086 2 3.38086 3.09 3.38086 6.66V10.8V11.31Z" fill="#33C4AC"/>
</svg>
