<svg width="24" height="24" viewBox="0 0 24 24" fill="none" xmlns="http://www.w3.org/2000/svg">
<path opacity="0.4" d="M8.56004 3.34V17.67C8.22004 17.68 7.88004 17.76 7.63004 17.91L5.28004 19.25C3.64004 20.19 2.29004 19.41 2.29004 17.51V7.78C2.29004 7.15 2.74004 6.37 3.30004 6.05L7.63004 3.57C7.88004 3.43 8.22004 3.35 8.56004 3.34Z" fill="#33C4AC"/>
<path d="M15.7301 6.33V20.66C15.3801 20.67 15.0401 20.61 14.7701 20.48L9.52006 17.85C9.25006 17.72 8.91006 17.66 8.56006 17.67V3.34C8.91006 3.33 9.25006 3.39 9.52006 3.52L14.7701 6.15C15.0401 6.28 15.3801 6.34 15.7301 6.33Z" fill="#33C4AC"/>
<path opacity="0.4" d="M22 6.49V16.22C22 16.85 21.55 17.63 20.99 17.95L16.66 20.43C16.41 20.57 16.07 20.65 15.73 20.66V6.33C16.07 6.32 16.41 6.24 16.66 6.09L19.01 4.75C20.65 3.81 22 4.59 22 6.49Z" fill="#33C4AC"/>
</svg>
