<svg width="24" height="24" viewBox="0 0 24 24" fill="none" xmlns="http://www.w3.org/2000/svg">
<path d="M2.28906 7.78001V17.51C2.28906 19.41 3.63906 20.19 5.27906 19.25L7.62906 17.91C8.13906 17.62 8.98906 17.59 9.51906 17.86L14.7691 20.49C15.2991 20.75 16.1491 20.73 16.6591 20.44L20.9891 17.96C21.5391 17.64 21.9991 16.86 21.9991 16.22V6.49001C21.9991 4.59001 20.6491 3.81001 19.0091 4.75001L16.6591 6.09001C16.1491 6.38001 15.2991 6.41001 14.7691 6.14001L9.51906 3.52001C8.98906 3.26001 8.13906 3.28001 7.62906 3.57001L3.29906 6.05001C2.73906 6.37001 2.28906 7.15001 2.28906 7.78001Z" stroke="#A3AED0" stroke-width="1.8" stroke-linecap="round" stroke-linejoin="round"/>
<path d="M8.55859 4V17" stroke="#A3AED0" stroke-width="1.8" stroke-linecap="round" stroke-linejoin="round"/>
<path d="M15.7305 6.62V20" stroke="#A3AED0" stroke-width="1.8" stroke-linecap="round" stroke-linejoin="round"/>
</svg>
