<svg width="484" height="484" viewBox="0 0 484 484" fill="none" xmlns="http://www.w3.org/2000/svg">
<g filter="url(#filter0_d_3_61246)">
<rect x="4" y="53" width="476" height="363" rx="17.4853" fill="#F7F7F7" shape-rendering="crispEdges"/>
<rect x="4.5" y="53.5" width="475" height="362" rx="16.9853" stroke="#DDDDDD" shape-rendering="crispEdges"/>
<rect x="12" y="61" width="460" height="347" rx="10" fill="white"/>
<g filter="url(#filter1_d_3_61246)">
<g clip-path="url(#clip0_3_61246)">
<rect x="39.8926" y="25.8252" width="403.848" height="418.175" rx="14.3272" fill="white"/>
<path d="M67.7714 49.1587C68.6958 49.1587 69.5181 49.3459 70.2384 49.7202C70.9643 50.0888 71.5484 50.5935 71.9908 51.2344C72.4388 51.8752 72.7025 52.5983 72.7819 53.4036H70.1788C70.0994 52.9783 69.9548 52.6011 69.745 52.2722C69.5351 51.9376 69.2601 51.6767 68.9198 51.4896C68.5795 51.2967 68.1712 51.2003 67.6948 51.2003C67.122 51.2003 66.6287 51.3393 66.2147 51.6172C65.8007 51.8951 65.4831 52.3431 65.2619 52.9612C65.0407 53.5794 64.9301 54.396 64.9301 55.4112C64.9301 56.9424 65.174 58.0511 65.6617 58.7373C66.1551 59.4179 66.8328 59.7581 67.6948 59.7581C68.1712 59.7581 68.5795 59.6504 68.9198 59.4349C69.2601 59.2137 69.5351 58.9245 69.745 58.5672C69.9548 58.2042 70.0994 57.8073 70.1788 57.3763H72.7819C72.7082 57.9604 72.5664 58.519 72.3565 59.0521C72.1467 59.5795 71.849 60.0502 71.4633 60.4642C71.0777 60.8782 70.5815 61.2043 69.9746 61.4425C69.3678 61.6807 68.6334 61.7998 67.7714 61.7998C66.6258 61.7998 65.6362 61.5332 64.8025 61.0001C63.9689 60.467 63.3252 59.7185 62.8715 58.7544C62.4235 57.7903 62.1995 56.6645 62.1995 55.3772C62.1995 54.0841 62.4235 52.9754 62.8715 52.051C63.3195 51.1209 63.9604 50.4064 64.794 49.9073C65.6277 49.4082 66.6201 49.1587 67.7714 49.1587ZM78.4683 61.7998C77.6062 61.7998 76.8548 61.6155 76.214 61.2468C75.5788 60.8782 75.0854 60.3565 74.7338 59.6816C74.3878 59.0067 74.2149 58.2071 74.2149 57.2827C74.2149 56.3583 74.3878 55.5501 74.7338 54.8582C75.0854 54.1664 75.5788 53.6276 76.214 53.242C76.8548 52.8563 77.6091 52.6635 78.4768 52.6635C79.3445 52.6635 80.0959 52.8535 80.7311 53.2335C81.3662 53.6078 81.8568 54.1408 82.2027 54.8327C82.5487 55.5246 82.7216 56.3413 82.7216 57.2827C82.7216 58.1674 82.5515 58.95 82.2112 59.6305C81.8766 60.3054 81.3918 60.8357 80.7566 61.2213C80.1271 61.607 79.3643 61.7998 78.4683 61.7998ZM78.4768 59.9538C78.9134 59.9538 79.2651 59.8262 79.5316 59.571C79.7982 59.3158 79.991 58.9812 80.1101 58.5672C80.2348 58.1475 80.2972 57.691 80.2972 57.1976C80.2972 56.7326 80.2405 56.2931 80.1271 55.8791C80.0193 55.4651 79.8322 55.1305 79.5656 54.8753C79.2991 54.6201 78.9361 54.4925 78.4768 54.4925C78.0401 54.4925 77.6856 54.6144 77.4134 54.8582C77.1469 55.0964 76.9512 55.4225 76.8265 55.8365C76.7017 56.2449 76.6393 56.6985 76.6393 57.1976C76.6393 57.657 76.696 58.0993 76.8094 58.5247C76.9229 58.9443 77.1128 59.2874 77.3794 59.554C77.6459 59.8205 78.0117 59.9538 78.4768 59.9538ZM84.3777 61.6296V52.8336H86.8191V54.0756C86.9552 53.8601 87.131 53.6531 87.3465 53.4546C87.5677 53.2505 87.8456 53.0832 88.1802 52.9527C88.5148 52.8223 88.9118 52.7571 89.3711 52.7571C89.9099 52.7571 90.4118 52.862 90.8768 53.0718C91.3476 53.2817 91.7275 53.6134 92.0168 54.0671C92.306 54.5151 92.4506 55.1021 92.4506 55.828V61.6296H89.9666V56.1343C89.9666 55.6579 89.8248 55.3006 89.5413 55.0624C89.2577 54.8242 88.9118 54.7051 88.5035 54.7051C88.2312 54.7051 87.9675 54.7533 87.7123 54.8497C87.4628 54.9462 87.2586 55.0908 87.0998 55.2836C86.941 55.4764 86.8617 55.7146 86.8617 55.9982V61.6296H84.3777ZM101.71 52.8336L98.4091 61.6296H96.6141L93.305 52.8336H95.5508L97.4733 58.4396H97.5414L99.4384 52.8336H101.71ZM104.662 57.8016C104.657 58.2496 104.728 58.6409 104.875 58.9755C105.022 59.3045 105.235 59.5597 105.513 59.7411C105.797 59.9169 106.137 60.0048 106.534 60.0048C106.959 60.0048 107.331 59.9141 107.648 59.7326C107.971 59.5512 108.195 59.2534 108.32 58.8394H110.558C110.461 59.4632 110.212 59.9963 109.809 60.4387C109.412 60.881 108.93 61.2185 108.363 61.451C107.796 61.6835 107.206 61.7998 106.593 61.7998C105.726 61.7998 104.96 61.6183 104.297 61.2553C103.639 60.8867 103.125 60.3678 102.757 59.6986C102.388 59.0294 102.204 58.2411 102.204 57.3337C102.204 56.4547 102.371 55.6636 102.706 54.9603C103.04 54.2514 103.525 53.6928 104.16 53.2845C104.801 52.8705 105.57 52.6635 106.466 52.6635C107.362 52.6635 108.113 52.8535 108.72 53.2335C109.333 53.6078 109.792 54.1323 110.098 54.8072C110.41 55.4764 110.566 56.2505 110.566 57.1296V57.8016H104.662ZM104.654 56.3214H108.244C108.244 55.9698 108.178 55.6465 108.048 55.3516C107.918 55.0567 107.719 54.8242 107.453 54.6541C107.192 54.484 106.863 54.3989 106.466 54.3989C106.08 54.3989 105.751 54.4925 105.479 54.6796C105.212 54.8611 105.008 55.0993 104.866 55.3942C104.725 55.6891 104.654 55.9982 104.654 56.3214ZM112.291 61.6296V52.8336H114.681V54.9178C114.823 54.4698 115.021 54.0785 115.276 53.7439C115.537 53.4036 115.852 53.1399 116.221 52.9527C116.589 52.7599 117.006 52.6635 117.471 52.6635C117.551 52.6635 117.624 52.6692 117.692 52.6805C117.766 52.6862 117.82 52.6975 117.854 52.7145V55.0794C117.803 55.0567 117.741 55.0426 117.667 55.0369C117.599 55.0312 117.536 55.0256 117.48 55.0199C116.992 54.9802 116.575 54.9944 116.229 55.0624C115.883 55.1305 115.602 55.2467 115.387 55.4112C115.171 55.5757 115.016 55.777 114.919 56.0152C114.823 56.2534 114.774 56.5199 114.774 56.8148V61.6296H112.291ZM124.744 54.5605H122.788L122.805 59.2477C122.805 59.4632 122.83 59.6249 122.881 59.7326C122.938 59.8347 123.023 59.9028 123.137 59.9368C123.256 59.9651 123.406 59.9793 123.587 59.9793H124.77V61.5105C124.656 61.5616 124.478 61.6098 124.234 61.6552C123.996 61.7005 123.661 61.7232 123.23 61.7232C122.459 61.7232 121.86 61.624 121.435 61.4255C121.015 61.227 120.723 60.9491 120.559 60.5918C120.394 60.2345 120.312 59.8205 120.312 59.3498V54.5605H118.883V52.8336H120.397L121.018 50.1795H122.788V52.8251H124.744V54.5605Z" fill="black"/>
<rect x="335.239" y="40.6001" width="86.5634" height="30.059" rx="15.0295" stroke="#E6E6E6" stroke-width="0.895449"/>
<path d="M355.078 54.549V55.51H350.255V54.549H355.078ZM350.439 50.7171V59.6296H349.257V50.7171H350.439ZM356.107 50.7171V59.6296H354.932V50.7171H356.107ZM359.265 53.0065V59.6296H358.127V53.0065H359.265ZM358.041 51.2497C358.041 51.066 358.096 50.911 358.206 50.7845C358.321 50.6579 358.488 50.5947 358.708 50.5947C358.925 50.5947 359.09 50.6579 359.204 50.7845C359.322 50.911 359.382 51.066 359.382 51.2497C359.382 51.4251 359.322 51.5761 359.204 51.7026C359.09 51.8251 358.925 51.8863 358.708 51.8863C358.488 51.8863 358.321 51.8251 358.206 51.7026C358.096 51.5761 358.041 51.4251 358.041 51.2497ZM364.94 57.8728C364.94 57.7096 364.903 57.5586 364.83 57.4199C364.76 57.277 364.615 57.1485 364.395 57.0342C364.179 56.9159 363.852 56.8139 363.416 56.7282C363.048 56.6506 362.716 56.5588 362.418 56.4527C362.124 56.3466 361.873 56.2181 361.665 56.0671C361.461 55.9161 361.304 55.7386 361.194 55.5345C361.083 55.3305 361.028 55.0918 361.028 54.8183C361.028 54.5572 361.085 54.3103 361.2 54.0777C361.318 53.8451 361.483 53.639 361.695 53.4594C361.912 53.2799 362.171 53.1391 362.473 53.0371C362.775 52.935 363.112 52.884 363.483 52.884C364.013 52.884 364.466 52.9779 364.842 53.1656C365.217 53.3533 365.505 53.6043 365.705 53.9185C365.905 54.2287 366.005 54.5735 366.005 54.953H364.872C364.872 54.7694 364.817 54.5919 364.707 54.4205C364.601 54.245 364.444 54.1001 364.236 53.9859C364.032 53.8716 363.781 53.8145 363.483 53.8145C363.169 53.8145 362.914 53.8634 362.718 53.9614C362.526 54.0552 362.385 54.1756 362.295 54.3225C362.21 54.4694 362.167 54.6245 362.167 54.7877C362.167 54.9102 362.187 55.0203 362.228 55.1183C362.273 55.2121 362.35 55.2999 362.461 55.3815C362.571 55.459 362.726 55.5325 362.926 55.6019C363.126 55.6712 363.381 55.7406 363.691 55.81C364.234 55.9324 364.681 56.0793 365.032 56.2507C365.383 56.4221 365.644 56.6323 365.815 56.8812C365.986 57.1301 366.072 57.4321 366.072 57.7871C366.072 58.0769 366.011 58.3421 365.889 58.5829C365.77 58.8237 365.597 59.0318 365.368 59.2073C365.144 59.3787 364.874 59.5133 364.56 59.6113C364.25 59.7051 363.901 59.7521 363.514 59.7521C362.93 59.7521 362.436 59.648 362.032 59.4399C361.628 59.2318 361.322 58.9624 361.114 58.6319C360.906 58.3013 360.802 57.9524 360.802 57.5851H361.94C361.957 57.8953 362.046 58.1422 362.21 58.3258C362.373 58.5054 362.573 58.6339 362.81 58.7115C363.046 58.7849 363.281 58.8216 363.514 58.8216C363.824 58.8216 364.083 58.7808 364.291 58.6992C364.503 58.6176 364.664 58.5054 364.774 58.3625C364.885 58.2197 364.94 58.0565 364.94 57.8728ZM370.333 53.0065V53.8757H366.752V53.0065H370.333ZM367.964 51.3966H369.096V57.9891C369.096 58.2136 369.131 58.3829 369.2 58.4972C369.27 58.6115 369.359 58.687 369.469 58.7237C369.58 58.7604 369.698 58.7788 369.824 58.7788C369.918 58.7788 370.016 58.7706 370.118 58.7543C370.224 58.7339 370.304 58.7176 370.357 58.7053L370.363 59.6296C370.273 59.6582 370.155 59.6847 370.008 59.7092C369.865 59.7378 369.692 59.7521 369.488 59.7521C369.21 59.7521 368.955 59.697 368.723 59.5868C368.49 59.4766 368.304 59.293 368.166 59.0359C368.031 58.7747 367.964 58.4238 367.964 57.983V51.3966ZM371.239 56.3915V56.2507C371.239 55.7733 371.308 55.3305 371.447 54.9224C371.585 54.5102 371.785 54.1532 372.047 53.8512C372.308 53.5451 372.624 53.3084 372.995 53.1411C373.367 52.9697 373.783 52.884 374.244 52.884C374.709 52.884 375.128 52.9697 375.499 53.1411C375.874 53.3084 376.193 53.5451 376.454 53.8512C376.719 54.1532 376.921 54.5102 377.06 54.9224C377.199 55.3305 377.268 55.7733 377.268 56.2507V56.3915C377.268 56.869 377.199 57.3117 377.06 57.7198C376.921 58.1279 376.719 58.485 376.454 58.791C376.193 59.093 375.876 59.3297 375.505 59.5011C375.138 59.6684 374.721 59.7521 374.256 59.7521C373.791 59.7521 373.373 59.6684 373.001 59.5011C372.63 59.3297 372.312 59.093 372.047 58.791C371.785 58.485 371.585 58.1279 371.447 57.7198C371.308 57.3117 371.239 56.869 371.239 56.3915ZM372.371 56.2507V56.3915C372.371 56.7221 372.41 57.0342 372.487 57.3281C372.565 57.6178 372.681 57.8749 372.836 58.0993C372.995 58.3238 373.193 58.5013 373.43 58.6319C373.667 58.7584 373.942 58.8216 374.256 58.8216C374.566 58.8216 374.838 58.7584 375.07 58.6319C375.307 58.5013 375.503 58.3238 375.658 58.0993C375.813 57.8749 375.929 57.6178 376.007 57.3281C376.089 57.0342 376.129 56.7221 376.129 56.3915V56.2507C376.129 55.9243 376.089 55.6161 376.007 55.3264C375.929 55.0326 375.811 54.7735 375.652 54.549C375.497 54.3205 375.301 54.1409 375.064 54.0103C374.832 53.8798 374.558 53.8145 374.244 53.8145C373.934 53.8145 373.66 53.8798 373.424 54.0103C373.191 54.1409 372.995 54.3205 372.836 54.549C372.681 54.7735 372.565 55.0326 372.487 55.3264C372.41 55.6161 372.371 55.9243 372.371 56.2507ZM379.82 54.0471V59.6296H378.688V53.0065H379.79L379.82 54.0471ZM381.889 52.9697L381.883 54.0226C381.789 54.0022 381.7 53.9899 381.614 53.9859C381.532 53.9777 381.439 53.9736 381.332 53.9736C381.071 53.9736 380.841 54.0144 380.641 54.096C380.441 54.1777 380.271 54.2919 380.133 54.4388C379.994 54.5857 379.884 54.7612 379.802 54.9653C379.725 55.1652 379.674 55.3856 379.649 55.6264L379.331 55.81C379.331 55.4101 379.37 55.0346 379.447 54.6837C379.529 54.3327 379.653 54.0226 379.82 53.7533C379.988 53.4798 380.2 53.2676 380.457 53.1166C380.718 52.9616 381.028 52.884 381.388 52.884C381.469 52.884 381.563 52.8942 381.669 52.9146C381.775 52.931 381.849 52.9493 381.889 52.9697ZM384.907 58.9441L386.75 53.0065H387.962L385.305 60.6519C385.244 60.8151 385.162 60.9906 385.06 61.1783C384.962 61.3701 384.836 61.5517 384.681 61.7231C384.526 61.8945 384.338 62.0332 384.118 62.1393C383.901 62.2495 383.642 62.3046 383.34 62.3046C383.25 62.3046 383.136 62.2924 382.997 62.2679C382.859 62.2434 382.761 62.223 382.704 62.2067L382.697 61.2885C382.73 61.2926 382.781 61.2967 382.85 61.3007C382.924 61.3089 382.975 61.313 383.004 61.313C383.261 61.313 383.479 61.2783 383.658 61.2089C383.838 61.1436 383.989 61.0314 384.111 60.8722C384.238 60.7172 384.346 60.5029 384.436 60.2295L384.907 58.9441ZM383.554 53.0065L385.274 58.1483L385.568 59.3419L384.754 59.7582L382.318 53.0065H383.554Z" fill="#4A4A4A"/>
<path d="M407.475 55.6297C407.475 59.3368 404.466 62.3456 400.759 62.3456C397.052 62.3456 394.043 59.3368 394.043 55.6297C394.043 51.9225 397.052 48.9138 400.759 48.9138C404.466 48.9138 407.475 51.9225 407.475 55.6297Z" stroke="#4A4A4A" stroke-width="1.34317" stroke-linecap="round" stroke-linejoin="round"/>
<path d="M403.251 57.7653L401.169 56.5229C400.806 56.308 400.511 55.7909 400.511 55.3678V52.6143" stroke="#4A4A4A" stroke-width="1.34317" stroke-linecap="round" stroke-linejoin="round"/>
<path d="M66.7233 93.2473C67.0409 93.2974 67.3292 93.427 67.5883 93.6359C67.8557 93.8448 68.0647 94.1039 68.2151 94.4131C68.3739 94.7224 68.4533 95.0525 68.4533 95.4035C68.4533 95.8465 68.3405 96.2476 68.1148 96.607C67.8891 96.958 67.559 97.238 67.1244 97.4469C66.6982 97.6475 66.1926 97.7478 65.6075 97.7478H62.3481V89.01H65.4822C66.0756 89.01 66.5812 89.1103 66.9991 89.3109C67.4169 89.5031 67.7304 89.7664 67.9393 90.1007C68.1482 90.435 68.2527 90.8111 68.2527 91.2289C68.2527 91.7471 68.1106 92.1775 67.8265 92.5202C67.5507 92.8545 67.1829 93.0968 66.7233 93.2473ZM63.4889 92.7834H65.407C65.9418 92.7834 66.3555 92.6581 66.6481 92.4073C66.9406 92.1566 67.0868 91.8098 67.0868 91.3668C67.0868 90.9239 66.9406 90.577 66.6481 90.3263C66.3555 90.0756 65.9335 89.9502 65.3819 89.9502H63.4889V92.7834ZM65.5073 96.8076C66.0756 96.8076 66.5185 96.6739 66.8361 96.4064C67.1537 96.139 67.3125 95.7671 67.3125 95.2907C67.3125 94.806 67.1453 94.4257 66.811 94.1499C66.4767 93.8657 66.0296 93.7237 65.4696 93.7237H63.4889V96.8076H65.5073ZM75.2013 95.8047H71.3903L70.6883 97.7478H69.4848L72.6439 89.0602H73.9602L77.1068 97.7478H75.9034L75.2013 95.8047ZM74.8754 94.877L73.2958 90.4642L71.7162 94.877H74.8754ZM79.6245 96.8201H82.6833V97.7478H78.4837V89.01H79.6245V96.8201ZM89.0598 95.8047H85.2488L84.5467 97.7478H83.3433L86.5024 89.0602H87.8187L90.9653 97.7478H89.7618L89.0598 95.8047ZM88.7339 94.877L87.1543 90.4642L85.5747 94.877H88.7339ZM99.212 97.7478H98.0712L93.483 90.7902V97.7478H92.3422V88.9975H93.483L98.0712 95.9426V88.9975H99.212V97.7478ZM100.731 93.3726C100.731 92.5202 100.923 91.7555 101.307 91.0785C101.692 90.3932 102.214 89.8583 102.874 89.4739C103.543 89.0894 104.282 88.8972 105.093 88.8972C106.046 88.8972 106.877 89.127 107.588 89.5867C108.298 90.0463 108.816 90.6982 109.142 91.5423H107.776C107.534 91.0158 107.183 90.6105 106.723 90.3263C106.272 90.0422 105.728 89.9001 105.093 89.9001C104.483 89.9001 103.936 90.0422 103.451 90.3263C102.966 90.6105 102.586 91.0158 102.31 91.5423C102.034 92.0605 101.896 92.6706 101.896 93.3726C101.896 94.0663 102.034 94.6764 102.31 95.2029C102.586 95.7211 102.966 96.1223 103.451 96.4064C103.936 96.6906 104.483 96.8327 105.093 96.8327C105.728 96.8327 106.272 96.6948 106.723 96.419C107.183 96.1348 107.534 95.7295 107.776 95.2029H109.142C108.816 96.0387 108.298 96.6864 107.588 97.1461C106.877 97.5974 106.046 97.823 105.093 97.823C104.282 97.823 103.543 97.635 102.874 97.2589C102.214 96.8744 101.692 96.3437 101.307 95.6668C100.923 94.9898 100.731 94.2251 100.731 93.3726ZM111.981 89.9377V92.8586H115.166V93.7989H111.981V96.8076H115.542V97.7478H110.841V88.9975H115.542V89.9377H111.981ZM124.088 91.3292V92.2945H117.569V91.3292H124.088ZM124.088 94.0245V94.9898H117.569V94.0245H124.088ZM129.481 93.1219C129.481 91.6844 129.715 90.5645 130.183 89.7622C130.651 88.9515 131.47 88.5462 132.641 88.5462C133.802 88.5462 134.617 88.9515 135.085 89.7622C135.553 90.5645 135.787 91.6844 135.787 93.1219C135.787 94.5845 135.553 95.7211 135.085 96.5318C134.617 97.3425 133.802 97.7478 132.641 97.7478C131.47 97.7478 130.651 97.3425 130.183 96.5318C129.715 95.7211 129.481 94.5845 129.481 93.1219ZM134.659 93.1219C134.659 92.3948 134.609 91.7805 134.508 91.2791C134.417 90.7693 134.22 90.3597 133.919 90.0505C133.627 89.7413 133.201 89.5867 132.641 89.5867C132.072 89.5867 131.638 89.7413 131.337 90.0505C131.044 90.3597 130.848 90.7693 130.748 91.2791C130.656 91.7805 130.61 92.3948 130.61 93.1219C130.61 93.8741 130.656 94.5051 130.748 95.0149C130.848 95.5247 131.044 95.9342 131.337 96.2434C131.638 96.5527 132.072 96.7073 132.641 96.7073C133.201 96.7073 133.627 96.5527 133.919 96.2434C134.22 95.9342 134.417 95.5247 134.508 95.0149C134.609 94.5051 134.659 93.8741 134.659 93.1219ZM137.905 97.823C137.688 97.823 137.504 97.7478 137.353 97.5974C137.203 97.4469 137.128 97.2631 137.128 97.0458C137.128 96.8285 137.203 96.6446 137.353 96.4942C137.504 96.3437 137.688 96.2685 137.905 96.2685C138.114 96.2685 138.289 96.3437 138.431 96.4942C138.582 96.6446 138.657 96.8285 138.657 97.0458C138.657 97.2631 138.582 97.4469 138.431 97.5974C138.289 97.7478 138.114 97.823 137.905 97.823ZM139.985 93.1219C139.985 91.6844 140.219 90.5645 140.687 89.7622C141.156 88.9515 141.975 88.5462 143.145 88.5462C144.306 88.5462 145.121 88.9515 145.589 89.7622C146.057 90.5645 146.291 91.6844 146.291 93.1219C146.291 94.5845 146.057 95.7211 145.589 96.5318C145.121 97.3425 144.306 97.7478 143.145 97.7478C141.975 97.7478 141.156 97.3425 140.687 96.5318C140.219 95.7211 139.985 94.5845 139.985 93.1219ZM145.163 93.1219C145.163 92.3948 145.113 91.7805 145.013 91.2791C144.921 90.7693 144.724 90.3597 144.423 90.0505C144.131 89.7413 143.705 89.5867 143.145 89.5867C142.576 89.5867 142.142 89.7413 141.841 90.0505C141.548 90.3597 141.352 90.7693 141.252 91.2791C141.16 91.7805 141.114 92.3948 141.114 93.1219C141.114 93.8741 141.16 94.5051 141.252 95.0149C141.352 95.5247 141.548 95.9342 141.841 96.2434C142.142 96.5527 142.576 96.7073 143.145 96.7073C143.705 96.7073 144.131 96.5527 144.423 96.2434C144.724 95.9342 144.921 95.5247 145.013 95.0149C145.113 94.5051 145.163 93.8741 145.163 93.1219ZM147.556 89.7246V88.6841H149.913V97.7478H148.76V89.7246H147.556ZM151.597 95.7295V94.8645L155.997 88.7718H157.364V94.7391H158.617V95.7295H157.364V97.7478H156.236V95.7295H151.597ZM156.286 89.9628L152.913 94.7391H156.286V89.9628ZM159.757 93.1219C159.757 91.6844 159.991 90.5645 160.459 89.7622C160.927 88.9515 161.746 88.5462 162.916 88.5462C164.078 88.5462 164.893 88.9515 165.361 89.7622C165.829 90.5645 166.063 91.6844 166.063 93.1219C166.063 94.5845 165.829 95.7211 165.361 96.5318C164.893 97.3425 164.078 97.7478 162.916 97.7478C161.746 97.7478 160.927 97.3425 160.459 96.5318C159.991 95.7211 159.757 94.5845 159.757 93.1219ZM164.935 93.1219C164.935 92.3948 164.884 91.7805 164.784 91.2791C164.692 90.7693 164.496 90.3597 164.195 90.0505C163.902 89.7413 163.476 89.5867 162.916 89.5867C162.348 89.5867 161.913 89.7413 161.612 90.0505C161.32 90.3597 161.123 90.7693 161.023 91.2791C160.931 91.7805 160.885 92.3948 160.885 93.1219C160.885 93.8741 160.931 94.5051 161.023 95.0149C161.123 95.5247 161.32 95.9342 161.612 96.2434C161.913 96.5527 162.348 96.7073 162.916 96.7073C163.476 96.7073 163.902 96.5527 164.195 96.2434C164.496 95.9342 164.692 95.5247 164.784 95.0149C164.884 94.5051 164.935 93.8741 164.935 93.1219ZM167.328 89.7246V88.6841H169.685V97.7478H168.532V89.7246H167.328ZM171.507 96.8327C172.568 95.9802 173.4 95.2823 174.001 94.7391C174.603 94.1875 175.109 93.615 175.518 93.0216C175.936 92.4199 176.145 91.8307 176.145 91.254C176.145 90.7108 176.011 90.2845 175.744 89.9753C175.485 89.6577 175.063 89.4989 174.478 89.4989C173.909 89.4989 173.466 89.6786 173.149 90.038C172.84 90.389 172.672 90.8612 172.647 91.4546H171.544C171.578 90.5185 171.862 89.7956 172.397 89.2858C172.932 88.776 173.621 88.5211 174.465 88.5211C175.326 88.5211 176.007 88.7593 176.509 89.2357C177.018 89.712 177.273 90.3681 177.273 91.2039C177.273 91.8975 177.064 92.5745 176.646 93.2347C176.237 93.8866 175.769 94.4633 175.242 94.9647C174.716 95.4578 174.043 96.0345 173.224 96.6948H177.537V97.6475H171.507V96.8327ZM184.635 89.6744H180.234V92.5327C180.427 92.2653 180.711 92.048 181.087 91.8808C181.463 91.7053 181.868 91.6176 182.303 91.6176C182.996 91.6176 183.561 91.7638 183.995 92.0563C184.43 92.3405 184.739 92.7124 184.923 93.1721C185.115 93.6234 185.211 94.1039 185.211 94.6137C185.211 95.2155 185.098 95.7545 184.873 96.2309C184.647 96.7073 184.3 97.0834 183.832 97.3592C183.373 97.635 182.8 97.7729 182.115 97.7729C181.237 97.7729 180.527 97.5472 179.984 97.0959C179.44 96.6446 179.11 96.0429 178.993 95.2907H180.109C180.218 95.7671 180.447 96.139 180.798 96.4064C181.149 96.6739 181.592 96.8076 182.127 96.8076C182.788 96.8076 183.285 96.6112 183.619 96.2184C183.953 95.8172 184.121 95.2907 184.121 94.6388C184.121 93.9869 183.953 93.4855 183.619 93.1344C183.285 92.7751 182.792 92.5954 182.14 92.5954C181.697 92.5954 181.308 92.704 180.974 92.9213C180.648 93.1303 180.41 93.4186 180.259 93.7863H179.181V88.6715H184.635V89.6744ZM186.451 95.7295V94.8645L190.852 88.7718H192.218V94.7391H193.472V95.7295H192.218V97.7478H191.09V95.7295H186.451ZM191.14 89.9628L187.768 94.7391H191.14V89.9628ZM194.611 93.1219C194.611 91.6844 194.845 90.5645 195.313 89.7622C195.781 88.9515 196.6 88.5462 197.771 88.5462C198.932 88.5462 199.747 88.9515 200.215 89.7622C200.683 90.5645 200.917 91.6844 200.917 93.1219C200.917 94.5845 200.683 95.7211 200.215 96.5318C199.747 97.3425 198.932 97.7478 197.771 97.7478C196.6 97.7478 195.781 97.3425 195.313 96.5318C194.845 95.7211 194.611 94.5845 194.611 93.1219ZM199.789 93.1219C199.789 92.3948 199.739 91.7805 199.638 91.2791C199.546 90.7693 199.35 90.3597 199.049 90.0505C198.757 89.7413 198.33 89.5867 197.771 89.5867C197.202 89.5867 196.768 89.7413 196.467 90.0505C196.174 90.3597 195.978 90.7693 195.878 91.2791C195.786 91.7805 195.74 92.3948 195.74 93.1219C195.74 93.8741 195.786 94.5051 195.878 95.0149C195.978 95.5247 196.174 95.9342 196.467 96.2434C196.768 96.5527 197.202 96.7073 197.771 96.7073C198.33 96.7073 198.757 96.5527 199.049 96.2434C199.35 95.9342 199.546 95.5247 199.638 95.0149C199.739 94.5051 199.789 93.8741 199.789 93.1219ZM202.182 89.7246V88.6841H204.539V97.7478H203.386V89.7246H202.182ZM206.361 96.8327C207.422 95.9802 208.254 95.2823 208.856 94.7391C209.457 94.1875 209.963 93.615 210.373 93.0216C210.79 92.4199 210.999 91.8307 210.999 91.254C210.999 90.7108 210.866 90.2845 210.598 89.9753C210.339 89.6577 209.917 89.4989 209.332 89.4989C208.764 89.4989 208.321 89.6786 208.003 90.038C207.694 90.389 207.527 90.8612 207.502 91.4546H206.399C206.432 90.5185 206.716 89.7956 207.251 89.2858C207.786 88.776 208.475 88.5211 209.319 88.5211C210.18 88.5211 210.861 88.7593 211.363 89.2357C211.873 89.712 212.128 90.3681 212.128 91.2039C212.128 91.8975 211.919 92.5745 211.501 93.2347C211.091 93.8866 210.623 94.4633 210.097 94.9647C209.57 95.4578 208.897 96.0345 208.078 96.6948H212.391V97.6475H206.361V96.8327ZM213.71 93.1219C213.71 91.6844 213.944 90.5645 214.412 89.7622C214.88 88.9515 215.699 88.5462 216.869 88.5462C218.03 88.5462 218.845 88.9515 219.313 89.7622C219.781 90.5645 220.015 91.6844 220.015 93.1219C220.015 94.5845 219.781 95.7211 219.313 96.5318C218.845 97.3425 218.03 97.7478 216.869 97.7478C215.699 97.7478 214.88 97.3425 214.412 96.5318C213.944 95.7211 213.71 94.5845 213.71 93.1219ZM218.887 93.1219C218.887 92.3948 218.837 91.7805 218.737 91.2791C218.645 90.7693 218.448 90.3597 218.147 90.0505C217.855 89.7413 217.429 89.5867 216.869 89.5867C216.3 89.5867 215.866 89.7413 215.565 90.0505C215.272 90.3597 215.076 90.7693 214.976 91.2791C214.884 91.7805 214.838 92.3948 214.838 93.1219C214.838 93.8741 214.884 94.5051 214.976 95.0149C215.076 95.5247 215.272 95.9342 215.565 96.2434C215.866 96.5527 216.3 96.7073 216.869 96.7073C217.429 96.7073 217.855 96.5527 218.147 96.2434C218.448 95.9342 218.645 95.5247 218.737 95.0149C218.837 94.5051 218.887 93.8741 218.887 93.1219ZM221.281 89.7246V88.6841H223.637V97.7478H222.484V89.7246H221.281ZM231.376 89.6744H226.976V92.5327C227.168 92.2653 227.452 92.048 227.829 91.8808C228.205 91.7053 228.61 91.6176 229.045 91.6176C229.738 91.6176 230.302 91.7638 230.737 92.0563C231.172 92.3405 231.481 92.7124 231.665 93.1721C231.857 93.6234 231.953 94.1039 231.953 94.6137C231.953 95.2155 231.84 95.7545 231.614 96.2309C231.389 96.7073 231.042 97.0834 230.574 97.3592C230.114 97.635 229.542 97.7729 228.856 97.7729C227.979 97.7729 227.269 97.5472 226.725 97.0959C226.182 96.6446 225.852 96.0429 225.735 95.2907H226.851C226.959 95.7671 227.189 96.139 227.54 96.4064C227.891 96.6739 228.334 96.8076 228.869 96.8076C229.529 96.8076 230.027 96.6112 230.361 96.2184C230.695 95.8172 230.862 95.2907 230.862 94.6388C230.862 93.9869 230.695 93.4855 230.361 93.1344C230.027 92.7751 229.533 92.5954 228.882 92.5954C228.439 92.5954 228.05 92.704 227.716 92.9213C227.39 93.1303 227.152 93.4186 227.001 93.7863H225.923V88.6715H231.376V89.6744Z" fill="black"/>
<path d="M62.323 133.657V125.888H65.0792C65.638 125.888 66.1376 125.985 66.5782 126.178C67.0224 126.368 67.3716 126.649 67.6259 127.021C67.8802 127.394 68.0073 127.852 68.0073 128.397C68.0073 128.909 67.8909 129.348 67.6581 129.713C67.4289 130.079 67.1083 130.358 66.6964 130.551C66.2845 130.745 65.8028 130.841 65.2512 130.841H63.6501V133.657H62.323ZM63.6393 129.794H65.2189C65.6738 129.794 66.0445 129.658 66.3311 129.385C66.6212 129.113 66.7663 128.759 66.7663 128.322C66.7663 127.878 66.6158 127.534 66.3149 127.29C66.0141 127.043 65.6362 126.919 65.1813 126.919H63.6393V129.794ZM67.9813 133.657L70.7751 125.888H72.1881L74.9766 133.657H73.6656L72.9726 131.706H70.0068L69.2976 133.657H67.9813ZM70.3077 130.546H72.6502L71.4843 127.161L70.3077 130.546ZM81.2325 125.888L78.5623 130.374V133.657H77.2567V130.369L74.5811 125.888H75.9995L77.9175 129.23L79.8034 125.888H81.2325Z" fill="#55535B"/>
<rect x="61.3828" y="144.82" width="360.866" height="53.909" rx="7.16359" fill="#FAFAFB"/>
<path d="M91.9151 170.132V171.88C91.9151 172.819 91.8312 173.611 91.6633 174.256C91.4954 174.902 91.2541 175.421 90.9392 175.815C90.6244 176.208 90.244 176.494 89.7981 176.672C89.3573 176.846 88.8589 176.932 88.3027 176.932C87.862 176.932 87.4554 176.877 87.0829 176.767C86.7103 176.657 86.3746 176.481 86.0755 176.24C85.7817 175.993 85.5298 175.673 85.32 175.279C85.1101 174.886 84.9501 174.408 84.8399 173.847C84.7297 173.286 84.6746 172.63 84.6746 171.88V170.132C84.6746 169.193 84.7585 168.406 84.9264 167.771C85.0996 167.136 85.3436 166.628 85.6584 166.245C85.9732 165.856 86.3509 165.578 86.7917 165.41C87.2376 165.242 87.7361 165.158 88.287 165.158C88.733 165.158 89.1422 165.214 89.5147 165.324C89.8925 165.429 90.2283 165.599 90.5221 165.835C90.8159 166.066 91.0652 166.376 91.2698 166.764C91.4797 167.147 91.6397 167.617 91.7499 168.173C91.8601 168.729 91.9151 169.382 91.9151 170.132ZM90.4513 172.116V169.888C90.4513 169.374 90.4198 168.923 90.3569 168.535C90.2991 168.141 90.2126 167.805 90.0971 167.527C89.9817 167.249 89.8348 167.024 89.6564 166.851C89.4833 166.677 89.2813 166.551 89.0504 166.473C88.8248 166.389 88.5703 166.347 88.287 166.347C87.9407 166.347 87.6338 166.412 87.3662 166.544C87.0986 166.669 86.873 166.871 86.6894 167.15C86.511 167.428 86.3746 167.792 86.2801 168.244C86.1857 168.695 86.1384 169.243 86.1384 169.888V172.116C86.1384 172.63 86.1673 173.084 86.225 173.477C86.288 173.871 86.3798 174.212 86.5005 174.5C86.6212 174.784 86.7681 175.017 86.9412 175.201C87.1143 175.384 87.3137 175.521 87.5393 175.61C87.7702 175.694 88.0247 175.736 88.3027 175.736C88.6595 175.736 88.9717 175.668 89.2393 175.531C89.5069 175.395 89.7299 175.182 89.9083 174.894C90.0919 174.6 90.2283 174.225 90.3175 173.768C90.4067 173.307 90.4513 172.756 90.4513 172.116ZM95.2678 175.043V176.216C95.2678 176.693 95.1472 177.197 94.9058 177.727C94.6645 178.262 94.326 178.708 93.8906 179.065L93.0642 178.49C93.2321 178.26 93.3737 178.024 93.4892 177.782C93.6046 177.546 93.6912 177.299 93.7489 177.042C93.8119 176.791 93.8433 176.523 93.8433 176.24V175.043H95.2678ZM104.161 170.132V171.88C104.161 172.819 104.077 173.611 103.909 174.256C103.741 174.902 103.5 175.421 103.185 175.815C102.87 176.208 102.49 176.494 102.044 176.672C101.603 176.846 101.105 176.932 100.549 176.932C100.108 176.932 99.7014 176.877 99.3288 176.767C98.9563 176.657 98.6205 176.481 98.3215 176.24C98.0276 175.993 97.7758 175.673 97.5659 175.279C97.3561 174.886 97.196 174.408 97.0858 173.847C96.9757 173.286 96.9206 172.63 96.9206 171.88V170.132C96.9206 169.193 97.0045 168.406 97.1724 167.771C97.3456 167.136 97.5895 166.628 97.9043 166.245C98.2191 165.856 98.5969 165.578 99.0376 165.41C99.4836 165.242 99.9821 165.158 100.533 165.158C100.979 165.158 101.388 165.214 101.761 165.324C102.138 165.429 102.474 165.599 102.768 165.835C103.062 166.066 103.311 166.376 103.516 166.764C103.726 167.147 103.886 167.617 103.996 168.173C104.106 168.729 104.161 169.382 104.161 170.132ZM102.697 172.116V169.888C102.697 169.374 102.666 168.923 102.603 168.535C102.545 168.141 102.459 167.805 102.343 167.527C102.228 167.249 102.081 167.024 101.902 166.851C101.729 166.677 101.527 166.551 101.296 166.473C101.071 166.389 100.816 166.347 100.533 166.347C100.187 166.347 99.8797 166.412 99.6122 166.544C99.3446 166.669 99.119 166.871 98.9353 167.15C98.7569 167.428 98.6205 167.792 98.5261 168.244C98.4316 168.695 98.3844 169.243 98.3844 169.888V172.116C98.3844 172.63 98.4133 173.084 98.471 173.477C98.534 173.871 98.6258 174.212 98.7464 174.5C98.8671 174.784 99.014 175.017 99.1872 175.201C99.3603 175.384 99.5597 175.521 99.7853 175.61C100.016 175.694 100.271 175.736 100.549 175.736C100.905 175.736 101.218 175.668 101.485 175.531C101.753 175.395 101.976 175.182 102.154 174.894C102.338 174.6 102.474 174.225 102.563 173.768C102.653 173.307 102.697 172.756 102.697 172.116ZM113.228 170.132V171.88C113.228 172.819 113.144 173.611 112.976 174.256C112.808 174.902 112.566 175.421 112.252 175.815C111.937 176.208 111.556 176.494 111.11 176.672C110.67 176.846 110.171 176.932 109.615 176.932C109.174 176.932 108.768 176.877 108.395 176.767C108.023 176.657 107.687 176.481 107.388 176.24C107.094 175.993 106.842 175.673 106.632 175.279C106.422 174.886 106.262 174.408 106.152 173.847C106.042 173.286 105.987 172.63 105.987 171.88V170.132C105.987 169.193 106.071 168.406 106.239 167.771C106.412 167.136 106.656 166.628 106.971 166.245C107.286 165.856 107.663 165.578 108.104 165.41C108.55 165.242 109.048 165.158 109.599 165.158C110.045 165.158 110.455 165.214 110.827 165.324C111.205 165.429 111.541 165.599 111.835 165.835C112.128 166.066 112.378 166.376 112.582 166.764C112.792 167.147 112.952 167.617 113.062 168.173C113.172 168.729 113.228 169.382 113.228 170.132ZM111.764 172.116V169.888C111.764 169.374 111.732 168.923 111.669 168.535C111.612 168.141 111.525 167.805 111.41 167.527C111.294 167.249 111.147 167.024 110.969 166.851C110.796 166.677 110.594 166.551 110.363 166.473C110.137 166.389 109.883 166.347 109.599 166.347C109.253 166.347 108.946 166.412 108.679 166.544C108.411 166.669 108.185 166.871 108.002 167.15C107.823 167.428 107.687 167.792 107.593 168.244C107.498 168.695 107.451 169.243 107.451 169.888V172.116C107.451 172.63 107.48 173.084 107.537 173.477C107.6 173.871 107.692 174.212 107.813 174.5C107.934 174.784 108.08 175.017 108.254 175.201C108.427 175.384 108.626 175.521 108.852 175.61C109.083 175.694 109.337 175.736 109.615 175.736C109.972 175.736 110.284 175.668 110.552 175.531C110.819 175.395 111.042 175.182 111.221 174.894C111.404 174.6 111.541 174.225 111.63 173.768C111.719 173.307 111.764 172.756 111.764 172.116ZM122.294 170.132V171.88C122.294 172.819 122.21 173.611 122.042 174.256C121.874 174.902 121.633 175.421 121.318 175.815C121.003 176.208 120.623 176.494 120.177 176.672C119.736 176.846 119.238 176.932 118.682 176.932C118.241 176.932 117.834 176.877 117.462 176.767C117.089 176.657 116.753 176.481 116.454 176.24C116.16 175.993 115.909 175.673 115.699 175.279C115.489 174.886 115.329 174.408 115.219 173.847C115.109 173.286 115.053 172.63 115.053 171.88V170.132C115.053 169.193 115.137 168.406 115.305 167.771C115.478 167.136 115.722 166.628 116.037 166.245C116.352 165.856 116.73 165.578 117.17 165.41C117.616 165.242 118.115 165.158 118.666 165.158C119.112 165.158 119.521 165.214 119.894 165.324C120.271 165.429 120.607 165.599 120.901 165.835C121.195 166.066 121.444 166.376 121.649 166.764C121.858 167.147 122.019 167.617 122.129 168.173C122.239 168.729 122.294 169.382 122.294 170.132ZM120.83 172.116V169.888C120.83 169.374 120.799 168.923 120.736 168.535C120.678 168.141 120.591 167.805 120.476 167.527C120.361 167.249 120.214 167.024 120.035 166.851C119.862 166.677 119.66 166.551 119.429 166.473C119.204 166.389 118.949 166.347 118.666 166.347C118.32 166.347 118.013 166.412 117.745 166.544C117.477 166.669 117.252 166.871 117.068 167.15C116.89 167.428 116.753 167.792 116.659 168.244C116.564 168.695 116.517 169.243 116.517 169.888V172.116C116.517 172.63 116.546 173.084 116.604 173.477C116.667 173.871 116.759 174.212 116.879 174.5C117 174.784 117.147 175.017 117.32 175.201C117.493 175.384 117.693 175.521 117.918 175.61C118.149 175.694 118.403 175.736 118.682 175.736C119.038 175.736 119.351 175.668 119.618 175.531C119.886 175.395 120.109 175.182 120.287 174.894C120.471 174.6 120.607 174.225 120.696 173.768C120.786 173.307 120.83 172.756 120.83 172.116ZM131.911 172.918V174.115H123.632V173.257L128.763 165.316H129.952L128.677 167.614L125.285 172.918H131.911ZM130.314 165.316V176.775H128.858V165.316H130.314ZM140.978 172.918V174.115H132.698V173.257L137.83 165.316H139.018L137.743 167.614L134.351 172.918H140.978ZM139.38 165.316V176.775H137.924V165.316H139.38ZM150.091 170.66L151.288 170.652C151.288 171.056 151.225 171.436 151.099 171.793C150.978 172.15 150.802 172.465 150.571 172.737C150.346 173.005 150.076 173.217 149.761 173.375C149.451 173.527 149.11 173.603 148.738 173.603C148.281 173.603 147.877 173.511 147.526 173.328C147.179 173.144 146.802 172.874 146.392 172.517C146.125 172.27 145.878 172.079 145.653 171.943C145.427 171.806 145.183 171.738 144.921 171.738C144.653 171.738 144.425 171.803 144.236 171.935C144.047 172.061 143.9 172.242 143.795 172.478C143.696 172.714 143.646 172.997 143.646 173.328L142.379 173.343C142.379 172.934 142.439 172.554 142.56 172.202C142.686 171.851 142.861 171.544 143.087 171.281C143.313 171.019 143.58 170.817 143.89 170.675C144.204 170.528 144.548 170.455 144.921 170.455C145.382 170.455 145.792 170.552 146.148 170.746C146.51 170.94 146.883 171.208 147.266 171.549C147.555 171.811 147.806 172.008 148.022 172.139C148.242 172.265 148.481 172.328 148.738 172.328C149.011 172.328 149.247 172.257 149.446 172.116C149.651 171.974 149.808 171.777 149.918 171.525C150.034 171.274 150.091 170.985 150.091 170.66ZM161.015 172.918V174.115H152.736V173.257L157.867 165.316H159.055L157.781 167.614L154.388 172.918H161.015ZM159.418 165.316V176.775H157.962V165.316H159.418ZM170.082 172.918V174.115H161.802V173.257L166.934 165.316H168.122L166.847 167.614L163.455 172.918H170.082ZM168.484 165.316V176.775H167.028V165.316H168.484Z" fill="#C6C6C6"/>
<path d="M310.12 167.562V173.116C310.12 173.776 310.291 174.273 310.634 174.607C310.985 174.942 311.469 175.109 312.088 175.109C312.715 175.109 313.199 174.942 313.542 174.607C313.893 174.273 314.068 173.776 314.068 173.116V167.562H315.498V173.091C315.498 173.801 315.343 174.403 315.034 174.896C314.725 175.389 314.311 175.757 313.793 175.999C313.274 176.241 312.702 176.363 312.075 176.363C311.448 176.363 310.876 176.241 310.358 175.999C309.848 175.757 309.443 175.389 309.142 174.896C308.841 174.403 308.69 173.801 308.69 173.091V167.562H310.12ZM320.229 176.363C319.644 176.363 319.118 176.262 318.65 176.062C318.182 175.853 317.814 175.56 317.546 175.184C317.279 174.808 317.145 174.369 317.145 173.868H318.675C318.708 174.244 318.854 174.553 319.113 174.795C319.381 175.038 319.753 175.159 320.229 175.159C320.722 175.159 321.107 175.042 321.382 174.808C321.658 174.566 321.796 174.256 321.796 173.88C321.796 173.588 321.708 173.35 321.533 173.166C321.366 172.982 321.153 172.84 320.894 172.74C320.643 172.639 320.292 172.531 319.841 172.414C319.272 172.263 318.808 172.113 318.449 171.962C318.098 171.804 317.797 171.561 317.546 171.235C317.296 170.909 317.17 170.475 317.17 169.931C317.17 169.43 317.296 168.991 317.546 168.615C317.797 168.239 318.148 167.951 318.599 167.75C319.051 167.55 319.573 167.449 320.166 167.449C321.011 167.449 321.7 167.662 322.235 168.089C322.778 168.506 323.079 169.083 323.138 169.819H321.558C321.533 169.501 321.382 169.229 321.107 169.004C320.831 168.778 320.467 168.665 320.016 168.665C319.607 168.665 319.272 168.77 319.013 168.979C318.754 169.188 318.625 169.488 318.625 169.881C318.625 170.149 318.704 170.37 318.863 170.546C319.03 170.713 319.239 170.847 319.49 170.947C319.74 171.047 320.083 171.156 320.517 171.273C321.094 171.432 321.562 171.59 321.922 171.749C322.289 171.908 322.599 172.155 322.849 172.489C323.108 172.815 323.238 173.254 323.238 173.805C323.238 174.248 323.117 174.666 322.874 175.059C322.64 175.452 322.293 175.769 321.834 176.012C321.382 176.246 320.848 176.363 320.229 176.363ZM327.77 167.562C328.698 167.562 329.508 167.742 330.202 168.101C330.904 168.452 331.443 168.962 331.819 169.631C332.204 170.291 332.396 171.064 332.396 171.95C332.396 172.836 332.204 173.605 331.819 174.256C331.443 174.908 330.904 175.41 330.202 175.761C329.508 176.103 328.698 176.275 327.77 176.275H324.924V167.562H327.77ZM327.77 175.109C328.79 175.109 329.571 174.833 330.114 174.282C330.657 173.73 330.929 172.953 330.929 171.95C330.929 170.938 330.657 170.149 330.114 169.58C329.571 169.012 328.79 168.728 327.77 168.728H326.353V175.109H327.77ZM339.441 167.562V168.728H337.122V176.275H335.693V168.728H333.361V167.562H339.441Z" fill="#1E1E1E"/>
<g clip-path="url(#clip1_3_61246)">
<path fill-rule="evenodd" clip-rule="evenodd" d="M378.372 171.775C378.372 179.688 371.958 186.102 364.045 186.102C356.132 186.102 349.718 179.688 349.718 171.775C349.718 163.862 356.132 157.448 364.045 157.448C371.958 157.448 378.372 163.862 378.372 171.775ZM364.377 165.363C366.403 165.022 368.057 165.374 368.777 167.019C369.254 168.327 368.865 169.327 368.097 170.012C369.345 170.141 370.846 171.277 371.065 172.661C371.406 174.959 369.737 176.461 367.374 177.04L368.032 179.608L366.497 180.008L365.843 177.432C365.443 177.538 365.032 177.641 364.61 177.74L365.268 180.33L363.734 180.729L363.076 178.157C362.716 178.249 359.974 178.956 359.974 178.956L359.806 177.025C359.806 177.025 360.948 176.75 360.923 176.736C361.352 176.618 361.388 176.274 361.366 176.073L359.577 169.104C359.439 168.807 359.145 168.492 358.519 168.657C358.53 168.631 357.403 168.95 357.403 168.95L356.981 167.294C356.981 167.294 359.748 166.579 360.079 166.484L359.428 163.941L360.963 163.542L361.603 166.063C361.864 165.988 362.127 165.926 362.388 165.863C362.537 165.828 362.685 165.792 362.832 165.755L362.192 163.22L363.726 162.82L364.377 165.363ZM364.703 175.792C366.005 175.522 368.303 175.045 368.039 173.083C367.572 171.272 364.902 172.04 363.625 172.407C363.489 172.447 363.368 172.481 363.268 172.508L364.17 175.911C364.313 175.874 364.495 175.836 364.703 175.792ZM363.343 170.837C364.437 170.613 366.43 170.207 366.148 168.448C365.573 166.811 363.574 167.406 362.5 167.726C362.345 167.772 362.21 167.813 362.101 167.84L362.923 170.928C363.036 170.899 363.179 170.87 363.343 170.837Z" fill="#0AC18E"/>
</g>
<path d="M393.595 174.282C393.229 174.282 392.864 174.141 392.587 173.864L389.181 170.458C389.03 170.307 389.03 170.056 389.181 169.905C389.332 169.753 389.583 169.753 389.735 169.905L393.14 173.31C393.391 173.561 393.799 173.561 394.049 173.31L397.455 169.905C397.606 169.753 397.857 169.753 398.009 169.905C398.16 170.056 398.16 170.307 398.009 170.458L394.603 173.864C394.326 174.141 393.96 174.282 393.595 174.282Z" fill="black" stroke="black" stroke-width="0.447725"/>
<rect x="223.46" y="209.922" width="36.7134" height="36.7134" rx="18.3567" stroke="#E2E2E2" stroke-width="0.895449"/>
<path d="M242.066 235.819C242.066 235.452 242.37 235.147 242.738 235.147L245.71 235.147C246.821 235.147 247.725 234.243 247.725 233.132L247.725 220.739C247.725 220.372 248.03 220.068 248.397 220.068C248.764 220.068 249.068 220.372 249.068 220.739L249.068 233.132C249.068 234.986 247.564 236.49 245.71 236.49L242.738 236.49C242.361 236.49 242.066 236.186 242.066 235.819Z" fill="#292D32"/>
<path d="M244.887 223.569C244.887 223.399 244.949 223.229 245.084 223.094L247.913 220.265C248.038 220.139 248.209 220.068 248.388 220.068C248.567 220.068 248.737 220.139 248.862 220.265L251.692 223.094C251.952 223.354 251.952 223.784 251.692 224.044C251.432 224.303 251.002 224.303 250.743 224.044L248.388 221.689L246.033 224.044C245.773 224.303 245.343 224.303 245.084 224.044C244.958 223.909 244.887 223.739 244.887 223.569Z" fill="#292D32"/>
<path d="M235.466 235.819L235.466 223.426C235.466 221.572 236.971 220.068 238.824 220.068L241.797 220.068C242.164 220.068 242.469 220.372 242.469 220.739C242.469 221.106 242.164 221.411 241.797 221.411L238.824 221.411C237.714 221.411 236.81 222.315 236.81 223.426L236.81 235.819C236.81 236.186 236.505 236.49 236.138 236.49C235.771 236.49 235.466 236.186 235.466 235.819Z" fill="#292D32"/>
<path d="M232.637 232.989C232.637 232.819 232.699 232.649 232.834 232.515C233.093 232.255 233.523 232.255 233.783 232.515L236.138 234.87L238.493 232.515C238.752 232.255 239.182 232.255 239.442 232.515C239.702 232.774 239.702 233.204 239.442 233.464L236.612 236.293C236.487 236.419 236.317 236.49 236.138 236.49C235.959 236.49 235.789 236.419 235.663 236.293L232.834 233.464C232.699 233.338 232.637 233.168 232.637 232.989Z" fill="#292D32"/>
<path d="M62.323 268.829V261.06H65.0792C65.638 261.06 66.1376 261.157 66.5782 261.35C67.0224 261.54 67.3716 261.821 67.6259 262.194C67.8802 262.566 68.0073 263.025 68.0073 263.569C68.0073 264.081 67.8909 264.52 67.6581 264.885C67.4289 265.251 67.1083 265.53 66.6964 265.723C66.2845 265.917 65.8028 266.014 65.2512 266.014H63.6501V268.829H62.323ZM63.6393 264.966H65.2189C65.6738 264.966 66.0445 264.83 66.3311 264.558C66.6212 264.285 66.7663 263.931 66.7663 263.494C66.7663 263.05 66.6158 262.706 66.3149 262.462C66.0141 262.215 65.6362 262.091 65.1813 262.091H63.6393V264.966ZM67.9813 268.829L70.7751 261.06H72.1881L74.9766 268.829H73.6656L72.9726 266.879H70.0068L69.2976 268.829H67.9813ZM70.3077 265.718H72.6502L71.4843 262.333L70.3077 265.718ZM81.2325 261.06L78.5623 265.546V268.829H77.2567V265.541L74.5811 261.06H75.9995L77.9175 264.402L79.8034 261.06H81.2325Z" fill="#55535B"/>
<rect x="61.3828" y="279.992" width="360.866" height="53.909" rx="7.16359" fill="#FAFAFB"/>
<path d="M91.9151 305.304V307.052C91.9151 307.991 91.8312 308.783 91.6633 309.428C91.4954 310.074 91.2541 310.593 90.9392 310.987C90.6244 311.38 90.244 311.666 89.7981 311.845C89.3573 312.018 88.8589 312.104 88.3027 312.104C87.862 312.104 87.4554 312.049 87.0829 311.939C86.7103 311.829 86.3746 311.653 86.0755 311.412C85.7817 311.165 85.5298 310.845 85.32 310.452C85.1101 310.058 84.9501 309.581 84.8399 309.019C84.7297 308.458 84.6746 307.802 84.6746 307.052V305.304C84.6746 304.365 84.7585 303.578 84.9264 302.943C85.0996 302.309 85.3436 301.8 85.6584 301.417C85.9732 301.028 86.3509 300.75 86.7917 300.582C87.2376 300.414 87.7361 300.331 88.287 300.331C88.733 300.331 89.1422 300.386 89.5147 300.496C89.8925 300.601 90.2283 300.771 90.5221 301.007C90.8159 301.238 91.0652 301.548 91.2698 301.936C91.4797 302.319 91.6397 302.789 91.7499 303.345C91.8601 303.901 91.9151 304.554 91.9151 305.304ZM90.4513 307.288V305.061C90.4513 304.546 90.4198 304.095 90.3569 303.707C90.2991 303.313 90.2126 302.978 90.0971 302.699C89.9817 302.421 89.8348 302.196 89.6564 302.023C89.4833 301.849 89.2813 301.724 89.0504 301.645C88.8248 301.561 88.5703 301.519 88.287 301.519C87.9407 301.519 87.6338 301.585 87.3662 301.716C87.0986 301.842 86.873 302.044 86.6894 302.322C86.511 302.6 86.3746 302.964 86.2801 303.416C86.1857 303.867 86.1384 304.415 86.1384 305.061V307.288C86.1384 307.802 86.1673 308.256 86.225 308.649C86.288 309.043 86.3798 309.384 86.5005 309.672C86.6212 309.956 86.7681 310.189 86.9412 310.373C87.1143 310.557 87.3137 310.693 87.5393 310.782C87.7702 310.866 88.0247 310.908 88.3027 310.908C88.6595 310.908 88.9717 310.84 89.2393 310.703C89.5069 310.567 89.7299 310.355 89.9083 310.066C90.0919 309.772 90.2283 309.397 90.3175 308.94C90.4067 308.479 90.4513 307.928 90.4513 307.288ZM95.2678 310.215V311.388C95.2678 311.866 95.1472 312.369 94.9058 312.899C94.6645 313.434 94.326 313.88 93.8906 314.237L93.0642 313.663C93.2321 313.432 93.3737 313.196 93.4892 312.954C93.6046 312.718 93.6912 312.472 93.7489 312.214C93.8119 311.963 93.8433 311.695 93.8433 311.412V310.215H95.2678ZM104.161 305.304V307.052C104.161 307.991 104.077 308.783 103.909 309.428C103.741 310.074 103.5 310.593 103.185 310.987C102.87 311.38 102.49 311.666 102.044 311.845C101.603 312.018 101.105 312.104 100.549 312.104C100.108 312.104 99.7014 312.049 99.3288 311.939C98.9563 311.829 98.6205 311.653 98.3215 311.412C98.0276 311.165 97.7758 310.845 97.5659 310.452C97.3561 310.058 97.196 309.581 97.0858 309.019C96.9757 308.458 96.9206 307.802 96.9206 307.052V305.304C96.9206 304.365 97.0045 303.578 97.1724 302.943C97.3456 302.309 97.5895 301.8 97.9043 301.417C98.2191 301.028 98.5969 300.75 99.0376 300.582C99.4836 300.414 99.9821 300.331 100.533 300.331C100.979 300.331 101.388 300.386 101.761 300.496C102.138 300.601 102.474 300.771 102.768 301.007C103.062 301.238 103.311 301.548 103.516 301.936C103.726 302.319 103.886 302.789 103.996 303.345C104.106 303.901 104.161 304.554 104.161 305.304ZM102.697 307.288V305.061C102.697 304.546 102.666 304.095 102.603 303.707C102.545 303.313 102.459 302.978 102.343 302.699C102.228 302.421 102.081 302.196 101.902 302.023C101.729 301.849 101.527 301.724 101.296 301.645C101.071 301.561 100.816 301.519 100.533 301.519C100.187 301.519 99.8797 301.585 99.6122 301.716C99.3446 301.842 99.119 302.044 98.9353 302.322C98.7569 302.6 98.6205 302.964 98.5261 303.416C98.4316 303.867 98.3844 304.415 98.3844 305.061V307.288C98.3844 307.802 98.4133 308.256 98.471 308.649C98.534 309.043 98.6258 309.384 98.7464 309.672C98.8671 309.956 99.014 310.189 99.1872 310.373C99.3603 310.557 99.5597 310.693 99.7853 310.782C100.016 310.866 100.271 310.908 100.549 310.908C100.905 310.908 101.218 310.84 101.485 310.703C101.753 310.567 101.976 310.355 102.154 310.066C102.338 309.772 102.474 309.397 102.563 308.94C102.653 308.479 102.697 307.928 102.697 307.288ZM113.228 305.304V307.052C113.228 307.991 113.144 308.783 112.976 309.428C112.808 310.074 112.566 310.593 112.252 310.987C111.937 311.38 111.556 311.666 111.11 311.845C110.67 312.018 110.171 312.104 109.615 312.104C109.174 312.104 108.768 312.049 108.395 311.939C108.023 311.829 107.687 311.653 107.388 311.412C107.094 311.165 106.842 310.845 106.632 310.452C106.422 310.058 106.262 309.581 106.152 309.019C106.042 308.458 105.987 307.802 105.987 307.052V305.304C105.987 304.365 106.071 303.578 106.239 302.943C106.412 302.309 106.656 301.8 106.971 301.417C107.286 301.028 107.663 300.75 108.104 300.582C108.55 300.414 109.048 300.331 109.599 300.331C110.045 300.331 110.455 300.386 110.827 300.496C111.205 300.601 111.541 300.771 111.835 301.007C112.128 301.238 112.378 301.548 112.582 301.936C112.792 302.319 112.952 302.789 113.062 303.345C113.172 303.901 113.228 304.554 113.228 305.304ZM111.764 307.288V305.061C111.764 304.546 111.732 304.095 111.669 303.707C111.612 303.313 111.525 302.978 111.41 302.699C111.294 302.421 111.147 302.196 110.969 302.023C110.796 301.849 110.594 301.724 110.363 301.645C110.137 301.561 109.883 301.519 109.599 301.519C109.253 301.519 108.946 301.585 108.679 301.716C108.411 301.842 108.185 302.044 108.002 302.322C107.823 302.6 107.687 302.964 107.593 303.416C107.498 303.867 107.451 304.415 107.451 305.061V307.288C107.451 307.802 107.48 308.256 107.537 308.649C107.6 309.043 107.692 309.384 107.813 309.672C107.934 309.956 108.08 310.189 108.254 310.373C108.427 310.557 108.626 310.693 108.852 310.782C109.083 310.866 109.337 310.908 109.615 310.908C109.972 310.908 110.284 310.84 110.552 310.703C110.819 310.567 111.042 310.355 111.221 310.066C111.404 309.772 111.541 309.397 111.63 308.94C111.719 308.479 111.764 307.928 111.764 307.288ZM122.294 305.304V307.052C122.294 307.991 122.21 308.783 122.042 309.428C121.874 310.074 121.633 310.593 121.318 310.987C121.003 311.38 120.623 311.666 120.177 311.845C119.736 312.018 119.238 312.104 118.682 312.104C118.241 312.104 117.834 312.049 117.462 311.939C117.089 311.829 116.753 311.653 116.454 311.412C116.16 311.165 115.909 310.845 115.699 310.452C115.489 310.058 115.329 309.581 115.219 309.019C115.109 308.458 115.053 307.802 115.053 307.052V305.304C115.053 304.365 115.137 303.578 115.305 302.943C115.478 302.309 115.722 301.8 116.037 301.417C116.352 301.028 116.73 300.75 117.17 300.582C117.616 300.414 118.115 300.331 118.666 300.331C119.112 300.331 119.521 300.386 119.894 300.496C120.271 300.601 120.607 300.771 120.901 301.007C121.195 301.238 121.444 301.548 121.649 301.936C121.858 302.319 122.019 302.789 122.129 303.345C122.239 303.901 122.294 304.554 122.294 305.304ZM120.83 307.288V305.061C120.83 304.546 120.799 304.095 120.736 303.707C120.678 303.313 120.591 302.978 120.476 302.699C120.361 302.421 120.214 302.196 120.035 302.023C119.862 301.849 119.66 301.724 119.429 301.645C119.204 301.561 118.949 301.519 118.666 301.519C118.32 301.519 118.013 301.585 117.745 301.716C117.477 301.842 117.252 302.044 117.068 302.322C116.89 302.6 116.753 302.964 116.659 303.416C116.564 303.867 116.517 304.415 116.517 305.061V307.288C116.517 307.802 116.546 308.256 116.604 308.649C116.667 309.043 116.759 309.384 116.879 309.672C117 309.956 117.147 310.189 117.32 310.373C117.493 310.557 117.693 310.693 117.918 310.782C118.149 310.866 118.403 310.908 118.682 310.908C119.038 310.908 119.351 310.84 119.618 310.703C119.886 310.567 120.109 310.355 120.287 310.066C120.471 309.772 120.607 309.397 120.696 308.94C120.786 308.479 120.83 307.928 120.83 307.288ZM131.36 305.304V307.052C131.36 307.991 131.276 308.783 131.109 309.428C130.941 310.074 130.699 310.593 130.384 310.987C130.07 311.38 129.689 311.666 129.243 311.845C128.803 312.018 128.304 312.104 127.748 312.104C127.307 312.104 126.901 312.049 126.528 311.939C126.156 311.829 125.82 311.653 125.521 311.412C125.227 311.165 124.975 310.845 124.765 310.452C124.555 310.058 124.395 309.581 124.285 309.019C124.175 308.458 124.12 307.802 124.12 307.052V305.304C124.12 304.365 124.204 303.578 124.372 302.943C124.545 302.309 124.789 301.8 125.104 301.417C125.418 301.028 125.796 300.75 126.237 300.582C126.683 300.414 127.181 300.331 127.732 300.331C128.178 300.331 128.587 300.386 128.96 300.496C129.338 300.601 129.674 300.771 129.967 301.007C130.261 301.238 130.51 301.548 130.715 301.936C130.925 302.319 131.085 302.789 131.195 303.345C131.305 303.901 131.36 304.554 131.36 305.304ZM129.897 307.288V305.061C129.897 304.546 129.865 304.095 129.802 303.707C129.744 303.313 129.658 302.978 129.542 302.699C129.427 302.421 129.28 302.196 129.102 302.023C128.929 301.849 128.727 301.724 128.496 301.645C128.27 301.561 128.016 301.519 127.732 301.519C127.386 301.519 127.079 301.585 126.811 301.716C126.544 301.842 126.318 302.044 126.135 302.322C125.956 302.6 125.82 302.964 125.725 303.416C125.631 303.867 125.584 304.415 125.584 305.061V307.288C125.584 307.802 125.613 308.256 125.67 308.649C125.733 309.043 125.825 309.384 125.946 309.672C126.066 309.956 126.213 310.189 126.386 310.373C126.56 310.557 126.759 310.693 126.985 310.782C127.215 310.866 127.47 310.908 127.748 310.908C128.105 310.908 128.417 310.84 128.685 310.703C128.952 310.567 129.175 310.355 129.353 310.066C129.537 309.772 129.674 309.397 129.763 308.94C129.852 308.479 129.897 307.928 129.897 307.288ZM140.427 305.304V307.052C140.427 307.991 140.343 308.783 140.175 309.428C140.007 310.074 139.766 310.593 139.451 310.987C139.136 311.38 138.756 311.666 138.31 311.845C137.869 312.018 137.371 312.104 136.814 312.104C136.374 312.104 135.967 312.049 135.595 311.939C135.222 311.829 134.886 311.653 134.587 311.412C134.293 311.165 134.041 310.845 133.832 310.452C133.622 310.058 133.462 309.581 133.352 309.019C133.241 308.458 133.186 307.802 133.186 307.052V305.304C133.186 304.365 133.27 303.578 133.438 302.943C133.611 302.309 133.855 301.8 134.17 301.417C134.485 301.028 134.863 300.75 135.303 300.582C135.749 300.414 136.248 300.331 136.799 300.331C137.245 300.331 137.654 300.386 138.026 300.496C138.404 300.601 138.74 300.771 139.034 301.007C139.328 301.238 139.577 301.548 139.781 301.936C139.991 302.319 140.151 302.789 140.262 303.345C140.372 303.901 140.427 304.554 140.427 305.304ZM138.963 307.288V305.061C138.963 304.546 138.931 304.095 138.869 303.707C138.811 303.313 138.724 302.978 138.609 302.699C138.493 302.421 138.346 302.196 138.168 302.023C137.995 301.849 137.793 301.724 137.562 301.645C137.336 301.561 137.082 301.519 136.799 301.519C136.452 301.519 136.145 301.585 135.878 301.716C135.61 301.842 135.385 302.044 135.201 302.322C135.023 302.6 134.886 302.964 134.792 303.416C134.697 303.867 134.65 304.415 134.65 305.061V307.288C134.65 307.802 134.679 308.256 134.737 308.649C134.8 309.043 134.891 309.384 135.012 309.672C135.133 309.956 135.28 310.189 135.453 310.373C135.626 310.557 135.825 310.693 136.051 310.782C136.282 310.866 136.536 310.908 136.814 310.908C137.171 310.908 137.483 310.84 137.751 310.703C138.019 310.567 138.242 310.355 138.42 310.066C138.604 309.772 138.74 309.397 138.829 308.94C138.918 308.479 138.963 307.928 138.963 307.288ZM149.808 310.751V311.947H142.308V310.9L146.062 306.721C146.524 306.207 146.88 305.771 147.132 305.415C147.389 305.053 147.568 304.73 147.667 304.447C147.772 304.158 147.825 303.864 147.825 303.565C147.825 303.187 147.746 302.846 147.589 302.542C147.437 302.232 147.211 301.986 146.912 301.802C146.613 301.619 146.251 301.527 145.826 301.527C145.317 301.527 144.892 301.626 144.551 301.826C144.215 302.02 143.963 302.293 143.795 302.644C143.627 302.996 143.543 303.4 143.543 303.856H142.087C142.087 303.211 142.229 302.621 142.512 302.086C142.796 301.55 143.215 301.125 143.772 300.811C144.328 300.491 145.012 300.331 145.826 300.331C146.55 300.331 147.169 300.459 147.683 300.716C148.197 300.968 148.591 301.325 148.864 301.787C149.142 302.243 149.281 302.778 149.281 303.392C149.281 303.728 149.223 304.069 149.108 304.415C148.997 304.756 148.843 305.097 148.643 305.438C148.449 305.779 148.221 306.115 147.959 306.446C147.701 306.776 147.426 307.102 147.132 307.422L144.063 310.751H149.808ZM159.111 308.091V309.287H150.831V308.429L155.963 300.488H157.151L155.876 302.786L152.484 308.091H159.111ZM157.513 300.488V311.947H156.057V300.488H157.513ZM168.224 305.832L169.42 305.824C169.42 306.228 169.358 306.608 169.232 306.965C169.111 307.322 168.935 307.637 168.704 307.91C168.479 308.177 168.208 308.39 167.894 308.547C167.584 308.699 167.243 308.775 166.871 308.775C166.414 308.775 166.01 308.683 165.659 308.5C165.312 308.316 164.934 308.046 164.525 307.689C164.258 307.443 164.011 307.251 163.785 307.115C163.56 306.978 163.316 306.91 163.054 306.91C162.786 306.91 162.558 306.976 162.369 307.107C162.18 307.233 162.033 307.414 161.928 307.65C161.828 307.886 161.779 308.169 161.779 308.5L160.511 308.516C160.511 308.106 160.572 307.726 160.692 307.374C160.818 307.023 160.994 306.716 161.22 306.454C161.445 306.191 161.713 305.989 162.023 305.848C162.337 305.701 162.681 305.627 163.054 305.627C163.515 305.627 163.924 305.724 164.281 305.918C164.643 306.112 165.016 306.38 165.399 306.721C165.687 306.983 165.939 307.18 166.154 307.311C166.375 307.437 166.613 307.5 166.871 307.5C167.143 307.5 167.379 307.429 167.579 307.288C167.783 307.146 167.941 306.949 168.051 306.698C168.167 306.446 168.224 306.157 168.224 305.832ZM178.912 310.751V311.947H171.412V310.9L175.166 306.721C175.627 306.207 175.984 305.771 176.236 305.415C176.493 305.053 176.672 304.73 176.771 304.447C176.876 304.158 176.929 303.864 176.929 303.565C176.929 303.187 176.85 302.846 176.693 302.542C176.54 302.232 176.315 301.986 176.016 301.802C175.717 301.619 175.355 301.527 174.93 301.527C174.421 301.527 173.996 301.626 173.655 301.826C173.319 302.02 173.067 302.293 172.899 302.644C172.731 302.996 172.647 303.4 172.647 303.856H171.191C171.191 303.211 171.333 302.621 171.616 302.086C171.9 301.55 172.319 301.125 172.875 300.811C173.432 300.491 174.116 300.331 174.93 300.331C175.654 300.331 176.273 300.459 176.787 300.716C177.301 300.968 177.695 301.325 177.967 301.787C178.246 302.243 178.385 302.778 178.385 303.392C178.385 303.728 178.327 304.069 178.211 304.415C178.101 304.756 177.946 305.097 177.747 305.438C177.553 305.779 177.325 306.115 177.062 306.446C176.805 306.776 176.53 307.102 176.236 307.422L173.167 310.751H178.912ZM187.664 305.304V307.052C187.664 307.991 187.58 308.783 187.412 309.428C187.244 310.074 187.002 310.593 186.688 310.987C186.373 311.38 185.992 311.666 185.546 311.845C185.106 312.018 184.607 312.104 184.051 312.104C183.61 312.104 183.204 312.049 182.831 311.939C182.459 311.829 182.123 311.653 181.824 311.412C181.53 311.165 181.278 310.845 181.068 310.452C180.858 310.058 180.698 309.581 180.588 309.019C180.478 308.458 180.423 307.802 180.423 307.052V305.304C180.423 304.365 180.507 303.578 180.675 302.943C180.848 302.309 181.092 301.8 181.407 301.417C181.722 301.028 182.099 300.75 182.54 300.582C182.986 300.414 183.484 300.331 184.035 300.331C184.481 300.331 184.891 300.386 185.263 300.496C185.641 300.601 185.977 300.771 186.27 301.007C186.564 301.238 186.814 301.548 187.018 301.936C187.228 302.319 187.388 302.789 187.498 303.345C187.608 303.901 187.664 304.554 187.664 305.304ZM186.2 307.288V305.061C186.2 304.546 186.168 304.095 186.105 303.707C186.048 303.313 185.961 302.978 185.846 302.699C185.73 302.421 185.583 302.196 185.405 302.023C185.232 301.849 185.03 301.724 184.799 301.645C184.573 301.561 184.319 301.519 184.035 301.519C183.689 301.519 183.382 301.585 183.115 301.716C182.847 301.842 182.621 302.044 182.438 302.322C182.259 302.6 182.123 302.964 182.028 303.416C181.934 303.867 181.887 304.415 181.887 305.061V307.288C181.887 307.802 181.916 308.256 181.973 308.649C182.036 309.043 182.128 309.384 182.249 309.672C182.37 309.956 182.516 310.189 182.69 310.373C182.863 310.557 183.062 310.693 183.288 310.782C183.519 310.866 183.773 310.908 184.051 310.908C184.408 310.908 184.72 310.84 184.988 310.703C185.255 310.567 185.478 310.355 185.657 310.066C185.84 309.772 185.977 309.397 186.066 308.94C186.155 308.479 186.2 307.928 186.2 307.288Z" fill="#C6C6C6"/>
<path d="M321.366 306.971C321.834 307.055 322.231 307.302 322.557 307.711C322.883 308.121 323.046 308.584 323.046 309.103C323.046 309.546 322.929 309.947 322.695 310.306C322.47 310.657 322.139 310.937 321.705 311.146C321.27 311.347 320.765 311.447 320.188 311.447H316.703V302.734H320.025C320.618 302.734 321.128 302.834 321.554 303.035C321.981 303.236 322.302 303.507 322.52 303.85C322.737 304.184 322.846 304.56 322.846 304.978C322.846 305.48 322.712 305.898 322.445 306.232C322.177 306.566 321.818 306.813 321.366 306.971ZM318.132 306.395H319.9C320.368 306.395 320.731 306.29 320.99 306.081C321.258 305.864 321.391 305.555 321.391 305.154C321.391 304.761 321.258 304.456 320.99 304.239C320.731 304.013 320.368 303.9 319.9 303.9H318.132V306.395ZM320.063 310.281C320.547 310.281 320.928 310.164 321.203 309.93C321.479 309.696 321.617 309.37 321.617 308.952C321.617 308.526 321.471 308.187 321.178 307.937C320.886 307.686 320.497 307.561 320.012 307.561H318.132V310.281H320.063ZM330.228 302.734V303.9H327.909V311.447H326.48V303.9H324.148V302.734H330.228ZM331.199 307.072C331.199 306.219 331.395 305.455 331.788 304.778C332.189 304.101 332.729 303.574 333.405 303.198C334.091 302.814 334.839 302.621 335.649 302.621C336.577 302.621 337.4 302.851 338.119 303.311C338.846 303.762 339.373 304.406 339.699 305.241H337.981C337.756 304.782 337.442 304.439 337.041 304.213C336.64 303.988 336.176 303.875 335.649 303.875C335.073 303.875 334.559 304.005 334.107 304.264C333.656 304.523 333.301 304.895 333.042 305.379C332.791 305.864 332.666 306.428 332.666 307.072C332.666 307.715 332.791 308.279 333.042 308.764C333.301 309.249 333.656 309.625 334.107 309.892C334.559 310.151 335.073 310.281 335.649 310.281C336.176 310.281 336.64 310.168 337.041 309.943C337.442 309.717 337.756 309.374 337.981 308.915H339.699C339.373 309.75 338.846 310.394 338.119 310.845C337.4 311.296 336.577 311.522 335.649 311.522C334.83 311.522 334.082 311.334 333.405 310.958C332.729 310.574 332.189 310.043 331.788 309.366C331.395 308.689 331.199 307.924 331.199 307.072Z" fill="#1E1E1E"/>
<g clip-path="url(#clip2_3_61246)">
<path fill-rule="evenodd" clip-rule="evenodd" d="M360.577 320.845C368.253 322.759 376.026 318.088 377.94 310.413C379.854 302.737 375.183 294.962 367.507 293.048C359.833 291.135 352.06 295.806 350.147 303.483C348.232 311.157 352.904 318.932 360.577 320.845ZM367.664 301.624C369.623 302.299 371.056 303.31 370.775 305.192C370.571 306.57 369.807 307.237 368.793 307.47C370.185 308.195 370.894 309.307 370.219 311.234C369.381 313.627 367.392 313.829 364.746 313.328L364.104 315.901L362.552 315.515L363.186 312.976C362.784 312.876 362.373 312.77 361.949 312.655L361.313 315.206L359.763 314.819L360.406 312.241C360.261 312.204 360.115 312.166 359.968 312.127C359.748 312.07 359.525 312.012 359.299 311.955L357.28 311.452L358.05 309.676C358.05 309.676 359.194 309.98 359.178 309.957C359.618 310.066 359.812 309.78 359.889 309.589L360.904 305.521C360.942 305.53 360.979 305.539 361.015 305.548C361.033 305.553 361.051 305.557 361.068 305.561C361.006 305.536 360.95 305.521 360.907 305.51L361.631 302.605C361.65 302.276 361.536 301.86 360.908 301.703C360.932 301.687 359.781 301.423 359.781 301.423L360.193 299.766L362.333 300.3L362.332 300.308C362.653 300.388 362.985 300.464 363.322 300.541L363.958 297.992L365.509 298.379L364.886 300.877C365.302 300.972 365.721 301.068 366.129 301.17L366.748 298.688L368.3 299.075L367.664 301.624ZM362.756 310.866C364.022 311.201 366.789 311.931 367.229 310.164C367.68 308.356 364.996 307.754 363.687 307.46C363.541 307.427 363.411 307.398 363.306 307.372L362.454 310.788C362.54 310.809 362.642 310.836 362.756 310.866ZM363.95 305.875C365.006 306.157 367.308 306.771 367.709 305.164C368.119 303.521 365.881 303.025 364.788 302.784C364.665 302.756 364.557 302.732 364.468 302.71L363.695 305.808C363.768 305.826 363.854 305.849 363.95 305.875Z" fill="#F7931A"/>
</g>
<path d="M393.595 309.454C393.229 309.454 392.864 309.313 392.587 309.036L389.181 305.63C389.03 305.479 389.03 305.228 389.181 305.077C389.332 304.925 389.583 304.925 389.735 305.077L393.14 308.482C393.391 308.733 393.799 308.733 394.049 308.482L397.455 305.077C397.606 304.925 397.857 304.925 398.009 305.077C398.16 305.228 398.16 305.479 398.009 305.63L394.603 309.036C394.326 309.313 393.96 309.454 393.595 309.454Z" fill="black" stroke="black" stroke-width="0.447725"/>
<path d="M62.58 361.229V352.165H65.6452C66.2929 352.165 66.8695 352.274 67.3752 352.491C67.8808 352.708 68.2778 353.03 68.5661 353.456C68.8586 353.882 69.0049 354.407 69.0049 355.03C69.0049 355.631 68.8691 356.145 68.5974 356.572C68.33 356.998 67.956 357.322 67.4754 357.543C66.9949 357.765 66.437 357.875 65.8019 357.875H63.771V361.229H62.58ZM63.7647 356.897H65.7768C66.3994 356.897 66.905 356.724 67.2937 356.377C67.6823 356.03 67.8766 355.558 67.8766 354.961C67.8766 354.359 67.676 353.903 67.2749 353.594C66.8737 353.285 66.3555 353.13 65.7204 353.13H63.7647V356.897ZM70.3239 361.229V354.747H71.4271V355.995C71.5358 355.686 71.6883 355.431 71.8847 355.23C72.0811 355.025 72.3047 354.873 72.5554 354.773C72.8103 354.672 73.0736 354.622 73.3452 354.622C73.4413 354.622 73.5353 354.628 73.6272 354.641C73.7192 354.653 73.7902 354.674 73.8404 354.704V355.826C73.7777 355.796 73.6962 355.778 73.5959 355.769C73.4998 355.757 73.4183 355.75 73.3514 355.75C73.0924 355.734 72.85 355.75 72.6243 355.801C72.3987 355.847 72.2002 355.928 72.0289 356.045C71.8575 356.162 71.7217 356.317 71.6214 356.509C71.5253 356.697 71.4773 356.927 71.4773 357.198V361.229H70.3239ZM76.4378 354.747V361.229H75.3158V354.747H76.4378ZM76.4629 352.171V353.375H75.2782V352.171H76.4629ZM81.0599 354.622C81.5237 354.622 81.9416 354.712 82.3135 354.892C82.6854 355.067 82.9884 355.318 83.2224 355.644C83.4606 355.97 83.6089 356.354 83.6674 356.797H82.6395C82.6019 356.572 82.5141 356.365 82.3762 356.177C82.2425 355.989 82.0649 355.838 81.8434 355.725C81.6219 355.613 81.3629 355.556 81.0662 355.556C80.5104 355.556 80.0591 355.757 79.7122 356.158C79.3654 356.559 79.192 357.173 79.192 358.001C79.192 358.749 79.3508 359.348 79.6684 359.8C79.9901 360.247 80.4623 360.47 81.085 360.47C81.3817 360.47 81.6386 360.414 81.8559 360.301C82.0774 360.184 82.255 360.032 82.3887 359.843C82.5225 359.651 82.6081 359.447 82.6457 359.229H83.6549C83.6006 359.664 83.4543 360.04 83.2161 360.357C82.9779 360.675 82.6729 360.922 82.301 361.097C81.9333 361.268 81.5196 361.354 81.0599 361.354C80.479 361.354 79.963 361.227 79.5117 360.972C79.0645 360.717 78.7135 360.341 78.4586 359.843C78.2037 359.346 78.0763 358.736 78.0763 358.013C78.0763 357.336 78.1912 356.745 78.421 356.239C78.655 355.73 78.9935 355.333 79.4364 355.048C79.8836 354.764 80.4247 354.622 81.0599 354.622ZM86.0627 358.258C86.0627 358.667 86.1295 359.039 86.2632 359.373C86.4011 359.704 86.608 359.967 86.8838 360.163C87.1638 360.36 87.5127 360.458 87.9306 360.458C88.3443 360.458 88.6995 360.362 88.9961 360.169C89.297 359.977 89.4892 359.699 89.5728 359.336H90.6697C90.5903 359.775 90.4148 360.144 90.1432 360.445C89.8716 360.746 89.5436 360.974 89.1591 361.128C88.7747 361.279 88.3735 361.354 87.9556 361.354C87.3497 361.354 86.8169 361.222 86.3573 360.959C85.8976 360.696 85.5382 360.318 85.2791 359.825C85.0201 359.332 84.8905 358.74 84.8905 358.051C84.8905 357.37 85.0075 356.772 85.2415 356.258C85.4755 355.744 85.814 355.343 86.257 355.055C86.7041 354.766 87.2411 354.622 87.8679 354.622C88.478 354.622 88.9941 354.754 89.4161 355.017C89.8382 355.28 90.1578 355.652 90.3751 356.133C90.5966 356.609 90.7074 357.175 90.7074 357.831V358.258H86.0627ZM86.0689 357.474H89.5916C89.5916 357.102 89.5289 356.768 89.4036 356.471C89.2782 356.17 89.086 355.934 88.8269 355.763C88.572 355.587 88.2502 355.5 87.8616 355.5C87.4563 355.5 87.1199 355.598 86.8524 355.794C86.5892 355.987 86.3907 356.235 86.257 356.54C86.1274 356.841 86.0647 357.152 86.0689 357.474Z" fill="#151920" fill-opacity="0.5"/>
<path d="M319.039 356.812C319.039 355.375 319.273 354.255 319.741 353.452C320.209 352.642 321.028 352.236 322.198 352.236C323.359 352.236 324.174 352.642 324.642 353.452C325.11 354.255 325.344 355.375 325.344 356.812C325.344 358.275 325.11 359.411 324.642 360.222C324.174 361.033 323.359 361.438 322.198 361.438C321.028 361.438 320.209 361.033 319.741 360.222C319.273 359.411 319.039 358.275 319.039 356.812ZM324.216 356.812C324.216 356.085 324.166 355.471 324.066 354.969C323.974 354.459 323.777 354.05 323.476 353.741C323.184 353.431 322.758 353.277 322.198 353.277C321.629 353.277 321.195 353.431 320.894 353.741C320.601 354.05 320.405 354.459 320.305 354.969C320.213 355.471 320.167 356.085 320.167 356.812C320.167 357.564 320.213 358.195 320.305 358.705C320.405 359.215 320.601 359.624 320.894 359.934C321.195 360.243 321.629 360.397 322.198 360.397C322.758 360.397 323.184 360.243 323.476 359.934C323.777 359.624 323.974 359.215 324.066 358.705C324.166 358.195 324.216 357.564 324.216 356.812ZM327.462 361.513C327.245 361.513 327.061 361.438 326.911 361.288C326.76 361.137 326.685 360.953 326.685 360.736C326.685 360.519 326.76 360.335 326.911 360.184C327.061 360.034 327.245 359.959 327.462 359.959C327.671 359.959 327.847 360.034 327.989 360.184C328.139 360.335 328.214 360.519 328.214 360.736C328.214 360.953 328.139 361.137 327.989 361.288C327.847 361.438 327.671 361.513 327.462 361.513ZM329.543 356.812C329.543 355.375 329.777 354.255 330.245 353.452C330.713 352.642 331.532 352.236 332.702 352.236C333.863 352.236 334.678 352.642 335.146 353.452C335.614 354.255 335.848 355.375 335.848 356.812C335.848 358.275 335.614 359.411 335.146 360.222C334.678 361.033 333.863 361.438 332.702 361.438C331.532 361.438 330.713 361.033 330.245 360.222C329.777 359.411 329.543 358.275 329.543 356.812ZM334.72 356.812C334.72 356.085 334.67 355.471 334.57 354.969C334.478 354.459 334.281 354.05 333.98 353.741C333.688 353.431 333.262 353.277 332.702 353.277C332.133 353.277 331.699 353.431 331.398 353.741C331.105 354.05 330.909 354.459 330.809 354.969C330.717 355.471 330.671 356.085 330.671 356.812C330.671 357.564 330.717 358.195 330.809 358.705C330.909 359.215 331.105 359.624 331.398 359.934C331.699 360.243 332.133 360.397 332.702 360.397C333.262 360.397 333.688 360.243 333.98 359.934C334.281 359.624 334.478 359.215 334.57 358.705C334.67 358.195 334.72 357.564 334.72 356.812ZM337.114 353.415V352.374H339.471V361.438H338.317V353.415H337.114ZM341.154 359.42V358.555L345.555 352.462H346.921V358.429H348.175V359.42H346.921V361.438H345.793V359.42H341.154ZM345.843 353.653L342.471 358.429H345.843V353.653ZM349.314 356.812C349.314 355.375 349.548 354.255 350.016 353.452C350.484 352.642 351.303 352.236 352.473 352.236C353.635 352.236 354.45 352.642 354.918 353.452C355.386 354.255 355.62 355.375 355.62 356.812C355.62 358.275 355.386 359.411 354.918 360.222C354.45 361.033 353.635 361.438 352.473 361.438C351.303 361.438 350.484 361.033 350.016 360.222C349.548 359.411 349.314 358.275 349.314 356.812ZM354.492 356.812C354.492 356.085 354.442 355.471 354.341 354.969C354.249 354.459 354.053 354.05 353.752 353.741C353.46 353.431 353.033 353.277 352.473 353.277C351.905 353.277 351.47 353.431 351.17 353.741C350.877 354.05 350.681 354.459 350.58 354.969C350.488 355.471 350.443 356.085 350.443 356.812C350.443 357.564 350.488 358.195 350.58 358.705C350.681 359.215 350.877 359.624 351.17 359.934C351.47 360.243 351.905 360.397 352.473 360.397C353.033 360.397 353.46 360.243 353.752 359.934C354.053 359.624 354.249 359.215 354.341 358.705C354.442 358.195 354.492 357.564 354.492 356.812ZM356.885 353.415V352.374H359.242V361.438H358.089V353.415H356.885ZM361.064 360.523C362.125 359.67 362.957 358.973 363.559 358.429C364.16 357.878 364.666 357.305 365.075 356.712C365.493 356.11 365.702 355.521 365.702 354.944C365.702 354.401 365.568 353.975 365.301 353.665C365.042 353.348 364.62 353.189 364.035 353.189C363.467 353.189 363.024 353.369 362.706 353.728C362.397 354.079 362.23 354.551 362.205 355.145H361.101C361.135 354.209 361.419 353.486 361.954 352.976C362.489 352.466 363.178 352.211 364.022 352.211C364.883 352.211 365.564 352.449 366.066 352.926C366.576 353.402 366.83 354.058 366.83 354.894C366.83 355.588 366.622 356.265 366.204 356.925C365.794 357.577 365.326 358.153 364.8 358.655C364.273 359.148 363.6 359.725 362.781 360.385H367.094V361.338H361.064V360.523ZM374.192 353.365H369.791V356.223C369.984 355.955 370.268 355.738 370.644 355.571C371.02 355.395 371.425 355.308 371.86 355.308C372.554 355.308 373.118 355.454 373.552 355.747C373.987 356.031 374.296 356.403 374.48 356.862C374.672 357.314 374.768 357.794 374.768 358.304C374.768 358.906 374.656 359.445 374.43 359.921C374.204 360.397 373.857 360.774 373.389 361.049C372.93 361.325 372.357 361.463 371.672 361.463C370.794 361.463 370.084 361.237 369.541 360.786C368.998 360.335 368.667 359.733 368.55 358.981H369.666C369.775 359.457 370.005 359.829 370.356 360.097C370.707 360.364 371.15 360.498 371.684 360.498C372.345 360.498 372.842 360.301 373.176 359.909C373.511 359.507 373.678 358.981 373.678 358.329C373.678 357.677 373.511 357.176 373.176 356.825C372.842 356.465 372.349 356.286 371.697 356.286C371.254 356.286 370.865 356.394 370.531 356.612C370.205 356.82 369.967 357.109 369.817 357.477H368.738V352.362H374.192V353.365ZM376.009 359.42V358.555L380.409 352.462H381.775V358.429H383.029V359.42H381.775V361.438H380.647V359.42H376.009ZM380.697 353.653L377.325 358.429H380.697V353.653ZM384.169 356.812C384.169 355.375 384.403 354.255 384.871 353.452C385.339 352.642 386.158 352.236 387.328 352.236C388.489 352.236 389.304 352.642 389.772 353.452C390.24 354.255 390.474 355.375 390.474 356.812C390.474 358.275 390.24 359.411 389.772 360.222C389.304 361.033 388.489 361.438 387.328 361.438C386.158 361.438 385.339 361.033 384.871 360.222C384.403 359.411 384.169 358.275 384.169 356.812ZM389.346 356.812C389.346 356.085 389.296 355.471 389.196 354.969C389.104 354.459 388.907 354.05 388.606 353.741C388.314 353.431 387.888 353.277 387.328 353.277C386.759 353.277 386.325 353.431 386.024 353.741C385.731 354.05 385.535 354.459 385.435 354.969C385.343 355.471 385.297 356.085 385.297 356.812C385.297 357.564 385.343 358.195 385.435 358.705C385.535 359.215 385.731 359.624 386.024 359.934C386.325 360.243 386.759 360.397 387.328 360.397C387.888 360.397 388.314 360.243 388.606 359.934C388.907 359.624 389.104 359.215 389.196 358.705C389.296 358.195 389.346 357.564 389.346 356.812ZM391.74 353.415V352.374H394.096V361.438H392.943V353.415H391.74ZM395.918 360.523C396.98 359.67 397.811 358.973 398.413 358.429C399.015 357.878 399.52 357.305 399.93 356.712C400.348 356.11 400.557 355.521 400.557 354.944C400.557 354.401 400.423 353.975 400.155 353.665C399.896 353.348 399.474 353.189 398.889 353.189C398.321 353.189 397.878 353.369 397.56 353.728C397.251 354.079 397.084 354.551 397.059 355.145H395.956C395.989 354.209 396.273 353.486 396.808 352.976C397.343 352.466 398.033 352.211 398.877 352.211C399.737 352.211 400.419 352.449 400.92 352.926C401.43 353.402 401.685 354.058 401.685 354.894C401.685 355.588 401.476 356.265 401.058 356.925C400.648 357.577 400.18 358.153 399.654 358.655C399.127 359.148 398.455 359.725 397.636 360.385H401.948V361.338H395.918V360.523ZM403.267 356.812C403.267 355.375 403.501 354.255 403.969 353.452C404.437 352.642 405.256 352.236 406.426 352.236C407.588 352.236 408.403 352.642 408.871 353.452C409.339 354.255 409.573 355.375 409.573 356.812C409.573 358.275 409.339 359.411 408.871 360.222C408.403 361.033 407.588 361.438 406.426 361.438C405.256 361.438 404.437 361.033 403.969 360.222C403.501 359.411 403.267 358.275 403.267 356.812ZM408.444 356.812C408.444 356.085 408.394 355.471 408.294 354.969C408.202 354.459 408.006 354.05 407.705 353.741C407.412 353.431 406.986 353.277 406.426 353.277C405.858 353.277 405.423 353.431 405.122 353.741C404.83 354.05 404.633 354.459 404.533 354.969C404.441 355.471 404.395 356.085 404.395 356.812C404.395 357.564 404.441 358.195 404.533 358.705C404.633 359.215 404.83 359.624 405.122 359.934C405.423 360.243 405.858 360.397 406.426 360.397C406.986 360.397 407.412 360.243 407.705 359.934C408.006 359.624 408.202 359.215 408.294 358.705C408.394 358.195 408.444 357.564 408.444 356.812ZM410.838 353.415V352.374H413.195V361.438H412.041V353.415H410.838ZM420.933 353.365H416.533V356.223C416.725 355.955 417.01 355.738 417.386 355.571C417.762 355.395 418.167 355.308 418.602 355.308C419.295 355.308 419.86 355.454 420.294 355.747C420.729 356.031 421.038 356.403 421.222 356.862C421.414 357.314 421.51 357.794 421.51 358.304C421.51 358.906 421.397 359.445 421.172 359.921C420.946 360.397 420.599 360.774 420.131 361.049C419.671 361.325 419.099 361.463 418.414 361.463C417.536 361.463 416.826 361.237 416.282 360.786C415.739 360.335 415.409 359.733 415.292 358.981H416.408C416.517 359.457 416.746 359.829 417.097 360.097C417.448 360.364 417.891 360.498 418.426 360.498C419.086 360.498 419.584 360.301 419.918 359.909C420.252 359.507 420.419 358.981 420.419 358.329C420.419 357.677 420.252 357.176 419.918 356.825C419.584 356.465 419.091 356.286 418.439 356.286C417.996 356.286 417.607 356.394 417.273 356.612C416.947 356.82 416.709 357.109 416.558 357.477H415.48V352.362H420.933V353.365Z" fill="black"/>
<rect x="61.8828" y="388.128" width="175.851" height="39" rx="7.5" stroke="#DDDDDD"/>
<path d="M124.799 407.728C124.799 406.767 125.013 405.908 125.443 405.152C125.881 404.387 126.474 403.794 127.221 403.374C127.977 402.945 128.821 402.73 129.755 402.73C130.847 402.73 131.803 403.01 132.625 403.57C133.446 404.13 134.02 404.905 134.347 405.894H132.093C131.869 405.428 131.551 405.078 131.141 404.844C130.739 404.611 130.273 404.494 129.741 404.494C129.171 404.494 128.663 404.63 128.215 404.9C127.776 405.162 127.431 405.535 127.179 406.02C126.936 406.506 126.815 407.075 126.815 407.728C126.815 408.372 126.936 408.942 127.179 409.436C127.431 409.922 127.776 410.3 128.215 410.57C128.663 410.832 129.171 410.962 129.741 410.962C130.273 410.962 130.739 410.846 131.141 410.612C131.551 410.37 131.869 410.015 132.093 409.548H134.347C134.02 410.547 133.446 411.326 132.625 411.886C131.813 412.437 130.856 412.712 129.755 412.712C128.821 412.712 127.977 412.502 127.221 412.082C126.474 411.653 125.881 411.06 125.443 410.304C125.013 409.548 124.799 408.69 124.799 407.728ZM135.517 408.722C135.517 407.938 135.671 407.243 135.979 406.636C136.296 406.03 136.721 405.563 137.253 405.236C137.794 404.91 138.396 404.746 139.059 404.746C139.637 404.746 140.141 404.863 140.571 405.096C141.009 405.33 141.359 405.624 141.621 405.978V404.872H143.595V412.628H141.621V411.494C141.369 411.858 141.019 412.162 140.571 412.404C140.132 412.638 139.623 412.754 139.045 412.754C138.391 412.754 137.794 412.586 137.253 412.25C136.721 411.914 136.296 411.443 135.979 410.836C135.671 410.22 135.517 409.516 135.517 408.722ZM141.621 408.75C141.621 408.274 141.527 407.868 141.341 407.532C141.154 407.187 140.902 406.926 140.585 406.748C140.267 406.562 139.927 406.468 139.563 406.468C139.199 406.468 138.863 406.557 138.555 406.734C138.247 406.912 137.995 407.173 137.799 407.518C137.612 407.854 137.519 408.256 137.519 408.722C137.519 409.189 137.612 409.6 137.799 409.954C137.995 410.3 138.247 410.566 138.555 410.752C138.872 410.939 139.208 411.032 139.563 411.032C139.927 411.032 140.267 410.944 140.585 410.766C140.902 410.58 141.154 410.318 141.341 409.982C141.527 409.637 141.621 409.226 141.621 408.75ZM149.807 404.76C150.731 404.76 151.478 405.054 152.047 405.642C152.616 406.221 152.901 407.033 152.901 408.078V412.628H150.941V408.344C150.941 407.728 150.787 407.257 150.479 406.93C150.171 406.594 149.751 406.426 149.219 406.426C148.678 406.426 148.248 406.594 147.931 406.93C147.623 407.257 147.469 407.728 147.469 408.344V412.628H145.509V404.872H147.469V405.838C147.73 405.502 148.062 405.241 148.463 405.054C148.874 404.858 149.322 404.76 149.807 404.76ZM154.261 408.75C154.261 407.948 154.424 407.248 154.751 406.65C155.077 406.044 155.53 405.577 156.109 405.25C156.687 404.914 157.35 404.746 158.097 404.746C159.058 404.746 159.851 404.989 160.477 405.474C161.111 405.95 161.536 406.622 161.751 407.49H159.637C159.525 407.154 159.333 406.893 159.063 406.706C158.801 406.51 158.475 406.412 158.083 406.412C157.523 406.412 157.079 406.618 156.753 407.028C156.426 407.43 156.263 408.004 156.263 408.75C156.263 409.488 156.426 410.062 156.753 410.472C157.079 410.874 157.523 411.074 158.083 411.074C158.876 411.074 159.394 410.72 159.637 410.01H161.751C161.536 410.85 161.111 411.518 160.477 412.012C159.842 412.507 159.049 412.754 158.097 412.754C157.35 412.754 156.687 412.591 156.109 412.264C155.53 411.928 155.077 411.462 154.751 410.864C154.424 410.258 154.261 409.553 154.261 408.75ZM170.397 408.582C170.397 408.862 170.378 409.114 170.341 409.338H164.671C164.717 409.898 164.913 410.337 165.259 410.654C165.604 410.972 166.029 411.13 166.533 411.13C167.261 411.13 167.779 410.818 168.087 410.192H170.201C169.977 410.939 169.547 411.555 168.913 412.04C168.278 412.516 167.499 412.754 166.575 412.754C165.828 412.754 165.156 412.591 164.559 412.264C163.971 411.928 163.509 411.457 163.173 410.85C162.846 410.244 162.683 409.544 162.683 408.75C162.683 407.948 162.846 407.243 163.173 406.636C163.499 406.03 163.957 405.563 164.545 405.236C165.133 404.91 165.809 404.746 166.575 404.746C167.312 404.746 167.97 404.905 168.549 405.222C169.137 405.54 169.589 405.992 169.907 406.58C170.233 407.159 170.397 407.826 170.397 408.582ZM168.367 408.022C168.357 407.518 168.175 407.117 167.821 406.818C167.466 406.51 167.032 406.356 166.519 406.356C166.033 406.356 165.623 406.506 165.287 406.804C164.96 407.094 164.759 407.5 164.685 408.022H168.367ZM173.787 402.268V412.628H171.827V402.268H173.787Z" fill="#18171C"/>
<rect x="245.398" y="387.628" width="176.851" height="40" rx="8" fill="#45EFD2"/>
<path d="M305.314 407.728C305.314 406.767 305.529 405.908 305.958 405.152C306.397 404.387 306.99 403.794 307.736 403.374C308.492 402.945 309.337 402.73 310.27 402.73C311.362 402.73 312.319 403.01 313.14 403.57C313.962 404.13 314.536 404.905 314.862 405.894H312.608C312.384 405.428 312.067 405.078 311.656 404.844C311.255 404.611 310.788 404.494 310.256 404.494C309.687 404.494 309.178 404.63 308.73 404.9C308.292 405.162 307.946 405.535 307.694 406.02C307.452 406.506 307.33 407.075 307.33 407.728C307.33 408.372 307.452 408.942 307.694 409.436C307.946 409.922 308.292 410.3 308.73 410.57C309.178 410.832 309.687 410.962 310.256 410.962C310.788 410.962 311.255 410.846 311.656 410.612C312.067 410.37 312.384 410.015 312.608 409.548H314.862C314.536 410.547 313.962 411.326 313.14 411.886C312.328 412.437 311.372 412.712 310.27 412.712C309.337 412.712 308.492 412.502 307.736 412.082C306.99 411.653 306.397 411.06 305.958 410.304C305.529 409.548 305.314 408.69 305.314 407.728ZM319.98 412.754C319.234 412.754 318.562 412.591 317.964 412.264C317.367 411.928 316.896 411.457 316.55 410.85C316.214 410.244 316.046 409.544 316.046 408.75C316.046 407.957 316.219 407.257 316.564 406.65C316.919 406.044 317.4 405.577 318.006 405.25C318.613 404.914 319.29 404.746 320.036 404.746C320.783 404.746 321.46 404.914 322.066 405.25C322.673 405.577 323.149 406.044 323.494 406.65C323.849 407.257 324.026 407.957 324.026 408.75C324.026 409.544 323.844 410.244 323.48 410.85C323.126 411.457 322.64 411.928 322.024 412.264C321.418 412.591 320.736 412.754 319.98 412.754ZM319.98 411.046C320.335 411.046 320.666 410.962 320.974 410.794C321.292 410.617 321.544 410.356 321.73 410.01C321.917 409.665 322.01 409.245 322.01 408.75C322.01 408.013 321.814 407.448 321.422 407.056C321.04 406.655 320.568 406.454 320.008 406.454C319.448 406.454 318.977 406.655 318.594 407.056C318.221 407.448 318.034 408.013 318.034 408.75C318.034 409.488 318.216 410.057 318.58 410.458C318.954 410.85 319.42 411.046 319.98 411.046ZM329.762 404.76C330.686 404.76 331.433 405.054 332.002 405.642C332.571 406.221 332.856 407.033 332.856 408.078V412.628H330.896V408.344C330.896 407.728 330.742 407.257 330.434 406.93C330.126 406.594 329.706 406.426 329.174 406.426C328.633 406.426 328.203 406.594 327.886 406.93C327.578 407.257 327.424 407.728 327.424 408.344V412.628H325.464V404.872H327.424V405.838C327.685 405.502 328.017 405.241 328.418 405.054C328.829 404.858 329.277 404.76 329.762 404.76ZM337.954 410.822L339.914 404.872H342L339.13 412.628H336.75L333.894 404.872H335.994L337.954 410.822ZM350.311 408.582C350.311 408.862 350.292 409.114 350.255 409.338H344.585C344.631 409.898 344.827 410.337 345.173 410.654C345.518 410.972 345.943 411.13 346.447 411.13C347.175 411.13 347.693 410.818 348.001 410.192H350.115C349.891 410.939 349.461 411.555 348.827 412.04C348.192 412.516 347.413 412.754 346.489 412.754C345.742 412.754 345.07 412.591 344.473 412.264C343.885 411.928 343.423 411.457 343.087 410.85C342.76 410.244 342.597 409.544 342.597 408.75C342.597 407.948 342.76 407.243 343.087 406.636C343.413 406.03 343.871 405.563 344.459 405.236C345.047 404.91 345.723 404.746 346.489 404.746C347.226 404.746 347.884 404.905 348.463 405.222C349.051 405.54 349.503 405.992 349.821 406.58C350.147 407.159 350.311 407.826 350.311 408.582ZM348.281 408.022C348.271 407.518 348.089 407.117 347.735 406.818C347.38 406.51 346.946 406.356 346.433 406.356C345.947 406.356 345.537 406.506 345.201 406.804C344.874 407.094 344.673 407.5 344.599 408.022H348.281ZM353.701 406.076C353.953 405.666 354.28 405.344 354.681 405.11C355.092 404.877 355.559 404.76 356.081 404.76V406.818H355.563C354.947 406.818 354.481 406.963 354.163 407.252C353.855 407.542 353.701 408.046 353.701 408.764V412.628H351.741V404.872H353.701V406.076ZM359.684 406.482V410.234C359.684 410.496 359.744 410.687 359.866 410.808C359.996 410.92 360.211 410.976 360.51 410.976H361.42V412.628H360.188C358.536 412.628 357.71 411.826 357.71 410.22V406.482H356.786V404.872H357.71V402.954H359.684V404.872H361.42V406.482H359.684Z" fill="#18171C"/>
</g>
</g>
</g>
<defs>
<filter id="filter0_d_3_61246" x="0" y="25.8252" width="484" height="426.175" filterUnits="userSpaceOnUse" color-interpolation-filters="sRGB">
<feFlood flood-opacity="0" result="BackgroundImageFix"/>
<feColorMatrix in="SourceAlpha" type="matrix" values="0 0 0 0 0 0 0 0 0 0 0 0 0 0 0 0 0 0 127 0" result="hardAlpha"/>
<feOffset dy="4"/>
<feGaussianBlur stdDeviation="2"/>
<feComposite in2="hardAlpha" operator="out"/>
<feColorMatrix type="matrix" values="0 0 0 0 0.869339 0 0 0 0 0.869339 0 0 0 0 0.869339 0 0 0 0.25 0"/>
<feBlend mode="normal" in2="BackgroundImageFix" result="effect1_dropShadow_3_61246"/>
<feBlend mode="normal" in="SourceGraphic" in2="effect1_dropShadow_3_61246" result="shape"/>
</filter>
<filter id="filter1_d_3_61246" x="7.6564" y="0.752614" width="468.32" height="482.647" filterUnits="userSpaceOnUse" color-interpolation-filters="sRGB">
<feFlood flood-opacity="0" result="BackgroundImageFix"/>
<feColorMatrix in="SourceAlpha" type="matrix" values="0 0 0 0 0 0 0 0 0 0 0 0 0 0 0 0 0 0 127 0" result="hardAlpha"/>
<feOffset dy="7.16359"/>
<feGaussianBlur stdDeviation="16.1181"/>
<feColorMatrix type="matrix" values="0 0 0 0 0.62462 0 0 0 0 0.62462 0 0 0 0 0.62462 0 0 0 0.16 0"/>
<feBlend mode="normal" in2="BackgroundImageFix" result="effect1_dropShadow_3_61246"/>
<feBlend mode="normal" in="SourceGraphic" in2="effect1_dropShadow_3_61246" result="shape"/>
</filter>
<clipPath id="clip0_3_61246">
<rect x="39.8926" y="25.8252" width="403.848" height="418.175" rx="14.3272" fill="white"/>
</clipPath>
<clipPath id="clip1_3_61246">
<rect width="28.6544" height="28.6544" fill="white" transform="translate(349.718 157.448)"/>
</clipPath>
<clipPath id="clip2_3_61246">
<rect width="28.6544" height="28.6544" fill="white" transform="translate(349.718 292.62)"/>
</clipPath>
</defs>
</svg>
