<svg width="700" height="372" viewBox="0 0 700 372" fill="none" xmlns="http://www.w3.org/2000/svg">
<g filter="url(#filter0_d_3_18662)">
<rect x="4" width="692" height="363.192" rx="17.4853" fill="#F7F7F7"/>
<rect x="4.5" y="0.5" width="691" height="362.192" rx="16.9853" stroke="#DDDDDD"/>
<g clip-path="url(#clip0_3_18662)">
<rect x="12" y="8" width="675.293" height="347.192" rx="16.9707" fill="white"/>
<g opacity="0.25" filter="url(#filter1_bf_3_18662)">
<rect width="68.3331" height="66.0444" rx="8" transform="matrix(0.985853 0.167615 -0.19185 0.981424 314.671 134)" fill="#45EFD2"/>
</g>
<path fill-rule="evenodd" clip-rule="evenodd" d="M348.041 184.446C346.439 182.44 343.39 182.44 341.789 184.446L320.48 211.137C318.389 213.757 320.254 217.633 323.606 217.633H366.224C366.235 217.633 366.246 217.633 366.257 217.633H386.634C389.986 217.633 391.851 213.757 389.76 211.137L378.325 196.813C376.723 194.808 373.674 194.808 372.073 196.813L364.993 205.681L348.041 184.446Z" fill="#45EFD2"/>
<ellipse cx="374.842" cy="180.531" rx="6.41303" ry="6.18366" fill="#45EFD2"/>
<path d="M220.51 300.32C220.308 299.947 220.015 299.664 219.631 299.472C219.257 299.269 218.815 299.168 218.303 299.168C217.417 299.168 216.708 299.461 216.174 300.048C215.641 300.624 215.375 301.397 215.375 302.368C215.375 303.403 215.652 304.213 216.207 304.8C216.772 305.376 217.545 305.664 218.527 305.664C219.199 305.664 219.764 305.493 220.223 305.152C220.692 304.811 221.033 304.32 221.247 303.68H217.775V301.664H223.727V304.208C223.524 304.891 223.177 305.525 222.687 306.112C222.207 306.699 221.593 307.173 220.847 307.536C220.1 307.899 219.257 308.08 218.319 308.08C217.209 308.08 216.217 307.84 215.343 307.36C214.479 306.869 213.801 306.192 213.311 305.328C212.831 304.464 212.59 303.477 212.59 302.368C212.59 301.259 212.831 300.272 213.311 299.408C213.801 298.533 214.479 297.856 215.343 297.376C216.207 296.885 217.193 296.64 218.303 296.64C219.647 296.64 220.777 296.965 221.695 297.616C222.623 298.267 223.236 299.168 223.535 300.32H220.51ZM227.978 300.56C228.298 300.069 228.698 299.685 229.178 299.408C229.658 299.12 230.191 298.976 230.778 298.976V301.872H230.026C229.343 301.872 228.831 302.021 228.49 302.32C228.149 302.608 227.978 303.12 227.978 303.856V308H225.242V299.072H227.978V300.56ZM231.542 303.52C231.542 302.603 231.712 301.797 232.054 301.104C232.406 300.411 232.88 299.877 233.478 299.504C234.075 299.131 234.742 298.944 235.478 298.944C236.107 298.944 236.656 299.072 237.126 299.328C237.606 299.584 237.974 299.92 238.23 300.336V299.072H240.966V308H238.23V306.736C237.963 307.152 237.59 307.488 237.11 307.744C236.64 308 236.091 308.128 235.462 308.128C234.736 308.128 234.075 307.941 233.478 307.568C232.88 307.184 232.406 306.645 232.054 305.952C231.712 305.248 231.542 304.437 231.542 303.52ZM238.23 303.536C238.23 302.853 238.038 302.315 237.654 301.92C237.28 301.525 236.822 301.328 236.278 301.328C235.734 301.328 235.27 301.525 234.886 301.92C234.512 302.304 234.326 302.837 234.326 303.52C234.326 304.203 234.512 304.747 234.886 305.152C235.27 305.547 235.734 305.744 236.278 305.744C236.822 305.744 237.28 305.547 237.654 305.152C238.038 304.757 238.23 304.219 238.23 303.536ZM245.681 300.336C245.948 299.92 246.316 299.584 246.785 299.328C247.254 299.072 247.804 298.944 248.433 298.944C249.169 298.944 249.836 299.131 250.433 299.504C251.03 299.877 251.5 300.411 251.841 301.104C252.193 301.797 252.369 302.603 252.369 303.52C252.369 304.437 252.193 305.248 251.841 305.952C251.5 306.645 251.03 307.184 250.433 307.568C249.836 307.941 249.169 308.128 248.433 308.128C247.814 308.128 247.265 308 246.785 307.744C246.316 307.488 245.948 307.157 245.681 306.752V312.256H242.945V299.072H245.681V300.336ZM249.585 303.52C249.585 302.837 249.393 302.304 249.009 301.92C248.636 301.525 248.172 301.328 247.617 301.328C247.073 301.328 246.609 301.525 246.225 301.92C245.852 302.315 245.665 302.853 245.665 303.536C245.665 304.219 245.852 304.757 246.225 305.152C246.609 305.547 247.073 305.744 247.617 305.744C248.161 305.744 248.625 305.547 249.009 305.152C249.393 304.747 249.585 304.203 249.585 303.52ZM259.293 298.976C260.317 298.976 261.138 299.317 261.757 300C262.375 300.672 262.685 301.6 262.685 302.784V308H259.965V303.152C259.965 302.555 259.81 302.091 259.501 301.76C259.191 301.429 258.775 301.264 258.253 301.264C257.73 301.264 257.314 301.429 257.005 301.76C256.695 302.091 256.541 302.555 256.541 303.152V308H253.805V296.16H256.541V300.272C256.818 299.877 257.197 299.563 257.677 299.328C258.157 299.093 258.695 298.976 259.293 298.976ZM265.962 298.144C265.482 298.144 265.087 298.005 264.778 297.728C264.479 297.44 264.33 297.088 264.33 296.672C264.33 296.245 264.479 295.893 264.778 295.616C265.087 295.328 265.482 295.184 265.962 295.184C266.431 295.184 266.815 295.328 267.114 295.616C267.423 295.893 267.578 296.245 267.578 296.672C267.578 297.088 267.423 297.44 267.114 297.728C266.815 298.005 266.431 298.144 265.962 298.144ZM267.322 299.072V308H264.586V299.072H267.322ZM268.761 303.536C268.761 302.608 268.947 301.797 269.321 301.104C269.705 300.411 270.233 299.877 270.905 299.504C271.587 299.131 272.366 298.944 273.241 298.944C274.361 298.944 275.294 299.237 276.041 299.824C276.798 300.411 277.294 301.237 277.529 302.304H274.617C274.371 301.621 273.897 301.28 273.193 301.28C272.691 301.28 272.291 301.477 271.993 301.872C271.694 302.256 271.545 302.811 271.545 303.536C271.545 304.261 271.694 304.821 271.993 305.216C272.291 305.6 272.691 305.792 273.193 305.792C273.897 305.792 274.371 305.451 274.617 304.768H277.529C277.294 305.813 276.798 306.635 276.041 307.232C275.283 307.829 274.35 308.128 273.241 308.128C272.366 308.128 271.587 307.941 270.905 307.568C270.233 307.195 269.705 306.661 269.321 305.968C268.947 305.275 268.761 304.464 268.761 303.536ZM286.015 308.128C285.236 308.128 284.543 307.995 283.935 307.728C283.327 307.461 282.847 307.099 282.495 306.64C282.143 306.171 281.945 305.648 281.903 305.072H284.607C284.639 305.381 284.783 305.632 285.039 305.824C285.295 306.016 285.609 306.112 285.983 306.112C286.324 306.112 286.585 306.048 286.767 305.92C286.959 305.781 287.055 305.605 287.055 305.392C287.055 305.136 286.921 304.949 286.655 304.832C286.388 304.704 285.956 304.565 285.359 304.416C284.719 304.267 284.185 304.112 283.759 303.952C283.332 303.781 282.964 303.52 282.655 303.168C282.345 302.805 282.191 302.32 282.191 301.712C282.191 301.2 282.329 300.736 282.607 300.32C282.895 299.893 283.311 299.557 283.855 299.312C284.409 299.067 285.065 298.944 285.823 298.944C286.943 298.944 287.823 299.221 288.463 299.776C289.113 300.331 289.487 301.067 289.583 301.984H287.055C287.012 301.675 286.873 301.429 286.639 301.248C286.415 301.067 286.116 300.976 285.743 300.976C285.423 300.976 285.177 301.04 285.007 301.168C284.836 301.285 284.751 301.451 284.751 301.664C284.751 301.92 284.884 302.112 285.151 302.24C285.428 302.368 285.855 302.496 286.431 302.624C287.092 302.795 287.631 302.965 288.047 303.136C288.463 303.296 288.825 303.563 289.135 303.936C289.455 304.299 289.62 304.789 289.631 305.408C289.631 305.931 289.481 306.4 289.183 306.816C288.895 307.221 288.473 307.541 287.919 307.776C287.375 308.011 286.74 308.128 286.015 308.128ZM296.793 298.976C297.817 298.976 298.638 299.317 299.257 300C299.875 300.672 300.185 301.6 300.185 302.784V308H297.465V303.152C297.465 302.555 297.31 302.091 297.001 301.76C296.691 301.429 296.275 301.264 295.753 301.264C295.23 301.264 294.814 301.429 294.505 301.76C294.195 302.091 294.041 302.555 294.041 303.152V308H291.305V296.16H294.041V300.272C294.318 299.877 294.697 299.563 295.177 299.328C295.657 299.093 296.195 298.976 296.793 298.976ZM306.15 308.128C305.275 308.128 304.486 307.941 303.782 307.568C303.088 307.195 302.539 306.661 302.134 305.968C301.739 305.275 301.542 304.464 301.542 303.536C301.542 302.619 301.744 301.813 302.15 301.12C302.555 300.416 303.11 299.877 303.814 299.504C304.518 299.131 305.307 298.944 306.182 298.944C307.056 298.944 307.846 299.131 308.55 299.504C309.254 299.877 309.808 300.416 310.214 301.12C310.619 301.813 310.822 302.619 310.822 303.536C310.822 304.453 310.614 305.264 310.198 305.968C309.792 306.661 309.232 307.195 308.518 307.568C307.814 307.941 307.024 308.128 306.15 308.128ZM306.15 305.76C306.672 305.76 307.115 305.568 307.478 305.184C307.851 304.8 308.038 304.251 308.038 303.536C308.038 302.821 307.856 302.272 307.494 301.888C307.142 301.504 306.704 301.312 306.182 301.312C305.648 301.312 305.206 301.504 304.854 301.888C304.502 302.261 304.326 302.811 304.326 303.536C304.326 304.251 304.496 304.8 304.838 305.184C305.19 305.568 305.627 305.76 306.15 305.76ZM325.089 299.072L322.673 308H319.649L318.241 302.208L316.785 308H313.777L311.345 299.072H314.081L315.345 305.456L316.849 299.072H319.745L321.265 305.424L322.513 299.072H325.089ZM327.509 298.144C327.029 298.144 326.634 298.005 326.325 297.728C326.026 297.44 325.877 297.088 325.877 296.672C325.877 296.245 326.026 295.893 326.325 295.616C326.634 295.328 327.029 295.184 327.509 295.184C327.978 295.184 328.362 295.328 328.661 295.616C328.97 295.893 329.125 296.245 329.125 296.672C329.125 297.088 328.97 297.44 328.661 297.728C328.362 298.005 327.978 298.144 327.509 298.144ZM328.869 299.072V308H326.133V299.072H328.869ZM336.291 298.976C337.337 298.976 338.169 299.317 338.787 300C339.417 300.672 339.731 301.6 339.731 302.784V308H337.011V303.152C337.011 302.555 336.857 302.091 336.547 301.76C336.238 301.429 335.822 301.264 335.299 301.264C334.777 301.264 334.361 301.429 334.051 301.76C333.742 302.091 333.587 302.555 333.587 303.152V308H330.851V299.072H333.587V300.256C333.865 299.861 334.238 299.552 334.707 299.328C335.177 299.093 335.705 298.976 336.291 298.976ZM345.025 298.944C345.654 298.944 346.203 299.072 346.673 299.328C347.153 299.584 347.521 299.92 347.777 300.336V299.072H350.513V307.984C350.513 308.805 350.347 309.547 350.017 310.208C349.697 310.88 349.201 311.413 348.529 311.808C347.867 312.203 347.041 312.4 346.049 312.4C344.726 312.4 343.654 312.085 342.833 311.456C342.011 310.837 341.542 309.995 341.425 308.928H344.129C344.214 309.269 344.417 309.536 344.737 309.728C345.057 309.931 345.451 310.032 345.921 310.032C346.486 310.032 346.934 309.867 347.265 309.536C347.606 309.216 347.777 308.699 347.777 307.984V306.72C347.51 307.136 347.142 307.477 346.673 307.744C346.203 308 345.654 308.128 345.025 308.128C344.289 308.128 343.622 307.941 343.025 307.568C342.427 307.184 341.953 306.645 341.601 305.952C341.259 305.248 341.089 304.437 341.089 303.52C341.089 302.603 341.259 301.797 341.601 301.104C341.953 300.411 342.427 299.877 343.025 299.504C343.622 299.131 344.289 298.944 345.025 298.944ZM347.777 303.536C347.777 302.853 347.585 302.315 347.201 301.92C346.827 301.525 346.369 301.328 345.825 301.328C345.281 301.328 344.817 301.525 344.433 301.92C344.059 302.304 343.873 302.837 343.873 303.52C343.873 304.203 344.059 304.747 344.433 305.152C344.817 305.547 345.281 305.744 345.825 305.744C346.369 305.744 346.827 305.547 347.201 305.152C347.585 304.757 347.777 304.219 347.777 303.536ZM358.619 296.16V308H355.883V296.16H358.619ZM369.017 303.392C369.017 303.648 369.001 303.915 368.969 304.192H362.777C362.82 304.747 362.996 305.173 363.305 305.472C363.625 305.76 364.015 305.904 364.473 305.904C365.156 305.904 365.631 305.616 365.897 305.04H368.809C368.66 305.627 368.388 306.155 367.993 306.624C367.609 307.093 367.124 307.461 366.537 307.728C365.951 307.995 365.295 308.128 364.569 308.128C363.695 308.128 362.916 307.941 362.233 307.568C361.551 307.195 361.017 306.661 360.633 305.968C360.249 305.275 360.057 304.464 360.057 303.536C360.057 302.608 360.244 301.797 360.617 301.104C361.001 300.411 361.535 299.877 362.217 299.504C362.9 299.131 363.684 298.944 364.569 298.944C365.433 298.944 366.201 299.125 366.873 299.488C367.545 299.851 368.068 300.368 368.441 301.04C368.825 301.712 369.017 302.496 369.017 303.392ZM366.217 302.672C366.217 302.203 366.057 301.829 365.737 301.552C365.417 301.275 365.017 301.136 364.537 301.136C364.079 301.136 363.689 301.269 363.369 301.536C363.06 301.803 362.868 302.181 362.793 302.672H366.217ZM374.477 305.44L376.413 299.072H379.325L376.157 308H372.781L369.613 299.072H372.541L374.477 305.44ZM388.892 303.392C388.892 303.648 388.876 303.915 388.844 304.192H382.652C382.695 304.747 382.871 305.173 383.18 305.472C383.5 305.76 383.89 305.904 384.348 305.904C385.031 305.904 385.506 305.616 385.772 305.04H388.684C388.535 305.627 388.263 306.155 387.868 306.624C387.484 307.093 386.999 307.461 386.412 307.728C385.826 307.995 385.17 308.128 384.444 308.128C383.57 308.128 382.791 307.941 382.108 307.568C381.426 307.195 380.892 306.661 380.508 305.968C380.124 305.275 379.932 304.464 379.932 303.536C379.932 302.608 380.119 301.797 380.492 301.104C380.876 300.411 381.41 299.877 382.092 299.504C382.775 299.131 383.559 298.944 384.444 298.944C385.308 298.944 386.076 299.125 386.748 299.488C387.42 299.851 387.943 300.368 388.316 301.04C388.7 301.712 388.892 302.496 388.892 303.392ZM386.092 302.672C386.092 302.203 385.932 301.829 385.612 301.552C385.292 301.275 384.892 301.136 384.412 301.136C383.954 301.136 383.564 301.269 383.244 301.536C382.935 301.803 382.743 302.181 382.668 302.672H386.092ZM393.072 300.56C393.392 300.069 393.792 299.685 394.272 299.408C394.752 299.12 395.285 298.976 395.872 298.976V301.872H395.12C394.437 301.872 393.925 302.021 393.584 302.32C393.242 302.608 393.072 303.12 393.072 303.856V308H390.336V299.072H393.072V300.56ZM400.572 298.944C401.201 298.944 401.75 299.072 402.22 299.328C402.7 299.584 403.068 299.92 403.324 300.336V299.072H406.06V307.984C406.06 308.805 405.894 309.547 405.564 310.208C405.244 310.88 404.748 311.413 404.076 311.808C403.414 312.203 402.588 312.4 401.596 312.4C400.273 312.4 399.201 312.085 398.38 311.456C397.558 310.837 397.089 309.995 396.972 308.928H399.676C399.761 309.269 399.964 309.536 400.284 309.728C400.604 309.931 400.998 310.032 401.468 310.032C402.033 310.032 402.481 309.867 402.812 309.536C403.153 309.216 403.324 308.699 403.324 307.984V306.72C403.057 307.136 402.689 307.477 402.22 307.744C401.75 308 401.201 308.128 400.572 308.128C399.836 308.128 399.169 307.941 398.572 307.568C397.974 307.184 397.5 306.645 397.148 305.952C396.806 305.248 396.636 304.437 396.636 303.52C396.636 302.603 396.806 301.797 397.148 301.104C397.5 300.411 397.974 299.877 398.572 299.504C399.169 299.131 399.836 298.944 400.572 298.944ZM403.324 303.536C403.324 302.853 403.132 302.315 402.748 301.92C402.374 301.525 401.916 301.328 401.372 301.328C400.828 301.328 400.364 301.525 399.98 301.92C399.606 302.304 399.42 302.837 399.42 303.52C399.42 304.203 399.606 304.747 399.98 305.152C400.364 305.547 400.828 305.744 401.372 305.744C401.916 305.744 402.374 305.547 402.748 305.152C403.132 304.757 403.324 304.219 403.324 303.536ZM407.495 303.52C407.495 302.603 407.666 301.797 408.007 301.104C408.359 300.411 408.834 299.877 409.431 299.504C410.028 299.131 410.695 298.944 411.431 298.944C412.06 298.944 412.61 299.072 413.079 299.328C413.559 299.584 413.927 299.92 414.183 300.336V299.072H416.919V308H414.183V306.736C413.916 307.152 413.543 307.488 413.063 307.744C412.594 308 412.044 308.128 411.415 308.128C410.69 308.128 410.028 307.941 409.431 307.568C408.834 307.184 408.359 306.645 408.007 305.952C407.666 305.248 407.495 304.437 407.495 303.52ZM414.183 303.536C414.183 302.853 413.991 302.315 413.607 301.92C413.234 301.525 412.775 301.328 412.231 301.328C411.687 301.328 411.223 301.525 410.839 301.92C410.466 302.304 410.279 302.837 410.279 303.52C410.279 304.203 410.466 304.747 410.839 305.152C411.223 305.547 411.687 305.744 412.231 305.744C412.775 305.744 413.234 305.547 413.607 305.152C413.991 304.757 414.183 304.219 414.183 303.536ZM422.29 298.944C422.92 298.944 423.469 299.072 423.938 299.328C424.418 299.584 424.786 299.92 425.042 300.336V299.072H427.778V307.984C427.778 308.805 427.613 309.547 427.282 310.208C426.962 310.88 426.466 311.413 425.794 311.808C425.133 312.203 424.306 312.4 423.314 312.4C421.992 312.4 420.92 312.085 420.098 311.456C419.277 310.837 418.808 309.995 418.69 308.928H421.394C421.48 309.269 421.682 309.536 422.002 309.728C422.322 309.931 422.717 310.032 423.186 310.032C423.752 310.032 424.2 309.867 424.53 309.536C424.872 309.216 425.042 308.699 425.042 307.984V306.72C424.776 307.136 424.408 307.477 423.938 307.744C423.469 308 422.92 308.128 422.29 308.128C421.554 308.128 420.888 307.941 420.29 307.568C419.693 307.184 419.218 306.645 418.866 305.952C418.525 305.248 418.354 304.437 418.354 303.52C418.354 302.603 418.525 301.797 418.866 301.104C419.218 300.411 419.693 299.877 420.29 299.504C420.888 299.131 421.554 298.944 422.29 298.944ZM425.042 303.536C425.042 302.853 424.85 302.315 424.466 301.92C424.093 301.525 423.634 301.328 423.09 301.328C422.546 301.328 422.082 301.525 421.698 301.92C421.325 302.304 421.138 302.837 421.138 303.52C421.138 304.203 421.325 304.747 421.698 305.152C422.082 305.547 422.546 305.744 423.09 305.744C423.634 305.744 424.093 305.547 424.466 305.152C424.85 304.757 425.042 304.219 425.042 303.536ZM438.174 303.392C438.174 303.648 438.158 303.915 438.126 304.192H431.934C431.976 304.747 432.152 305.173 432.462 305.472C432.782 305.76 433.171 305.904 433.63 305.904C434.312 305.904 434.787 305.616 435.054 305.04H437.966C437.816 305.627 437.544 306.155 437.15 306.624C436.766 307.093 436.28 307.461 435.694 307.728C435.107 307.995 434.451 308.128 433.726 308.128C432.851 308.128 432.072 307.941 431.39 307.568C430.707 307.195 430.174 306.661 429.79 305.968C429.406 305.275 429.214 304.464 429.214 303.536C429.214 302.608 429.4 301.797 429.774 301.104C430.158 300.411 430.691 299.877 431.374 299.504C432.056 299.131 432.84 298.944 433.726 298.944C434.59 298.944 435.358 299.125 436.03 299.488C436.702 299.851 437.224 300.368 437.598 301.04C437.982 301.712 438.174 302.496 438.174 303.392ZM435.374 302.672C435.374 302.203 435.214 301.829 434.894 301.552C434.574 301.275 434.174 301.136 433.694 301.136C433.235 301.136 432.846 301.269 432.526 301.536C432.216 301.803 432.024 302.181 431.95 302.672H435.374ZM447.984 305.68V308H446.592C445.6 308 444.826 307.76 444.272 307.28C443.717 306.789 443.44 305.995 443.44 304.896V301.344H442.352V299.072H443.44V296.896H446.176V299.072H447.968V301.344H446.176V304.928C446.176 305.195 446.24 305.387 446.368 305.504C446.496 305.621 446.709 305.68 447.008 305.68H447.984ZM452.244 300.56C452.564 300.069 452.964 299.685 453.444 299.408C453.924 299.12 454.457 298.976 455.044 298.976V301.872H454.292C453.609 301.872 453.097 302.021 452.756 302.32C452.414 302.608 452.244 303.12 452.244 303.856V308H449.508V299.072H452.244V300.56ZM455.807 303.52C455.807 302.603 455.978 301.797 456.319 301.104C456.671 300.411 457.146 299.877 457.743 299.504C458.341 299.131 459.007 298.944 459.743 298.944C460.373 298.944 460.922 299.072 461.391 299.328C461.871 299.584 462.239 299.92 462.495 300.336V299.072H465.231V308H462.495V306.736C462.229 307.152 461.855 307.488 461.375 307.744C460.906 308 460.357 308.128 459.727 308.128C459.002 308.128 458.341 307.941 457.743 307.568C457.146 307.184 456.671 306.645 456.319 305.952C455.978 305.248 455.807 304.437 455.807 303.52ZM462.495 303.536C462.495 302.853 462.303 302.315 461.919 301.92C461.546 301.525 461.087 301.328 460.543 301.328C459.999 301.328 459.535 301.525 459.151 301.92C458.778 302.304 458.591 302.837 458.591 303.52C458.591 304.203 458.778 304.747 459.151 305.152C459.535 305.547 459.999 305.744 460.543 305.744C461.087 305.744 461.546 305.547 461.919 305.152C462.303 304.757 462.495 304.219 462.495 303.536ZM466.667 303.52C466.667 302.603 466.837 301.797 467.179 301.104C467.531 300.411 468.005 299.877 468.603 299.504C469.2 299.131 469.867 298.944 470.603 298.944C471.189 298.944 471.723 299.067 472.203 299.312C472.693 299.557 473.077 299.888 473.355 300.304V296.16H476.091V308H473.355V306.72C473.099 307.147 472.731 307.488 472.251 307.744C471.781 308 471.232 308.128 470.603 308.128C469.867 308.128 469.2 307.941 468.603 307.568C468.005 307.184 467.531 306.645 467.179 305.952C466.837 305.248 466.667 304.437 466.667 303.52ZM473.355 303.536C473.355 302.853 473.163 302.315 472.779 301.92C472.405 301.525 471.947 301.328 471.403 301.328C470.859 301.328 470.395 301.525 470.011 301.92C469.637 302.304 469.451 302.837 469.451 303.52C469.451 304.203 469.637 304.747 470.011 305.152C470.395 305.547 470.859 305.744 471.403 305.744C471.947 305.744 472.405 305.547 472.779 305.152C473.163 304.757 473.355 304.219 473.355 303.536ZM486.486 303.392C486.486 303.648 486.47 303.915 486.438 304.192H480.246C480.289 304.747 480.465 305.173 480.774 305.472C481.094 305.76 481.483 305.904 481.942 305.904C482.625 305.904 483.099 305.616 483.366 305.04H486.278C486.129 305.627 485.857 306.155 485.462 306.624C485.078 307.093 484.593 307.461 484.006 307.728C483.419 307.995 482.763 308.128 482.038 308.128C481.163 308.128 480.385 307.941 479.702 307.568C479.019 307.195 478.486 306.661 478.102 305.968C477.718 305.275 477.526 304.464 477.526 303.536C477.526 302.608 477.713 301.797 478.086 301.104C478.47 300.411 479.003 299.877 479.686 299.504C480.369 299.131 481.153 298.944 482.038 298.944C482.902 298.944 483.67 299.125 484.342 299.488C485.014 299.851 485.537 300.368 485.91 301.04C486.294 301.712 486.486 302.496 486.486 303.392ZM483.686 302.672C483.686 302.203 483.526 301.829 483.206 301.552C482.886 301.275 482.486 301.136 482.006 301.136C481.547 301.136 481.158 301.269 480.838 301.536C480.529 301.803 480.337 302.181 480.262 302.672H483.686Z" fill="black"/>
</g>
</g>
<defs>
<filter id="filter0_d_3_18662" x="0" y="0" width="700" height="371.193" filterUnits="userSpaceOnUse" color-interpolation-filters="sRGB">
<feFlood flood-opacity="0" result="BackgroundImageFix"/>
<feColorMatrix in="SourceAlpha" type="matrix" values="0 0 0 0 0 0 0 0 0 0 0 0 0 0 0 0 0 0 127 0" result="hardAlpha"/>
<feOffset dy="4"/>
<feGaussianBlur stdDeviation="2"/>
<feComposite in2="hardAlpha" operator="out"/>
<feColorMatrix type="matrix" values="0 0 0 0 0.869339 0 0 0 0 0.869339 0 0 0 0 0.869339 0 0 0 0.25 0"/>
<feBlend mode="normal" in2="BackgroundImageFix" result="effect1_dropShadow_3_18662"/>
<feBlend mode="normal" in="SourceGraphic" in2="effect1_dropShadow_3_18662" result="shape"/>
</filter>
<filter id="filter1_bf_3_18662" x="175.386" y="7.22595" width="333.267" height="329.819" filterUnits="userSpaceOnUse" color-interpolation-filters="sRGB">
<feFlood flood-opacity="0" result="BackgroundImageFix"/>
<feGaussianBlur in="BackgroundImageFix" stdDeviation="64"/>
<feComposite in2="SourceAlpha" operator="in" result="effect1_backgroundBlur_3_18662"/>
<feBlend mode="normal" in="SourceGraphic" in2="effect1_backgroundBlur_3_18662" result="shape"/>
<feGaussianBlur stdDeviation="32" result="effect2_foregroundBlur_3_18662"/>
</filter>
<clipPath id="clip0_3_18662">
<rect width="676" height="347.192" fill="white" transform="translate(12 8)"/>
</clipPath>
</defs>
</svg>
