<svg width="32" height="30" viewBox="0 0 32 30" fill="none" xmlns="http://www.w3.org/2000/svg">
<path d="M27.2112 14.8014L19.5913 7.54419H11.7428L4.0957 15.2373L12.0314 22.351L7.73405 26.1259L12.0913 30.0056L15.7569 26.1259L19.4824 30.0056L23.4911 26.1259L19.4824 22.4835L27.2166 14.8069L27.2112 14.8014ZM15.6534 18.7749L11.8462 15.0883L15.6534 11.4018L19.5096 15.2373L15.6534 18.7749Z" fill="#45EFD2"/>
<path d="M9.89107 7.54967L6.22004 11.4073L2.00436 11.319L0 3.77483L4.09586 0L6.30174 7.54967H9.89107Z" fill="#45EFD2"/>
<path d="M21.6338 7.54967L25.4083 11.4073L29.7384 11.319L31.7972 3.77483L27.5869 0L25.3212 7.54967H21.6338Z" fill="#45EFD2"/>
</svg>
