<svg width="138" height="30" viewBox="0 0 138 30" fill="none" xmlns="http://www.w3.org/2000/svg">
<path d="M40.8047 7.54883V22.4495H63.8276V7.54883H40.8047ZM57.6892 18.5864H46.796V11.412H57.6892V18.5864Z" fill="white"/>
<path d="M65.4883 7.54883H72.3728L77.2966 11.9638L82.3456 7.54883H89.2356L80.6244 14.9992L89.2356 22.4495H82.1658L77.3619 18.5864L72.7377 22.4495H65.4883L74.5515 14.9992L65.4883 7.54883Z" fill="white"/>
<path d="M113.422 7.54883H120.306L125.23 11.9638L130.279 7.54883H137.169L128.558 14.9992L137.169 22.4495H130.099L125.296 18.5864L120.671 22.4495H113.422L122.485 14.9992L113.422 7.54883Z" fill="white"/>
<path d="M90.4141 7.54883V22.4495H96.3999L96.3618 16.9307H112.702V13.0676H96.3618L96.3563 11.412H112.702V7.54883H90.4141Z" fill="white"/>
<path d="M27.7131 14.8021L20.0933 7.54492H12.2447L4.59766 15.2381L12.5334 22.3518L8.236 26.1266L12.5933 30.0063L16.2589 26.1266L19.9844 30.0063L23.9931 26.1266L19.9844 22.4842L27.7186 14.8076L27.7131 14.8021ZM16.1554 18.7756L12.3482 15.0891L16.1554 11.4025L20.0116 15.2381L16.1554 18.7756Z" fill="white"/>
<path d="M10.3911 7.54967L6.72004 11.4073L2.50436 11.319L0.5 3.77483L4.59586 0L6.80174 7.54967H10.3911Z" fill="white"/>
<path d="M22.1328 7.54967L25.9073 11.4073L30.2374 11.319L32.2962 3.77483L28.086 0L25.8202 7.54967H22.1328Z" fill="white"/>
</svg>
