<svg width="119" height="26" viewBox="0 0 119 26" fill="none" xmlns="http://www.w3.org/2000/svg">
<g clip-path="url(#clip0_2153_1232)">
<path d="M35.0078 6.54297V19.4569H55.0058V6.54297H35.0078ZM49.6739 16.1088H40.2119V9.89102H49.6739V16.1088Z" fill="#45EFD2"/>
<path d="M56.4492 6.54297H62.4292L66.706 10.3693L71.0917 6.54297H77.0764L69.5967 12.9999L77.0764 19.4569H70.9356L66.7628 16.1088L62.7462 19.4569H56.4492L64.3216 12.9999L56.4492 6.54297Z" fill="#45EFD2"/>
<path d="M98.082 6.54297H104.062L108.339 10.3693L112.725 6.54297H118.709L111.23 12.9999L118.709 19.4569H112.568L108.396 16.1088L104.379 19.4569H98.082L105.954 12.9999L98.082 6.54297Z" fill="#45EFD2"/>
<path d="M78.0977 6.54297V19.4569H83.297L83.2639 14.6739H97.4569V11.3259H83.2639L83.2592 9.89102H97.4569V6.54297H78.0977Z" fill="#45EFD2"/>
<path d="M23.637 12.8286L17.0183 6.53906H10.2009L3.55859 13.2065L10.4517 19.3717L6.71891 22.6432L10.5037 26.0056L13.6877 22.6432L16.9237 26.0056L20.4057 22.6432L16.9237 19.4865L23.6417 12.8334L23.637 12.8286ZM13.5978 16.2723L10.2908 13.0773L13.5978 9.88233L16.9473 13.2065L13.5978 16.2723Z" fill="#45EFD2"/>
<path d="M8.59151 6.54305L5.40281 9.88631L1.74101 9.80979L0 3.27152L3.55772 0L5.47378 6.54305H8.59151Z" fill="#45EFD2"/>
<path d="M18.793 6.54305L22.0716 9.88631L25.8327 9.80979L27.621 3.27152L23.964 0L21.9959 6.54305H18.793Z" fill="#45EFD2"/>
</g>
<defs>
<clipPath id="clip0_2153_1232">
<rect width="119" height="26" fill="white"/>
</clipPath>
</defs>
</svg>
