<svg width="24" height="24" viewBox="0 0 24 24" fill="none" xmlns="http://www.w3.org/2000/svg">
<path d="M12.2773 6.05592C13.2129 6.05592 14.3856 5.42343 15.084 4.58011C15.7165 3.81585 16.1777 2.74852 16.1777 1.68119C16.1777 1.53624 16.1645 1.3913 16.1382 1.27271C15.0972 1.31224 13.8454 1.97108 13.0943 2.85393C12.5013 3.52596 11.9611 4.58011 11.9611 5.66061C11.9611 5.81874 11.9874 5.97686 12.0006 6.02957C12.0665 6.04274 12.1719 6.05592 12.2773 6.05592ZM8.9831 22C10.2613 22 10.8279 21.1435 12.4223 21.1435C14.043 21.1435 14.3988 21.9736 15.8219 21.9736C17.2187 21.9736 18.1542 20.6823 19.0371 19.4173C20.0254 17.9678 20.4338 16.5447 20.4602 16.4789C20.368 16.4525 17.693 15.3588 17.693 12.2886C17.693 9.62686 19.8013 8.42776 19.9199 8.33553C18.5232 6.33264 16.4017 6.27993 15.8219 6.27993C14.2539 6.27993 12.9757 7.22867 12.1719 7.22867C11.3022 7.22867 10.1558 6.33264 8.79863 6.33264C6.21595 6.33264 3.59375 8.46729 3.59375 12.4994C3.59375 15.003 4.56884 17.6516 5.76794 19.3646C6.79574 20.8141 7.69177 22 8.9831 22Z" fill="black"/>
</svg>
