<svg width="32" height="32" viewBox="0 0 32 32" fill="none" xmlns="http://www.w3.org/2000/svg">
<path d="M0.25 16C0.25 7.30152 7.30152 0.25 16 0.25C24.6985 0.25 31.75 7.30152 31.75 16C31.75 24.6985 24.6985 31.75 16 31.75C7.30152 31.75 0.25 24.6985 0.25 16Z" stroke="#55535B" stroke-width="0.5"/>
<path d="M17.3933 24V16.7022H19.8418L20.2092 13.8573H17.3933V12.0412C17.3933 11.2178 17.621 10.6566 18.8031 10.6566L20.3083 10.656V8.11138C20.048 8.07756 19.1545 8 18.1145 8C15.9428 8 14.456 9.32557 14.456 11.7594V13.8573H12V16.7022H14.456V24H17.3933Z" fill="#DDDDDD"/>
</svg>
