<svg width="32" height="32" viewBox="0 0 32 32" fill="none" xmlns="http://www.w3.org/2000/svg">
<path d="M0.25 16C0.25 7.30152 7.30152 0.25 16 0.25C24.6985 0.25 31.75 7.30152 31.75 16C31.75 24.6985 24.6985 31.75 16 31.75C7.30152 31.75 0.25 24.6985 0.25 16Z" stroke="#55535B" stroke-width="0.5"/>
<path d="M20.4392 12.5424C19.8873 12.5434 19.4386 12.0966 19.4375 11.5447C19.4364 10.9928 19.8833 10.5441 20.4354 10.543C20.9876 10.5419 21.4363 10.989 21.4374 11.5409C21.4382 12.0928 20.9913 12.5413 20.4392 12.5424Z" fill="#DDDDDD"/>
<path fill-rule="evenodd" clip-rule="evenodd" d="M16.0095 20.2782C13.6467 20.2828 11.7272 18.3712 11.7227 16.0078C11.7181 13.645 13.6302 11.7253 15.993 11.7207C18.3563 11.7161 20.276 13.6288 20.2806 15.9914C20.2851 18.3547 18.3725 20.2737 16.0095 20.2782ZM15.996 13.2222C14.4623 13.2249 13.2209 14.471 13.2236 16.0049C13.2266 17.5391 14.4729 18.7802 16.0065 18.7772C17.5406 18.7743 18.7821 17.5285 18.7791 15.9943C18.7761 14.4602 17.5298 13.2192 15.996 13.2222Z" fill="#DDDDDD"/>
<path fill-rule="evenodd" clip-rule="evenodd" d="M10.5285 8.11496C11.0577 7.9076 11.6633 7.76557 12.55 7.72372C13.4389 7.68107 13.7226 7.67134 15.9852 7.66702C18.2484 7.66271 18.5321 7.67134 19.421 7.71076C20.308 7.7491 20.9138 7.88897 21.4441 8.09417C21.9927 8.30558 22.4582 8.59017 22.9221 9.05215C23.386 9.51466 23.6716 9.97853 23.8857 10.5264C24.0928 11.0561 24.2348 11.6612 24.277 12.5484C24.3191 13.437 24.3293 13.7205 24.3336 15.9834C24.338 18.246 24.3288 18.5301 24.2899 19.4195C24.2513 20.3059 24.1117 20.9121 23.9066 21.4421C23.6946 21.9908 23.4106 22.4562 22.9486 22.9201C22.4866 23.3843 22.0222 23.6696 21.4744 23.884C20.9446 24.0908 20.3396 24.2329 19.4529 24.2753C18.5641 24.3174 18.2802 24.3274 16.0168 24.3317C13.7545 24.336 13.4707 24.3274 12.5819 24.2882C11.6949 24.2493 11.0888 24.1098 10.5588 23.9048C10.0101 23.6926 9.54465 23.4088 9.08078 22.9465C8.61666 22.4843 8.33073 22.0202 8.1169 21.4724C7.90953 20.9429 7.76804 20.3375 7.72566 19.4511C7.68327 18.5619 7.67328 18.2779 7.66897 16.0153C7.66463 13.7524 7.67355 13.4689 7.71243 12.58C7.75158 11.6928 7.89063 11.0869 8.09583 10.5563C8.30778 10.008 8.59182 9.54274 9.05433 9.07861C9.5163 8.61474 9.9807 8.32852 10.5285 8.11496ZM11.0996 22.5049C11.3936 22.6179 11.8348 22.7529 12.6472 22.7883C13.5264 22.8264 13.7896 22.8348 16.0141 22.8304C18.2395 22.8263 18.5027 22.8169 19.3816 22.7756C20.1932 22.737 20.6344 22.6004 20.9276 22.4859C21.3167 22.3339 21.5937 22.1522 21.8847 21.8608C22.1758 21.5684 22.3559 21.2906 22.5066 20.9015C22.62 20.6073 22.7547 20.1658 22.7901 19.3533C22.8286 18.4748 22.8368 18.2112 22.8325 15.9861C22.8284 13.7615 22.819 13.498 22.7771 12.6192C22.7387 11.8073 22.6024 11.3661 22.4876 11.0731C22.3356 10.6835 22.1545 10.407 21.8624 10.1157C21.5702 9.82435 21.2924 9.6448 20.9028 9.49414C20.6092 9.38047 20.1676 9.246 19.3556 9.21064C18.4766 9.17202 18.213 9.16419 15.988 9.16852C13.7634 9.17283 13.5002 9.18174 12.6213 9.22332C11.8092 9.26193 11.3685 9.39828 11.0747 9.51304C10.6859 9.66505 10.4089 9.84568 10.1176 10.1381C9.82679 10.4305 9.6467 10.7078 9.49605 11.0977C9.3832 11.3915 9.24738 11.8332 9.21255 12.6451C9.1742 13.5242 9.16611 13.7877 9.17043 16.0123C9.17448 18.2374 9.18393 18.5009 9.22524 19.3793C9.26331 20.1917 9.40073 20.6323 9.51495 20.9263C9.66696 21.3149 9.84813 21.5919 10.14 21.8833C10.4324 22.1735 10.7102 22.3542 11.0996 22.5049Z" fill="#DDDDDD"/>
</svg>
