<svg width="32" height="32" viewBox="0 0 32 32" fill="none" xmlns="http://www.w3.org/2000/svg">
<path d="M0.25 16C0.25 7.30152 7.30152 0.25 16 0.25C24.6985 0.25 31.75 7.30152 31.75 16C31.75 24.6985 24.6985 31.75 16 31.75C7.30152 31.75 0.25 24.6985 0.25 16Z" stroke="#55535B" stroke-width="0.5"/>
<path d="M23.9983 23.0003V17.5066C23.9983 14.8066 23.4171 12.7441 20.2671 12.7441C18.7484 12.7441 17.7359 13.5691 17.3234 14.3566H17.2859V12.9879H14.3047V23.0003H17.4172V18.0316C17.4172 16.7191 17.6609 15.4629 19.2734 15.4629C20.8671 15.4629 20.8859 16.9441 20.8859 18.1066V22.9815H23.9983V23.0003Z" fill="#DDDDDD"/>
<path d="M9.24219 12.9883H12.3547V23.0007H9.24219V12.9883Z" fill="#DDDDDD"/>
<path d="M10.8 8C9.80624 8 9 8.80624 9 9.79998C9 10.7937 9.80624 11.6187 10.8 11.6187C11.7937 11.6187 12.6 10.7937 12.6 9.79998C12.6 8.80624 11.7937 8 10.8 8Z" fill="#DDDDDD"/>
</svg>
