<svg width="32" height="32" viewBox="0 0 32 32" fill="none" xmlns="http://www.w3.org/2000/svg">
<path d="M0.25 16C0.25 7.30152 7.30152 0.25 16 0.25C24.6985 0.25 31.75 7.30152 31.75 16C31.75 24.6985 24.6985 31.75 16 31.75C7.30152 31.75 0.25 24.6985 0.25 16Z" stroke="#55535B" stroke-width="0.5"/>
<g clip-path="url(#clip0_2150_12428)">
<mask id="mask0_2150_12428" style="mask-type:luminance" maskUnits="userSpaceOnUse" x="6" y="6" width="20" height="20">
<path d="M26 6H6V26H26V6Z" fill="white"/>
</mask>
<g mask="url(#mask0_2150_12428)">
<path fill-rule="evenodd" clip-rule="evenodd" d="M24.9551 10.029C25.2654 10.3413 25.4883 10.7296 25.6013 11.1551C26.0195 12.7255 26.0195 16.0006 26.0195 16.0006C26.0195 16.0006 26.0195 19.2756 25.6013 20.846C25.4883 21.2715 25.2654 21.6598 24.9551 21.9721C24.6448 22.2844 24.2579 22.5097 23.8332 22.6256C22.2695 23.046 16.0195 23.046 16.0195 23.046C16.0195 23.046 9.76953 23.046 8.20589 22.6256C7.78114 22.5097 7.39424 22.2844 7.08393 21.9721C6.77363 21.6598 6.55079 21.2715 6.43771 20.846C6.01953 19.2756 6.01953 16.0006 6.01953 16.0006C6.01953 16.0006 6.01953 12.7255 6.43771 11.1551C6.55079 10.7296 6.77363 10.3413 7.08393 10.029C7.39424 9.71665 7.78114 9.49133 8.20589 9.37554C9.76953 8.95508 16.0195 8.95508 16.0195 8.95508C16.0195 8.95508 22.2695 8.95508 23.8332 9.37554C24.2579 9.49133 24.6448 9.71665 24.9551 10.029ZM19.2013 16.0006L13.9741 13.0267V18.9744L19.2013 16.0006Z" fill="#DDDDDD"/>
</g>
</g>
<defs>
<clipPath id="clip0_2150_12428">
<rect width="20" height="20" fill="white" transform="translate(6 6)"/>
</clipPath>
</defs>
</svg>
