<svg width="71" height="49" viewBox="0 0 71 49" fill="none" xmlns="http://www.w3.org/2000/svg">
<rect x="0.996094" y="0.5" width="69" height="48" rx="3.5" fill="white" stroke="#D1D9E0"/>
<path fill-rule="evenodd" clip-rule="evenodd" d="M35.8642 34.3601C33.4264 36.3978 30.2643 37.6279 26.8089 37.6279C19.0988 37.6279 12.8486 31.5035 12.8486 23.9487C12.8486 16.3939 19.0988 10.2695 26.8089 10.2695C30.2643 10.2695 33.4264 11.4996 35.8642 13.5373C38.3019 11.4996 41.4641 10.2695 44.9195 10.2695C52.6295 10.2695 58.8797 16.3939 58.8797 23.9487C58.8797 31.5035 52.6295 37.6279 44.9195 37.6279C41.4641 37.6279 38.3019 36.3978 35.8642 34.3601Z" fill="#ED0006"/>
<path fill-rule="evenodd" clip-rule="evenodd" d="M35.8643 34.3601C38.8659 31.8511 40.7692 28.1177 40.7692 23.9487C40.7692 19.7797 38.8659 16.0463 35.8643 13.5373C38.302 11.4996 41.4642 10.2695 44.9195 10.2695C52.6296 10.2695 58.8798 16.3939 58.8798 23.9487C58.8798 31.5035 52.6296 37.6279 44.9195 37.6279C41.4642 37.6279 38.302 36.3978 35.8643 34.3601Z" fill="#F9A000"/>
<path fill-rule="evenodd" clip-rule="evenodd" d="M35.8639 34.36C38.8655 31.851 40.7688 28.1177 40.7688 23.9487C40.7688 19.7797 38.8655 16.0464 35.8639 13.5374C32.8623 16.0464 30.959 19.7797 30.959 23.9487C30.959 28.1177 32.8623 31.851 35.8639 34.36Z" fill="#FF5E00"/>
</svg>
