<svg width="71" height="50" viewBox="0 0 71 50" fill="none" xmlns="http://www.w3.org/2000/svg">
<rect x="0.996094" y="0.5" width="69" height="48.4118" rx="3.5" fill="white" stroke="#D1D9E0"/>
<path fill-rule="evenodd" clip-rule="evenodd" d="M22.6294 32.3772H18.3888L15.2088 19.9927C15.0579 19.4231 14.7374 18.9194 14.266 18.682C13.0895 18.0855 11.7931 17.6108 10.3789 17.3714V16.8946H17.2102C18.1531 16.8946 18.8602 17.6108 18.978 18.4426L20.628 27.376L24.8666 16.8946H28.9894L22.6294 32.3772ZM31.3464 32.3772H27.3415L30.6393 16.8946H34.6442L31.3464 32.3772ZM39.8256 21.1837C39.9435 20.3498 40.6506 19.873 41.4756 19.873C42.772 19.7533 44.1841 19.9927 45.3627 20.5872L46.0698 17.2537C44.8913 16.7769 43.5949 16.5375 42.4184 16.5375C38.5313 16.5375 35.7029 18.6821 35.7029 21.6585C35.7029 23.9228 37.7064 25.1117 39.1206 25.8279C40.6506 26.5421 41.2399 27.0189 41.122 27.7331C41.122 28.8043 39.9435 29.2811 38.767 29.2811C37.3528 29.2811 35.9386 28.924 34.6442 28.3275L33.9371 31.6631C35.3514 32.2575 36.8814 32.497 38.2956 32.497C42.6541 32.6146 45.3627 30.4721 45.3627 27.2563C45.3627 23.2065 39.8256 22.9692 39.8256 21.1837ZM59.3789 32.3772L56.1989 16.8946H52.7833C52.0761 16.8946 51.369 17.3714 51.1333 18.0855L45.2448 32.3772H49.3676L50.1905 30.115H55.2561L55.7275 32.3772H59.3789ZM53.3725 21.064L54.549 26.8992H51.2512L53.3725 21.064Z" fill="#172B85"/>
</svg>
