<svg width="51" height="51" viewBox="0 0 51 51" fill="none" xmlns="http://www.w3.org/2000/svg">
<path d="M40.8967 5.95978H8.7207V35.2039H40.8967V5.95978Z" fill="black"/>
<path fill-rule="evenodd" clip-rule="evenodd" d="M51.0282 24.7057C51.0282 39.0772 39.3703 50.7273 24.9892 50.7273C10.6082 50.7273 -1.0498 39.0772 -1.0498 24.7057C-1.0498 10.3343 10.6082 -1.31604 24.9892 -1.31604C39.3703 -1.31604 51.0282 10.3343 51.0282 24.7057ZM17.6105 35.061H12.557C11.4952 35.061 10.9706 35.061 10.6508 34.8565C10.3054 34.6327 10.0943 34.262 10.0687 33.8527C10.0495 33.4758 10.3118 33.0153 10.8363 32.0948L23.3139 10.116C23.8448 9.18269 24.1135 8.71603 24.4525 8.54344C24.8171 8.35807 25.2521 8.35807 25.6167 8.54344C25.9558 8.71603 26.2244 9.18269 26.7553 10.116L29.3205 14.5908L29.3336 14.6136C29.907 15.6149 30.1978 16.1226 30.3248 16.6555C30.4655 17.2373 30.4655 17.8509 30.3248 18.4327C30.1968 18.9696 29.909 19.481 29.3269 20.4974L22.7727 32.0756L22.7557 32.1053C22.1785 33.1148 21.886 33.6265 21.4806 34.0125C21.0392 34.4345 20.5082 34.7411 19.9261 34.9141C19.3952 35.061 18.8003 35.061 17.6105 35.061ZM30.3721 35.061H37.6131C38.6813 35.061 39.2188 35.061 39.5388 34.8503C39.8841 34.6265 40.1015 34.2491 40.1209 33.8403C40.1393 33.4754 39.8827 33.0329 39.38 32.1659C39.3627 32.1364 39.3453 32.1063 39.3276 32.0758L35.7006 25.8751L35.6593 25.8052C35.1496 24.9439 34.8923 24.509 34.5619 24.3409C34.1975 24.1555 33.7686 24.1555 33.4042 24.3409C33.0715 24.5134 32.8029 24.9673 32.2719 25.8814L28.6578 32.0822L28.6454 32.1035C28.1163 33.0162 27.8519 33.4723 27.871 33.8465C27.8966 34.2557 28.1076 34.6327 28.453 34.8565C28.7665 35.061 29.3038 35.061 30.3721 35.061Z" fill="white"/>
</svg>
