<svg width="51" height="52" viewBox="0 0 51 52" fill="none" xmlns="http://www.w3.org/2000/svg">
<mask id="mask0_241_5819" style="mask-type:alpha" maskUnits="userSpaceOnUse" x="0" y="0" width="51" height="51">
<circle cx="25.75" cy="25.7263" r="25" fill="white"/>
</mask>
<g mask="url(#mask0_241_5819)">
</g>
<g clip-path="url(#clip0_241_5819)">
<path d="M26.1671 17.9526H22.5684V25.0476H28.2303V28.0183H22.5684V35.1128H26.3435C27.3134 35.1128 34.3067 35.2224 34.2959 26.8584C34.2851 18.4944 27.5132 17.9526 26.1671 17.9526Z" fill="#C2A633"/>
<path d="M25.5625 1.35425C11.6517 1.35425 0.375 12.6309 0.375 26.5417C0.375 40.4526 11.6517 51.7292 25.5625 51.7292C39.4733 51.7292 50.75 40.4526 50.75 26.5417C50.75 12.6309 39.4733 1.35425 25.5625 1.35425ZM26.5521 40.1455H17.4305V28.0187H14.215V25.0481H17.4302V12.9206H25.259C27.111 12.9206 39.3781 12.536 39.3781 26.7606C39.3781 41.2205 26.5524 40.1455 26.5524 40.1455H26.5521Z" fill="#C2A633"/>
</g>
<defs>
<clipPath id="clip0_241_5819">
<rect width="50.375" height="50.375" fill="white" transform="translate(0.375 1.35425)"/>
</clipPath>
</defs>
</svg>
