<svg width="50" height="51" viewBox="0 0 50 51" fill="none" xmlns="http://www.w3.org/2000/svg">
<g clip-path="url(#clip0_241_5706)">
<path d="M25 50.7278C38.8543 50.7278 50 39.582 50 25.7278C50 11.8735 38.8543 0.727783 25 0.727783C11.1458 0.727783 0 11.8735 0 25.7278C0 39.582 11.1458 50.7278 25 50.7278Z" fill="#2775CA"/>
<path d="M31.8743 29.6853C31.8743 26.0396 29.6868 24.7896 25.3118 24.2688C22.1868 23.8521 21.5618 23.0188 21.5618 21.5603C21.5618 20.1018 22.6035 19.1646 24.6868 19.1646C26.5618 19.1646 27.6035 19.7896 28.1243 21.3521C28.2285 21.6646 28.541 21.8728 28.8535 21.8728H30.52C30.9368 21.8728 31.2493 21.5603 31.2493 21.1438V21.0396C30.8325 18.7478 28.9575 16.9771 26.5618 16.7688V14.2688C26.5618 13.8521 26.2493 13.5396 25.7285 13.4353H24.166C23.7493 13.4353 23.4368 13.7478 23.3325 14.2688V16.6646C20.2075 17.0813 18.2285 19.1646 18.2285 21.7688C18.2285 25.2063 20.3118 26.5603 24.6868 27.0813C27.6035 27.6021 28.541 28.2271 28.541 29.8938C28.541 31.5606 27.0825 32.7063 25.1035 32.7063C22.395 32.7063 21.4575 31.5603 21.145 29.9978C21.041 29.5813 20.7285 29.3728 20.416 29.3728H18.645C18.2285 29.3728 17.916 29.6853 17.916 30.1021V30.2063C18.3325 32.8103 19.9993 34.6853 23.4368 35.2063V37.7063C23.4368 38.1228 23.7493 38.4353 24.27 38.5396H25.8325C26.2493 38.5396 26.5618 38.2271 26.666 37.7063V35.2063C29.791 34.6853 31.8743 32.4978 31.8743 29.6853Z" fill="white"/>
<path d="M19.6876 40.6234C11.5626 37.7069 7.39583 28.6444 10.4168 20.6234C11.9793 16.2484 15.4168 12.9152 19.6876 11.3527C20.1043 11.1444 20.3126 10.8319 20.3126 10.3109V8.85269C20.3126 8.43594 20.1043 8.12344 19.6876 8.01944C19.5833 8.01944 19.3751 8.01944 19.2708 8.12344C9.37508 11.2484 3.95833 21.7694 7.08333 31.6652C8.95833 37.4984 13.4376 41.9777 19.2708 43.8527C19.6876 44.0609 20.1043 43.8527 20.2083 43.4359C20.3126 43.3319 20.3126 43.2277 20.3126 43.0194V41.5609C20.3126 41.2484 20.0001 40.8319 19.6876 40.6234ZM30.7293 8.12344C30.3126 7.91519 29.8958 8.12344 29.7918 8.54019C29.6876 8.64444 29.6876 8.74844 29.6876 8.95694V10.4152C29.6876 10.8319 30.0001 11.2484 30.3126 11.4569C38.4376 14.3734 42.6043 23.4359 39.5833 31.4569C38.0208 35.8319 34.5833 39.1652 30.3126 40.7277C29.8958 40.9359 29.6876 41.2484 29.6876 41.7694V43.2277C29.6876 43.6444 29.8958 43.9569 30.3126 44.0609C30.4168 44.0609 30.6251 44.0609 30.7293 43.9569C40.6251 40.8319 46.0418 30.3109 42.9168 20.4152C41.0418 14.4777 36.4583 9.99844 30.7293 8.12344Z" fill="white"/>
</g>
<defs>
<clipPath id="clip0_241_5706">
<rect width="50" height="50" fill="white" transform="translate(0 0.727783)"/>
</clipPath>
</defs>
</svg>
