<svg width="32" height="20" viewBox="0 0 32 20" fill="none" xmlns="http://www.w3.org/2000/svg">
<path d="M28.4449 0H2.7997C2.69289 0 2.58589 0 2.47928 0.000622847C2.38915 0.00126457 2.29923 0.0022649 2.20932 0.00471853C2.01321 0.0100222 1.81543 0.021592 1.62178 0.0563959C1.42504 0.0918038 1.24196 0.149559 1.06335 0.240494C0.887769 0.329788 0.727018 0.446581 0.587709 0.585948C0.448341 0.725314 0.331548 0.885801 0.242273 1.06158C0.151319 1.24018 0.0935259 1.42332 0.0583634 1.62021C0.0233726 1.81392 0.0117254 2.01166 0.00644064 2.20756C0.00402475 2.29747 0.00298856 2.38739 0.00240157 2.47729C0.00177873 2.58413 0.00198634 2.6909 0.00198634 2.79794V17.2023C0.00198634 17.3093 0.00177873 17.4159 0.00240157 17.5229C0.00298856 17.6128 0.00402475 17.7028 0.00644064 17.7927C0.0117254 17.9884 0.0233726 18.1861 0.0583634 18.3798C0.0935259 18.5768 0.151319 18.7598 0.242273 18.9384C0.331548 19.1142 0.448341 19.2749 0.587709 19.4141C0.727018 19.5537 0.887769 19.6704 1.06335 19.7595C1.24196 19.8507 1.42504 19.9085 1.62178 19.9438C1.81543 19.9784 2.01321 19.9902 2.20932 19.9955C2.29923 19.9975 2.38915 19.9988 2.47928 19.9992C2.58589 20 2.69289 20 2.7997 20H28.4449C28.5515 20 28.6585 20 28.7651 19.9992C28.855 19.9988 28.945 19.9975 29.0353 19.9955C29.231 19.9902 29.4287 19.9784 29.6229 19.9438C29.8193 19.9085 30.0024 19.8507 30.1811 19.7595C30.3568 19.6704 30.5171 19.5537 30.6567 19.4141C30.7959 19.2749 30.9127 19.1142 31.0022 18.9384C31.0933 18.7598 31.1511 18.5768 31.186 18.3798C31.2211 18.1861 31.2324 17.9884 31.2377 17.7927C31.2402 17.7028 31.2414 17.6128 31.2418 17.5229C31.2426 17.4159 31.2426 17.3093 31.2426 17.2023V2.79794C31.2426 2.6909 31.2426 2.58413 31.2418 2.47729C31.2414 2.38739 31.2402 2.29747 31.2377 2.20756C31.2324 2.01166 31.2211 1.81392 31.186 1.62021C31.1511 1.42332 31.0933 1.24018 31.0022 1.06158C30.9127 0.885801 30.7959 0.725314 30.6567 0.585948C30.5171 0.446581 30.3568 0.329788 30.1811 0.240494C30.0024 0.149559 29.8193 0.0918038 29.6229 0.0563959C29.4287 0.021592 29.231 0.0100222 29.0353 0.00471853C28.945 0.0022649 28.855 0.00126457 28.7651 0.000622847C28.6585 0 28.5515 0 28.4449 0Z" fill="black"/>
<path d="M28.4443 0.666687L28.7598 0.667291C28.8452 0.667895 28.9307 0.66882 29.0166 0.67116C29.1661 0.675199 29.341 0.683296 29.504 0.712513C29.6457 0.738031 29.7645 0.776836 29.8785 0.834893C29.9911 0.892101 30.0943 0.967069 30.1843 1.057C30.2747 1.14754 30.3498 1.25086 30.4078 1.36469C30.4655 1.47784 30.5041 1.59611 30.5294 1.73883C30.5586 1.90006 30.5666 2.0754 30.5707 2.2258C30.573 2.3107 30.5741 2.3956 30.5746 2.48251C30.5754 2.58762 30.5754 2.69267 30.5754 2.79799V17.2023C30.5754 17.3076 30.5754 17.4125 30.5745 17.5199C30.5742 17.6047 30.573 17.6896 30.5707 17.7747C30.5666 17.9249 30.5586 18.1001 30.5291 18.2632C30.5041 18.404 30.4655 18.5223 30.4075 18.636C30.3497 18.7495 30.2747 18.8528 30.1847 18.9427C30.0941 19.0333 29.9913 19.1081 29.8774 19.1658C29.7642 19.2236 29.6456 19.2623 29.5053 19.2876C29.339 19.3172 29.1568 19.3254 29.0196 19.3291C28.9333 19.331 28.8473 19.3322 28.7593 19.3326C28.6544 19.3334 28.5492 19.3334 28.4443 19.3334H2.79907C2.79767 19.3334 2.79631 19.3334 2.7949 19.3334C2.6912 19.3334 2.5873 19.3334 2.48172 19.3326C2.39563 19.3322 2.30974 19.3311 2.22669 19.3292C2.08634 19.3254 1.90404 19.3172 1.73909 19.2878C1.5976 19.2623 1.47897 19.2236 1.36429 19.165C1.25145 19.1078 1.14871 19.0331 1.0581 18.9424C0.968181 18.8526 0.893458 18.7497 0.835684 18.636C0.777854 18.5224 0.739162 18.4038 0.713722 18.2613C0.684314 18.0985 0.676236 17.924 0.672198 17.7748C0.669894 17.6894 0.668931 17.604 0.668384 17.5191L0.667969 17.2685L0.667988 17.2023V2.79799L0.667969 2.73182L0.668365 2.48172C0.668931 2.39631 0.669894 2.31093 0.672198 2.2256C0.676236 2.07628 0.684314 1.90166 0.713965 1.73749C0.739181 1.59633 0.777854 1.47769 0.835986 1.36352C0.893307 1.25067 0.968162 1.14766 1.05855 1.05729C1.14858 0.96722 1.25165 0.892346 1.36522 0.834591C1.47867 0.776818 1.59752 0.738031 1.73902 0.71257C1.90205 0.683277 2.07704 0.675199 2.2269 0.671141C2.31232 0.66882 2.39775 0.667895 2.48253 0.66731L2.79907 0.666687H28.4443Z" fill="white"/>
<path d="M8.53222 6.72703C8.79971 6.39246 8.98123 5.94323 8.93336 5.48416C8.54179 5.50363 8.06395 5.74249 7.78731 6.07733C7.53891 6.36407 7.31906 6.83211 7.37637 7.27193C7.81593 7.31006 8.25508 7.05222 8.53222 6.72703Z" fill="black"/>
<path d="M8.92844 7.35785C8.29009 7.31982 7.74734 7.72014 7.4425 7.72014C7.13749 7.72014 6.67068 7.37701 6.16578 7.38626C5.50863 7.39591 4.89887 7.76747 4.56539 8.35842C3.87948 9.54062 4.38438 11.2942 5.05139 12.2571C5.3753 12.7334 5.76567 13.2579 6.28005 13.2391C6.76605 13.22 6.95654 12.9244 7.54729 12.9244C8.1376 12.9244 8.3092 13.2391 8.82366 13.2295C9.35716 13.22 9.6907 12.753 10.0146 12.2761C10.3862 11.7331 10.5383 11.2088 10.5479 11.18C10.5383 11.1705 9.51913 10.7795 9.50968 9.60714C9.50006 8.6255 10.3099 8.15857 10.348 8.12962C9.89067 7.45327 9.17615 7.37701 8.92844 7.35785Z" fill="black"/>
<path d="M14.4855 6.02921C15.8729 6.02921 16.839 6.98557 16.839 8.37797C16.839 9.77535 15.853 10.7367 14.4507 10.7367H12.9146V13.1796H11.8047V6.02921H14.4855V6.02921ZM12.9146 9.80507H14.1881C15.1544 9.80507 15.7043 9.28483 15.7043 8.38294C15.7043 7.48115 15.1544 6.96579 14.193 6.96579H12.9146V9.80507Z" fill="black"/>
<path d="M17.1289 11.6978C17.1289 10.786 17.8276 10.2261 19.0665 10.1567L20.4935 10.0725V9.67118C20.4935 9.0914 20.102 8.74454 19.448 8.74454C18.8285 8.74454 18.442 9.04179 18.3479 9.50764H17.3371C17.3965 8.56609 18.1992 7.87238 19.4876 7.87238C20.7512 7.87238 21.5588 8.54134 21.5588 9.58688V13.1794H20.5331V12.3222H20.5084C20.2062 12.902 19.5471 13.2686 18.8633 13.2686C17.8425 13.2686 17.1289 12.6343 17.1289 11.6978ZM20.4935 11.2271V10.8158L19.2101 10.8951C18.5708 10.9397 18.2091 11.2221 18.2091 11.6681C18.2091 12.1239 18.5857 12.4213 19.1605 12.4213C19.9087 12.4213 20.4935 11.9059 20.4935 11.2271Z" fill="black"/>
<path d="M22.5271 15.0971V14.2299C22.6062 14.2497 22.7846 14.2497 22.8738 14.2497C23.3693 14.2497 23.637 14.0416 23.8004 13.5065C23.8004 13.4965 23.8946 13.1893 23.8946 13.1843L22.0117 7.96648H23.1711L24.4893 12.2082H24.509L25.8272 7.96648H26.957L25.0045 13.4519C24.5587 14.7155 24.0434 15.1218 22.9631 15.1218C22.8738 15.1218 22.6062 15.1119 22.5271 15.0971Z" fill="black"/>
</svg>
