<svg width="40" height="20" viewBox="0 0 40 20" fill="none" xmlns="http://www.w3.org/2000/svg">
<path fill-rule="evenodd" clip-rule="evenodd" d="M15.2891 17.8619H24.5198L24.5198 2.13806H15.2891L15.2891 17.8619Z" fill="#FF5F00"/>
<path fill-rule="evenodd" clip-rule="evenodd" d="M16.0904 10C16.0904 6.81 17.5817 3.96917 19.9038 2.13806C18.2054 0.798889 16.0627 0 13.7336 0C8.21986 0 3.75 4.47722 3.75 10C3.75 15.5228 8.21986 20 13.7336 20C16.0627 20 18.2054 19.2011 19.9038 17.8619C17.5817 16.0308 16.0904 13.1897 16.0904 10Z" fill="#EB001B"/>
<path fill-rule="evenodd" clip-rule="evenodd" d="M36.0581 10C36.0581 15.5228 31.5882 20 26.0746 20C23.7455 20 21.6025 19.2011 19.9043 17.8619C22.2265 16.0308 23.7175 13.1897 23.7175 10C23.7175 6.81 22.2265 3.96917 19.9043 2.13806C21.6025 0.798889 23.7455 0 26.0746 0C31.5882 0 36.0581 4.47722 36.0581 10Z" fill="#F79E1B"/>
</svg>
