<svg width="34" height="18" viewBox="0 0 34 18" fill="none" xmlns="http://www.w3.org/2000/svg">
<path d="M24.7965 0H8.98423C4.0429 0 0 4.01572 0 8.92382C0 13.8319 4.0429 17.8476 8.98423 17.8476H24.7965C29.7378 17.8476 33.7807 13.8319 33.7807 8.92382C33.7807 4.01572 29.7378 0 24.7965 0Z" fill="white"/>
<path d="M24.7965 0.722829C25.906 0.722829 26.9841 0.941463 27.9994 1.36981C28.9831 1.78476 29.8636 2.3782 30.6272 3.13226C31.3864 3.88632 31.9839 4.76532 32.4016 5.74248C32.8329 6.75087 33.053 7.82173 33.053 8.92382C33.053 10.0259 32.8329 11.0968 32.4016 12.1052C31.9839 13.0823 31.3864 13.9568 30.6272 14.7154C29.8681 15.4694 28.9831 16.0629 27.9994 16.4778C26.9841 16.9062 25.906 17.1248 24.7965 17.1248H8.98423C7.87468 17.1248 6.79657 16.9062 5.78135 16.4778C4.79758 16.0629 3.91712 15.4694 3.15347 14.7154C2.3943 13.9613 1.79685 13.0823 1.37908 12.1052C0.947836 11.0968 0.727723 10.0259 0.727723 8.92382C0.727723 7.82173 0.947836 6.75087 1.37908 5.74248C1.79685 4.76532 2.3943 3.89078 3.15347 3.13226C3.91263 2.3782 4.79758 1.78476 5.78135 1.36981C6.79657 0.941463 7.87468 0.722829 8.98423 0.722829H24.7965ZM24.7965 0H8.98423C4.0429 0 0 4.01572 0 8.92382C0 13.8319 4.0429 17.8476 8.98423 17.8476H24.7965C29.7378 17.8476 33.7807 13.8319 33.7807 8.92382C33.7807 4.01572 29.7378 0 24.7965 0Z" fill="#3C4043"/>
<path d="M16.1457 9.55773V12.2572H15.2832V5.59109H17.5697C18.1492 5.59109 18.6433 5.78296 19.0476 6.16668C19.4609 6.55041 19.6675 7.01891 19.6675 7.57218C19.6675 8.13885 19.4609 8.60735 19.0476 8.98661C18.6478 9.36587 18.1537 9.55327 17.5697 9.55327H16.1457V9.55773ZM16.1457 6.41209V8.73674H17.5877C17.9291 8.73674 18.2166 8.62073 18.4412 8.39317C18.6703 8.16562 18.787 7.88898 18.787 7.57664C18.787 7.26877 18.6703 6.9966 18.4412 6.76904C18.2166 6.53256 17.9336 6.41655 17.5877 6.41655H16.1457V6.41209Z" fill="#3C4043"/>
<path d="M21.9234 7.54572C22.5613 7.54572 23.0644 7.71527 23.4328 8.05437C23.8011 8.39348 23.9853 8.85752 23.9853 9.44649V12.2575H23.1632V11.6239H23.1273C22.7724 12.1459 22.2963 12.4047 21.7033 12.4047C21.1957 12.4047 20.7734 12.2575 20.432 11.9585C20.0906 11.6596 19.9199 11.2893 19.9199 10.8431C19.9199 10.3701 20.0996 9.9953 20.459 9.71866C20.8183 9.43756 21.299 9.29925 21.8965 9.29925C22.4086 9.29925 22.8308 9.39295 23.1587 9.58035V9.38402C23.1587 9.08507 23.0419 8.83521 22.8039 8.6255C22.5658 8.41579 22.2873 8.31316 21.9683 8.31316C21.4877 8.31316 21.1058 8.51395 20.8273 8.91998L20.0682 8.44702C20.4859 7.84466 21.1058 7.54572 21.9234 7.54572ZM20.8094 10.8565C20.8094 11.0795 20.9037 11.2669 21.0969 11.4142C21.2855 11.5614 21.5101 11.6373 21.7662 11.6373C22.13 11.6373 22.4535 11.5034 22.7365 11.2357C23.0195 10.968 23.1632 10.6557 23.1632 10.2943C22.8937 10.0845 22.5209 9.97746 22.0402 9.97746C21.6898 9.97746 21.3978 10.0622 21.1642 10.2273C20.9262 10.4013 20.8094 10.611 20.8094 10.8565Z" fill="#3C4043"/>
<path d="M28.6749 7.69238L25.8 14.2603H24.9105L25.9797 11.9624L24.084 7.69238H25.0228L26.3884 10.9674H26.4064L27.7361 7.69238H28.6749Z" fill="#3C4043"/>
<path d="M12.7145 9.01232C12.7145 8.733 12.6893 8.46573 12.6426 8.20872H9.02734V9.68116L11.1094 9.6816C11.025 10.1715 10.7532 10.5892 10.3368 10.8676V11.8229H11.5762C12.2998 11.1576 12.7145 10.1742 12.7145 9.01232Z" fill="#4285F4"/>
<path d="M10.3361 10.868C9.99106 11.0992 9.54679 11.2343 9.02705 11.2343C8.02307 11.2343 7.17136 10.5624 6.86635 9.65662H5.58789V10.6418C6.22128 11.8903 7.52309 12.7469 9.02705 12.7469C10.0665 12.7469 10.9398 12.4074 11.5754 11.8229L10.3361 10.868Z" fill="#34A853"/>
<path d="M6.74699 8.92568C6.74699 8.67135 6.78966 8.4255 6.86737 8.19437V7.20918H5.58892C5.32703 7.72543 5.17969 8.30815 5.17969 8.92568C5.17969 9.54321 5.32748 10.1259 5.58892 10.6422L6.86737 9.65699C6.78966 9.42586 6.74699 9.18001 6.74699 8.92568Z" fill="#FABB05"/>
<path d="M9.02705 6.61659C9.59441 6.61659 10.1025 6.81068 10.5036 7.18995L11.6019 6.0999C10.9349 5.48282 10.0652 5.104 9.02705 5.104C7.52354 5.104 6.22128 5.96069 5.58789 7.20913L6.86635 8.19432C7.17136 7.28855 8.02307 6.61659 9.02705 6.61659Z" fill="#E94235"/>
</svg>
