<svg width="40" height="20" viewBox="0 0 40 20" fill="none" xmlns="http://www.w3.org/2000/svg">
<path d="M25.5531 6.30852C24.5909 6.42857 24.1513 6.89076 24.1401 7.32293C24.1266 7.89478 24.8784 8.26506 25.7822 8.71022C27.129 9.37364 28.8135 10.2034 28.8059 12.1143C28.7931 14.6234 26.5026 16.25 23.0117 16.25C21.5187 16.235 20.0818 15.9424 19.305 15.6077L19.906 12.9592L19.9894 12.9954C20.7525 13.3266 21.7125 13.7432 23.3297 13.7215C24.2856 13.7065 25.3134 13.3508 25.3197 12.539C25.3277 12.0063 24.8914 11.6282 23.5935 11.0384C22.3339 10.4592 20.6604 9.48529 20.678 7.7476C20.6988 5.39466 23.0133 3.75 26.306 3.75C27.5863 3.75 28.622 4.01411 29.4212 4.28872L28.8378 6.84724C27.3449 6.20648 26.031 6.25 25.5531 6.30852Z" fill="#1A1F71"/>
<path fill-rule="evenodd" clip-rule="evenodd" d="M33.1379 4.71813C33.3747 4.16187 33.9082 3.80493 34.5396 3.80493H37.3479L39.9998 16.2498H36.9501L36.5554 14.391H32.3455L31.6604 16.2498H28.205L33.1379 4.71813ZM35.0385 7.16736L33.291 11.8415H36.0219L35.0385 7.16736Z" fill="#1A1F71"/>
<path d="M16.4423 3.97339L13.6914 16.0592H17.0209L19.7685 3.97339H16.4423Z" fill="#1A1F71"/>
<path d="M8.24877 12.2756L11.5428 3.80493H14.8718L9.74385 16.2498H6.39663L3.86989 6.31739C3.71947 5.7055 3.58576 5.48145 3.12083 5.22186C2.35961 4.80312 1.10308 4.41219 0 4.16496L0.0729307 3.80493H5.45765C6.14594 3.80493 6.76281 4.27003 6.91627 5.07352L8.24877 12.2756Z" fill="#1A1F71"/>
</svg>
