<svg width="24" height="24" viewBox="0 0 24 24" fill="none" xmlns="http://www.w3.org/2000/svg">
<path d="M16.2578 6.49458H16.2576H14.9152L14.9107 6.49456L14.9058 6.49454C14.5562 6.49454 14.2725 6.77783 14.2725 7.12862C14.2725 7.47823 14.5566 7.76269 14.9059 7.76269H16.3077C17.3468 7.76269 18.1921 8.60831 18.1921 9.64766C18.1921 10.6341 17.4243 11.5327 16.2539 11.5327H16.2324V11.5542V12.1292C16.2324 12.4746 15.9523 12.7547 15.6069 12.7547C15.2614 12.7547 14.9814 12.4746 14.9814 12.1292V11.5542V11.5327H14.9598C14.4755 11.5327 14.0604 11.4528 13.5988 11.1324L13.5865 11.1501L13.5988 11.1324C13.315 10.9354 13.2447 10.5457 13.4417 10.2619L13.424 10.2496L13.4417 10.2619C13.6387 9.97809 14.0284 9.9077 14.3122 10.1048L14.3122 10.1048C14.4736 10.2168 14.6585 10.2799 14.8336 10.2817H14.8339H16.2985L16.303 10.2817L16.3079 10.2817C16.6574 10.2817 16.9411 9.99849 16.9411 9.64766C16.9411 9.29805 16.657 9.01363 16.3078 9.01363H14.9059C13.8669 9.01363 13.0216 8.16797 13.0216 7.12857C13.0216 6.13445 13.7977 5.24356 14.9598 5.24356H14.9813V5.22199V4.64706C14.9813 4.30162 15.2614 4.02157 15.6068 4.02157C15.9523 4.02157 16.2323 4.30162 16.2323 4.64706V5.22204V5.2436H16.2539H16.2603H16.2603H16.2603H16.2603H16.2604H16.2604H16.2604H16.2604H16.2604H16.2604H16.2604H16.2604H16.2604H16.2604H16.2604H16.2605H16.2605H16.2605H16.2605H16.2605H16.2605H16.2605H16.2605H16.2605H16.2605H16.2605H16.2606H16.2606H16.2606H16.2606H16.2606H16.2606H16.2606H16.2606H16.2606H16.2606H16.2607H16.2607H16.2607H16.2607H16.2607H16.2607H16.2607H16.2607H16.2607H16.2607H16.2607H16.2608H16.2608H16.2608H16.2608H16.2608H16.2608H16.2608H16.2608H16.2608H16.2608H16.2608H16.2609H16.2609H16.2609H16.2609H16.2609H16.2609H16.2609H16.2609H16.2609H16.2609H16.2609H16.261H16.261H16.261H16.261H16.261H16.261H16.261H16.261H16.261H16.261H16.2611H16.2611H16.2611H16.2611H16.2611H16.2611H16.2611H16.2611H16.2611H16.2611H16.2611H16.2612H16.2612H16.2612H16.2612H16.2612H16.2612H16.2612H16.2612H16.2612H16.2612H16.2612H16.2613H16.2613H16.2613H16.2613H16.2613H16.2613H16.2613H16.2613H16.2613H16.2613H16.2614H16.2614H16.2614H16.2614H16.2614H16.2614H16.2614H16.2614H16.2614H16.2614H16.2614H16.2615H16.2615H16.2615H16.2615H16.2615H16.2615H16.2615H16.2615H16.2615H16.2615H16.2615H16.2616H16.2616H16.2616H16.2616H16.2616H16.2616H16.2616H16.2616H16.2616H16.2616H16.2617H16.2617H16.2617H16.2617H16.2617H16.2617H16.2617H16.2617H16.2617H16.2617H16.2617H16.2618H16.2618H16.2618H16.2618H16.2618H16.2618H16.2618H16.2618H16.2618H16.2618H16.2618H16.2619H16.2619H16.2619H16.2619H16.2619H16.2619H16.2619H16.2619H16.2619H16.2619H16.262H16.262H16.262H16.262H16.262H16.262H16.262H16.262H16.262H16.262H16.262H16.2621H16.2621H16.2621H16.2621H16.2621H16.2621H16.2621H16.2621H16.2621H16.2621H16.2621H16.2622H16.2622H16.2622H16.2622H16.2622H16.2622H16.2622H16.2622H16.2622H16.2622H16.2623H16.2623H16.2623H16.2623H16.2623H16.2623H16.2623H16.2623H16.2623H16.2623H16.2623H16.2624H16.2624H16.2624H16.2624H16.2624H16.2624H16.2624H16.2624H16.2624H16.2624H16.2624H16.2625H16.2625H16.2625H16.2625H16.2625H16.2625H16.2625H16.2625H16.2625H16.2625H16.2626H16.2626H16.2626H16.2626H16.2626H16.2626H16.2626H16.2626H16.2626H16.2626H16.2626H16.2627H16.2627H16.2627H16.2627H16.2627H16.2627H16.2627H16.2627H16.2627H16.2627H16.2628H16.2628H16.2628H16.2628H16.2628H16.2628H16.2628H16.2628H16.2628H16.2628H16.2628H16.2629H16.2629H16.2629H16.2629H16.2629H16.2629H16.2629H16.2629H16.2629H16.2629H16.2629H16.263H16.263H16.263H16.263H16.263H16.263H16.263H16.263H16.263H16.263H16.2631H16.2631H16.2631H16.2631H16.2631H16.2631H16.2631H16.2631H16.2631H16.2631H16.2631H16.2632H16.2632H16.2632H16.2632H16.2632H16.2632H16.2632H16.2632H16.2632H16.2632H16.2633H16.2633H16.2633H16.2633H16.2633H16.2633H16.2633H16.2633H16.2633H16.2633H16.2633H16.2634H16.2634H16.2634H16.2634H16.2634H16.2634H16.2634H16.2634H16.2634H16.2634H16.2634H16.2635H16.2635H16.2635H16.2635H16.2635H16.2635H16.2635H16.2635H16.2635H16.2635H16.2636H16.2636H16.2636H16.2636H16.2636H16.2636H16.2636H16.2636H16.2636H16.2636H16.2636H16.2637H16.2637H16.2637H16.2637H16.2637H16.2637H16.2637H16.2637H16.2637H16.2637H16.2638H16.2638H16.2638H16.2638H16.2638H16.2638H16.2638H16.2638H16.2638H16.2638H16.2638H16.2639H16.2639H16.2639H16.2639H16.2639H16.2639H16.2639H16.2639H16.2639H16.2639H16.264H16.264H16.264H16.264H16.264H16.264H16.264H16.264H16.264H16.264H16.264H16.2641H16.2641H16.2641H16.2641H16.2641H16.2641H16.2641H16.2641H16.2641H16.2641H16.2642H16.2642H16.2642H16.2642H16.2642H16.2642H16.2642H16.2642H16.2642H16.2642H16.2642H16.2643H16.2643H16.2643H16.2643H16.2643H16.2643H16.2643H16.2643H16.2643H16.2643H16.2644H16.2644H16.2644H16.2644H16.2644H16.2644H16.2644H16.2644H16.2644H16.2644H16.2644H16.2645H16.2645H16.2645H16.2645H16.2645H16.2645H16.2645H16.2645H16.2645H16.2645H16.2646H16.2646H16.2646H16.2646H16.2646H16.2646H16.2646H16.2646H16.2646H16.2646H16.2646H16.2647H16.2647H16.2647H16.2647H16.2647H16.2647H16.2647H16.2647H16.2647H16.2647H16.2648H16.2648H16.2648H16.2648H16.2648H16.2648H16.2648H16.2648H16.2648H16.2648H16.2648H16.2649H16.2649H16.2649H16.2649H16.2649H16.2649H16.2649H16.2649H16.2649H16.2649H16.265H16.265H16.265H16.265H16.265H16.265H16.265H16.265H16.265H16.265H16.265H16.2651H16.2651C16.8536 5.24802 17.4279 5.50301 17.8406 5.94354C18.0768 6.19566 18.0638 6.59147 17.8117 6.82765C17.5596 7.06375 17.1638 7.05091 16.9276 6.7988C16.749 6.60809 16.5051 6.49706 16.2578 6.49458Z" fill="white" stroke="white" stroke-width="0.0431373"/>
<path d="M23 15.97C23 19.84 19.87 22.97 16 22.97L17.05 21.22" stroke="#33C4AC" stroke-width="1.5" stroke-linecap="round" stroke-linejoin="round"/>
<path d="M1 7.96997C1 4.09997 4.13 0.969971 8 0.969971L6.95 2.71997" stroke="#33C4AC" stroke-width="1.5" stroke-linecap="round" stroke-linejoin="round"/>
<path d="M21.5 8.66998C21.5 12.08 18.74 14.84 15.33 14.84H14.84C14.61 11.81 12.19 9.38997 9.16 9.15997V8.66998C9.16 5.25998 11.92 2.5 15.33 2.5C18.74 2.5 21.5 5.25998 21.5 8.66998Z" stroke="white" stroke-width="1.5" stroke-miterlimit="10" stroke-linecap="round" stroke-linejoin="round"/>
<path d="M14.85 15.33C14.85 18.74 12.09 21.4999 8.68001 21.4999C5.27001 21.4999 2.51001 18.74 2.51001 15.33C2.51001 11.92 5.27001 9.15991 8.68001 9.15991C8.84001 9.15991 8.99001 9.16993 9.16001 9.17993C12.19 9.40993 14.61 11.8299 14.84 14.8599C14.84 15.0099 14.85 15.16 14.85 15.33Z" stroke="#33C4AC" stroke-width="1.5" stroke-miterlimit="10" stroke-linecap="round" stroke-linejoin="round"/>
<path d="M10.8673 17.8016C9.96397 17.5149 9.01995 17.4238 8.08961 17.5294C8.22075 17.1271 8.31311 16.7143 8.36629 16.2953H9.14169C9.49904 16.2953 9.78875 16.0056 9.78875 15.6482C9.78875 15.2909 9.49904 15.0011 9.14169 15.0011H8.40503C8.39166 14.7965 8.38342 14.7382 8.32864 14.2383C8.23792 13.41 9.26609 12.967 9.81044 13.5809C10.0475 13.8483 10.4565 13.873 10.7239 13.6358C10.9912 13.3987 11.0159 12.9897 10.7787 12.7223C9.40551 11.1734 6.8137 12.2964 7.04228 14.3794C7.10065 14.9119 7.09629 14.8642 7.10729 15.0011H6.64706C6.28971 15.0011 6 15.2908 6 15.6482C6 16.0055 6.28971 16.2952 6.64706 16.2952H7.05885C6.95929 16.925 6.74934 17.5352 6.4328 18.1033C6.15327 18.605 6.62044 19.1971 7.17338 19.0411C8.26906 18.7327 9.29077 18.6588 10.4757 19.035C10.8158 19.143 11.18 18.9552 11.2883 18.6141C11.3963 18.2735 11.2078 17.9098 10.8673 17.8016Z" fill="#33C4AC"/>
</svg>
