<svg width="24" height="24" viewBox="0 0 24 24" fill="none" xmlns="http://www.w3.org/2000/svg">
<path d="M8.80005 11.22H22" stroke="#33C4AC" stroke-width="1.5" stroke-miterlimit="10" stroke-linecap="round" stroke-linejoin="round"/>
<path d="M22 9.42001V14.97C21.98 17.19 21.37 17.74 19.06 17.74H11.7401C9.39005 17.74 8.80005 17.15 8.80005 14.84V9.41C8.80005 7.31 9.28005 6.63999 11.1301 6.51999C11.3201 6.51999 11.5201 6.51001 11.7401 6.51001H19.06C21.41 6.52001 22 7.10001 22 9.42001Z" stroke="#33C4AC" stroke-width="1.5" stroke-linecap="round" stroke-linejoin="round"/>
<path d="M11.3201 15.26H12.6501" stroke="#33C4AC" stroke-width="1.5" stroke-miterlimit="10" stroke-linecap="round" stroke-linejoin="round"/>
<path d="M14.75 15.26H18.02" stroke="#33C4AC" stroke-width="1.5" stroke-miterlimit="10" stroke-linecap="round" stroke-linejoin="round"/>
<path d="M16.092 2.87537C11.0553 0.616627 5.13435 2.87122 2.87561 7.90793C0.616872 12.9446 2.87146 18.8656 7.90818 21.1243C10.8904 22.4617 14.1827 22.2168 16.8411 20.749" stroke="white" stroke-width="1.5" stroke-linecap="round" stroke-linejoin="round"/>
</svg>
