<svg width="30" height="31" viewBox="0 0 30 31" fill="none" xmlns="http://www.w3.org/2000/svg">
<g filter="url(#filter0_d_2290_21827)">
<path d="M25 10.9V4.1C25 2.6 24.36 2 22.77 2H18.73C17.14 2 16.5 2.6 16.5 4.1V10.9C16.5 12.4 17.14 13 18.73 13H22.77C24.36 13 25 12.4 25 10.9Z" stroke="white" stroke-width="1.8" stroke-linecap="round" stroke-linejoin="round"/>
<path d="M25 19.9V18.1C25 16.6 24.36 16 22.77 16H18.73C17.14 16 16.5 16.6 16.5 18.1V19.9C16.5 21.4 17.14 22 18.73 22H22.77C24.36 22 25 21.4 25 19.9Z" stroke="#33C4AC" stroke-width="1.8" stroke-linecap="round" stroke-linejoin="round"/>
<path d="M13.5 13.1V19.9C13.5 21.4 12.86 22 11.27 22H7.23C5.64 22 5 21.4 5 19.9V13.1C5 11.6 5.64 11 7.23 11H11.27C12.86 11 13.5 11.6 13.5 13.1Z" stroke="white" stroke-width="1.8" stroke-linecap="round" stroke-linejoin="round"/>
<path d="M13.5 4.1V5.9C13.5 7.4 12.86 8 11.27 8H7.23C5.64 8 5 7.4 5 5.9V4.1C5 2.6 5.64 2 7.23 2H11.27C12.86 2 13.5 2.6 13.5 4.1Z" stroke="#33C4AC" stroke-width="1.8" stroke-linecap="round" stroke-linejoin="round"/>
</g>
<defs>
<filter id="filter0_d_2290_21827" x="-1" y="0" width="32" height="32" filterUnits="userSpaceOnUse" color-interpolation-filters="sRGB">
<feFlood flood-opacity="0" result="BackgroundImageFix"/>
<feColorMatrix in="SourceAlpha" type="matrix" values="0 0 0 0 0 0 0 0 0 0 0 0 0 0 0 0 0 0 127 0" result="hardAlpha"/>
<feOffset dy="4"/>
<feGaussianBlur stdDeviation="2"/>
<feComposite in2="hardAlpha" operator="out"/>
<feColorMatrix type="matrix" values="0 0 0 0 0 0 0 0 0 0 0 0 0 0 0 0 0 0 0.25 0"/>
<feBlend mode="normal" in2="BackgroundImageFix" result="effect1_dropShadow_2290_21827"/>
<feBlend mode="normal" in="SourceGraphic" in2="effect1_dropShadow_2290_21827" result="shape"/>
</filter>
</defs>
</svg>
