<svg width="24" height="24" viewBox="0 0 24 24" fill="none" xmlns="http://www.w3.org/2000/svg">
<path d="M22 10.9699V13.03C22 13.58 21.56 14.0299 21 14.0499H19.04C17.96 14.0499 16.97 13.2599 16.88 12.1799C16.82 11.5499 17.06 10.9599 17.48 10.5499C17.85 10.1699 18.36 9.94995 18.92 9.94995H21C21.56 9.96995 22 10.4199 22 10.9699Z" stroke="white" stroke-width="1.5" stroke-linecap="round" stroke-linejoin="round"/>
<path d="M2 10.5V8.5C2 5.78 3.64 3.88 6.19 3.56C6.45 3.52 6.72 3.5 7 3.5H16C16.26 3.5 16.51 3.50999 16.75 3.54999C19.33 3.84999 21 5.76 21 8.5V9.95001H18.92C18.36 9.95001 17.85 10.17 17.48 10.55C17.06 10.96 16.82 11.55 16.88 12.18C16.97 13.26 17.96 14.05 19.04 14.05H21V15.5C21 18.5 19 20.5 16 20.5H13.5" stroke="white" stroke-width="1.5" stroke-linecap="round" stroke-linejoin="round"/>
<path d="M5.2851 17.635L8.55508 14.365" stroke="#33C4AC" stroke-width="1.2" stroke-linecap="round" stroke-linejoin="round"/>
<path d="M5.48994 15.1848C5.8296 15.1848 6.10493 14.9095 6.10493 14.5698C6.10493 14.2302 5.8296 13.9548 5.48994 13.9548C5.15029 13.9548 4.87494 14.2302 4.87494 14.5698C4.87494 14.9095 5.15029 15.1848 5.48994 15.1848Z" stroke="#33C4AC" stroke-linecap="round" stroke-linejoin="round"/>
<path d="M8.76007 18.0449C9.09973 18.0449 9.37508 17.7696 9.37508 17.4299C9.37508 17.0903 9.09973 16.8149 8.76007 16.8149C8.42042 16.8149 8.14508 17.0903 8.14508 17.4299C8.14508 17.7696 8.42042 18.0449 8.76007 18.0449Z" stroke="#33C4AC" stroke-linecap="round" stroke-linejoin="round"/>
<path d="M7.00006 21C9.76149 21 12.0001 18.7614 12.0001 16C12.0001 13.2386 9.76149 11 7.00006 11C4.23864 11 2.00006 13.2386 2.00006 16C2.00006 18.7614 4.23864 21 7.00006 21Z" stroke="#33C4AC" stroke-width="1.2" stroke-linecap="round" stroke-linejoin="round"/>
</svg>
