<svg width="18" height="18" viewBox="0 0 18 18" fill="none" xmlns="http://www.w3.org/2000/svg">
<path fill-rule="evenodd" clip-rule="evenodd" d="M2.56362 13.7273C4.04334 11.769 6.37417 10.5 9.00001 10.5C11.6259 10.5 13.9567 11.769 15.4364 13.7273C15.4431 13.7362 15.4498 13.7451 15.4566 13.754C15.5838 13.9222 15.7202 14.1026 15.8177 14.2767C15.9357 14.4873 16.0232 14.731 16.0177 15.0274C16.0134 15.2657 15.9412 15.4887 15.8535 15.6648C15.7659 15.8409 15.6315 16.0329 15.444 16.18C15.194 16.3762 14.9218 16.4457 14.68 16.4747C14.4679 16.5001 14.2165 16.5001 13.9638 16.5C13.9524 16.5 13.941 16.5 13.9296 16.5H4.07044C4.05904 16.5 4.04765 16.5 4.03627 16.5C3.78352 16.5001 3.53213 16.5001 3.31999 16.4747C3.0782 16.4457 2.80602 16.3762 2.55603 16.18C2.36857 16.0329 2.23415 15.8409 2.14649 15.6648C2.05884 15.4887 1.98665 15.2657 1.98229 15.0274C1.97687 14.731 2.06433 14.4873 2.18233 14.2767C2.27982 14.1026 2.41624 13.9222 2.54347 13.754C2.55021 13.7451 2.55693 13.7362 2.56362 13.7273Z" fill="white"/>
<path fill-rule="evenodd" clip-rule="evenodd" d="M4.87501 5.625C4.87501 3.34683 6.72184 1.5 9.00001 1.5C11.2782 1.5 13.125 3.34683 13.125 5.625C13.125 7.90317 11.2782 9.75 9.00001 9.75C6.72184 9.75 4.87501 7.90317 4.87501 5.625Z" fill="white"/>
</svg>
