<svg width="24" height="24" viewBox="0 0 24 24" fill="none" xmlns="http://www.w3.org/2000/svg">
<path d="M8.52506 8.625C8.52506 8.8786 8.73083 9.08438 8.98444 9.08438C9.23804 9.08438 9.44381 8.8786 9.44381 8.625V8.26562C9.44381 8.01202 9.23804 7.80625 8.98444 7.80625C8.73083 7.80625 8.52506 8.01202 8.52506 8.26562V8.625Z" fill="#33C4AC" stroke="#33C4AC" stroke-width="0.2"/>
<path d="M13.5563 8.625C13.5563 8.8786 13.7621 9.08438 14.0157 9.08438C14.2693 9.08438 14.4751 8.8786 14.4751 8.625V8.26562C14.4751 8.01202 14.2693 7.80625 14.0157 7.80625C13.7621 7.80625 13.5563 8.01202 13.5563 8.26562V8.625Z" fill="#33C4AC" stroke="#33C4AC" stroke-width="0.2"/>
<path d="M12.6135 9.37011L12.6136 9.36988C12.6591 9.23805 12.6219 9.11235 12.5418 9.02352C12.4635 8.93668 12.3447 8.88437 12.2187 8.88437H10.7812C10.6551 8.88437 10.5363 8.93668 10.458 9.02352C10.3779 9.11235 10.3407 9.23805 10.3862 9.36988L10.3862 9.36988L10.3863 9.37011C10.5464 9.83085 10.9837 10.1625 11.4999 10.1625C12.0161 10.1625 12.4534 9.83085 12.6135 9.37011Z" fill="#33C4AC" stroke="#33C4AC" stroke-width="0.2"/>
<path d="M4.15179 19.4911L4.15178 19.491C4.12748 19.3851 3.73234 17.4746 5.89504 14.1155C6.0806 13.8232 6.29364 13.5659 6.54337 13.3317L6.54385 13.3312L6.54385 13.3312C6.72877 13.16 7.01965 13.1675 7.19297 13.3528L7.12134 13.4198L7.19297 13.3528C7.36577 13.5376 7.35652 13.8285 7.17191 14.0021L7.17171 14.0023C6.9789 14.1826 6.81468 14.3809 6.66964 14.6096L6.66928 14.6102C5.40123 16.5803 5.09814 17.9718 5.04049 18.7005C5.34853 18.5295 5.77137 18.2441 6.26575 17.778L6.26583 17.7779C6.4512 17.6036 6.74162 17.6126 6.91536 17.7974C7.08882 17.9818 7.08082 18.2729 6.896 18.4468L4.15179 19.4911ZM4.15179 19.4911C4.20054 19.7035 4.38986 19.8476 4.59928 19.8476M4.15179 19.4911L4.59928 19.8476M4.59928 19.8476C4.63004 19.8476 4.6633 19.8451 4.69817 19.8363M4.59928 19.8476L4.69817 19.8363M4.69817 19.8363C4.77329 19.8201 5.67227 19.6001 6.89595 18.4468L4.69817 19.8363Z" fill="white" stroke="white" stroke-width="0.2"/>
<path d="M18.3247 19.7396L18.303 19.8372C18.3373 19.8448 18.3699 19.8475 18.4009 19.8475C18.6107 19.8475 18.7986 19.7032 18.8489 19.4918L18.8489 19.4918L18.8491 19.4908C18.8733 19.3843 19.2686 17.4747 17.1066 14.1169C16.9189 13.821 16.7051 13.563 16.4538 13.3287C16.2689 13.1549 15.9769 13.1652 15.8041 13.3508C15.6317 13.536 15.6405 13.8271 15.8264 14.0002C16.0206 14.1812 16.1855 14.3801 16.3327 14.6118L16.3327 14.6118L16.333 14.6123C17.6008 16.5819 17.9034 17.9733 17.9611 18.7005C17.6659 18.5366 17.2651 18.2678 16.7969 17.8355L16.7968 17.8354C16.6105 17.6638 16.3194 17.6745 16.1473 17.8613L16.1472 17.8615C15.9759 18.0483 15.9864 18.3385 16.1732 18.5107C17.3782 19.6233 18.2513 19.8259 18.3032 19.8373L18.3247 19.7396ZM18.3247 19.7396C18.2887 19.7317 17.432 19.5369 16.241 18.4372L17.0223 14.1707C19.1706 17.5072 18.7696 19.3896 18.7516 19.4686C18.7121 19.6347 18.5647 19.7475 18.4009 19.7475C18.3757 19.7475 18.3506 19.7453 18.3247 19.7396Z" fill="white" stroke="white" stroke-width="0.2"/>
<path d="M10.3626 22.0011L10.3625 22.001C9.34961 21.2388 7.53906 19.471 6.74176 16.1687C6.68213 15.9226 6.83348 15.6736 7.08071 15.6146C7.32466 15.555 7.57589 15.7064 7.63484 15.9537M10.3626 22.0011L15.3654 15.9535C14.631 18.9708 12.9913 20.5768 12.0837 21.2642L12.0836 21.2643C11.7348 21.529 11.2658 21.5298 10.9155 21.2669C10.0074 20.584 8.3664 18.9824 7.63484 15.9537M10.3626 22.0011C10.6976 22.2525 11.0976 22.3776 11.4972 22.3776C11.8992 22.3776 12.3022 22.2502 12.6385 21.9958L12.6385 21.9958C13.6498 21.2308 15.4581 19.4588 16.2583 16.1703L16.2583 16.1702M10.3626 22.0011L16.2583 16.1702M7.63484 15.9537C7.63485 15.9538 7.63487 15.9539 7.63488 15.9539L7.5376 15.9771M7.63484 15.9537C7.63483 15.9537 7.63481 15.9536 7.6348 15.9536L7.5376 15.9771M7.5376 15.9771C7.4916 15.7837 7.29466 15.6651 7.10419 15.7118L7.5376 15.9771ZM16.2583 16.1702C16.318 15.9243 16.1676 15.6753 15.9204 15.6154M16.2583 16.1702L15.9204 15.6154M15.9204 15.6154C15.6729 15.5548 15.425 15.7075 15.3654 15.9534L15.9204 15.6154Z" fill="white" stroke="white" stroke-width="0.2"/>
<path d="M8.52506 2.51562C8.52506 2.76923 8.73083 2.975 8.98444 2.975C9.23804 2.975 9.44381 2.76923 9.44381 2.51562V1.07812C9.44381 0.824522 9.23804 0.61875 8.98444 0.61875C8.73083 0.61875 8.52506 0.824522 8.52506 1.07812V2.51562Z" fill="#33C4AC" stroke="#33C4AC" stroke-width="0.2"/>
<path d="M13.5563 2.51562C13.5563 2.76923 13.7621 2.975 14.0157 2.975C14.2693 2.975 14.4751 2.76923 14.4751 2.51562V1.07812C14.4751 0.824522 14.2693 0.61875 14.0157 0.61875C13.7621 0.61875 13.5563 0.824522 13.5563 1.07812V2.51562Z" fill="#33C4AC" stroke="#33C4AC" stroke-width="0.2"/>
<path d="M7.40318 12.6267H15.5969C16.9384 12.6267 17.9996 11.3674 17.9996 9.86111V5.63889C17.9996 4.13261 16.9384 2.87333 15.5969 2.87333H7.40318C6.06173 2.87333 5.00047 4.13261 5.00047 5.63889V9.86111C5.00047 11.3674 6.06173 12.6267 7.40318 12.6267ZM6.16422 5.63889C6.16422 4.81767 6.73716 4.18222 7.40318 4.18222H15.5969C16.2629 4.18222 16.8359 4.81767 16.8359 5.63889V9.86111C16.8359 10.6823 16.2629 11.3178 15.5969 11.3178H7.40318C6.73716 11.3178 6.16422 10.6823 6.16422 9.86111V5.63889Z" fill="#33C4AC" stroke="#33C4AC" stroke-width="0.253333"/>
<path d="M8.98444 2.975H12.5782C12.8318 2.975 13.0376 2.76923 13.0376 2.51562C13.0376 2.26202 12.8318 2.05625 12.5782 2.05625H8.98444C8.73083 2.05625 8.52506 2.26202 8.52506 2.51562C8.52506 2.76923 8.73083 2.975 8.98444 2.975Z" fill="#33C4AC" stroke="#33C4AC" stroke-width="0.2"/>
</svg>
