<svg width="56" height="56" viewBox="0 0 56 56" fill="none" xmlns="http://www.w3.org/2000/svg">
<rect width="56" height="56" rx="12" fill="#F7F7F7"/>
<path d="M41 22.7701C38.3475 24.2804 37.1508 26.5169 37.41 29.4799C37.6692 32.446 39.1794 34.449 41.9375 35.4888C41.3136 36.7911 40.6097 38.0646 39.8289 39.3157C37.8003 42.4354 35.9541 43.9968 34.2871 43.9968C33.6632 43.9968 32.8312 43.7632 31.7913 43.2929C30.7515 42.8257 29.7372 42.5921 28.7485 42.5921C27.7598 42.5921 26.7583 42.8257 25.744 43.2929C24.7297 43.7632 23.9105 43.9968 23.2834 43.9968C21.514 43.9968 19.6678 42.5409 17.7416 39.626C15.9241 36.8167 14.8682 33.8634 14.5835 30.7693C14.2955 27.6752 14.7531 25.2659 15.9497 23.5508C17.6648 20.8471 19.9013 19.4905 22.6595 19.4905C23.5426 19.4905 24.6241 19.724 25.8975 20.1912C27.171 20.6583 28.1213 20.8951 28.7453 20.8951C29.3692 20.8951 30.2811 20.6615 31.4778 20.1912C32.6745 19.7272 33.7943 19.4905 34.8342 19.4905C37.1764 19.4905 39.2306 20.5847 41 22.7701ZM32.6489 17.2283C31.2954 18.9977 29.6572 19.8296 27.731 19.724C27.4718 18.009 28.0189 16.3196 29.3724 14.6525C30.7259 13.0431 32.3385 12.1568 34.2103 12C34.4695 13.7694 33.9511 15.5132 32.6489 17.2283Z" fill="#18171C"/>
</svg>
