<svg width="20" height="21" viewBox="0 0 20 21" fill="none" xmlns="http://www.w3.org/2000/svg">
<path d="M1.66663 7.45557H10.8333" stroke="#292D32" stroke-width="1.5" stroke-miterlimit="10" stroke-linecap="round" stroke-linejoin="round"/>
<path d="M5 14.1223H6.66667" stroke="#292D32" stroke-width="1.5" stroke-miterlimit="10" stroke-linecap="round" stroke-linejoin="round"/>
<path d="M8.75 14.1223H12.0833" stroke="#292D32" stroke-width="1.5" stroke-miterlimit="10" stroke-linecap="round" stroke-linejoin="round"/>
<path d="M18.3333 9.81408V13.7974C18.3333 16.7224 17.5916 17.4557 14.6333 17.4557H5.36663C2.40829 17.4557 1.66663 16.7224 1.66663 13.7974V6.94741C1.66663 4.02241 2.40829 3.28906 5.36663 3.28906H11.0666" stroke="#292D32" stroke-width="1.5" stroke-linecap="round" stroke-linejoin="round"/>
<path d="M14.1667 3.08081H16.7751C17.3501 3.08081 17.8167 3.60581 17.8167 4.12248C17.8167 4.69748 17.3501 5.16414 16.7751 5.16414H14.1667V3.08081Z" stroke="#292D32" stroke-width="1.5" stroke-miterlimit="10" stroke-linecap="round" stroke-linejoin="round"/>
<path d="M14.1667 5.16406H17.1417C17.8001 5.16406 18.3334 5.63073 18.3334 6.20573C18.3334 6.78073 17.8001 7.2474 17.1417 7.2474H14.1667V5.16406Z" stroke="#292D32" stroke-width="1.5" stroke-miterlimit="10" stroke-linecap="round" stroke-linejoin="round"/>
<path d="M15.6334 7.24731V8.28898" stroke="#292D32" stroke-width="1.5" stroke-miterlimit="10" stroke-linecap="round" stroke-linejoin="round"/>
<path d="M15.6334 2.03906V3.08073" stroke="#292D32" stroke-width="1.5" stroke-miterlimit="10" stroke-linecap="round" stroke-linejoin="round"/>
<path d="M15.1584 3.08081H13.3334" stroke="#292D32" stroke-width="1.5" stroke-miterlimit="10" stroke-linecap="round" stroke-linejoin="round"/>
<path d="M15.1584 7.24731H13.3334" stroke="#292D32" stroke-width="1.5" stroke-miterlimit="10" stroke-linecap="round" stroke-linejoin="round"/>
</svg>
