<svg width="20" height="21" viewBox="0 0 20 21" fill="none" xmlns="http://www.w3.org/2000/svg">
<path d="M19.1667 13.6807C19.1667 16.9057 16.5584 19.514 13.3334 19.514L14.2084 18.0557" stroke="#292D32" stroke-width="1.5" stroke-linecap="round" stroke-linejoin="round"/>
<path d="M0.833374 7.014C0.833374 3.789 3.44171 1.18066 6.66671 1.18066L5.79171 2.639" stroke="#292D32" stroke-width="1.5" stroke-linecap="round" stroke-linejoin="round"/>
<path d="M5.51672 11.2639H7.85839C8.37506 11.2639 8.80006 11.7306 8.80006 12.2056C8.80006 12.7223 8.38339 13.1473 7.85839 13.1473H5.51672V11.2639Z" stroke="#292D32" stroke-width="1.5" stroke-miterlimit="10" stroke-linecap="round" stroke-linejoin="round"/>
<path d="M5.51672 13.1472H8.20006C8.79172 13.1472 9.27506 13.5639 9.27506 14.0889C9.27506 14.6056 8.79172 15.0306 8.20006 15.0306H5.51672V13.1472Z" stroke="#292D32" stroke-width="1.5" stroke-miterlimit="10" stroke-linecap="round" stroke-linejoin="round"/>
<path d="M7.01672 15.0222V15.9555" stroke="#292D32" stroke-width="1.5" stroke-miterlimit="10" stroke-linecap="round" stroke-linejoin="round"/>
<path d="M7.01672 10.3306V11.2639" stroke="#292D32" stroke-width="1.5" stroke-miterlimit="10" stroke-linecap="round" stroke-linejoin="round"/>
<path d="M12.375 13.1473C12.375 15.989 10.075 18.289 7.23334 18.289C4.39168 18.289 2.09167 15.989 2.09167 13.1473C2.09167 10.3057 4.39168 8.00562 7.23334 8.00562C7.36668 8.00562 7.49168 8.01396 7.63334 8.0223C10.1583 8.21396 12.175 10.2306 12.3667 12.7556C12.3667 12.8806 12.375 13.0057 12.375 13.1473Z" stroke="#292D32" stroke-width="1.5" stroke-miterlimit="10" stroke-linecap="round" stroke-linejoin="round"/>
<path d="M17.9166 7.59722C17.9166 10.4389 15.6166 12.7389 12.775 12.7389H12.3666C12.175 10.2139 10.1583 8.19721 7.6333 8.00554V7.59722C7.6333 4.75555 9.9333 2.45557 12.775 2.45557C15.6166 2.45557 17.9166 4.75555 17.9166 7.59722Z" stroke="#292D32" stroke-width="1.5" stroke-miterlimit="10" stroke-linecap="round" stroke-linejoin="round"/>
</svg>
