<svg width="16" height="17" viewBox="0 0 16 17" fill="none" xmlns="http://www.w3.org/2000/svg">
<path d="M10.6673 9.1V11.9C10.6673 14.2333 9.73398 15.1667 7.40065 15.1667H4.60065C2.26732 15.1667 1.33398 14.2333 1.33398 11.9V9.1C1.33398 6.76667 2.26732 5.83334 4.60065 5.83334H7.40065C9.73398 5.83334 10.6673 6.76667 10.6673 9.1Z" stroke="#33C4AC" stroke-width="1.5" stroke-linecap="round" stroke-linejoin="round"/>
<path d="M14.6673 5.1V7.9C14.6673 10.2333 13.734 11.1667 11.4007 11.1667H10.6673V9.1C10.6673 6.76667 9.73398 5.83334 7.40065 5.83334H5.33398V5.1C5.33398 2.76667 6.26732 1.83334 8.60065 1.83334H11.4007C13.734 1.83334 14.6673 2.76667 14.6673 5.1Z" stroke="#33C4AC" stroke-width="1.5" stroke-linecap="round" stroke-linejoin="round"/>
</svg>
