<svg width="24" height="24" viewBox="0 0 24 24" fill="none" xmlns="http://www.w3.org/2000/svg">
<path d="M2 9C2 4 4 2 9 2H14" stroke="#33C4AC" stroke-width="1.5" stroke-linecap="round" stroke-linejoin="round"/>
<path d="M22 10V15C22 20 20 22 15 22H9C4 22 2 20 2 15V12.98" stroke="#33C4AC" stroke-width="1.5" stroke-linecap="round" stroke-linejoin="round"/>
<path d="M18 10C15 10 14 9 14 6V2L22 10" stroke="#33C4AC" stroke-width="1.5" stroke-linecap="round" stroke-linejoin="round"/>
<path d="M10.8113 19.7045L10.8114 19.7046L10.8163 19.6997L12.9038 17.6122C13.1027 17.4133 13.1027 17.0866 12.9038 16.8877C12.7049 16.6888 12.3782 16.6888 12.1793 16.8877L10.0918 18.9752C9.89284 19.1741 9.89284 19.5008 10.0918 19.6997C10.1938 19.8017 10.3247 19.85 10.454 19.85C10.5893 19.85 10.7159 19.7935 10.8113 19.7045Z" fill="#33C4AC" stroke="#33C4AC" stroke-width="0.4"/>
<path d="M5.45898 17.7584H12.5423C12.8236 17.7584 13.0548 17.5272 13.0548 17.2459C13.0548 16.9647 12.8236 16.7334 12.5423 16.7334H5.45898C5.17769 16.7334 4.94648 16.9647 4.94648 17.2459C4.94648 17.5272 5.17769 17.7584 5.45898 17.7584Z" fill="#33C4AC" stroke="#33C4AC" stroke-width="0.4"/>
<path d="M5.09569 15.1164C5.19767 15.2184 5.32859 15.2667 5.45794 15.2667C5.58935 15.2667 5.72379 15.2128 5.8202 15.1164L7.9077 13.0289C8.10664 12.83 8.10664 12.5033 7.9077 12.3044C7.70876 12.1055 7.38213 12.1055 7.18319 12.3044L5.09569 14.3919C4.89675 14.5908 4.89675 14.9175 5.09569 15.1164Z" fill="#33C4AC" stroke="#33C4AC" stroke-width="0.4"/>
<path d="M5.45898 15.2666H12.5423C12.8236 15.2666 13.0548 15.0353 13.0548 14.7541C13.0548 14.4728 12.8236 14.2416 12.5423 14.2416H5.45898C5.17769 14.2416 4.94648 14.4728 4.94648 14.7541C4.94648 15.0353 5.17769 15.2666 5.45898 15.2666Z" fill="#33C4AC" stroke="#33C4AC" stroke-width="0.4"/>
</svg>
