<svg width="25" height="24" viewBox="0 0 25 24" fill="none" xmlns="http://www.w3.org/2000/svg">
<path d="M22.4715 10.0415H21.666V10H12.666V14H18.3175C17.493 16.3285 15.2775 18 12.666 18C9.35252 18 6.66602 15.3135 6.66602 12C6.66602 8.6865 9.35252 6 12.666 6C14.1955 6 15.587 6.577 16.6465 7.5195L19.475 4.691C17.689 3.0265 15.3 2 12.666 2C7.14352 2 2.66602 6.4775 2.66602 12C2.66602 17.5225 7.14352 22 12.666 22C18.1885 22 22.666 17.5225 22.666 12C22.666 11.3295 22.597 10.675 22.4715 10.0415Z" fill="#FFC107"/>
<path d="M3.81836 7.3455L7.10386 9.755C7.99286 7.554 10.1459 6 12.6654 6C14.1949 6 15.5864 6.577 16.6459 7.5195L19.4744 4.691C17.6884 3.0265 15.2994 2 12.6654 2C8.82436 2 5.49336 4.1685 3.81836 7.3455Z" fill="#FF3D00"/>
<path d="M12.6662 22.0001C15.2492 22.0001 17.5962 21.0116 19.3707 19.4041L16.2757 16.7851C15.2379 17.5743 13.9699 18.0011 12.6662 18.0001C10.0652 18.0001 7.85667 16.3416 7.02467 14.0271L3.76367 16.5396C5.41867 19.7781 8.77967 22.0001 12.6662 22.0001Z" fill="#4CAF50"/>
<path d="M22.4715 10.0415H21.666V10H12.666V14H18.3175C17.9231 15.1082 17.2127 16.0766 16.274 16.7855L16.2755 16.7845L19.3705 19.4035C19.1515 19.6025 22.666 17 22.666 12C22.666 11.3295 22.597 10.675 22.4715 10.0415Z" fill="#1976D2"/>
</svg>
