<svg width="56" height="56" viewBox="0 0 56 56" fill="none" xmlns="http://www.w3.org/2000/svg">
<rect width="56" height="56" rx="12" fill="#F7F7F7"/>
<g clip-path="url(#clip0_3_59297)">
<path d="M18.6905 28C18.6905 26.984 18.8638 26.0093 19.1705 25.096L13.7865 21.0693C12.7048 23.2193 12.143 25.5932 12.1465 28C12.1465 30.4907 12.7358 32.84 13.7838 34.9253L19.1652 30.892C18.8514 29.9601 18.6911 28.9833 18.6905 28Z" fill="#FBBC05"/>
<path d="M28.1471 18.756C30.4004 18.756 32.4364 19.5373 34.0364 20.8173L38.6911 16.2666C35.8551 13.8493 32.2191 12.356 28.1471 12.356C21.8244 12.356 16.3898 15.896 13.7871 21.0693L19.1738 25.096C20.4138 21.408 23.9498 18.756 28.1471 18.756Z" fill="#EA4335"/>
<path d="M28.1471 37.2441C23.9484 37.2441 20.4124 34.5921 19.1711 30.9041L13.7871 34.9307C16.3884 40.1041 21.8231 43.6441 28.1471 43.6441C32.0484 43.6441 35.7738 42.2881 38.5711 39.7454L33.4591 35.8761C32.0178 36.7654 30.2018 37.2441 28.1458 37.2441" fill="#34A853"/>
<path d="M43.4179 28C43.4179 27.076 43.2712 26.08 43.0539 25.156H28.1445V31.2H36.7259C36.2979 33.2613 35.1299 34.8453 33.4592 35.876L38.5699 39.7453C41.5072 37.076 43.4179 33.1 43.4179 28Z" fill="#4285F4"/>
</g>
<defs>
<clipPath id="clip0_3_59297">
<rect width="32" height="32" fill="white" transform="translate(12 12)"/>
</clipPath>
</defs>
</svg>
