<svg width="20" height="20" viewBox="0 0 20 20" fill="none" xmlns="http://www.w3.org/2000/svg">
<path fill-rule="evenodd" clip-rule="evenodd" d="M7.52479 2.78642C9.15283 2.40453 10.8472 2.40453 12.4752 2.78642C14.8263 3.33791 16.6621 5.17368 17.2136 7.52479C17.5955 9.15283 17.5955 10.8472 17.2136 12.4752C16.6621 14.8263 14.8263 16.6621 12.4752 17.2136C10.8472 17.5955 9.15283 17.5955 7.52479 17.2136C5.17368 16.6621 3.33791 14.8263 2.78642 12.4752C2.40453 10.8472 2.40453 9.15283 2.78642 7.52479C3.33791 5.17368 5.17368 3.33791 7.52479 2.78642ZM9.99998 8.4045C10.4406 8.4045 10.7977 8.04734 10.7977 7.60676C10.7977 7.16618 10.4406 6.80902 9.99998 6.80902C9.5594 6.80902 9.20224 7.16618 9.20224 7.60676C9.20224 8.04734 9.5594 8.4045 9.99998 8.4045ZM9.99998 9.0028C10.3304 9.0028 10.5983 9.27068 10.5983 9.60111V12.7921C10.5983 13.1225 10.3304 13.3904 9.99998 13.3904C9.66954 13.3904 9.40167 13.1225 9.40167 12.7921V9.60111C9.40167 9.27068 9.66954 9.0028 9.99998 9.0028Z" fill="#363853"/>
</svg>
