<svg width="24" height="24" viewBox="0 0 24 24" fill="none" xmlns="http://www.w3.org/2000/svg">
<path d="M16.2388 7.69256L12.004 2.09256V2L7.79248 7.78512L1.05859 10.0992L5.23545 15.8843L5.36272 23L12.004 20.8248H12.085L18.9462 22.8264V15.7107L23.0305 9.86777L16.2388 7.69256Z" fill="#33C4AC"/>
<path d="M5.17578 15.8615L11.9444 12.4946L12.0022 20.8251L5.30305 22.9772L5.17578 15.8615Z" fill="#33C4AC"/>
<path d="M7.73388 7.76251L11.9455 12.4947L5.17686 15.8617L1 10.0881L7.73388 7.76251Z" fill="#33C4AC"/>
<path d="M16.2385 7.69305L11.9459 12.4947L7.73438 7.76247L11.9459 2.01205L16.2385 7.69305Z" fill="#33C4AC"/>
<path d="M23.0065 9.91472L18.9222 15.7577L11.9453 12.4949L16.2379 7.69324L23.0065 9.91472Z" fill="#2AB19B"/>
<path d="M11.9453 12.4946L12.0032 20.8251L18.899 22.8731L18.9222 15.7574L11.9453 12.4946Z" fill="#33C4AC"/>
<path d="M11.946 12.4946L5.30469 22.9772L12.0039 20.8251L11.946 12.4946Z" fill="#29B29B"/>
<path d="M11.9455 12.4937L1 10.0871L5.17686 15.8607L11.9455 12.4937Z" fill="#29B29B"/>
<path d="M11.9459 2.01205V12.4947L7.73438 7.76247L11.9459 2.01205Z" fill="#2AB19B"/>
<path d="M11.9453 12.4949L16.2379 7.69324L23.0065 9.91472L11.9453 12.4949Z" fill="#33C4AC"/>
<path d="M11.9453 12.4944L18.899 22.873L12.0032 20.825L11.9453 12.4944Z" fill="#33C4AC"/>
</svg>
