<svg width="39" height="39" viewBox="0 0 39 39" fill="none" xmlns="http://www.w3.org/2000/svg">
<rect x="1.1431" y="0.893096" width="36.7134" height="36.7134" rx="18.3567" stroke="#E2E2E2" stroke-width="0.895449"/>
<path d="M19.3921 25.8127C19.3921 25.471 19.6754 25.1877 20.0171 25.1877L22.7837 25.1877C23.817 25.1877 24.6587 24.346 24.6587 23.3127L24.6587 11.7793C24.6587 11.4376 24.942 11.1543 25.2837 11.1543C25.6254 11.1543 25.9087 11.4376 25.9087 11.7793L25.9087 23.3127C25.9087 25.0377 24.5087 26.4377 22.7837 26.4377L20.0171 26.4377C19.6671 26.4377 19.3921 26.1543 19.3921 25.8127Z" fill="#292D32"/>
<path d="M22.0171 14.4126C22.0171 14.2543 22.0755 14.096 22.2005 13.971L24.8338 11.3376C24.9505 11.221 25.1088 11.1543 25.2755 11.1543C25.4422 11.1543 25.6005 11.221 25.7171 11.3376L28.3505 13.971C28.5922 14.2126 28.5922 14.6126 28.3505 14.8543C28.1088 15.096 27.7088 15.096 27.4671 14.8543L25.2755 12.6627L23.0838 14.8543C22.8421 15.096 22.4421 15.096 22.2005 14.8543C22.0838 14.7293 22.0171 14.571 22.0171 14.4126Z" fill="#292D32"/>
<path d="M13.2499 25.8127L13.2499 14.2793C13.2499 12.5543 14.6499 11.1543 16.3749 11.1543L19.1416 11.1543C19.4833 11.1543 19.7666 11.4376 19.7666 11.7793C19.7666 12.121 19.4833 12.4043 19.1416 12.4043L16.3749 12.4043C15.3416 12.4043 14.4999 13.246 14.4999 14.2793L14.4999 25.8127C14.4999 26.1543 14.2166 26.4377 13.8749 26.4377C13.5333 26.4377 13.2499 26.1543 13.2499 25.8127Z" fill="#292D32"/>
<path d="M10.6173 23.1793C10.6173 23.021 10.6756 22.8626 10.8006 22.7376C11.0422 22.496 11.4423 22.496 11.684 22.7376L13.8756 24.9293L16.0673 22.7376C16.3089 22.496 16.7089 22.496 16.9506 22.7376C17.1923 22.9793 17.1923 23.3793 16.9506 23.621L14.3173 26.2543C14.2006 26.371 14.0423 26.4376 13.8756 26.4376C13.7089 26.4376 13.5506 26.371 13.4339 26.2543L10.8006 23.621C10.6756 23.5043 10.6173 23.346 10.6173 23.1793Z" fill="#292D32"/>
</svg>
